<?xml version="1.0" encoding="utf-8"?>
<!-- Generator: Adobe Illustrator 19.0.0, SVG Export Plug-In . SVG Version: 6.00 Build 0)  -->
<svg version="1.1" id="Layer_1" xmlns="http://www.w3.org/2000/svg" xmlns:xlink="http://www.w3.org/1999/xlink" x="0px" y="0px"
	 viewBox="0 0 48 48" style="enable-background:new 0 0 48 48;" xml:space="preserve">
<style type="text/css">
	.st0{fill:#CFD8DC;}
</style>
<g id="XMLID_31_">
	<path id="XMLID_69_" class="st0" d="M24,2c12.1,0,22,9.9,22,22s-9.9,22-22,22S2,36.1,2,24S11.9,2,24,2 M24,0C10.7,0,0,10.7,0,24
		s10.7,24,24,24s24-10.7,24-24S37.3,0,24,0L24,0z"/>
</g>
<rect id="XMLID_1_" x="22.8" y="13" class="st0" width="3" height="15.3"/>
<polygon id="XMLID_3_" class="st0" points="24.3,24 30,24 27.2,28.9 24.3,33.9 21.4,29 18.6,24 "/>
<rect id="XMLID_4_" x="17" y="33" class="st0" width="15" height="2"/>
</svg>
