<?xml version="1.0" encoding="utf-8"?>
<!-- Generator: Adobe Illustrator 19.0.0, SVG Export Plug-In . SVG Version: 6.00 Build 0)  -->
<svg version="1.1" id="Layer_1" xmlns="http://www.w3.org/2000/svg" xmlns:xlink="http://www.w3.org/1999/xlink" x="0px" y="0px"
	 viewBox="0 0 48 48" style="enable-background:new 0 0 48 48;" xml:space="preserve">
<style type="text/css">
	.st0{fill:#FF9100;}
</style>
<g id="XMLID_31_">
	<path id="XMLID_70_" class="st0" d="M24,2c12.1,0,22,9.9,22,22s-9.9,22-22,22S2,36.1,2,24S11.9,2,24,2 M24,0C10.7,0,0,10.7,0,24
		s10.7,24,24,24s24-10.7,24-24S37.3,0,24,0L24,0z"/>
</g>
<g id="XMLID_3_">
	<path id="XMLID_4_" class="st0" d="M22.9,29.5c0-0.4,0-0.6,0-0.8c0-1,0.1-1.9,0.4-2.7c0.2-0.6,0.6-1.1,1-1.7c0.4-0.4,1-1,1.9-1.8
		s1.5-1.4,1.8-1.9s0.4-1,0.4-1.6c0-1-0.4-1.9-1.2-2.7s-1.8-1.2-2.9-1.2c-1.1,0-2.1,0.4-2.8,1.1S20.3,18,20,19.5l-2.7-0.3
		c0.2-2,1-3.5,2.2-4.6s2.8-1.6,4.8-1.6c2.1,0,3.8,0.6,5,1.7s1.9,2.5,1.9,4.1c0,0.9-0.2,1.8-0.7,2.6s-1.3,1.8-2.6,2.9
		c-0.9,0.8-1.4,1.3-1.7,1.7s-0.5,0.8-0.6,1.2s-0.2,1.2-0.2,2.3H22.9z M22.8,34.8v-3h3v3H22.8z"/>
</g>
</svg>
