<?xml version="1.0" encoding="utf-8"?>
<!-- Generator: Adobe Illustrator 19.0.0, SVG Export Plug-In . SVG Version: 6.00 Build 0)  -->
<svg version="1.1" id="Layer_1" xmlns="http://www.w3.org/2000/svg" xmlns:xlink="http://www.w3.org/1999/xlink" x="0px" y="0px"
	 viewBox="0 0 16 16" style="enable-background:new 0 0 16 16;" xml:space="preserve">
<style type="text/css">
	.st0{fill:#D0D8DC;}
</style>
<path class="st0" d="M14.6,2.4H1.4c-0.5,0-0.9-0.4-0.9-1l0,0c0-0.5,0.4-0.9,0.9-0.9h13.1c0.5,0,0.9,0.4,0.9,0.9l0,0
	C15.5,2,15.1,2.4,14.6,2.4z"/>
<path class="st0" d="M14.6,15.5H1.4c-0.5,0-0.9-0.4-0.9-0.9l0,0c0-0.5,0.4-0.9,0.9-0.9h13.1c0.5,0,0.9,0.4,0.9,0.9l0,0
	C15.5,15.1,15.1,15.5,14.6,15.5z"/>
<path class="st0" d="M14.6,8.9H1.4C0.9,8.9,0.5,8.5,0.5,8l0,0c0-0.5,0.4-0.9,0.9-0.9h13.1c0.5,0,0.9,0.4,0.9,0.9l0,0
	C15.5,8.5,15.1,8.9,14.6,8.9z"/>
</svg>
