<?xml version="1.0" encoding="utf-8"?>
<!-- Generator: Adobe Illustrator 19.0.0, SVG Export Plug-In . SVG Version: 6.00 Build 0)  -->
<svg version="1.1" id="Layer_1" xmlns="http://www.w3.org/2000/svg" xmlns:xlink="http://www.w3.org/1999/xlink" x="0px" y="0px"
	 viewBox="0 0 82.8 100" style="enable-background:new 0 0 82.8 100;" xml:space="preserve">
<style type="text/css">
	.st0{fill:#FFFFFF;}
	.st1{fill:#FFAB00;}
	.st2{fill:#FF9100;}
	.st3{fill:#FF6D00;}
</style>
<path id="XMLID_8_" class="st0" d="M62.8,13.6c2.4,1.2,4.8,2.3,7.2,3.5c1.9,5.6,3.8,11.1,5.8,16.7L56.2,49.6l20,14.3
	c-1.8,2.8-4.1,5.9-7.3,8.9c-0.7,0.7-1.5,1.4-2.2,2C60.1,72.8,53.5,70.9,47,69l-8.4,28.2L24.5,83.1c0.8-5.5,1.6-17.3-3.5-30.7
	C15.7,38.6,7,30.3,2.7,26.7c0.8-2.1,1.9-4.6,3.6-7.3c1.6-2.6,3.4-4.7,4.9-6.3c4.3,11.2,15.1,18.4,26.8,18
	C48.9,30.8,58.7,23.9,62.8,13.6z"/>
<circle id="XMLID_7_" class="st0" cx="36.6" cy="15.5" r="14"/>
<path id="XMLID_4_" class="st1" d="M25.2,11.3C27.5,5,34.5,1.7,40.9,4c6.4,2.3,9.7,9.3,7.4,15.7C46,26,39,29.3,32.6,27
	C26.2,24.7,22.9,17.7,25.2,11.3 M19.8,27.5c6.8,6.1,19.6,13.9,37.4-2.5l4.5-4.6c1.9-1.9,5-2,6.9-0.2c2,1.7,2.1,4.7,0.2,6.5l-6.8,7
	c-5.6,6.7-14.6,16.7-2.5,24.6l14.9,7.2c0.2,0.1,0.4,0.2,0.5,0.3c11.8-16.2,10.5-39.1-4.2-53.7C54.5-4,28.3-4,12.1,12.1
	c-1.5,1.5-2.8,3-4,4.6C10.3,18.8,17.8,25.8,19.8,27.5"/>
<path id="XMLID_3_" class="st2" d="M39.4,74.1l-1.6,22.3c0,0,0,0,0,0.1c2.2,2.2,3.6,3.6,3.6,3.6s20.2-20.2,27-27
	C60.5,68.4,40.6,56.7,39.4,74.1"/>
<path id="XMLID_2_" class="st3" d="M28,84.7c-0.4-27.8-5.7-39.2-16.1-51.1l-8.6-8.2c-6.4,15.1-3.4,33.1,8.9,45.4
	c0.1,0.1,8.2,8.2,15.9,15.9L28,84.7z"/>
</svg>
