<?xml version="1.0" encoding="utf-8"?>
<!-- Generator: Adobe Illustrator 19.0.0, SVG Export Plug-In . SVG Version: 6.00 Build 0)  -->
<svg version="1.1" id="Layer_1" xmlns="http://www.w3.org/2000/svg" xmlns:xlink="http://www.w3.org/1999/xlink" x="0px" y="0px"
	 viewBox="0 0 32 32" style="enable-background:new 0 0 32 32;" xml:space="preserve">
<style type="text/css">
	.st0{fill:#455A64;}
</style>
<g id="XMLID_1_">
	<path id="XMLID_22_" class="st0" d="M16,1c8.3,0,15,6.7,15,15s-6.7,15-15,15S1,24.3,1,16S7.7,1,16,1 M16,0C7.2,0,0,7.2,0,16
		s7.2,16,16,16s16-7.2,16-16S24.8,0,16,0L16,0z"/>
</g>
<path id="XMLID_87_" class="st0" d="M24,20.2v-7.1c0,0-7.3,5-8,5.2c-0.7-0.3-8-5.2-8-5.2v7.1c0,1,0.2,1.2,1.2,1.2h13.6
	C23.8,21.3,24,21.2,24,20.2z M24,11.6c0-0.7-0.2-1-1.2-1H9.2c-1,0-1.2,0.3-1.2,1.1v0.1c0,0,7.2,4.9,8,5.2C16.8,16.7,24,11.7,24,11.6
	L24,11.6z"/>
</svg>
