<?xml version="1.0" encoding="utf-8"?>
<!-- Generator: Adobe Illustrator 19.0.0, SVG Export Plug-In . SVG Version: 6.00 Build 0)  -->
<svg version="1.1" id="Layer_1" xmlns="http://www.w3.org/2000/svg" xmlns:xlink="http://www.w3.org/1999/xlink" x="0px" y="0px"
	 viewBox="0 0 32 32" style="enable-background:new 0 0 32 32;" xml:space="preserve">
<style type="text/css">
	.st0{fill:#FFFFFF;}
</style>
<path id="XMLID_87_" class="st0" d="M25,20.7v-8c0,0-8.2,5.6-9,5.9c-0.8-0.3-9-5.9-9-5.9v8C7,21.8,7.2,22,8.3,22h15.3
	C24.8,22,25,21.8,25,20.7z M25,11.1c0-0.8-0.2-1.1-1.3-1.1H8.3C7.2,10,7,10.3,7,11.2l0,0.1c0,0,8.1,5.5,9,5.8
	C16.9,16.8,25,11.2,25,11.1L25,11.1z"/>
</svg>
