<?xml version="1.0" encoding="utf-8"?>
<!-- Generator: Adobe Illustrator 19.0.0, SVG Export Plug-In . SVG Version: 6.00 Build 0)  -->
<svg version="1.1" id="Layer_1" xmlns="http://www.w3.org/2000/svg" xmlns:xlink="http://www.w3.org/1999/xlink" x="0px" y="0px"
	 viewBox="0 0 32 32" style="enable-background:new 0 0 32 32;" xml:space="preserve">
<style type="text/css">
	.st0{fill:#FFFFFF;}
</style>
<g>
	<path id="XMLID_16_" class="st0" d="M15.3,8.4c0.4-0.2,0.7-0.3,0.9-0.3C16.6,8,17,8,17.4,8H20v2.9h-1.9c-0.2,0-0.3,0.1-0.5,0.2
		c-0.1,0.1-0.3,0.3-0.3,0.4v1.8h2.6c0,0.3-0.1,0.7-0.1,1l-0.1,0.9c-0.1,0.3-0.1,0.6-0.1,0.8h-2.4V24h-3.5v-8.1H12v-2.7h1.7V11
		c0-0.3,0.1-1.1,0.6-1.8C14.7,8.7,15.1,8.5,15.3,8.4z"/>
</g>
</svg>
