<?xml version="1.0" encoding="utf-8"?>
<!-- Generator: Adobe Illustrator 19.0.0, SVG Export Plug-In . SVG Version: 6.00 Build 0)  -->
<svg version="1.1" xmlns="http://www.w3.org/2000/svg" xmlns:xlink="http://www.w3.org/1999/xlink" x="0px" y="0px"
	 viewBox="0 0 638 574" style="enable-background:new 0 0 638 574;" xml:space="preserve">
<style type="text/css">
	.st0{fill:#4DB6AC;}
	.st1{fill:#FFEE58;}
	.st2{fill:#FFFFFF;}
	.st3{fill:#FAFAFA;}
	.st4{fill:#00838F;}
	.st5{fill:#C6FF00;}
	.st6{fill:#A1887F;}
	.st7{fill:#B2FF59;}
	.st8{fill:#64DD17;}
	.st9{fill:#76FF03;}
	.st10{fill:#263238;}
	.st11{fill:#607D8B;}
	.st12{fill:#FB8C00;}
	.st13{fill:#FFA726;}
	.st14{opacity:0.1;fill:#212121;}
	.st15{fill:#455A64;}
	.st16{fill:#FF6D00;}
	.st17{fill:#FF9800;}
	.st18{fill:#FF5722;}
	.st19{fill:#BDBDBD;}
	.st20{fill:#757575;}
	.st21{fill:#BF360C;}
	.st22{fill:#90A4AE;}
	.st23{fill:#78909C;}
	.st24{fill:#FFC400;}
	.st25{fill:#F4511E;}
	.st26{fill:#D84315;}
	.st27{fill:#FFAB00;}
	.st28{fill:#FFF3E0;}
	.st29{fill:#E0E0E0;}
	.st30{fill:#EF6C00;}
	.st31{fill:#E64A19;}
</style>
<g id="BG">
	<circle id="XMLID_783_" class="st0" cx="324.5" cy="322" r="251.1"/>
	<path id="XMLID_782_" class="st1" d="M576,322H73C73,182.8,185.6,70.5,324.5,70.5S576,182.8,576,322z"/>
</g>
<g id="BG2">
	<path id="XMLID_600_" class="st0" d="M562.6,473.8H454.8c-9,0-16.4-7.4-16.4-16.4v0c0-9,7.4-16.4,16.4-16.4h107.8
		c9,0,16.4,7.4,16.4,16.4v0C579.1,466.4,571.7,473.8,562.6,473.8z"/>
	<path id="XMLID_599_" class="st0" d="M521.3,511.1H413.5c-9,0-16.4-7.4-16.4-16.4v0c0-9,7.4-16.4,16.4-16.4h107.8
		c9,0,16.4,7.4,16.4,16.4v0C537.7,503.7,530.3,511.1,521.3,511.1z"/>
	<path id="XMLID_598_" class="st0" d="M621.1,473.8h-16.4c-9,0-16.4-7.4-16.4-16.4v0c0-9,7.4-16.4,16.4-16.4h16.4
		c9,0,16.4,7.4,16.4,16.4v0C637.6,466.4,630.2,473.8,621.1,473.8z"/>
	<path id="XMLID_596_" class="st1" d="M473.1,152.7h71.3c5.5,0,10,4.5,10,10v1.6c0,5.5-4.5,10-10,10h-71.3c-5.5,0-10-4.5-10-10v-1.6
		C463,157.2,467.5,152.7,473.1,152.7z"/>
	<path id="XMLID_595_" class="st1" d="M490.6,127.6h9c5.5,0,10,4.5,10,10v0c0,5.5-4.5,10-10,10h-9c-5.5,0-10-4.5-10-10v0
		C480.6,132.1,485.1,127.6,490.6,127.6z"/>
	<path id="XMLID_594_" class="st1" d="M526.4,127.6L526.4,127.6c5.5,0,10,4.5,10,10v0c0,5.5-4.5,10-10,10l0,0c-5.5,0-10-4.5-10-10v0
		C516.3,132.1,520.8,127.6,526.4,127.6z"/>
</g>
<g id="Clouds">
	<g id="XMLID_614_">
		<path id="XMLID_617_" class="st2" d="M184.1,190.1h85c0-23-19-42.5-42.5-42.5S184.1,167.1,184.1,190.1z"/>
		<path id="XMLID_616_" class="st2" d="M138.4,190.1h63.7c0-18-14.3-31.9-31.9-31.9S138.4,172.1,138.4,190.1z"/>
		<path id="XMLID_615_" class="st2" d="M115.3,190.1h28.8c0-8-6.4-14.4-14.4-14.4S115.3,182.1,115.3,190.1z"/>
	</g>
	<g id="XMLID_605_">
		<path id="XMLID_613_" class="st3" d="M498.9,263.1h128.5c0-35-28.8-64.3-64.3-64.3S498.9,228.1,498.9,263.1z"/>
		<path id="XMLID_612_" class="st3" d="M429.8,263.1h96.4c0-27-21.6-48.2-48.2-48.2C451.4,214.9,429.8,236.1,429.8,263.1z"/>
		<path id="XMLID_606_" class="st3" d="M394.8,263.1h43.6c0-13-9.7-21.8-21.8-21.8S394.8,250.1,394.8,263.1z"/>
	</g>
</g>
<g id="Trees">
	<g id="XMLID_28_">
		<ellipse id="XMLID_619_" class="st4" cx="142.9" cy="405.8" rx="26.7" ry="4.5"/>
		<g id="XMLID_602_">
			<circle id="XMLID_604_" class="st5" cx="141.9" cy="214.6" r="85.4"/>
			<polygon id="XMLID_603_" class="st6" points="139.2,405.8 146.1,405.8 146.2,246.4 171.1,232.8 171.1,225 146.3,238.5 
				146.2,207.6 177.8,185.8 177.9,177.9 146.2,198.5 146.1,156.2 138.6,156.2 138.6,167.1 121.5,152.7 121.4,159.2 138.6,174.9 
				138.7,207.1 107.8,180.8 107.8,190.8 138.7,218.9 138.8,250.7 109.6,226.1 109.6,236.3 138.6,260.3 			"/>
		</g>
		<g id="XMLID_27_">
			<path id="XMLID_601_" class="st7" d="M519.9,369.1h-78.1c0-21.5,17.5-39.1,39.1-39.1C502.4,330.1,519.9,347.6,519.9,369.1z"/>
			<path id="XMLID_591_" class="st8" d="M529.9,369.1h-58.1c0-16,13-29,29-29S529.9,353.1,529.9,369.1z"/>
			<path id="XMLID_590_" class="st9" d="M492.8,369.1h-37c0-10,8.3-18.5,18.5-18.5S492.8,359.1,492.8,369.1z"/>
		</g>
	</g>
	<path id="XMLID_597_" class="st5" d="M10,203.8h71.3c5.5,0,10,4.5,10,10v1.6c0,5.5-4.5,10-10,10H10c-5.5,0-10-4.5-10-10l0-1.6
		C0,208.3,4.5,203.8,10,203.8z"/>
	<path id="XMLID_593_" class="st5" d="M55,172.9h26.1c5.5,0,10,4.5,10,10v0c0,5.5-4.5,10-10,10H55c-5.5,0-10-4.5-10-10v0
		C45,177.4,49.5,172.9,55,172.9z"/>
	<path id="XMLID_592_" class="st5" d="M30.1,172.9L30.1,172.9c5.5,0,10,4.5,10,10v0c0,5.5-4.5,10-10,10h0c-5.5,0-10-4.5-10-10v0
		C20,177.4,24.6,172.9,30.1,172.9z"/>
</g>
<g id="Character">
	<path id="XMLID_589_" class="st10" d="M301.3,47.8V20.9c0-3.3,2.7-6,6-6l0,0c3.3,0,6,2.7,6,6v26.9c0,3.3-2.7,6-6,6l0,0
		C304,53.8,301.3,51.1,301.3,47.8z"/>
	<g id="XMLID_585_">
		<circle id="XMLID_588_" class="st11" cx="266.2" cy="211.3" r="12.8"/>
		<circle id="XMLID_587_" class="st11" cx="296.2" cy="154.8" r="12.8"/>
		
			<rect id="XMLID_586_" x="249.3" y="170.3" transform="matrix(0.4687 -0.8834 0.8834 0.4687 -12.3106 345.6841)" class="st11" width="63.9" height="25.6"/>
	</g>
	<rect id="XMLID_584_" x="319.3" y="107.6" class="st12" width="25.2" height="35.9"/>
	<path id="XMLID_583_" class="st13" d="M331.2,113.6L331.2,113.6c-16.4,0-29.9-13.5-29.9-29.9V47.8c0-16.4,13.5-29.9,29.9-29.9h0
		c16.4,0,29.9,13.5,29.9,29.9v35.9C361.1,100.1,347.7,113.6,331.2,113.6z"/>
	<path id="XMLID_582_" class="st14" d="M331.2,113.6L331.2,113.6l0-95.7h0c16.4,0,29.9,13.5,29.9,29.9v35.9
		C361.1,100.1,347.7,113.6,331.2,113.6z"/>
	<path id="XMLID_581_" class="st15" d="M343.2,281h-23.9c-19.7,0-35.9-16.1-35.9-35.9v-83.7c0-19.7,16.1-35.9,35.9-35.9h23.9
		c19.7,0,35.9,16.1,35.9,35.9v83.7C379,264.8,362.9,281,343.2,281z"/>
	<path id="XMLID_580_" class="st11" d="M319.3,125.5h12V281h-12c-19.7,0-35.9-16.1-35.9-35.9v-83.7
		C283.4,141.7,299.5,125.5,319.3,125.5z"/>
	<path id="XMLID_579_" class="st11" d="M343.2,245.1h-59.8v-83.7c0-19.7,16.1-35.9,35.9-35.9h23.9V245.1z"/>
	<rect id="XMLID_578_" x="301.3" y="269" class="st11" width="23.9" height="209.2"/>
	<rect id="XMLID_577_" x="337.2" y="269" class="st15" width="23.9" height="209.2"/>
	<g id="XMLID_572_">
		<path id="XMLID_576_" class="st16" d="M371,471.5h13.5c0-7.5-6.1-13.5-13.5-13.5C371,458,371,464,371,471.5z"/>
		<rect id="XMLID_575_" x="357.5" y="458" class="st16" width="13.5" height="13.5"/>
		<rect id="XMLID_574_" x="337.2" y="458" class="st16" width="20.3" height="13.5"/>
		<rect id="XMLID_573_" x="337.2" y="471.5" class="st16" width="47.3" height="6.8"/>
	</g>
	<g id="XMLID_567_">
		<path id="XMLID_571_" class="st17" d="M291.4,471.5h-13.5c0-7.5,6.1-13.5,13.5-13.5C291.4,458,291.4,464,291.4,471.5z"/>
		<rect id="XMLID_570_" x="291.4" y="458" class="st17" width="13.5" height="13.5"/>
		<rect id="XMLID_569_" x="304.9" y="458" class="st17" width="20.3" height="13.5"/>
		<rect id="XMLID_568_" x="277.9" y="471.5" class="st17" width="47.3" height="6.8"/>
	</g>
	<rect id="XMLID_566_" x="317.2" y="125.5" class="st3" width="28" height="119.6"/>
	<rect id="XMLID_565_" x="325.2" y="125.5" class="st18" width="12" height="98.6"/>
	<g id="XMLID_562_">
		<circle id="XMLID_564_" class="st15" cx="361.1" cy="149.5" r="12"/>
		
			<rect id="XMLID_563_" x="353.1" y="160.9" transform="matrix(0.7914 0.6113 -0.6113 0.7914 187.293 -203.1937)" class="st15" width="76.5" height="23.9"/>
	</g>
	<g id="XMLID_559_">
		<circle id="XMLID_561_" class="st11" cx="420.9" cy="197.3" r="12"/>
		<rect id="XMLID_560_" x="408.9" y="113.6" class="st11" width="23.9" height="83.7"/>
	</g>
	<path id="XMLID_558_" class="st10" d="M420.9,107.6h-17.9c-3.3,0-6-2.7-6-6V53.8c0-3.3,2.7-6,6-6h17.9c3.3,0,6,2.7,6,6v47.8
		C426.9,104.9,424.2,107.6,420.9,107.6z"/>
	<path id="XMLID_557_" class="st19" d="M420.2,57.8H404c-1.5,0-2.7-1.2-2.7-2.7v0c0-1.5,1.2-2.7,2.7-2.7h16.2c1.5,0,2.7,1.2,2.7,2.7
		v0C422.9,56.6,421.7,57.8,420.2,57.8z"/>
	<circle id="XMLID_556_" class="st20" cx="412.1" cy="55.1" r="1.6"/>
	<g id="XMLID_542_">
		<g id="XMLID_552_">
			<circle id="XMLID_555_" class="st2" cx="420.9" cy="107.6" r="12"/>
			<circle id="XMLID_554_" class="st2" cx="420.9" cy="119.6" r="12"/>
			<rect id="XMLID_553_" x="408.9" y="107.6" class="st2" width="23.9" height="12"/>
		</g>
		<g id="XMLID_548_">
			<circle id="XMLID_551_" class="st12" cx="420.9" cy="101.6" r="12"/>
			<circle id="XMLID_550_" class="st12" cx="420.9" cy="113.6" r="12"/>
			<rect id="XMLID_549_" x="408.9" y="101.6" class="st12" width="23.9" height="12"/>
		</g>
		<g id="XMLID_543_">
			<path id="XMLID_547_" class="st13" d="M427.9,87.7H398c-2.7,0-5-2.2-5-5v0c0-2.7,2.2-5,5-5h29.9c2.7,0,5,2.2,5,5v0
				C432.8,85.4,430.6,87.7,427.9,87.7z"/>
			<path id="XMLID_546_" class="st13" d="M422.9,102.6V82.7c0-2.7,2.2-5,5-5l0,0c2.7,0,5,2.2,5,5v19.9c0,2.7-2.2,5-5,5l0,0
				C425.1,107.6,422.9,105.4,422.9,102.6z"/>
			<path id="XMLID_545_" class="st13" d="M427.9,97.6H398c-2.7,0-5-2.2-5-5v0c0-2.7,2.2-5,5-5h29.9c2.7,0,5,2.2,5,5v0
				C432.8,95.4,430.6,97.6,427.9,97.6z"/>
			<path id="XMLID_544_" class="st13" d="M427.9,107.6h-19.9c-2.7,0-5-2.2-5-5v0c0-2.7,2.2-5,5-5h19.9c2.7,0,5,2.2,5,5v0
				C432.8,105.4,430.6,107.6,427.9,107.6z"/>
		</g>
	</g>
	<rect id="XMLID_541_" x="283.4" y="245.1" class="st21" width="95.7" height="6"/>
	<rect id="XMLID_540_" x="289.4" y="203.3" class="st11" width="23.9" height="41.8"/>
	<path id="XMLID_539_" class="st22" d="M364.1,239.1L364.1,239.1c-1.7,0-3-1.3-3-3v-29.9c0-1.7,1.3-3,3-3h0c1.7,0,3,1.3,3,3v29.9
		C367.1,237.8,365.7,239.1,364.1,239.1z"/>
	<path id="XMLID_538_" class="st23" d="M298.3,239.1L298.3,239.1c-1.7,0-3-1.3-3-3v-29.9c0-1.7,1.3-3,3-3l0,0c1.7,0,3,1.3,3,3v29.9
		C301.3,237.8,300,239.1,298.3,239.1z"/>
	<rect id="XMLID_537_" x="325.2" y="245.1" class="st24" width="12" height="6"/>
	<path id="XMLID_536_" class="st2" d="M312.6,89.1v-5h15.9c0,0-0.4,5-7.6,5C313.6,89.1,312.6,89.1,312.6,89.1z"/>
	<path id="XMLID_535_" class="st10" d="M355.1,29.9h-47.8c-3.3,0-6-2.7-6-6v-1.8c0-3.3,2.7-6,6-6h47.8c3.3,0,6,2.7,6,6v1.8
		C361.1,27.2,358.4,29.9,355.1,29.9z"/>
	<path id="XMLID_534_" class="st10" d="M349.1,53.8V23.9c0-3.3,2.7-6,6-6l0,0c3.3,0,6,2.7,6,6v29.9c0,3.3-2.7,6-6,6l0,0
		C351.8,59.8,349.1,57.1,349.1,53.8z"/>
	<path id="XMLID_533_" class="st10" d="M318.6,29.9c-6,0-14.9-6.7-14.9-14.9S312.6,0,318.6,0V29.9z"/>
	
		<rect id="XMLID_532_" x="327" y="220" transform="matrix(0.7071 0.7071 -0.7071 0.7071 255.5299 -168.5407)" class="st18" width="8.5" height="8.5"/>
	<g id="XMLID_523_">
		<circle id="XMLID_531_" class="st11" cx="265.5" cy="292.9" r="12"/>
		<rect id="XMLID_530_" x="253.5" y="209.2" class="st11" width="23.9" height="83.7"/>
	</g>
	<path id="XMLID_519_" class="st25" d="M302.2,383.3h-74c-3.7,0-6.8-3-6.8-6.8v-52.1c0-3.7,3-6.8,6.8-6.8h74c3.7,0,6.8,3,6.8,6.8
		v52.1C309,380.2,305.9,383.3,302.2,383.3z"/>
	<path id="XMLID_518_" class="st26" d="M309,350.4h-87.5v-26c0-3.7,3-6.8,6.8-6.8h74c3.7,0,6.8,3,6.8,6.8V350.4z"/>
	<path id="XMLID_2_" class="st27" d="M274.9,301h-19.3c-3.7,0-6.6,3.3-6.6,7v10h5v-6.8c0-2.5,2.3-4.2,4.8-4.2h12.9
		c2.5,0,4.4,1.7,4.4,4.2v6.8h6v-10C282,304.3,278.6,301,274.9,301z"/>
	<path id="XMLID_515_" class="st24" d="M266.6,358.5h-2.8c-3.6,0-6.6-3-6.6-6.6V349c0-3.6,3-6.6,6.6-6.6h2.8c3.6,0,6.6,3,6.6,6.6
		v2.8C273.2,355.5,270.3,358.5,266.6,358.5z"/>
	<circle id="XMLID_513_" class="st12" cx="265.5" cy="304.9" r="12"/>
	<circle id="XMLID_512_" class="st28" cx="265.5" cy="287" r="12"/>
	<rect id="XMLID_511_" x="253.5" y="287.3" class="st28" width="23.9" height="11.6"/>
	<circle id="XMLID_510_" class="st12" cx="265.5" cy="292.9" r="12"/>
	<rect id="XMLID_509_" x="253.5" y="293.3" class="st12" width="23.9" height="11.6"/>
</g>
<g id="Bongos">
	<g id="XMLID_211_">
		<g id="XMLID_498_">
			<ellipse id="XMLID_506_" class="st3" cx="302.2" cy="423" rx="39.4" ry="7.6"/>
			<path id="XMLID_505_" class="st29" d="M341.7,423c0,4.2-17.7,7.6-39.4,7.6v-15.2C324,415.4,341.7,418.8,341.7,423z"/>
			<path id="XMLID_504_" class="st12" d="M262.8,422.5l-3.3,5.2l9.6,42.8v7.6c0,0,3.9,9.4,34.1,9.4c26.1,0,32.2-8.9,32.2-8.9
				l-0.3-9.1L344,428l-2.4-5.7c0,0-1.3,7.5-36.9,7.5C263,429.9,262.8,422.5,262.8,422.5z"/>
			<path id="XMLID_503_" class="st30" d="M302.2,487.9c26.1,0,33.2-8.9,33.2-8.9l-0.3-9.1l8.8-41.5l-2.4-5.7c0,0-3.8,7.1-39.3,7.1
				L302.2,487.9z"/>
			<path id="XMLID_502_" class="st18" d="M303.9,478.1c15.8,0,31.2-8.4,31.2-8.4l0.3,9.4c0,0-7.3,8.8-31.9,8.8
				c-29.8,0-34.4-9-34.4-9l0-8.5C269.2,470.4,288.1,478.1,303.9,478.1z"/>
			<path id="XMLID_501_" class="st18" d="M262.2,439.5c0,0,11.7,6.8,39.7,5.9c28-0.9,39.7-6,39.7-6l2.2-10.2c0,0-18,6.9-41.8,6.9
				c-27.9,0-41.9-6.9-41.9-6.9L262.2,439.5z"/>
			<path id="XMLID_500_" class="st31" d="M302.2,478.1c15.8,0,32.9-8.4,32.9-8.4l0.3,9.4c0,0-6.4,8.8-33.2,8.8L302.2,478.1z"/>
			<path id="XMLID_499_" class="st31" d="M302.2,445.5c28-0.9,39.3-6,39.3-6l2.2-10.2c0,0-17.7,6.9-41.5,6.9L302.2,445.5z"/>
		</g>
		<g id="XMLID_489_">
			<ellipse id="XMLID_497_" class="st3" cx="361.6" cy="423.5" rx="42.2" ry="8.1"/>
			<path id="XMLID_496_" class="st29" d="M403.7,423.5c0,4.5-18.9,8.1-42.2,8.1v-16.2C384.9,415.4,403.7,419,403.7,423.5z"/>
			<path id="XMLID_495_" class="st12" d="M319.5,423l-3.5,5.5l10.3,45.8v8.2c0,0,4.2,10,36.4,10c27.9,0,34.4-9.5,34.4-9.5l-0.3-9.7
				l9.5-44.4l-2.6-6.1c0,0-1.4,8-39.5,8C319.6,430.9,319.5,423,319.5,423z"/>
			<path id="XMLID_494_" class="st30" d="M361.6,492.9c27.9,0,35.5-9.5,35.5-9.5l-0.3-9.7l9.5-44.4l-2.6-6.1c0,0-4,7.6-42,7.6
				L361.6,492.9z"/>
			<path id="XMLID_493_" class="st18" d="M363.4,482.4c16.9,0,33.4-9,33.4-9l0.3,10c0,0-7.9,9.4-34.1,9.4c-31.8,0-36.8-9.6-36.8-9.6
				l0-9.1C326.2,474.2,346.5,482.4,363.4,482.4z"/>
			<path id="XMLID_492_" class="st18" d="M318.8,441.2c0,0,12.5,7.3,42.4,6.3c29.9-1,42.4-6.4,42.4-6.4l2.3-10.9
				c0,0-19.3,7.4-44.7,7.4c-29.8,0-44.8-7.4-44.8-7.4L318.8,441.2z"/>
			<path id="XMLID_491_" class="st31" d="M361.6,482.4c16.9,0,35.2-8.9,35.2-8.9l0.3,10c0,0-6.9,9.4-35.5,9.4L361.6,482.4z"/>
			<path id="XMLID_490_" class="st31" d="M361.6,447.5c29.9-1,42-6.4,42-6.4l2.3-10.9c0,0-18.9,7.4-44.4,7.4L361.6,447.5z"/>
		</g>
	</g>
</g>
</svg>
