<?xml version="1.0" encoding="utf-8"?>
<!-- Generator: Adobe Illustrator 19.0.0, SVG Export Plug-In . SVG Version: 6.00 Build 0)  -->
<svg version="1.1" id="Layer_1" xmlns="http://www.w3.org/2000/svg" xmlns:xlink="http://www.w3.org/1999/xlink" x="0px" y="0px"
	 viewBox="286 -245 591 511" style="enable-background:new 286 -245 591 511;" xml:space="preserve">
<style type="text/css">
	.st0{fill:#4DB6AC;}
	.st1{fill:#FFEE58;}
	.st2{fill:#212121;}
	.st3{fill:#C6FF00;}
	.st4{fill:#A1887F;}
	.st5{fill:none;}
	.st6{fill:#D84315;}
	.st7{fill:#FF5722;}
	.st8{fill:#F5F5F5;}
	.st9{opacity:0.1;fill:#212121;enable-background:new    ;}
	.st10{fill:#FFCA28;}
</style>
<path class="st0" d="M876.7,14.9H374.4c0,139,112.4,251.1,251.1,251.1c35.4,0,69.2-7.3,99.8-20.6c-5.6-1-10.5-4.8-12.6-10.5
	L663.9,100c-3.1-8.5,1.3-17.9,9.8-20.9c8.5-3.1,17.9,1.3,20.9,9.8l48.7,134.8c1.8,4.7,1.2,9.6-1,13.6
	C822.2,195.4,876.7,111.7,876.7,14.9z"/>
<path id="XMLID_568_" class="st1" d="M754.1-181.6h71.3c5.5,0,10,4.5,10,10v1.6c0,5.5-4.5,10-10,10h-71.3c-5.5,0-10-4.5-10-10v-1.6
	C744.1-177.1,748.6-181.6,754.1-181.6z"/>
<path id="XMLID_566_" class="st1" d="M876.7,14.9H374.4c0-139,112.4-251.1,251.1-251.1S876.7-124.1,876.7,14.9z"/>
<circle id="XMLID_565_" class="st2" cx="624.2" cy="-97.6" r="147.2"/>
<g id="XMLID_562_">
	<circle id="XMLID_564_" class="st3" cx="422" cy="-119.6" r="85.4"/>
	<polygon id="XMLID_563_" class="st4" points="419.3,71.5 426.2,71.5 426.3,-87.9 451.1,-101.4 451.1,-109.3 426.3,-95.8 
		426.2,-126.7 457.9,-148.4 458,-156.4 426.2,-135.8 426.1,-178.1 418.6,-178.1 418.7,-167.2 401.5,-181.6 401.5,-175.1 
		418.7,-159.3 418.7,-127.1 387.9,-153.5 387.9,-143.5 418.8,-115.3 418.8,-83.6 389.6,-108.2 389.6,-98 418.6,-73.9 	"/>
</g>
<circle class="st5" cx="625.5" cy="14.7" r="251.1"/>
<path class="st6" d="M572.5,81.4c-8.8-1.8-17.5,3.9-19.3,12.8l-30.6,149.6c10,4.5,20.4,8.4,31.1,11.5l31.6-154.7
	C587.1,91.9,581.4,83.2,572.5,81.4z"/>
<circle id="XMLID_560_" class="st2" cx="624.2" cy="-97.6" r="147.2"/>
<rect id="XMLID_559_" x="591.5" y="16.9" class="st6" width="65.4" height="65.4"/>
<path id="XMLID_558_" class="st7" d="M624.2,33.3L624.2,33.3c-36,0-65.4-29.4-65.4-65.4v-49.1c0-36,29.4-65.4,65.4-65.4l0,0
	c36,0,65.4,29.4,65.4,65.4v49.1C689.6,3.8,660.2,33.3,624.2,33.3z"/>
<path id="XMLID_557_" class="st8" d="M590.6-10.9H656c0,16-14.6,32.7-32.7,32.7C605.3,21.8,590.6,5.1,590.6-10.9z"/>
<path class="st6" d="M743.3,223.7L694.6,88.9c-3-8.5-12.4-12.9-20.9-9.8c-8.5,3-12.9,12.4-9.8,20.9l48.8,134.9
	c2,5.7,7,9.6,12.6,10.5c5.8-2.5,11.5-5.2,17-8.1C744.5,233.3,745.1,228.4,743.3,223.7z"/>
<path class="st7" d="M832.5,1.2c2.4-6.7-1.1-14.2-7.8-16.6l-6.4-2.3c-6.7-2.4-14.2,1.1-16.6,7.8l-8.9,24.6h34.8L832.5,1.2z"/>
<path class="st7" d="M792.8,14.7l-77.3,212.4c-2.4,6.7,1.1,14.2,7.8,16.6l3,1.1c7.3-3.2,14.5-6.8,21.5-10.6l79.8-219.4H792.8z"/>
<path id="XMLID_554_" class="st7" d="M805.7,38.9L805.7,38.9c-13.4-1.5-23.1-13.7-21.6-27.2l5.6-48.8c1.5-13.4,13.7-23.1,27.2-21.6
	l0,0c13.4,1.5,23.1,13.7,21.6,27.2l-5.6,48.8C831.3,30.7,819.1,40.4,805.7,38.9z"/>
<rect id="XMLID_552_" x="532.7" y="-158" class="st2" width="182.1" height="101.3"/>
<rect id="XMLID_551_" x="558.8" y="-56.7" class="st9" width="130.7" height="8.2"/>
<path class="st10" d="M678.8,94.3c0-15.9-13-28.8-28.8-28.8h-51.1c-15.9,0-28.8,13-28.8,28.8v155.6c0,3.6,0.7,7,1.9,10.2
	c17.3,3.7,35.2,5.7,53.5,5.7c17.5,0,34.6-1.8,51.2-5.2c1.3-3.3,2.1-6.9,2.1-10.7V94.3z"/>
<path id="XMLID_546_" class="st0" d="M385,157.5h107.8c9,0,16.4,7.4,16.4,16.4l0,0c0,9-7.4,16.4-16.4,16.4H385
	c-9,0-16.4-7.4-16.4-16.4l0,0C368.5,164.9,375.9,157.5,385,157.5z"/>
<path id="XMLID_545_" class="st0" d="M401.6,197.5h107.8c9,0,16.4,7.4,16.4,16.4l0,0c0,9-7.4,16.4-16.4,16.4H401.6
	c-9,0-16.4-7.4-16.4-16.4l0,0C385.2,204.9,392.6,197.5,401.6,197.5z"/>
<path id="XMLID_544_" class="st0" d="M336.5,197.5h22.7c9,0,16.4,7.4,16.4,16.4l0,0c0,9-7.4,16.4-16.4,16.4h-22.7
	c-9,0-16.4-7.4-16.4-16.4l0,0C320,204.9,327.4,197.5,336.5,197.5z"/>
<path id="XMLID_543_" class="st3" d="M321.1-130.5h41.3c5.5,0,10,4.5,10,10v1.6c0,5.5-4.5,10-10,10h-41.3c-5.5,0-10-4.5-10-10v-1.6
	C311-126,315.6-130.5,321.1-130.5z"/>
<path id="XMLID_542_" class="st3" d="M335.3-106h41.3c5.5,0,10,4.5,10,10v1.6c0,5.5-4.5,10-10,10h-41.3c-5.5,0-10-4.5-10-10V-96
	C325.2-101.5,329.7-106,335.3-106z"/>
<path id="XMLID_541_" class="st1" d="M752.7-206.7h9c5.5,0,10,4.5,10,10l0,0c0,5.5-4.5,10-10,10h-9c-5.5,0-10-4.5-10-10l0,0
	C742.6-202.2,747.1-206.7,752.7-206.7z"/>
<path id="XMLID_540_" class="st1" d="M789.4-205.2L789.4-205.2c5.5,0,10,4.5,10,10l0,0c0,5.5-4.5,10-10,10l0,0c-5.5,0-10-4.5-10-10
	l0,0C779.4-200.7,783.9-205.2,789.4-205.2z"/>
<path id="XMLID_539_" class="st3" d="M336-151.3h26.1c5.5,0,10,4.5,10,10l0,0c0,5.5-4.5,10-10,10H336c-5.5,0-10-4.5-10-10l0,0
	C326-146.8,330.5-151.3,336-151.3z"/>
<path id="XMLID_538_" class="st3" d="M311-151.3L311-151.3c5.5,0,10,4.5,10,10l0,0c0,5.5-4.5,10-10,10l0,0c-5.5,0-10-4.5-10-10l0,0
	C301-146.8,305.5-151.3,311-151.3z"/>
<path id="XMLID_537_" class="st3" d="M296.4-129.7L296.4-129.7c5.5,0,10,4.5,10,10l0,0c0,5.5-4.5,10-10,10l0,0c-5.5,0-10-4.5-10-10
	l0,0C286.3-125.2,290.9-129.7,296.4-129.7z"/>
</svg>
