<?xml version="1.0" encoding="utf-8"?>
<!-- Generator: Adobe Illustrator 19.0.0, SVG Export Plug-In . SVG Version: 6.00 Build 0)  -->
<svg version="1.1" id="Layer_3" xmlns="http://www.w3.org/2000/svg" xmlns:xlink="http://www.w3.org/1999/xlink" x="0px" y="0px"
	 viewBox="269 -262 638 574" style="enable-background:new 269 -262 638 574;" xml:space="preserve">
<style type="text/css">
	.st0{fill:#FFEE58;}
	.st1{fill:#FF7043;}
	.st2{fill:#BDBDBD;}
	.st3{fill:#455A64;}
	.st4{fill:#FFF176;}
	.st5{fill:#FDD835;}
	.st6{fill:#424242;}
	.st7{fill:#37474F;}
	.st8{fill:#FFAB00;}
	.st9{fill:#FFCA28;}
	.st10{fill:#FF6E40;}
	.st11{fill:#82B1FF;}
	.st12{fill:#263238;}
	.st13{fill:#CFD8DC;}
	.st14{fill:#607D8B;}
	.st15{fill:#F4511E;}
	.st16{opacity:0.1;}
	.st17{clip-path:url(#XMLID_8_);}
	.st18{fill:#F5F5F5;}
	.st19{fill:#FB8C00;}
	.st20{fill:#FFA726;}
	.st21{opacity:0.1;fill:#212121;}
	.st22{fill:#FF6D00;}
	.st23{fill:#FF9800;}
	.st24{fill:#FAFAFA;}
	.st25{fill:#FF5722;}
	.st26{fill:#EEEEEE;}
	.st27{fill:#757575;}
	.st28{fill:#FFFFFF;}
	.st29{fill:#BF360C;}
	.st30{fill:#90A4AE;}
	.st31{fill:#78909C;}
	.st32{fill:#FFC400;}
	.st33{fill:#FFF3E0;}
	.st34{fill:#80CBC4;}
	.st35{fill:#212121;}
	.st36{fill:#4DB6AC;}
</style>
<g id="XMLID_1897_">
	<circle id="XMLID_1896_" class="st0" cx="594.1" cy="60.9" r="251.1"/>
	<path id="XMLID_1895_" class="st1" d="M845.3,61H343c0-139,112.4-251.1,251.1-251.1S845.3-78,845.3,61z"/>
	<path id="XMLID_1894_" class="st0" d="M822.6,212.7H714.8c-9,0-16.4-7.4-16.4-16.4v0c0-9,7.4-16.4,16.4-16.4h107.8
		c9,0,16.4,7.4,16.4,16.4v0C839,205.3,831.6,212.7,822.6,212.7z"/>
	<path id="XMLID_1893_" class="st0" d="M817.8,250H683.1c-9,0-16.4-7.4-16.4-16.4v0c0-9,7.4-16.4,16.4-16.4h134.6
		c9,0,16.4,7.4,16.4,16.4v0C834.2,242.6,826.8,250,817.8,250z"/>
	<path id="XMLID_1892_" class="st0" d="M863.3,212.7L863.3,212.7c-8.3,0-15-6.8-15-15v-2.8c0-8.3,6.8-15,15-15l0,0
		c8.3,0,15,6.8,15,15v2.8C878.3,205.9,871.6,212.7,863.3,212.7z"/>
	<path id="XMLID_1891_" class="st1" d="M446.1-111.9h-82c-5,0-9.1-4.1-9.1-9.1v-3.5c0-5,4.1-9.1,9.1-9.1h82c5,0,9.1,4.1,9.1,9.1v3.5
		C455.2-116,451.1-111.9,446.1-111.9z"/>
	<path id="XMLID_1890_" class="st1" d="M407-88.3h-33.6c-4.7,0-8.6-3.9-8.6-8.6v0c0-4.7,3.9-8.6,8.6-8.6H407c4.7,0,8.6,3.9,8.6,8.6
		v0C415.6-92.1,411.7-88.3,407-88.3z"/>
	<path id="XMLID_1889_" class="st1" d="M348.9-88.3L348.9-88.3c-4.7,0-8.6-3.9-8.6-8.6v0c0-4.7,3.9-8.6,8.6-8.6l0,0
		c4.7,0,8.6,3.9,8.6,8.6v0C357.5-92.1,353.6-88.3,348.9-88.3z"/>
	<g id="XMLID_1858_">
		<path id="XMLID_1888_" class="st2" d="M476.7-178.4v-44c0-16.8,13.7-30.8,30.5-30.5c16.2,0.3,29.3,13.6,29.3,29.9v15.6
			c0,0,0,0,0,0h8.1c0,0,0,0,0,0v-17.4c0-20-16.2-36.2-36.2-36.2h-2.9c-20,0-36.2,16.2-36.2,36.2v46.4c0,0,0,0,0,0L476.7-178.4
			C476.7-178.4,476.7-178.4,476.7-178.4z"/>
		<path id="XMLID_1887_" class="st2" d="M462-178.4v-44c0-16.8-13.7-30.8-30.5-30.5c-16.2,0.3-29.3,13.6-29.3,29.9v15.6c0,0,0,0,0,0
			h-8.1c0,0,0,0,0,0v-17.4c0-20,16.2-36.2,36.2-36.2h2.9c20,0,36.2,16.2,36.2,36.2v46.4c0,0,0,0,0,0L462-178.4
			C462-178.4,462-178.4,462-178.4z"/>
		<rect id="XMLID_1886_" x="458.3" y="-39.3" class="st3" width="22.1" height="134"/>
		<path id="XMLID_1885_" class="st3" d="M482.4,99.9h-25.5v-7c0-1.4,1.1-2.5,2.5-2.5h20.4c1.4,0,2.5,1.1,2.5,2.5V99.9z"/>
		<path id="XMLID_1884_" class="st3" d="M485.5,107.1h-31.9v-5.4c0-1.4,1.1-2.5,2.5-2.5h26.8c1.4,0,2.5,1.1,2.5,2.5V107.1z"/>
		<path id="XMLID_1883_" class="st3" d="M485,130.9h-31.7c-1.8,0-3.3-1.5-3.3-3.3v-17.3c0-1.8,1.5-3.3,3.3-3.3H485
			c1.8,0,3.3,1.5,3.3,3.3v17.3C488.3,129.5,486.8,130.9,485,130.9z"/>
		<path id="XMLID_1882_" class="st3" d="M493.2,136.6H446v-3.4c0-1.8,1.5-3.3,3.3-3.3H490c1.8,0,3.3,1.5,3.3,3.3V136.6z"/>
		<path id="XMLID_1881_" class="st3" d="M497.7,144.8h-57v-5.2c0-1.8,1.5-3.3,3.3-3.3h50.5c1.8,0,3.3,1.5,3.3,3.3V144.8z"/>
		<rect id="XMLID_1880_" x="461.9" y="-179.5" class="st2" width="15.1" height="146.8"/>
		<path id="XMLID_1879_" class="st3" d="M407.9-219.6h-19.3v-2.3c0-1.8,1.5-3.3,3.3-3.3h12.7c1.8,0,3.3,1.5,3.3,3.3V-219.6z"/>
		<path id="XMLID_1878_" class="st3" d="M480.4-192.8h-22.1v-1.3c0-1.7,1.4-3.1,3.1-3.1h15.8c1.7,0,3.1,1.4,3.1,3.1V-192.8z"/>
		<path id="XMLID_1877_" class="st3" d="M458.5-177.3h21.7v1.4c0,1.7-1.4,3.1-3.1,3.1h-15.5c-1.7,0-3.1-1.4-3.1-3.1V-177.3z"/>
		<path id="XMLID_1876_" class="st3" d="M411.5-214.2h-26.4v-2.3c0-1.8,1.5-3.3,3.3-3.3h19.8c1.8,0,3.3,1.5,3.3,3.3V-214.2z"/>
		<path id="XMLID_1869_" class="st3" d="M480.4-177.3h-21.9c-1.1,0-2-0.9-2-2v-11.5c0-1.1,0.9-2,2-2h21.9c1.1,0,2,0.9,2,2v11.5
			C482.4-178.2,481.5-177.3,480.4-177.3z"/>
		<path id="XMLID_1868_" class="st3" d="M457.3-35.2h24.2v3.7c0,1.2-1,2.2-2.2,2.2h-19.7c-1.2,0-2.2-1-2.2-2.2V-35.2z"/>
		<path id="XMLID_1867_" class="st3" d="M481.5-35.2h-24.2v-4.4c0-1,0.8-1.8,1.8-1.8h20.5c1,0,1.8,0.8,1.8,1.8V-35.2z"/>
		<path id="XMLID_1866_" class="st4" d="M540.7-164L540.7-164c-8.9,0-16.2-7.3-16.2-16.2v-34.2h32.4v34.2
			C556.9-171.2,549.6-164,540.7-164z"/>
		<path id="XMLID_1865_" class="st5" d="M540.7-164L540.7-164v-50.4h16.2v34.2C556.9-171.2,549.6-164,540.7-164z"/>
		<path id="XMLID_1864_" class="st4" d="M398.3-164L398.3-164c-8.9,0-16.2-7.3-16.2-16.2v-34.2h32.4v34.2
			C414.5-171.2,407.2-164,398.3-164z"/>
		<path id="XMLID_1863_" class="st5" d="M398.3-164L398.3-164v-50.4h16.2v34.2C414.5-171.2,407.2-164,398.3-164z"/>
		<path id="XMLID_1862_" class="st6" d="M422.3-207.4H376c-1.4,0-2.4-1.1-2.4-2.4v-2c0-1.4,1.1-2.4,2.4-2.4h46.3
			c1.4,0,2.4,1.1,2.4,2.4v2C424.8-208.5,423.7-207.4,422.3-207.4z"/>
		<path id="XMLID_1861_" class="st3" d="M549.5-219.6h-19.3v-2.3c0-1.8,1.5-3.3,3.3-3.3h12.7c1.8,0,3.3,1.5,3.3,3.3V-219.6z"/>
		<path id="XMLID_1860_" class="st3" d="M553.1-214.2h-26.4v-2.3c0-1.8,1.5-3.3,3.3-3.3h19.8c1.8,0,3.3,1.5,3.3,3.3V-214.2z"/>
		<path id="XMLID_1859_" class="st6" d="M563.9-207.4h-46.3c-1.4,0-2.4-1.1-2.4-2.4v-2c0-1.4,1.1-2.4,2.4-2.4h46.3
			c1.4,0,2.4,1.1,2.4,2.4v2C566.3-208.5,565.2-207.4,563.9-207.4z"/>
	</g>
	<g id="XMLID_1546_">
		<g id="XMLID_1639_">
			<g id="XMLID_1640_">
				<path id="XMLID_1857_" class="st7" d="M490.7-53.8h38.8c7.9,0,14.4-6.5,14.4-14.4v-31.6h-53.2V-53.8z"/>
				<g id="XMLID_1647_">
					
						<rect id="XMLID_1856_" x="480.1" y="-22.6" transform="matrix(0.9475 -0.3197 0.3197 0.9475 26.7824 155.4126)" class="st8" width="13.3" height="37.6"/>
					<circle id="XMLID_1855_" class="st8" cx="480.7" cy="-21.7" r="6.7"/>
					<g id="XMLID_1852_">
						<rect id="XMLID_1854_" x="546.3" y="-22.6" class="st8" width="13.3" height="72.4"/>
						<path id="XMLID_1853_" class="st8" d="M553,70.7h0.8c5.3,0,9.6-4.3,9.6-9.6V47c0-5.3-4.3-9.6-9.6-9.6H553
							c-5.3,0-9.6,4.3-9.6,9.6v14.1C543.4,66.4,547.7,70.7,553,70.7z"/>
					</g>
					<g id="XMLID_1823_">
						<rect id="XMLID_1851_" x="529.6" y="73.1" class="st9" width="10.1" height="136.8"/>
						<path id="XMLID_1850_" class="st10" d="M550.8,213.3h8.5c0-4.7-3.8-8.5-8.5-8.5C550.8,204.8,550.8,208.6,550.8,213.3z"/>
						<rect id="XMLID_1849_" x="529.6" y="204.8" class="st10" width="21.7" height="8.5"/>
						<rect id="XMLID_1824_" x="529.6" y="213.3" class="st11" width="29.7" height="4.2"/>
					</g>
					<g id="XMLID_1817_">
						<path id="XMLID_1822_" class="st12" d="M544.9,61.2V47.4c0-0.8,0.7-1.5,1.5-1.5h31.2c0.8,0,1.5,0.7,1.5,1.5v13.8
							c0,0.8-0.7,1.5-1.5,1.5h-31.2C545.6,62.7,544.9,62,544.9,61.2z"/>
						<rect id="XMLID_1821_" x="550.4" y="47.3" class="st13" width="23.2" height="13.9"/>
						<g id="XMLID_1818_">
							<circle id="XMLID_1820_" class="st14" cx="576.9" cy="52.2" r="0.3"/>
							<path id="XMLID_1819_" class="st14" d="M576.6,56.6v-3.4c0-0.1,0.1-0.1,0.1-0.1h0.3c0.1,0,0.1,0.1,0.1,0.1v3.4
								c0,0.1-0.1,0.1-0.1,0.1h-0.3C576.6,56.7,576.6,56.6,576.6,56.6z"/>
						</g>
					</g>
					<g id="XMLID_1812_">
						<rect id="XMLID_1816_" x="496.7" y="73.1" class="st8" width="10.1" height="136.8"/>
						<path id="XMLID_1815_" class="st15" d="M517.9,213.3h8.5c0-4.7-3.8-8.5-8.5-8.5C517.9,204.8,517.9,208.6,517.9,213.3z"/>
						<rect id="XMLID_1814_" x="496.7" y="204.8" class="st15" width="21.7" height="8.5"/>
						<rect id="XMLID_1813_" x="496.7" y="213.3" class="st11" width="29.7" height="4.2"/>
					</g>
					<rect id="XMLID_1811_" x="544.9" y="42.6" class="st8" width="13" height="24"/>
					<path id="XMLID_1810_" class="st3" d="M532.9,186.1h2.3c2.6,0,4.8-2.3,4.8-5.1l9.6-129.2c0-9.2-7-16.6-15.6-16.6h0
						c-8.6,0-15.6,7.5-15.6,16.6l9.6,129.2C528.1,183.8,530.2,186.1,532.9,186.1z"/>
					<path id="XMLID_1809_" class="st14" d="M525.6,23.3l-15.2,0c-13.2,0-24,10.8-24,24v0c0,15.9,13,28.8,28.8,28.8h5.6
						c15.9,0,28.8-13,28.8-28.8v0C549.6,34.1,538.8,23.3,525.6,23.3z"/>
					<path id="XMLID_1808_" class="st14" d="M500.8,186.1h2.3c2.6,0,4.8-2.3,4.8-5.1l9.6-129.2c0-9.2-7-16.6-15.6-16.6h0
						c-8.6,0-15.6,7.5-15.6,16.6L496,181C496,183.8,498.1,186.1,500.8,186.1z"/>
					<path id="XMLID_1807_" class="st3" d="M525.6,23.3h-8.3v52.9h3.5c15.9,0,28.8-13,28.8-28.8v0C549.6,34.1,538.8,23.3,525.6,23.3
						z"/>
					<g id="XMLID_1779_">
						<path id="XMLID_1806_" class="st10" d="M474.1-15h86.5v-18.9c0-7.9-6.5-14.4-14.4-14.4h-57.7c-7.9,0-14.4,6.5-14.4,14.4V-15z"
							/>
						<path id="XMLID_1805_" class="st15" d="M517.3-15h43.3v-18.9c0-7.9-6.5-14.4-14.4-14.4h-28.8V-15z"/>
						<path id="XMLID_1804_" class="st10" d="M504-1.7l26.6,0c9.1,0,16.6-7.5,16.6-16.6v0c0-9.1-7.5-16.6-16.6-16.6H504
							c-9.1,0-16.6,7.5-16.6,16.6v0C487.4-9.2,494.8-1.7,504-1.7z"/>
						<path id="XMLID_1803_" class="st15" d="M518-1.7l12.6,0c9.1,0,16.6-7.5,16.6-16.6v0c0-9.1-7.5-16.6-16.6-16.6H518V-1.7z"/>
						<polygon id="XMLID_1802_" class="st10" points="501.1,27.9 534.8,27.9 540.6,-10.9 494,-10.9 						"/>
						<polygon id="XMLID_1801_" class="st15" points="518,27.9 534.8,27.9 540.6,-10.9 518,-10.9 						"/>
						<g id="XMLID_1796_">
							<rect id="XMLID_1800_" x="507.3" y="-78.2" class="st8" width="20" height="36.6"/>
							<polygon id="XMLID_1799_" class="st8" points="517.3,-28.3 533.9,-48.3 500.7,-48.3 							"/>
							<g id="XMLID_1797_" class="st16">
								<rect id="XMLID_1798_" x="507.3" y="-78.2" width="20" height="29.9"/>
							</g>
						</g>
						<path id="XMLID_1795_" class="st9" d="M517.3-61.6L517.3-61.6c14.6,0,26.6-12,26.6-26.6v-10c0-14.6-12-26.6-26.6-26.6h0
							c-14.6,0-26.6,12-26.6,26.6v10C490.7-73.6,502.7-61.6,517.3-61.6z"/>
						<path id="XMLID_1786_" class="st8" d="M517.3-61.6L517.3-61.6c14.6,0,26.6-12,26.6-26.6v-10c0-14.6-12-26.6-26.6-26.6l0,0
							V-61.6z"/>
						<g id="XMLID_1781_">
							<defs>
								<path id="XMLID_1782_" d="M517.3-61.6L517.3-61.6c14.6,0,26.6-12,26.6-26.6v-10c0-14.6-12-26.6-26.6-26.6h0
									c-14.6,0-26.6,12-26.6,26.6v10C490.7-73.6,502.7-61.6,517.3-61.6z"/>
							</defs>
							<clipPath id="XMLID_8_">
								<use xlink:href="#XMLID_1782_"  style="overflow:visible;"/>
							</clipPath>
							<g id="XMLID_1783_" class="st17">
								<circle id="XMLID_1785_" class="st12" cx="535.6" cy="-119.8" r="21.6"/>
								<circle id="XMLID_1784_" class="st12" cx="499" cy="-119.8" r="21.6"/>
							</g>
						</g>
						<path id="XMLID_1780_" class="st18" d="M515.8-74.3c0,3.9,3.1,7,7,7c3.9,0,7-3.1,7-7"/>
					</g>
					<path id="XMLID_1778_" class="st3" d="M501.1,32.3h33.6c2.6,0,4.8-2.2,4.8-4.8v-4.8c0-2.6-2.2-4.8-4.8-4.8h-33.6
						c-2.6,0-4.8,2.2-4.8,4.8v4.8C496.3,30.2,498.5,32.3,501.1,32.3z"/>
					<path id="XMLID_1777_" class="st3" d="M497.1,186.1h9.6c1.3,0,2.4-1.1,2.4-2.4l0,0c0-1.3-1.1-2.4-2.4-2.4h-9.6
						c-1.3,0-2.4,1.1-2.4,2.4l0,0C494.7,185,495.8,186.1,497.1,186.1z"/>
					<path id="XMLID_1776_" class="st14" d="M529.5,186.1h9.6c1.3,0,2.4-1.1,2.4-2.4l0,0c0-1.3-1.1-2.4-2.4-2.4h-9.6
						c-1.3,0-2.4,1.1-2.4,2.4l0,0C527.1,185,528.2,186.1,529.5,186.1z"/>
					<path id="XMLID_1775_" class="st14" d="M517.3,32.3h17.5c2.6,0,4.8-2.2,4.8-4.8v-4.8c0-2.6-2.2-4.8-4.8-4.8h-17.5V32.3z"/>
				</g>
				<g id="XMLID_1641_">
					<path id="XMLID_1646_" class="st9" d="M525.5,13l0-0.8c0-5.3,4.3-9.6,9.5-9.7l14.1-0.1c5.3,0,9.6,4.3,9.7,9.5l0,0.8
						c0,5.3-4.3,9.6-9.5,9.7l-14.1,0.1C529.9,22.6,525.5,18.3,525.5,13z"/>
					<g id="XMLID_1642_">
						
							<rect id="XMLID_1645_" x="505.6" y="-7.9" transform="matrix(6.637888e-003 1 -1 6.637888e-003 521.2021 -499.9783)" class="st9" width="13.3" height="40.5"/>
						<circle id="XMLID_1644_" class="st9" cx="492" cy="12.5" r="6.7"/>
						<circle id="XMLID_1643_" class="st9" cx="531.3" cy="12.2" r="6.7"/>
					</g>
				</g>
			</g>
		</g>
		<g id="XMLID_1547_">
			<path id="XMLID_1638_" class="st3" d="M652.1-116.8v-20.9c0-2.6,2.1-4.6,4.6-4.6l0,0c2.6,0,4.6,2.1,4.6,4.6v20.9
				c0,2.6-2.1,4.6-4.6,4.6l0,0C654.2-112.1,652.1-114.2,652.1-116.8z"/>
			<g id="XMLID_1634_">
				<circle id="XMLID_1637_" class="st14" cx="627" cy="6.7" r="9.3"/>
				<circle id="XMLID_1636_" class="st14" cx="648.8" cy="-34.3" r="9.3"/>
				
					<rect id="XMLID_1635_" x="614.7" y="-23.1" transform="matrix(0.4687 -0.8834 0.8834 0.4687 351.0811 556.1375)" class="st14" width="46.4" height="18.6"/>
			</g>
			<rect id="XMLID_1633_" x="666" y="-70.3" class="st19" width="19.6" height="27.9"/>
			<path id="XMLID_1632_" class="st20" d="M675.3-65.7L675.3-65.7c-12.8,0-23.2-10.4-23.2-23.2v-27.9c0-12.8,10.4-23.2,23.2-23.2
				l0,0c12.8,0,23.2,10.4,23.2,23.2v27.9C698.5-76.1,688.1-65.7,675.3-65.7z"/>
			<path id="XMLID_1631_" class="st21" d="M675.3-65.7L675.3-65.7V-140l0,0c12.8,0,23.2,10.4,23.2,23.2v27.9
				C698.5-76.1,688.1-65.7,675.3-65.7z"/>
			<path id="XMLID_1630_" class="st3" d="M684.6,64.3H666c-15.3,0-27.9-12.5-27.9-27.9v-65c0-15.3,12.5-27.9,27.9-27.9h18.6
				c15.3,0,27.9,12.5,27.9,27.9v65C712.4,51.8,699.9,64.3,684.6,64.3z"/>
			<path id="XMLID_1629_" class="st14" d="M666-56.4h9.3V64.3H666c-15.3,0-27.9-12.5-27.9-27.9v-65C638.2-43.9,650.7-56.4,666-56.4z
				"/>
			<path id="XMLID_1628_" class="st14" d="M684.6,36.5h-46.4v-65c0-15.3,12.5-27.9,27.9-27.9h18.6V36.5z"/>
			<rect id="XMLID_1627_" x="652.1" y="55" class="st14" width="18.6" height="162.5"/>
			<rect id="XMLID_1626_" x="679.9" y="55" class="st3" width="18.6" height="162.5"/>
			<g id="XMLID_1621_">
				<path id="XMLID_1625_" class="st22" d="M706.2,212.3h10.5c0-5.8-4.7-10.5-10.5-10.5C706.2,201.8,706.2,206.5,706.2,212.3z"/>
				<rect id="XMLID_1624_" x="695.7" y="201.8" class="st22" width="10.5" height="10.5"/>
				<rect id="XMLID_1623_" x="679.9" y="201.8" class="st22" width="15.8" height="10.5"/>
				<rect id="XMLID_1622_" x="679.9" y="212.3" class="st22" width="36.8" height="5.3"/>
			</g>
			<g id="XMLID_1616_">
				<path id="XMLID_1620_" class="st23" d="M644.4,212.3h-10.5c0-5.8,4.7-10.5,10.5-10.5C644.4,201.8,644.4,206.5,644.4,212.3z"/>
				<rect id="XMLID_1619_" x="644.4" y="201.8" class="st23" width="10.5" height="10.5"/>
				<rect id="XMLID_1618_" x="654.9" y="201.8" class="st23" width="15.8" height="10.5"/>
				<rect id="XMLID_1617_" x="633.9" y="212.3" class="st23" width="36.8" height="5.3"/>
			</g>
			<rect id="XMLID_1615_" x="664.4" y="-56.4" class="st24" width="21.8" height="92.9"/>
			<rect id="XMLID_1614_" x="670.7" y="-56.4" class="st25" width="9.3" height="76.6"/>
			<g id="XMLID_1611_">
				<circle id="XMLID_1613_" class="st3" cx="698.5" cy="-37.8" r="9.3"/>
				
					<rect id="XMLID_1612_" x="692.3" y="-29" transform="matrix(0.7914 0.6113 -0.6113 0.7914 138.5781 -445.4609)" class="st3" width="59.5" height="18.6"/>
			</g>
			<g id="XMLID_1607_">
				<circle id="XMLID_1609_" class="st14" cx="744.9" cy="-0.7" r="9.3"/>
				<rect id="XMLID_1608_" x="735.7" y="-65.7" class="st14" width="18.6" height="65"/>
			</g>
			<path id="XMLID_1606_" class="st26" d="M744.9-70.3H731c-2.6,0-4.6-2.1-4.6-4.6v-37.1c0-2.6,2.1-4.6,4.6-4.6h13.9
				c2.6,0,4.6,2.1,4.6,4.6V-75C749.6-72.4,747.5-70.3,744.9-70.3z"/>
			<path id="XMLID_1605_" class="st2" d="M744.4-112.1h-12.6c-1.2,0-2.1-0.9-2.1-2.1l0,0c0-1.2,0.9-2.1,2.1-2.1h12.6
				c1.2,0,2.1,0.9,2.1,2.1l0,0C746.5-113.1,745.5-112.1,744.4-112.1z"/>
			<circle id="XMLID_1604_" class="st27" cx="738.1" cy="-114.2" r="1.2"/>
			<g id="XMLID_1590_">
				<g id="XMLID_1600_">
					<circle id="XMLID_1603_" class="st28" cx="744.9" cy="-70.3" r="9.3"/>
					<circle id="XMLID_1602_" class="st28" cx="744.9" cy="-61.1" r="9.3"/>
					<rect id="XMLID_1601_" x="735.7" y="-70.3" class="st28" width="18.6" height="9.3"/>
				</g>
				<g id="XMLID_1596_">
					<circle id="XMLID_1599_" class="st19" cx="744.9" cy="-75" r="9.3"/>
					<circle id="XMLID_1598_" class="st19" cx="744.9" cy="-65.7" r="9.3"/>
					<rect id="XMLID_1597_" x="735.7" y="-75" class="st19" width="18.6" height="9.3"/>
				</g>
				<g id="XMLID_1591_">
					<path id="XMLID_1595_" class="st20" d="M750.4-85.8h-23.2c-2.1,0-3.9-1.7-3.9-3.9v0c0-2.1,1.7-3.9,3.9-3.9h23.2
						c2.1,0,3.9,1.7,3.9,3.9v0C754.2-87.6,752.5-85.8,750.4-85.8z"/>
					<path id="XMLID_1594_" class="st20" d="M746.5-74.2v-15.5c0-2.1,1.7-3.9,3.9-3.9l0,0c2.1,0,3.9,1.7,3.9,3.9v15.5
						c0,2.1-1.7,3.9-3.9,3.9l0,0C748.2-70.3,746.5-72.1,746.5-74.2z"/>
					<path id="XMLID_1593_" class="st20" d="M750.4-78.1h-23.2c-2.1,0-3.9-1.7-3.9-3.9v0c0-2.1,1.7-3.9,3.9-3.9h23.2
						c2.1,0,3.9,1.7,3.9,3.9v0C754.2-79.8,752.5-78.1,750.4-78.1z"/>
					<path id="XMLID_1592_" class="st20" d="M750.4-70.3h-15.5c-2.1,0-3.9-1.7-3.9-3.9v0c0-2.1,1.7-3.9,3.9-3.9h15.5
						c2.1,0,3.9,1.7,3.9,3.9v0C754.2-72.1,752.5-70.3,750.4-70.3z"/>
				</g>
			</g>
			<rect id="XMLID_1589_" x="638.2" y="36.5" class="st29" width="74.3" height="4.6"/>
			<rect id="XMLID_1588_" x="642.8" y="3.9" class="st14" width="18.6" height="32.5"/>
			<path id="XMLID_1587_" class="st30" d="M700.8,31.8L700.8,31.8c-1.3,0-2.3-1-2.3-2.3V6.3c0-1.3,1-2.3,2.3-2.3h0
				c1.3,0,2.3,1,2.3,2.3v23.2C703.2,30.8,702.1,31.8,700.8,31.8z"/>
			<path id="XMLID_1586_" class="st31" d="M649.8,31.8L649.8,31.8c-1.3,0-2.3-1-2.3-2.3V6.3c0-1.3,1-2.3,2.3-2.3l0,0
				c1.3,0,2.3,1,2.3,2.3v23.2C652.1,30.8,651,31.8,649.8,31.8z"/>
			<rect id="XMLID_1585_" x="670.7" y="36.5" class="st32" width="9.3" height="4.6"/>
			<g id="XMLID_1557_">
				<g id="XMLID_1562_">
					<g id="XMLID_1564_">
						<circle id="XMLID_1583_" class="st14" cx="562.2" cy="12.4" r="9.3"/>
						
							<rect id="XMLID_1582_" x="562.1" y="0.3" transform="matrix(0.9962 -8.720209e-002 8.720209e-002 0.9962 1.4324 51.8877)" class="st14" width="65" height="18.6"/>
					</g>
					<circle id="XMLID_1563_" class="st19" cx="553" cy="13.2" r="9.3"/>
				</g>
				<circle id="XMLID_1561_" class="st33" cx="566.9" cy="12" r="9.3"/>
				
					<rect id="XMLID_1560_" x="557.6" y="3.1" transform="matrix(0.9962 -8.720209e-002 8.720209e-002 0.9962 1.0603 49.0626)" class="st33" width="9" height="18.6"/>
				<circle id="XMLID_1559_" class="st19" cx="562.2" cy="12.4" r="9.3"/>
				
					<rect id="XMLID_1558_" x="553" y="3.5" transform="matrix(0.9962 -8.720209e-002 8.720209e-002 0.9962 1.0073 48.6608)" class="st19" width="9" height="18.6"/>
			</g>
			<path id="XMLID_1556_" class="st28" d="M660-85v-5h13.2c0,0-0.3,5-5.9,5S660-85,660-85z"/>
			<path id="XMLID_1555_" class="st3" d="M693.9-130.7h-37.1c-2.6,0-4.6-2.1-4.6-4.6v-1.4c0-2.6,2.1-4.6,4.6-4.6h37.1
				c2.6,0,4.6,2.1,4.6,4.6v1.4C698.5-132.8,696.4-130.7,693.9-130.7z"/>
			<path id="XMLID_1554_" class="st3" d="M689.2-112.1v-23.2c0-2.6,2.1-4.6,4.6-4.6h0c2.6,0,4.6,2.1,4.6,4.6v23.2
				c0,2.6-2.1,4.6-4.6,4.6h0C691.3-107.5,689.2-109.6,689.2-112.1z"/>
			<path id="XMLID_1549_" class="st3" d="M664-130.7c-4,0-11.6-5.2-11.6-11.6s7.6-11.6,11.6-11.6V-130.7z"/>
			
				<rect id="XMLID_1548_" x="672" y="16.9" transform="matrix(0.7071 0.7071 -0.7071 0.7071 212.0736 -471.5906)" class="st25" width="6.6" height="6.6"/>
		</g>
	</g>
	<g id="XMLID_1533_">
		<path id="XMLID_1545_" class="st34" d="M452.9,146.5h-38.7c-4.4,0-8-3.6-8-8V78.8c0-4.4,3.6-8,8-8h38.7c4.4,0,8,3.6,8,8v59.8
			C460.9,143,457.3,146.5,452.9,146.5z"/>
		<rect id="XMLID_1544_" x="407.6" y="144.7" class="st13" width="51.8" height="4.8"/>
		<path id="XMLID_1543_" class="st13" d="M407.6,72.1h51.8l0-6.2c-2.9-13.2-15-22.2-27.8-21.3c-11.5,0.8-21.3,9.6-23.9,21.4
			C407.4,67.8,407.7,72.1,407.6,72.1C407.6,72.1,407.6,72.1,407.6,72.1z"/>
		<path id="XMLID_1542_" class="st35" d="M416.6,57.4c-0.3,0.4-1,1.4-1,3c0,1.4,0.1,2.4,1,3.3c2.9,1.9,8.9,4,16.7,4.1
			c8.3,0.1,14.8-2,17.6-4.1c0.6-0.3,1-2,1-3.2c0-1.6-0.8-2.8-1-3.1c-0.6-0.8-6.7-8.8-17.3-8.7C423.2,48.7,417.2,56.5,416.6,57.4z"/>
		<g id="XMLID_1537_">
			<path id="XMLID_1541_" class="st36" d="M457.3,146.5h-4.8V70.8h4.8c2,0,3.6,1.6,3.6,3.6v68.5
				C460.9,144.9,459.3,146.5,457.3,146.5z"/>
			<path id="XMLID_1540_" class="st36" d="M409.7,70.8h4.8v75.8h-4.8c-2,0-3.6-1.6-3.6-3.6V74.4C406.1,72.4,407.8,70.8,409.7,70.8z"
				/>
			<rect id="XMLID_1539_" x="421.2" y="70.8" class="st36" width="9.2" height="75.7"/>
			<rect id="XMLID_1538_" x="436.7" y="70.8" class="st36" width="9.2" height="75.7"/>
		</g>
	</g>
</g>
<g id="XMLID_1_">
	<path id="XMLID_6_" class="st9" d="M525.5,13l0-0.8c0-5.3,4.3-9.6,9.5-9.7l14.1-0.1c5.3,0,9.6,4.3,9.7,9.5l0,0.8
		c0,5.3-4.3,9.6-9.5,9.7l-14.1,0.1C529.9,22.6,525.5,18.3,525.5,13z"/>
	<g id="XMLID_2_">
		
			<rect id="XMLID_5_" x="505.6" y="-7.9" transform="matrix(6.637888e-003 1 -1 6.637888e-003 521.2021 -499.9783)" class="st9" width="13.3" height="40.5"/>
		<circle id="XMLID_4_" class="st9" cx="492" cy="12.5" r="6.7"/>
		<circle id="XMLID_3_" class="st9" cx="531.3" cy="12.2" r="6.7"/>
	</g>
</g>
</svg>
