<?xml version="1.0" encoding="utf-8"?>
<!-- Generator: Adobe Illustrator 19.0.0, SVG Export Plug-In . SVG Version: 6.00 Build 0)  -->
<svg version="1.1" id="Layer_2" xmlns="http://www.w3.org/2000/svg" xmlns:xlink="http://www.w3.org/1999/xlink" x="0px" y="0px"
	 viewBox="269 -262 638 574" style="enable-background:new 269 -262 638 574;" xml:space="preserve">
<style type="text/css">
	.st0{fill:#4DB6AC;}
	.st1{fill:#EEEEEE;}
	.st2{fill:#80CBC4;}
	.st3{fill:#FFB74D;}
	.st4{fill:#FB8C00;}
	.st5{fill:#F47F00;}
	.st6{fill:#FFA726;}
	.st7{fill:#FFFBD6;}
</style>
<circle id="XMLID_1214_" class="st0" cx="594" cy="60.5" r="251.1"/>
<g id="XMLID_1211_">
	<path id="XMLID_1213_" class="st1" d="M839.2,140.9h-97.8c0-26.5,21.9-48.9,48.9-48.9C817.3,92,839.2,114.4,839.2,140.9z"/>
	<path id="XMLID_1212_" class="st1" d="M891.8,140.9h-73.4c0-20.7,16.4-36.7,36.7-36.7C875.4,104.2,891.8,120.1,891.8,140.9z"/>
</g>
<g id="XMLID_1204_">
	<path id="XMLID_1206_" class="st1" d="M416.6-129.7h-97.8c0-26.5,21.9-48.9,48.9-48.9S416.6-156.1,416.6-129.7z"/>
	<path id="XMLID_1205_" class="st1" d="M469.2-129.7h-73.4c0-20.7,16.4-36.7,36.7-36.7C452.8-166.3,469.2-150.4,469.2-129.7z"/>
</g>
<path id="XMLID_1203_" class="st0" d="M727.2-127.9h71.3c5.5,0,10,4.5,10,10v1.6c0,5.5-4.5,10-10,10h-71.3c-5.5,0-10-4.5-10-10v-1.6
	C717.2-123.4,721.7-127.9,727.2-127.9z"/>
<path id="XMLID_1202_" class="st0" d="M714.8-153h33c5.5,0,10,4.5,10,10v0c0,5.5-4.5,10-10,10h-33c-5.5,0-10-4.5-10-10v0
	C704.8-148.5,709.3-153,714.8-153z"/>
<path id="XMLID_1201_" class="st0" d="M775.5-151.6L775.5-151.6c5.5,0,10,4.5,10,10v0c0,5.5-4.5,10-10,10l0,0c-5.5,0-10-4.5-10-10v0
	C765.5-147,770-151.6,775.5-151.6z"/>
<g id="XMLID_1056_">
	<path id="XMLID_1200_" class="st2" d="M721.7,246h-20.6c-1.8,0-3.1,1.9-3.1,3.7v39.5c9-4.3,19-9.1,27-14.4v-25.1
		C725,247.9,723.5,246,721.7,246z"/>
	<path id="XMLID_1199_" class="st2" d="M622,268v42.1c3-0.2,5-0.5,7-0.8V268H622z"/>
	<path id="XMLID_1195_" class="st2" d="M560,268v41.4c3,0.3,5,0.6,7,0.8V268H560z"/>
	<path id="XMLID_1194_" class="st2" d="M519,268v32.1c2,0.7,5,1.4,7,2.1V268H519z"/>
	<path id="XMLID_1193_" class="st2" d="M484,246h-15.1c-1.9,0-2.9,2-2.9,3.9v26.5c6,3.6,12,6.9,18,10V246z"/>
	<path id="XMLID_1192_" class="st2" d="M471.2,188c2.8,0,5.8-2.4,5.8-5.2v-20c0-2.8-3-4.8-5.8-4.8H466v30H471.2z"/>
	<path id="XMLID_1191_" class="st2" d="M451.5,158c-2.8,0-4.5,2-4.5,4.8v20c0,2.8,1.8,5.2,4.5,5.2h6.5v-30H451.5z"/>
	<path id="XMLID_1190_" class="st2" d="M748.9,246h-2h-16.7h-2c-1.8,0-3.2,1.9-3.2,3.7v25.1c10-5.8,19-12.2,27-19.2v-5.9
		C752,247.9,750.7,246,748.9,246z"/>
	<path id="XMLID_1189_" class="st2" d="M748,245.3v-6.2c0-0.6-0.5-1.1-1.1-1.1H745h-12.9h-1.9c-0.6,0-1.2,0.5-1.2,1.1v6.2
		c0,0.6,0.6,0.7,1.2,0.7h16.7C747.5,246,748,246,748,245.3z"/>
	<path id="XMLID_1188_" class="st2" d="M746,234.7c0-0.4-0.3-0.7-0.7-0.7h-12.6c-0.4,0-0.7,0.3-0.7,0.7v2.6c0,0.4,0.3,0.7,0.7,0.7
		h12.6c0.4,0,0.7-0.3,0.7-0.7V234.7z"/>
	<path id="XMLID_1187_" class="st2" d="M775,212h-1.3h-16h-1.3c-2.3,0-4.4,1.9-4.4,4.2v33.5v5.9c10-7.8,19-16.4,28-25.6v-13.9
		C780,213.9,777.4,212,775,212z"/>
	<path id="XMLID_1185_" class="st2" d="M775,210.5v-11.4c0-0.8-0.5-2.1-1.3-2.1h-1.8h-12.5h-1.8c-0.8,0-1.7,1.3-1.7,2.1v11.4
		c0,0.8,0.9,1.5,1.7,1.5h16C774.5,212,775,211.3,775,210.5z"/>
	<path id="XMLID_1184_" class="st2" d="M773,190.9c0-0.5-0.4-0.9-0.9-0.9h-12.2c-0.5,0-0.9,0.4-0.9,0.9v5.2c0,0.5,0.4,0.9,0.9,0.9
		h12.2c0.5,0,0.9-0.4,0.9-0.9V190.9z"/>
	<path id="XMLID_1183_" class="st2" d="M698,233.2c0-0.9-0.9-2.2-1.9-2.2h-31.2c-0.9,0-1.9,1.3-1.9,2.2V302c12-3.4,24-7.7,35-12.7
		v-39.5V233.2z"/>
	<path id="XMLID_1182_" class="st2" d="M663,192.6c0-1.2-0.8-2.6-2-2.6h-30.3c-1.2,0-1.7,1.4-1.7,2.6V268h7.8c1.4,0,2.2,1.1,2.2,2.5
		v37.1c9-1.5,17-3.3,24-5.6v-68.8V192.6z"/>
	<path id="XMLID_1181_" class="st2" d="M636.8,268H629v41.3c3-0.5,7-1,10-1.7v-37.1C639,269.1,638.1,268,636.8,268z"/>
	<path id="XMLID_1180_" class="st2" d="M427,247.4v-4v-50.9c0-1.2-1.7-2.6-2.9-2.6h-30.3c-1.2,0-1.8,1.4-1.8,2.6v16.7
		C402,223.1,414,235.9,427,247.4z"/>
	<path id="XMLID_1179_" class="st2" d="M551.5,268h8.5v-75.4c0-1.2-0.8-2.6-2-2.6h-30.3c-1.2,0-1.7,1.4-1.7,2.6V268h7.6
		c1.4,0,2.4,1.1,2.4,2.5v34.4c5,1,9,1.9,13,2.7v-37.1C549,269.1,550.1,268,551.5,268z"/>
	<path id="XMLID_1178_" class="st2" d="M551.5,268c-1.4,0-2.5,1.1-2.5,2.5v37.1c4,0.7,8,1.2,11,1.8V268H551.5z"/>
	<path id="XMLID_1177_" class="st2" d="M533.6,268H526v34.2c3,1,7,1.9,10,2.7v-34.4C536,269.1,534.9,268,533.6,268z"/>
	<path id="XMLID_1174_" class="st2" d="M511.3,268h7.7v-75.4c0-1.2-1.3-2.6-2.5-2.6h-30.3c-1.2,0-2.2,1.4-2.2,2.6V246h7.9
		c1.9,0,4.1,2,4.1,3.9v41.6c4,1.9,9,3.7,13,5.3v-26.3C509,269.1,509.9,268,511.3,268z"/>
	<path id="XMLID_1172_" class="st2" d="M511.3,268c-1.4,0-2.3,1.1-2.3,2.5v26.3c3,1.2,7,2.3,10,3.3V268H511.3z"/>
	<path id="XMLID_1171_" class="st2" d="M491.9,246H484v40.3c4,1.8,8,3.5,12,5.2v-41.6C496,248,493.8,246,491.9,246z"/>
	<path id="XMLID_1170_" class="st2" d="M458,188v69.4l6,2.9c0.1,0,0,0.1,0,0.2v14.8c1,0.3,1,0.6,2,1V188H458z"/>
	<path id="XMLID_1169_" class="st2" d="M466,158v-7.5c0-0.7-1.1-1.5-1.8-1.5H463v9H466z"/>
	<path id="XMLID_1071_" class="st2" d="M460,149h-1.5c-0.7,0-0.5,0.8-0.5,1.5v7.5h2V149z"/>
	<path id="XMLID_1070_" class="st2" d="M466,158h-3v9.3c0,0.2-0.6-0.3-0.8-0.3h-1.7c-0.2,0-0.5,0.5-0.5,0.3V158h-2v30h8V158z"/>
	<path id="XMLID_1069_" class="st2" d="M463,130.3c0-0.2-0.6-0.3-0.8-0.3h-1.7c-0.2,0-0.5,0.2-0.5,0.3V149h3V130.3z"/>
	<rect id="XMLID_1068_" x="460" y="149" class="st2" width="3" height="9"/>
	<path id="XMLID_1067_" class="st2" d="M460,167.3c0,0.2,0.3-0.3,0.5-0.3h1.7c0.2,0,0.8,0.5,0.8,0.3V158h-3V167.3z"/>
	<path id="XMLID_1066_" class="st2" d="M614.5,268h7.5v-61.9c0-0.3,0-0.6-0.1-0.6l-35.9-43.1c-0.1,0,0.1,0.3,0.1,0.6v88.8l18.7,8.5
		c0.1,0,0.3,0.1,0.3,0.2v50.9c2-0.1,5-0.2,7-0.4v-40.5C612,269.1,613.2,268,614.5,268z"/>
	<path id="XMLID_1065_" class="st2" d="M614.5,268c-1.4,0-2.5,1.1-2.5,2.5V311c4-0.2,7-0.6,10-0.9V268H614.5z"/>
	<path id="XMLID_1064_" class="st2" d="M567.3,243.2c-0.1,0-0.3,0.1-0.3,0.2V268h6.7c1.4,0,2.3,1.1,2.3,2.5V311c4,0.2,7,0.4,10,0.5
		v-59.7L567.3,243.2z"/>
	<path id="XMLID_1061_" class="st2" d="M573.7,268H567v42.2c3,0.3,6,0.6,9,0.8v-40.5C576,269.1,575.1,268,573.7,268z"/>
	<path id="XMLID_1059_" class="st2" d="M604.7,260.3l-18.7-8.5v59.7c3,0.1,5.7,0.2,8.6,0.2c3.5,0,6.4-0.1,10.4-0.2v-50.9
		C605,260.4,604.8,260.3,604.7,260.3z"/>
	<path id="XMLID_1058_" class="st2" d="M458,271.2v-13.8l-30.8-14.2c-0.1,0-0.2,0.1-0.2,0.2v4C436,256.1,447,264.1,458,271.2z"/>
	<path id="XMLID_1057_" class="st2" d="M464,275.3v-14.8c0-0.1,0.2-0.2,0-0.2l-6-2.9v13.8C460,272.6,462,274,464,275.3z"/>
</g>
<g id="XMLID_1041_">
	<path class="st3" d="M859.3,12.9v-20c-23.2-9.3-48.9-16.4-62.2-17c-13.7-0.6-495.4,3.9-508.2,6.2c-11.6,2.1-14.1,10.5,0.9,19.4
		S357,33.8,385.6,47s64.7,21.5,93,25.4c12.6,1.8,269.8-2,327.5-2.7c57.7-0.7,103-26.2,100.8-45c-0.3-2.5-1.9-5.1-4.7-7.9h-38.9
		C861.1,16.9,859.3,15.1,859.3,12.9z"/>
	<path id="XMLID_1054_" class="st4" d="M286.8-81.8c-3.1-6.9,4.1-18.6,20.2-8.9c16.1,9.7,116.3,71.2,116.3,71.2l-113.7,1.4
		L286.8-81.8z"/>
	<path id="XMLID_1053_" class="st4" d="M903.2,36.1c0,0-23.4,32.7-107.5,33.7c-90.7,1.1-297.2,2.8-309.5,2.8
		c-13.9,0.1-47.1-5.9-68.6-13.1c-21.5-7.2-41.7-16.7-41.7-16.7L903.2,36.1z"/>
	<path id="XMLID_1052_" class="st4" d="M393.5,3.2c0,0-94.5,39.1-103.2,41.5c-8.7,2.4-23.3,3.9-21.1-1.7
		c2.2-5.5,64.3-39.7,64.3-39.7L393.5,3.2z"/>
	<path id="XMLID_1051_" class="st4" d="M587.1,130.6c-53.4,0.7-96.8-10.9-97-25.7s42.9-27.4,96.3-28.1
		C607.9,76.5,603.9,130.4,587.1,130.6z"/>
	<path id="XMLID_1050_" class="st5" d="M587.1,126.3c-15.3,0.2-15.8-45-0.6-45.2C604.6,80.9,601.2,126.1,587.1,126.3z"/>
	<path id="XMLID_1049_" class="st3" d="M686.5-23.6l-127,1.6c0,0-106.6-57.9-118.8-63.8c-12.2-5.9-8.3-10.3,5.5-10.4
		c13.8-0.2,28.9-1.2,32.8,0C482.9-95,686.5-23.6,686.5-23.6z"/>
	<path id="XMLID_1048_" class="st6" d="M686.5-23.6l-127,1.6c0,0-17.2-9.5-25.1-13.8L647-37.5C670.3-29.3,686.5-23.6,686.5-23.6z"/>
	<path id="XMLID_1047_" class="st3" d="M689.5,47.6c0,0-234,93.6-246,95.5s-33.3,2.1-41.9,2.2c-8.6,0.1-12.6-5.5,3.7-14.3
		c16.3-8.8,141.7-79.5,141.7-79.5L689.5,47.6z"/>
	<path id="XMLID_1045_" class="st7" d="M506.2,16.9h-76.7c-5,0-9-4-9-9V5.8c0-4.9,4-9,9-9l76.7,0c5,0,9,4.1,9,9v2.1
		C515.2,12.8,511.2,16.9,506.2,16.9z"/>
	<path id="XMLID_1044_" class="st7" d="M613.3,16.9h-76.7c-5,0-9-4-9-9V5.8c0-4.9,4-9,9-9h76.7c5,0,9,4.1,9,9v2.1
		C622.3,12.8,618.2,16.9,613.3,16.9z"/>
	<path id="XMLID_1043_" class="st7" d="M720.3,16.9h-76.7c-5,0-9-4-9-9V5.8c0-5,4-9,9-9l76.7,0c5,0,9,4,9,9v2.1
		C729.3,12.8,725.3,16.9,720.3,16.9z"/>
	<path id="XMLID_1042_" class="st7" d="M827.4,16.9h-76.7c-5,0-9-4-9-9V5.8c0-4.9,4-9,9-9l76.7,0c5,0,9,4.1,9,9v2.1
		C836.4,12.8,832.3,16.9,827.4,16.9z"/>
	<path class="st7" d="M859.3-7.1v20c0,2.2,1.8,4,4,4h38.9C894.4,8.9,877.7,0.2,859.3-7.1z"/>
</g>
</svg>
