<?xml version="1.0" encoding="utf-8"?>
<!-- Generator: Adobe Illustrator 19.0.0, SVG Export Plug-In . SVG Version: 6.00 Build 0)  -->
<svg version="1.1" id="Layer_1" xmlns="http://www.w3.org/2000/svg" xmlns:xlink="http://www.w3.org/1999/xlink" x="0px" y="0px"
	 viewBox="0 0 684 542" style="enable-background:new 0 0 684 542;" xml:space="preserve">
<style type="text/css">
	.st0{fill:#FF7043;}
	.st1{fill:#00838F;}
	.st2{fill:#E0F2F1;}
	.st3{fill:#AEEA00;}
	.st4{fill:#A1887F;}
	.st5{fill:#FFFFFF;}
	.st6{fill:#FAFAFA;}
	.st7{fill:#C6FF00;}
	.st8{fill:#4DB6AC;}
	.st9{fill:#37474F;}
	.st10{fill:#FFAB00;}
	.st11{fill:#FFCA28;}
	.st12{fill:#82B1FF;}
	.st13{fill:#455A64;}
	.st14{fill:#607D8B;}
	.st15{fill:#FF6E40;}
	.st16{fill:#F4511E;}
	.st17{opacity:0.1;}
	.st18{clip-path:url(#XMLID_2_);}
	.st19{fill:#263238;}
	.st20{fill:#F5F5F5;}
	.st21{fill:#CFD8DC;}
</style>
<circle id="XMLID_861_" class="st0" cx="332" cy="297.5" r="244"/>
<ellipse id="XMLID_860_" class="st1" cx="149.7" cy="369.2" rx="25.9" ry="4.4"/>
<path id="XMLID_859_" class="st2" d="M576.4,298H87.7C87.7,162,197.1,53.7,332,53.7S576.4,162,576.4,298z"/>
<g id="XMLID_855_">
	<circle id="XMLID_857_" class="st3" cx="515.1" cy="212.4" r="40.4"/>
	<polygon id="XMLID_856_" class="st4" points="515.1,320.5 518.7,320.5 518.8,237.6 531.7,230.6 531.7,226.5 518.8,233.5 
		518.8,217.5 535.2,206.2 535.3,202 518.8,212.7 518.7,190.7 514.8,190.7 514.8,196.4 505.9,188.9 505.9,192.3 514.8,200.5 
		514.9,217.2 498.8,203.5 498.8,208.7 514.9,223.4 514.9,239.9 499.7,227.1 499.7,232.4 514.8,244.9 	"/>
</g>
<g id="XMLID_851_">
	<path id="XMLID_854_" class="st5" d="M238.1,261h33.4c0-9-7.5-16.7-16.7-16.7C245.6,244.3,238.1,252,238.1,261z"/>
	<path id="XMLID_853_" class="st5" d="M220.2,261h25.1c0-8-5.6-12.5-12.5-12.5S220.2,253,220.2,261z"/>
	<path id="XMLID_852_" class="st5" d="M211.1,261h11.3c0-3-2.5-5.7-5.7-5.7C213.6,255.3,211.1,258,211.1,261z"/>
</g>
<g id="XMLID_847_">
	<path id="XMLID_850_" class="st6" d="M540.4,213h124.9c0-34-27.9-62.4-62.4-62.4C568.3,150.6,540.4,179,540.4,213z"/>
	<path id="XMLID_849_" class="st6" d="M473.2,213h93.7c0-26-21-46.8-46.8-46.8C494.1,166.2,473.2,187,473.2,213z"/>
	<path id="XMLID_848_" class="st6" d="M439.2,213h42.3c0-12-9.5-21.2-21.2-21.2S439.2,201,439.2,213z"/>
</g>
<g id="XMLID_844_">
	<circle id="XMLID_846_" class="st7" cx="148.8" cy="183.5" r="83"/>
	<polygon id="XMLID_845_" class="st4" points="146.2,369.2 152.9,369.2 153,214.3 177.1,201.2 177.1,193.6 153,206.6 153,176.7 
		183.7,155.5 183.8,147.8 152.9,167.8 152.8,126.7 145.6,126.7 145.6,137.3 128.9,123.3 128.9,129.6 145.6,144.9 145.7,176.2 
		115.7,150.6 115.7,160.3 145.7,187.7 145.8,218.5 117.4,194.6 117.4,204.5 145.6,227.9 	"/>
</g>
<path id="XMLID_843_" class="st8" d="M549.3,369.8H443.6c-8.5,0-15.5-7-15.5-15.5v-1c0-8.5,7-15.5,15.5-15.5h105.7
	c8.5,0,15.5,7,15.5,15.5v1C564.8,362.8,557.8,369.8,549.3,369.8z"/>
<path id="XMLID_842_" class="st8" d="M616.5,392.3H510.7c-8.5,0-15.5-7-15.5-15.5v-1c0-8.5,7-15.5,15.5-15.5h105.7
	c8.5,0,15.5,7,15.5,15.5v1C631.9,385.3,625,392.3,616.5,392.3z"/>
<path id="XMLID_841_" class="st8" d="M660.4,392.3h-1c-8.5,0-15.5-7-15.5-15.5v-1c0-8.5,7-15.5,15.5-15.5h1c8.5,0,15.5,7,15.5,15.5
	v1C675.9,385.3,668.9,392.3,660.4,392.3z"/>
<path id="XMLID_840_" class="st0" d="M195.3,474.1h-69.7c-8.5,0-15.5-7-15.5-15.5v-1c0-8.5,7-15.5,15.5-15.5h69.7
	c8.5,0,15.5,7,15.5,15.5v1C210.8,467.2,203.8,474.1,195.3,474.1z"/>
<path id="XMLID_839_" class="st0" d="M205.9,435.3H100.1c-8.5,0-15.5-7-15.5-15.5v-1c0-8.5,7-15.5,15.5-15.5h105.7
	c8.5,0,15.5,7,15.5,15.5v1C221.4,428.4,214.4,435.3,205.9,435.3z"/>
<path id="XMLID_838_" class="st0" d="M237.9,435.3h-29c-8.5,0-15.5-7-15.5-15.5v-1c0-8.5,7-15.5,15.5-15.5h29
	c8.5,0,15.5,7,15.5,15.5v1C253.3,428.4,246.4,435.3,237.9,435.3z"/>
<path id="XMLID_837_" class="st0" d="M65.3,435.3h1c8.5,0,15.5-7,15.5-15.5v-1c0-8.5-7-15.5-15.5-15.5h-1c-8.5,0-15.5,7-15.5,15.5v1
	C49.9,428.4,56.8,435.3,65.3,435.3z"/>
<path id="XMLID_836_" class="st7" d="M21.9,173h68.7c5.5,0,10,4.5,10,10v0.9c0,5.5-4.5,10-10,10H21.9c-5.5,0-10-4.5-10-10V183
	C11.8,177.5,16.3,173,21.9,173z"/>
<path id="XMLID_835_" class="st2" d="M476.6,123.3H576c5.5,0,10,4.5,10,10v0.9c0,5.5-4.5,10-10,10h-99.3c-5.5,0-10-4.5-10-10v-0.9
	C466.6,127.8,471.1,123.3,476.6,123.3z"/>
<path id="XMLID_834_" class="st2" d="M487.2,98.9h19.1c5.2,0,9.4,4.3,9.4,9.4v0.6c0,5.2-4.3,9.4-9.4,9.4h-19.1
	c-5.2,0-9.4-4.3-9.4-9.4v-0.6C477.8,103.1,482,98.9,487.2,98.9z"/>
<path id="XMLID_833_" class="st2" d="M535.2,98.9h7.3c5.2,0,9.4,4.3,9.4,9.4v0.6c0,5.2-4.3,9.4-9.4,9.4h-7.3c-5.2,0-9.4-4.3-9.4-9.4
	v-0.6C525.8,103.1,530,98.9,535.2,98.9z"/>
<path id="XMLID_832_" class="st7" d="M65,142.9h25.9c5.2,0,9.4,4.3,9.4,9.4v0.6c0,5.2-4.3,9.4-9.4,9.4H65c-5.2,0-9.4-4.3-9.4-9.4
	v-0.6C55.5,147.2,59.8,142.9,65,142.9z"/>
<path id="XMLID_831_" class="st7" d="M40.7,142.9h0.6c5.2,0,9.4,4.3,9.4,9.4v0.6c0,5.2-4.3,9.4-9.4,9.4h-0.6c-5.2,0-9.4-4.3-9.4-9.4
	v-0.6C31.3,147.2,35.5,142.9,40.7,142.9z"/>
<g id="XMLID_827_">
	<circle id="XMLID_829_" class="st7" cx="469" cy="203.6" r="49.3"/>
	<polygon id="XMLID_828_" class="st4" points="468,326.9 472.2,326.9 472.2,231.6 487.1,223.5 487.1,218.8 472.2,226.8 472.2,208.4 
		491.1,195.4 491.2,190.6 472.2,202.9 472.1,177.6 467.7,177.6 467.7,184.2 457.4,175.5 457.4,179.5 467.7,188.8 467.7,208.1 
		449.3,192.3 449.3,198.3 467.7,215.2 467.8,234.1 450.3,219.4 450.3,225.5 467.7,239.9 	"/>
</g>
<g id="XMLID_759_">
	<path id="XMLID_826_" class="st9" d="M296.9,104.8h48c10.2,0,18.6-8.4,18.6-18.6v-39h-66.6V104.8z"/>
	<g id="XMLID_766_">
		<g id="XMLID_823_">
			
				<rect id="XMLID_825_" x="260.4" y="126.5" transform="matrix(0.7651 0.6439 -0.6439 0.7651 159.7045 -137.782)" class="st10" width="16.7" height="47"/>
			<circle id="XMLID_824_" class="st10" cx="283.8" cy="132" r="8.3"/>
		</g>
		<g id="XMLID_818_">
			
				<rect id="XMLID_822_" x="345.1" y="263.7" transform="matrix(-1 -4.164998e-003 4.164998e-003 -1 701.5187 700.0269)" class="st11" width="12.7" height="171.2"/>
			<path id="XMLID_821_" class="st6" d="M371.3,439.2l10.6,0c0-5.9-4.7-10.6-10.6-10.7C371.4,428.6,371.3,433.4,371.3,439.2z"/>
			
				<rect id="XMLID_820_" x="344.8" y="428.6" transform="matrix(-1 -4.164998e-003 4.164998e-003 -1 714.9045 869.2461)" class="st6" width="27.1" height="10.6"/>
			
				<rect id="XMLID_819_" x="344.8" y="439.2" transform="matrix(-1 -4.164998e-003 4.164998e-003 -1 724.8307 885.2299)" class="st12" width="37.2" height="5.3"/>
		</g>
		<g id="XMLID_805_">
			
				<rect id="XMLID_817_" x="303.9" y="263.5" transform="matrix(1 4.164998e-003 -4.164998e-003 1 1.4567 -1.2893)" class="st10" width="12.7" height="171.2"/>
			<path id="XMLID_808_" class="st6" d="M289.7,438.9l-10.6,0c0-5.9,4.8-10.6,10.7-10.6C289.8,428.3,289.7,433,289.7,438.9z"/>
			
				<rect id="XMLID_807_" x="289.1" y="428.3" transform="matrix(1 4.164998e-003 -4.164998e-003 1 1.8088 -1.257)" class="st6" width="27.1" height="10.6"/>
			
				<rect id="XMLID_806_" x="279.1" y="438.9" transform="matrix(1 4.164998e-003 -4.164998e-003 1 1.8418 -1.2359)" class="st12" width="37.2" height="5.3"/>
		</g>
		<path id="XMLID_804_" class="st13" d="M349,405.1l2.9,0c3.3,0,6-2.9,6-6.4l12.7-161.7c0-11.5-8.7-20.9-19.4-20.9h0
			c-10.7,0-19.5,9.3-19.6,20.8L343,398.7C343,402.2,345.7,405.1,349,405.1z"/>
		<path id="XMLID_803_" class="st14" d="M341.7,201.3l-20.9-0.1c-16-0.1-29.2,13-29.3,29l0,2.1c-0.1,19.2,15.6,35,34.8,35.1l9.3,0
			c19.2,0.1,35-15.6,35.1-34.8l0-2.1C370.8,214.5,357.7,201.3,341.7,201.3z"/>
		<path id="XMLID_802_" class="st14" d="M308.8,405l2.9,0c3.3,0,6-2.9,6-6.4l12.7-161.7c0-11.5-8.7-20.9-19.4-20.9h0
			c-10.7,0-19.5,9.3-19.6,20.8l11.4,161.8C302.8,402,305.5,404.9,308.8,405z"/>
		<path id="XMLID_801_" class="st13" d="M340.7,201.2l-10.4,0l-0.3,66.2l4.3,0c19.9,0.1,36.2-16.1,36.2-35.9v0
			C370.7,214.9,357.3,201.3,340.7,201.2z"/>
		<g id="XMLID_798_">
			
				<rect id="XMLID_800_" x="367.8" y="136.8" transform="matrix(-1 -4.164998e-003 4.164998e-003 -1 751.5078 404.3582)" class="st10" width="16.7" height="129.1"/>
			<path id="XMLID_799_" class="st10" d="M376,292.1l0.8,0c6.7,0,12.2-5.4,12.2-12.1l0.1-17.5c0-6.7-5.4-12.2-12.1-12.2l-0.8,0
				c-6.7,0-12.2,5.4-12.2,12.1l-0.1,17.5C363.9,286.6,369.4,292.1,376,292.1z"/>
		</g>
		<g id="XMLID_778_">
			<path id="XMLID_797_" class="st15" d="M293.5,153.2l91.2,0.4l0.1-23.6c0-9.9-8-18.1-18-18.1l-72.2-0.3c-9.9,0-18.1,8-18.1,18
				L293.5,153.2z"/>
			<path id="XMLID_796_" class="st16" d="M330.6,153.3l54.1,0.2l0.1-23.1c0-10.2-8.3-18.6-18.5-18.7l-35.6-0.1L330.6,153.3z"/>
			<path id="XMLID_795_" class="st15" d="M313.2,169.9l34.6,0.1c11.1,0,20.2-9,20.3-20.1l0-1.3c0-11.1-9-20.2-20.1-20.3l-34.6-0.1
				c-11.1,0-20.2,9-20.3,20.1l0,1.3C293.1,160.7,302.1,169.9,313.2,169.9z"/>
			<path id="XMLID_794_" class="st16" d="M331.3,170l16.5,0.1c11.1,0,20.2-9,20.3-20.1l0-1.3c0-11.1-9-20.2-20.1-20.3l-16.5-0.1
				L331.3,170z"/>
			<polygon id="XMLID_793_" class="st15" points="310.1,206.9 352.2,207.1 359.7,158.5 301.4,158.3 			"/>
			<polygon id="XMLID_792_" class="st16" points="331.2,207 352.2,207.1 359.7,158.5 331.4,158.4 			"/>
			<g id="XMLID_787_">
				
					<rect id="XMLID_791_" x="318.3" y="74.2" transform="matrix(-1 -4.164998e-003 4.164998e-003 -1 661.189 195.5591)" class="st10" width="25" height="45.8"/>
				<polygon id="XMLID_790_" class="st10" points="330.6,136.7 351.6,111.8 309.9,111.6 				"/>
				<g id="XMLID_788_" class="st17">
					
						<rect id="XMLID_789_" x="318.3" y="74.2" transform="matrix(-1 -4.164998e-003 4.164998e-003 -1 661.241 187.23)" width="25" height="37.5"/>
				</g>
			</g>
			<path id="XMLID_786_" class="st11" d="M329.8,95l2.1,0c17.8,0.1,32.3-14.4,32.4-32.1l0.1-14.6c0.1-17.8-14.4-32.3-32.1-32.4
				l-2.1,0c-17.8-0.1-32.3,14.4-32.4,32.1l-0.1,14.6C297.6,80.3,312,94.9,329.8,95z"/>
			<path id="XMLID_785_" class="st10" d="M330.8,95L330.8,95c18.3,0.1,33.4-14.9,33.5-33.2l0.1-12.5c0.1-18.3-14.9-33.4-33.2-33.5h0
				L330.8,95z"/>
			<g id="XMLID_780_">
				<defs>
					<path id="XMLID_781_" d="M329.8,95l2.1,0c17.8,0.1,32.3-14.4,32.4-32.1l0.1-14.6c0.1-17.8-14.4-32.3-32.1-32.4l-2.1,0
						c-17.8-0.1-32.3,14.4-32.4,32.1l-0.1,14.6C297.6,80.3,312,94.9,329.8,95z"/>
				</defs>
				<clipPath id="XMLID_2_">
					<use xlink:href="#XMLID_781_"  style="overflow:visible;"/>
				</clipPath>
				<g id="XMLID_782_" class="st18">
					<circle id="XMLID_784_" class="st19" cx="354" cy="22.2" r="27.1"/>
					<circle id="XMLID_783_" class="st19" cx="308.2" cy="22" r="27.1"/>
				</g>
			</g>
			<path id="XMLID_779_" class="st20" d="M323.1,79.1c0,4.9,3.9,8.8,8.7,8.8s8.8-3.8,8.8-8.7"/>
		</g>
		<g id="XMLID_772_">
			<path id="XMLID_777_" class="st19" d="M355.1,277.2v-17.3c0-1.1,0.9-1.8,2-1.8h39c1.1,0,1.9,1,1.9,2v17.3c0,1.1-0.9,1.8-2,1.8
				h-39C356,279.2,355.1,278.3,355.1,277.2z"/>
			<rect id="XMLID_776_" x="362" y="259.9" class="st21" width="29.1" height="17.4"/>
			<g id="XMLID_773_">
				<circle id="XMLID_775_" class="st14" cx="395.2" cy="266.1" r="0.4"/>
				<path id="XMLID_774_" class="st14" d="M394.8,271.6l0-4.2c0-0.1,0.1-0.2,0.2-0.2l0.4,0c0.1,0,0.2,0.1,0.2,0.2l0,4.2
					c0,0.1-0.1,0.2-0.2,0.2l-0.4,0C394.9,271.7,394.8,271.7,394.8,271.6z"/>
			</g>
		</g>
		<path id="XMLID_771_" class="st13" d="M310.3,212.5l41.8,0.2c3.4,0,6.2-2.8,6.2-6.2l0-5.7c0-3.4-2.8-6.2-6.2-6.2l-41.8-0.2
			c-3.4,0-6.2,2.8-6.2,6.2l0,5.7C304.1,209.6,306.9,212.4,310.3,212.5z"/>
		<path id="XMLID_770_" class="st10" d="M372.5,275.1l-0.2,0c-1.8,0-3.3-1.5-3.3-3.3l0.1-16.2c0-1.8,1.5-3.3,3.3-3.3l0.2,0
			c1.8,0,3.3,1.5,3.3,3.3l-0.1,16.2C375.8,273.6,374.3,275.1,372.5,275.1z"/>
		<path id="XMLID_769_" class="st13" d="M304.1,404.9l12.2,0.1c1.6,0,2.9-1.3,2.9-2.9l0-0.2c0-1.6-1.3-2.9-2.9-2.9l-12.2-0.1
			c-1.6,0-2.9,1.3-2.9,2.9l0,0.2C301.2,403.6,302.5,404.9,304.1,404.9z"/>
		<path id="XMLID_768_" class="st14" d="M344.7,405.1l12.2,0.1c1.6,0,2.9-1.3,2.9-2.9l0-0.2c0-1.6-1.3-2.9-2.9-2.9l-12.2-0.1
			c-1.6,0-2.9,1.3-2.9,2.9l0,0.2C341.8,403.8,343.1,405.1,344.7,405.1z"/>
		<path id="XMLID_767_" class="st14" d="M330.3,212.5l21.7,0.1c3.4,0,6.2-2.8,6.2-6.2l0-5.7c0-3.4-2.8-6.2-6.2-6.2l-21.7-0.1
			L330.3,212.5z"/>
	</g>
	<g id="XMLID_760_">
		<path id="XMLID_765_" class="st11" d="M283.7,195l0.6-0.5c4.8-4.7,12.5-4.6,17.2,0.2l12.2,12.5c4.7,4.8,4.6,12.5-0.2,17.2
			l-0.6,0.5c-4.8,4.7-12.5,4.6-17.2-0.2l-12.2-12.5C278.8,207.3,278.9,199.6,283.7,195z"/>
		<g id="XMLID_761_">
			
				<rect id="XMLID_764_" x="264.4" y="157.2" transform="matrix(-0.716 0.6981 -0.6981 -0.716 595.4487 122.8378)" class="st11" width="16.7" height="50.7"/>
			<circle id="XMLID_763_" class="st11" cx="255" cy="164.4" r="8.3"/>
			<circle id="XMLID_762_" class="st11" cx="289.4" cy="199.6" r="8.3"/>
		</g>
	</g>
</g>
</svg>
