<?xml version="1.0" encoding="utf-8"?>
<!-- Generator: Adobe Illustrator 19.0.0, SVG Export Plug-In . SVG Version: 6.00 Build 0)  -->
<svg version="1.1" xmlns="http://www.w3.org/2000/svg" xmlns:xlink="http://www.w3.org/1999/xlink" x="0px" y="0px"
	 viewBox="0 0 687 615.8" style="enable-background:new 0 0 687 615.8;" xml:space="preserve">
<style type="text/css">
	.st0{display:none;}
	.st1{display:inline;fill:#E0F2F1;}
	.st2{display:inline;fill:#FF7043;}
	.st3{display:inline;}
	.st4{fill:#AEEA00;}
	.st5{fill:#A1887F;}
	.st6{fill:#FFFFFF;}
	.st7{fill:#FAFAFA;}
	.st8{display:inline;fill:#4DB6AC;}
	.st9{fill:#C6FF00;}
	.st10{clip-path:url(#XMLID_16_);}
	.st11{fill:#37474F;}
	.st12{fill:#FFAB00;}
	.st13{fill:#FFCA28;}
	.st14{fill:#82B1FF;}
	.st15{fill:#455A64;}
	.st16{fill:#607D8B;}
	.st17{fill:#FF6E40;}
	.st18{fill:#F4511E;}
	.st19{opacity:0.1;}
	.st20{clip-path:url(#XMLID_17_);}
	.st21{fill:#263238;}
	.st22{fill:#F5F5F5;}
	.st23{fill:#CFD8DC;}
	.st24{clip-path:url(#XMLID_18_);}
	.st25{fill:#FFEE58;}
	.st26{fill:#4DB6AC;}
	.st27{fill:#00838F;}
	.st28{fill:#EEEEEE;}
	.st29{fill:#B2FF59;}
	.st30{fill:#64DD17;}
	.st31{fill:#76FF03;}
	.st32{clip-path:url(#XMLID_32_);}
	.st33{fill:#FB8C00;}
	.st34{fill:#FFA726;}
	.st35{opacity:0.1;fill:#212121;}
	.st36{fill:#FF9800;}
	.st37{fill:#FF5722;}
	.st38{fill:#BF360C;}
	.st39{fill:#90A4AE;}
	.st40{fill:#78909C;}
	.st41{fill:#FFC400;}
	.st42{fill:#D84315;}
	.st43{fill:#FFF3E0;}
	.st44{fill:#E0E0E0;}
	.st45{fill:#EF6C00;}
	.st46{fill:#E64A19;}
</style>
<g id="Layer_2" class="st0">
	<path id="XMLID_1493_" class="st1" d="M595.2,363.3H92.9c0-139,112.4-251.1,251.1-251.1S595.2,224.3,595.2,363.3z"/>
	<path id="XMLID_1_" class="st2" d="M595.2,363.3H92.9c0,139,112.4,251.1,251.1,251.1S595.2,502.3,595.2,363.3z"/>
	<g id="XMLID_1489_" class="st3">
		<circle id="XMLID_1492_" class="st4" cx="526.4" cy="278.7" r="44.8"/>
		<polygon id="XMLID_1490_" class="st5" points="529.5,384.3 525.8,384.3 525.7,299 512.4,291.8 512.4,287.6 525.7,294.8 
			525.8,278.3 508.8,266.6 508.8,262.4 525.8,273.4 525.8,250.8 529.8,250.8 529.8,256.6 539,248.9 539,252.4 529.8,260.8 
			529.8,278 529.8,284.3 529.7,301.3 545.3,288.2 545.3,293.6 529.8,306.5 		"/>
	</g>
	<g id="XMLID_1485_" class="st3">
		<path id="XMLID_1488_" class="st6" d="M247.5,326.3h34.4c0-9-7.7-17.2-17.2-17.2S247.5,317.3,247.5,326.3z"/>
		<path id="XMLID_1487_" class="st6" d="M229,326.3h25.8c0-7-5.8-12.9-12.9-12.9S229,319.3,229,326.3z"/>
		<path id="XMLID_1486_" class="st6" d="M219.6,326.3h11.7c0-3-2.6-5.8-5.8-5.8C222.2,320.4,219.6,323.3,219.6,326.3z"/>
	</g>
	<g id="XMLID_1481_" class="st3">
		<path id="XMLID_1484_" class="st7" d="M558.5,277.3H687c0-35-28.8-64.3-64.3-64.3C587.3,213,558.5,242.3,558.5,277.3z"/>
		<path id="XMLID_1483_" class="st7" d="M489.4,277.3h96.4c0-27-21.6-48.2-48.2-48.2S489.4,250.3,489.4,277.3z"/>
		<path id="XMLID_1482_" class="st7" d="M454.4,277.3H498c0-13-9.7-21.8-21.8-21.8C464.2,255.5,454.4,264.3,454.4,277.3z"/>
	</g>
	<path id="XMLID_1480_" class="st8" d="M102,428.4h107.8c9,0,16.4,7.4,16.4,16.4v0c0,9-7.4,16.4-16.4,16.4H102
		c-9,0-16.4-7.4-16.4-16.4v0C85.6,435.7,93,428.4,102,428.4z"/>
	<path id="XMLID_1479_" class="st8" d="M61.7,405.2h107.8c9,0,16.4,7.4,16.4,16.4v0c0,9-7.4,16.4-16.4,16.4H61.7
		c-9,0-16.4-7.4-16.4-16.4v0C45.2,412.6,52.6,405.2,61.7,405.2z"/>
	<path id="XMLID_1478_" class="st8" d="M16.4,405.2L16.4,405.2c9,0,16.4,7.4,16.4,16.4v0c0,9-7.4,16.4-16.4,16.4h0
		c-9,0-16.4-7.4-16.4-16.4v0C0,412.6,7.4,405.2,16.4,405.2z"/>
	<path id="XMLID_1477_" class="st2" d="M524.9,472.6h70.7c9,0,16.4,7.4,16.4,16.4v0c0,9-7.4,16.4-16.4,16.4h-70.7
		c-9,0-16.4-7.4-16.4-16.4v0C508.4,480,515.8,472.6,524.9,472.6z"/>
	<path id="XMLID_1476_" class="st2" d="M514,512.6h107.8c9,0,16.4,7.4,16.4,16.4v0c0,9-7.4,16.4-16.4,16.4H514
		c-9,0-16.4-7.4-16.4-16.4v0C497.5,520,504.9,512.6,514,512.6z"/>
	<path id="XMLID_1475_" class="st2" d="M246.7,505.5h-28.9c-9,0-16.4-7.4-16.4-16.4v0c0-9,7.4-16.4,16.4-16.4h28.9
		c9,0,16.4,7.4,16.4,16.4v0C263.1,498.1,255.7,505.5,246.7,505.5z"/>
	<path id="XMLID_1474_" class="st2" d="M657.6,512.6L657.6,512.6c-9,0-16.4,7.4-16.4,16.4v0c0,9,7.4,16.4,16.4,16.4h0
		c9,0,16.4-7.4,16.4-16.4v0C674,520,666.6,512.6,657.6,512.6z"/>
	<path id="XMLID_1473_" class="st1" d="M492.6,184.3h102.8c5.5,0,10,4.5,10,10v1.6c0,5.5-4.5,10-10,10H492.6c-5.5,0-10-4.5-10-10
		v-1.6C482.6,188.9,487.1,184.3,492.6,184.3z"/>
	<path id="XMLID_1472_" class="st1" d="M483.5,159.2h39.7c5.5,0,10,4.5,10,10v0c0,5.5-4.5,10-10,10h-39.7c-5.5,0-10-4.5-10-10v0
		C473.5,163.8,478,159.2,483.5,159.2z"/>
	<path id="XMLID_1471_" class="st1" d="M553.5,159.2h6.9c5.5,0,10,4.5,10,10v0c0,5.5-4.5,10-10,10h-6.9c-5.5,0-10-4.5-10-10v0
		C543.5,163.8,548,159.2,553.5,159.2z"/>
	<g id="XMLID_1467_" class="st3">
		<circle id="XMLID_1470_" class="st9" cx="483.9" cy="268.1" r="52.3"/>
		<polygon id="XMLID_1468_" class="st5" points="484.1,393.9 488.3,393.9 488.4,295.8 503.7,287.5 503.7,282.6 488.4,290.9 
			488.4,271.9 507.8,258.5 507.9,253.6 488.3,266.3 488.3,240.3 483.7,240.3 483.7,247 473.1,238.1 473.1,242.2 483.7,251.8 
			483.7,271.6 464.8,255.4 464.8,261.6 483.8,278.9 483.8,298.4 465.8,283.3 465.8,289.6 483.7,304.4 		"/>
	</g>
	<g id="XMLID_1271_" class="st3">
		<defs>
			<circle id="XMLID_1272_" cx="344.1" cy="363.6" r="251.1"/>
		</defs>
		<clipPath id="XMLID_16_">
			<use xlink:href="#XMLID_1272_"  style="overflow:visible;"/>
		</clipPath>
		<g id="XMLID_1273_" class="st10">
			<path id="XMLID_1466_" class="st11" d="M269.2,210h97.2c19.9,0,36.2-16.3,36.2-36.2V94.5H269.2V210z"/>
			<g id="XMLID_1280_">
				<g id="XMLID_1463_">
					
						<rect id="XMLID_1465_" x="195.9" y="253.5" transform="matrix(0.7651 0.6439 -0.6439 0.7651 243.5356 -66.2925)" class="st12" width="33.4" height="94.2"/>
					<circle id="XMLID_1464_" class="st12" cx="243" cy="264.6" r="16.7"/>
				</g>
				<g id="XMLID_1458_">
					
						<rect id="XMLID_1462_" x="365.8" y="528.4" transform="matrix(-1 -4.164998e-003 4.164998e-003 -1 754.1089 1401.4661)" class="st13" width="25.4" height="343"/>
					<path id="XMLID_1461_" class="st7" d="M418.2,880.2l21.3,0.1c0-11.7-9.4-21.3-21.2-21.4C418.3,858.9,418.3,868.4,418.2,880.2z"
						/>
					
						<rect id="XMLID_1460_" x="365.1" y="858.8" transform="matrix(-1 -4.164998e-003 4.164998e-003 -1 780.9303 1740.5333)" class="st7" width="54.3" height="21.3"/>
					
						<rect id="XMLID_1459_" x="365" y="880.1" transform="matrix(-1 -4.164998e-003 4.164998e-003 -1 800.8197 1772.5603)" class="st14" width="74.4" height="10.6"/>
				</g>
				<g id="XMLID_1453_">
					
						<rect id="XMLID_1457_" x="283.2" y="528.1" transform="matrix(1 4.164998e-003 -4.164998e-003 1 2.9164 -1.2266)" class="st12" width="25.4" height="343"/>
					<path id="XMLID_1456_" class="st7" d="M254.7,879.5l-21.3-0.1c0-11.7,9.6-21.2,21.4-21.2C254.8,858.2,254.8,867.8,254.7,879.5z
						"/>
					
						<rect id="XMLID_1455_" x="253.6" y="858.4" transform="matrix(1 4.164998e-003 -4.164998e-003 1 3.6218 -1.1619)" class="st7" width="54.3" height="21.3"/>
					
						<rect id="XMLID_1454_" x="233.4" y="879.6" transform="matrix(1 4.164998e-003 -4.164998e-003 1 3.6879 -1.1196)" class="st14" width="74.4" height="10.6"/>
				</g>
				<path id="XMLID_1452_" class="st15" d="M373.5,811.8l5.9,0c6.6,0,12.1-5.7,12.1-12.8l25.5-324c0.1-23-17.4-41.8-38.9-41.9h0
					c-21.5-0.1-39.2,18.6-39.3,41.6l22.8,324.2C361.5,806,366.9,811.8,373.5,811.8z"/>
				<path id="XMLID_1451_" class="st16" d="M357,403.3l-38.2-0.2c-33.1-0.1-60.4,26.9-60.5,60v0c-0.2,39.8,32.2,72.5,72,72.6
					l14.1,0.1c39.8,0.2,72.5-32.2,72.6-72v0C417.1,430.7,390.1,403.5,357,403.3z"/>
				<path id="XMLID_1450_" class="st16" d="M293,811.5l5.9,0c6.6,0,12.1-5.7,12.1-12.8l25.5-324c0.1-23-17.4-41.8-38.9-41.9h0
					c-21.5-0.1-39.2,18.6-39.3,41.6L281,798.6C280.9,805.7,286.3,811.5,293,811.5z"/>
				<path id="XMLID_1449_" class="st15" d="M357,403.3l-20.8-0.1l-0.6,132.6l8.7,0c39.8,0.2,72.5-32.2,72.6-72v0
					C417.1,430.7,390.1,403.5,357,403.3z"/>
				<g id="XMLID_1446_">
					
						<rect id="XMLID_1448_" x="411.3" y="274.3" transform="matrix(-1 -4.164998e-003 4.164998e-003 -1 854.2729 809.0297)" class="st12" width="33.4" height="258.7"/>
					<path id="XMLID_1447_" class="st12" d="M427.5,585.4l2,0c13.3,0.1,24.2-10.7,24.2-24l0.1-35.5c0.1-13.3-10.7-24.2-24-24.2l-2,0
						c-13.3-0.1-24.2,10.7-24.2,24l-0.1,35.5C403.4,574.5,414.2,585.4,427.5,585.4z"/>
				</g>
				<g id="XMLID_1292_">
					<path id="XMLID_1445_" class="st17" d="M262.3,307l182.7,0.8l0.2-47.3c0.1-19.9-16.1-36.2-36-36.3l-144.6-0.6
						c-19.9-0.1-36.2,16.1-36.3,36L262.3,307z"/>
					<path id="XMLID_1444_" class="st18" d="M336.6,307.3l108.5,0.5l0.2-47.3c0.1-19.9-16.1-36.2-36-36.3l-72.3-0.3L336.6,307.3z"/>
					<path id="XMLID_1443_" class="st17" d="M303.1,340.5l66.8,0.3c22.9,0.1,41.8-18.6,41.9-41.5l0,0c0.1-22.9-18.6-41.8-41.5-41.9
						l-66.8-0.3c-22.9-0.1-41.8,18.6-41.9,41.5l0,0C261.4,321.6,280.1,340.4,303.1,340.5z"/>
					<path id="XMLID_1442_" class="st18" d="M338.1,340.7l31.7,0.1c22.9,0.1,41.8-18.6,41.9-41.5l0,0c0.1-22.9-18.6-41.8-41.5-41.9
						l-31.7-0.1L338.1,340.7z"/>
					<polygon id="XMLID_1441_" class="st17" points="295.6,414.7 380,415 395,317.7 278.1,317.2 					"/>
					<polygon id="XMLID_1440_" class="st18" points="337.8,414.8 380,415 395,317.7 338.2,317.5 					"/>
					<g id="XMLID_1435_">
						
							<rect id="XMLID_1439_" x="312" y="148.7" transform="matrix(-1 -4.164998e-003 4.164998e-003 -1 673.2996 390.6557)" class="st12" width="50.1" height="91.8"/>
						<polygon id="XMLID_1438_" class="st12" points="336.7,273.9 378.7,224 295.2,223.7 						"/>
						<g id="XMLID_1436_" class="st19">
							
								<rect id="XMLID_1437_" x="312.1" y="148.7" transform="matrix(-1 -4.164998e-003 4.164998e-003 -1 673.4039 373.9666)" width="50.1" height="75.1"/>
						</g>
					</g>
					<path id="XMLID_1434_" class="st13" d="M337.1,190.5L337.1,190.5c36.7,0.2,66.9-29.8,67-66.5l0.1-25
						c0.2-36.7-29.8-66.9-66.5-67l0,0c-36.7-0.2-66.9,29.8-67,66.5l-0.1,25C270.4,160.1,300.4,190.3,337.1,190.5z"/>
					<path id="XMLID_1433_" class="st12" d="M337.1,190.5L337.1,190.5c36.7,0.2,66.9-29.8,67-66.5l0.1-25
						c0.2-36.7-29.8-66.9-66.5-67l0,0L337.1,190.5z"/>
					<g id="XMLID_1294_">
						<defs>
							<path id="XMLID_1429_" d="M337.1,190.5L337.1,190.5c36.7,0.2,66.9-29.8,67-66.5l0.1-25c0.2-36.7-29.8-66.9-66.5-67l0,0
								c-36.7-0.2-66.9,29.8-67,66.5l-0.1,25C270.4,160.1,300.4,190.3,337.1,190.5z"/>
						</defs>
						<clipPath id="XMLID_17_">
							<use xlink:href="#XMLID_1429_"  style="overflow:visible;"/>
						</clipPath>
						<g id="XMLID_1430_" class="st20">
							<circle id="XMLID_1432_" class="st21" cx="383.6" cy="44.6" r="54.2"/>
							<circle id="XMLID_1431_" class="st21" cx="291.8" cy="44.2" r="54.2"/>
						</g>
					</g>
					<path id="XMLID_1293_" class="st22" d="M321.7,158.5c0,9.9,7.8,17.6,17.5,17.7c9.7,0,17.6-7.7,17.7-17.5"/>
				</g>
				<g id="XMLID_1286_">
					<path id="XMLID_1291_" class="st21" d="M385.8,555.5v-34.7c0-2.1,1.8-3.7,4-3.7h78.1c2.1,0,3.8,1.9,3.8,4v34.7
						c0,2.1-1.8,3.7-4,3.7h-78.1C387.5,559.6,385.8,557.7,385.8,555.5z"/>
					<rect id="XMLID_1290_" x="399.7" y="520.9" class="st23" width="58.2" height="34.8"/>
					<g id="XMLID_1287_">
						<circle id="XMLID_1289_" class="st16" cx="466.1" cy="533.2" r="0.8"/>
						<path id="XMLID_1288_" class="st16" d="M465.3,544.3l0-8.5c0-0.2,0.1-0.3,0.3-0.3l0.7,0c0.2,0,0.3,0.1,0.3,0.3l0,8.5
							c0,0.2-0.1,0.3-0.3,0.3l-0.7,0C465.4,544.6,465.3,544.5,465.3,544.3z"/>
					</g>
				</g>
				<path id="XMLID_1285_" class="st15" d="M295.6,425.8l84.4,0.4c6.6,0,12.1-5.4,12.1-12l0.1-12.1c0-6.6-5.4-12.1-12-12.1
					l-84.4-0.4c-6.6,0-12.1,5.4-12.1,12l-0.1,12.1C283.5,420.3,288.9,425.8,295.6,425.8z"/>
				<path id="XMLID_1284_" class="st12" d="M420.4,551.3L420.4,551.3c-3.8,0-6.9-3.1-6.8-6.9l0.1-32c0-3.8,3.1-6.9,6.9-6.8l0,0
					c3.8,0,6.9,3.1,6.8,6.9l-0.1,32C427.3,548.2,424.2,551.3,420.4,551.3z"/>
				<path id="XMLID_1283_" class="st15" d="M283.8,811.5l24.1,0.1c3.3,0,6-2.7,6.1-6l0,0c0-3.3-2.7-6-6-6.1l-24.1-0.1
					c-3.3,0-6,2.7-6.1,6l0,0C277.8,808.7,280.5,811.4,283.8,811.5z"/>
				<path id="XMLID_1282_" class="st16" d="M365.1,811.8l24.1,0.1c3.3,0,6-2.7,6.1-6l0,0c0-3.3-2.7-6-6-6.1l-24.1-0.1
					c-3.3,0-6,2.7-6.1,6l0,0C359.1,809.1,361.8,811.8,365.1,811.8z"/>
				<path id="XMLID_1281_" class="st16" d="M336,426l43.9,0.2c6.6,0,12.1-5.4,12.1-12l0.1-12.1c0-6.6-5.4-12.1-12-12.1l-43.9-0.2
					L336,426z"/>
			</g>
			<g id="XMLID_1274_">
				<path id="XMLID_1279_" class="st13" d="M162,256.3l-1.9,0.6c-12.7,3.7-26.2-3.7-29.9-16.4l-9.9-34c-3.7-12.7,3.7-26.2,16.4-29.9
					l1.9-0.6c12.7-3.7,26.2,3.7,29.9,16.4l9.9,34C182.1,239.2,174.7,252.6,162,256.3z"/>
				<g id="XMLID_1275_">
					
						<rect id="XMLID_1278_" x="152.8" y="237.8" transform="matrix(0.9599 -0.2803 0.2803 0.9599 -74.121 59.0846)" class="st13" width="33.4" height="101.7"/>
					<circle id="XMLID_1277_" class="st13" cx="183.8" cy="337.5" r="16.7"/>
					<circle id="XMLID_1276_" class="st13" cx="156.1" cy="242.8" r="16.7"/>
				</g>
			</g>
		</g>
	</g>
	<g id="XMLID_1254_" class="st3">
		<g id="XMLID_1261_">
			<g id="XMLID_1262_">
				<path id="XMLID_1270_" class="st13" d="M337.1,190.5L337.1,190.5c36.7,0.2,66.9-29.8,67-66.5l0.1-25c0.2-36.7-29.8-66.9-66.5-67
					l0,0c-36.7-0.2-66.9,29.8-67,66.5l-0.1,25C270.4,160.1,300.4,190.3,337.1,190.5z"/>
				<path id="XMLID_1269_" class="st12" d="M337.1,190.5L337.1,190.5c36.7,0.2,66.9-29.8,67-66.5l0.1-25c0.2-36.7-29.8-66.9-66.5-67
					l0,0L337.1,190.5z"/>
				<g id="XMLID_1264_">
					<defs>
						<path id="XMLID_1265_" d="M337.1,190.5L337.1,190.5c36.7,0.2,66.9-29.8,67-66.5l0.1-25c0.2-36.7-29.8-66.9-66.5-67l0,0
							c-36.7-0.2-66.9,29.8-67,66.5l-0.1,25C270.4,160.1,300.4,190.3,337.1,190.5z"/>
					</defs>
					<clipPath id="XMLID_18_">
						<use xlink:href="#XMLID_1265_"  style="overflow:visible;"/>
					</clipPath>
					<g id="XMLID_1266_" class="st24">
						<circle id="XMLID_1268_" class="st21" cx="383.6" cy="44.6" r="54.2"/>
						<circle id="XMLID_1267_" class="st21" cx="291.8" cy="44.2" r="54.2"/>
					</g>
				</g>
				<path id="XMLID_1263_" class="st22" d="M321.7,158.5c0,9.9,7.8,17.6,17.5,17.7c9.7,0,17.6-7.7,17.7-17.5"/>
			</g>
		</g>
		<g id="XMLID_1255_">
			<path id="XMLID_1260_" class="st13" d="M162,256.3l-1.9,0.6c-12.7,3.7-26.2-3.7-29.9-16.4l-9.9-34c-3.7-12.7,3.7-26.2,16.4-29.9
				l1.9-0.6c12.7-3.7,26.2,3.7,29.9,16.4l9.9,34C182.1,239.2,174.7,252.6,162,256.3z"/>
			<g id="XMLID_1256_">
				
					<rect id="XMLID_1259_" x="152.8" y="237.8" transform="matrix(0.9599 -0.2803 0.2803 0.9599 -74.121 59.0846)" class="st13" width="33.4" height="101.7"/>
				<circle id="XMLID_1258_" class="st13" cx="183.8" cy="337.5" r="16.7"/>
				<circle id="XMLID_1257_" class="st13" cx="156.1" cy="242.8" r="16.7"/>
			</g>
		</g>
	</g>
</g>
<g id="Layer_1">
	<g id="XMLID_33_">
		<path id="XMLID_59_" class="st25" d="M595.2,363.3H92.9c0-139,112.4-251.1,251.1-251.1S595.2,224.3,595.2,363.3z"/>
		<path id="XMLID_58_" class="st26" d="M595.2,363.3H92.9c0,139,112.4,251.1,251.1,251.1S595.2,502.3,595.2,363.3z"/>
		<ellipse id="XMLID_57_" class="st27" cx="540.9" cy="423.9" rx="27.5" ry="4.6"/>
		<g id="XMLID_53_">
			<path id="XMLID_56_" class="st6" d="M466.6,202.1h-87.4c0-23.7,19.6-43.7,43.7-43.7S466.6,178.4,466.6,202.1z"/>
			<path id="XMLID_55_" class="st6" d="M513.7,202.1h-65.6c0-18.5,14.7-32.8,32.8-32.8C499,169.3,513.7,183.5,513.7,202.1z"/>
			<path id="XMLID_54_" class="st6" d="M537.4,202.1h-29.6c0-8.2,6.6-14.8,14.8-14.8C530.8,187.2,537.4,193.8,537.4,202.1z"/>
		</g>
		<g id="XMLID_49_">
			<path id="XMLID_52_" class="st28" d="M142.7,277.2H10.4c0-36,29.6-66.1,66.1-66.1S142.7,241.2,142.7,277.2z"/>
			<path id="XMLID_51_" class="st28" d="M213.8,277.2h-99.2c0-27.8,22.2-49.6,49.6-49.6S213.8,249.4,213.8,277.2z"/>
			<path id="XMLID_50_" class="st28" d="M249.8,277.2h-44.8c0-13.4,10-22.4,22.4-22.4S249.8,263.8,249.8,277.2z"/>
		</g>
		<path id="XMLID_48_" class="st26" d="M76.6,494h111.9c9,0,16.4-7.4,16.4-16.4v-1c0-9-7.4-16.4-16.4-16.4H76.6
			c-9,0-16.4,7.4-16.4,16.4v1C60.2,486.6,67.6,494,76.6,494z"/>
		<path id="XMLID_47_" class="st26" d="M119.2,532.4H231c9,0,16.4-7.4,16.4-16.4v-1c0-9-7.4-16.4-16.4-16.4H119.2
			c-9,0-16.4,7.4-16.4,16.4v1C102.7,525,110.1,532.4,119.2,532.4z"/>
		<path id="XMLID_46_" class="st26" d="M16.4,494h17.8c9,0,16.4-7.4,16.4-16.4v-1c0-9-7.4-16.4-16.4-16.4H16.4
			c-9,0-16.4,7.4-16.4,16.4l0,1C0,486.6,7.4,494,16.4,494z"/>
		<path id="XMLID_45_" class="st25" d="M169.6,163.5h-74c-5.5,0-10,4.5-10,10v2.2c0,5.5,4.5,10,10,10h74c5.5,0,10-4.5,10-10v-2.2
			C179.6,168,175.1,163.5,169.6,163.5z"/>
		<g id="XMLID_38_">
			<g id="XMLID_42_">
				<circle id="XMLID_44_" class="st9" cx="541.9" cy="227.3" r="87.9"/>
				<polygon id="XMLID_43_" class="st5" points="544.7,423.9 537.6,423.9 537.5,259.9 511.9,246 511.9,238 537.4,251.8 537.5,220 
					504.9,197.6 504.8,189.4 537.5,210.6 537.6,167.1 545.3,167.1 545.3,178.4 563,163.5 563,170.3 545.3,186.4 545.2,219.6 
					577,192.4 577,202.7 545.2,231.7 545.1,264.4 575.2,239.1 575.2,249.5 545.3,274.3 				"/>
			</g>
			<path id="XMLID_41_" class="st9" d="M677,216.1h-74c-5.5,0-10,4.5-10,10v2.2c0,5.5,4.5,10,10,10h74c5.5,0,10-4.5,10-10v-2.2
				C687,220.6,682.5,216.1,677,216.1z"/>
			<path id="XMLID_40_" class="st9" d="M630.7,184.3h-27.4c-5.5,0-10,4.5-10,10v0.6c0,5.5,4.5,10,10,10h27.4c5.5,0,10-4.5,10-10
				v-0.6C640.7,188.8,636.2,184.3,630.7,184.3z"/>
			<path id="XMLID_39_" class="st9" d="M656.3,184.3h-0.6c-5.5,0-10,4.5-10,10v0.6c0,5.5,4.5,10,10,10h0.6c5.5,0,10-4.5,10-10v-0.6
				C666.4,188.8,661.9,184.3,656.3,184.3z"/>
		</g>
		<g id="XMLID_34_">
			<path id="XMLID_37_" class="st29" d="M160.4,380.3h80.4c0-22.2-18-40.2-40.2-40.2S160.4,358.1,160.4,380.3z"/>
			<path id="XMLID_36_" class="st30" d="M150.1,380.3h59.7c0-16.5-13.4-29.9-29.9-29.9S150.1,363.8,150.1,380.3z"/>
			<path id="XMLID_35_" class="st31" d="M188.4,380.3h38.1c0-10.3-8.5-19-19-19S188.4,370,188.4,380.3z"/>
		</g>
	</g>
	<path id="XMLID_1754_" class="st25" d="M180.9,172.9h-8.6c-5.3,0-9.6,4.3-9.6,9.6v0c0,5.3,4.3,9.6,9.6,9.6h8.6
		c5.3,0,9.6-4.3,9.6-9.6v0C190.5,177.2,186.2,172.9,180.9,172.9z"/>
	<path id="XMLID_1753_" class="st25" d="M146.9,172.9L146.9,172.9c-5.3,0-9.6,4.3-9.6,9.6v0c0,5.3,4.3,9.6,9.6,9.6h0
		c5.3,0,9.6-4.3,9.6-9.6v0C156.4,177.2,152.1,172.9,146.9,172.9z"/>
	<g id="XMLID_1685_">
		<defs>
			<ellipse id="XMLID_1686_" cx="343.9" cy="363.5" rx="251" ry="250.9"/>
		</defs>
		<clipPath id="XMLID_32_">
			<use xlink:href="#XMLID_1686_"  style="overflow:visible;"/>
		</clipPath>
		<g id="XMLID_1687_" class="st32">
			<path id="XMLID_1748_" class="st21" d="M395,94.2v-53c0-6.5-5.3-11.8-11.8-11.8h0c-6.5,0-11.8,5.3-11.8,11.8v53
				c0,6.5,5.3,11.8,11.8,11.8h0C389.7,106,395,100.7,395,94.2z"/>
			<g id="XMLID_1744_">
				<circle id="XMLID_1747_" class="st16" cx="464.1" cy="416.2" r="25.2"/>
				<circle id="XMLID_1746_" class="st16" cx="405.1" cy="304.9" r="25.2"/>
				
					<rect id="XMLID_1745_" x="371.6" y="335.4" transform="matrix(-0.4687 -0.8834 0.8834 -0.4687 319.7823 913.4464)" class="st16" width="125.9" height="50.4"/>
			</g>
			<rect id="XMLID_1743_" x="310" y="211.9" class="st33" width="49.6" height="70.6"/>
			<path id="XMLID_1742_" class="st34" d="M336.1,223.7L336.1,223.7c32.4,0,58.9-26.5,58.9-58.9V94.2c0-32.4-26.5-58.9-58.9-58.9h0
				c-32.4,0-58.9,26.5-58.9,58.9v70.6C277.3,197.2,303.8,223.7,336.1,223.7z"/>
			<path id="XMLID_1741_" class="st35" d="M336.1,223.7L336.1,223.7l0-188.4h0c-32.4,0-58.9,26.5-58.9,58.9v70.6
				C277.3,197.2,303.8,223.7,336.1,223.7z"/>
			<path id="XMLID_1740_" class="st15" d="M316,553.4h40.2c40.8,0,74.1-33.3,74.1-74.1V321.4c0-40.8-33.3-74.1-74.1-74.1H316
				c-40.8,0-74.1,33.3-74.1,74.1v157.9C241.9,520,275.3,553.4,316,553.4z"/>
			<path id="XMLID_1739_" class="st16" d="M359.7,247.2h-23.5v306.1h23.5c38.9,0,70.6-31.8,70.6-70.6V317.9
				C430.3,279,398.5,247.2,359.7,247.2z"/>
			<path id="XMLID_1738_" class="st16" d="M312.6,482.7h117.7V317.9c0-38.9-31.8-70.6-70.6-70.6h-47.1V482.7z"/>
			<rect id="XMLID_1737_" x="336.1" y="529.8" class="st16" width="58.9" height="412.1"/>
			<rect id="XMLID_1736_" x="277.3" y="529.8" class="st15" width="58.9" height="412.1"/>
			<g id="XMLID_1731_">
				<path id="XMLID_1735_" class="st36" d="M414.5,900h26.6c0-14.7-11.9-26.6-26.6-26.6C414.5,873.3,414.5,885.3,414.5,900z"/>
				<rect id="XMLID_1734_" x="387.9" y="873.3" class="st36" width="26.6" height="26.6"/>
				<rect id="XMLID_1733_" x="347.9" y="873.3" class="st36" width="40" height="26.6"/>
				<rect id="XMLID_1732_" x="347.9" y="900" class="st36" width="93.2" height="13.3"/>
			</g>
			<rect id="XMLID_1730_" x="308.5" y="247.2" class="st7" width="55.2" height="235.5"/>
			<rect id="XMLID_1729_" x="324.4" y="247.2" class="st37" width="23.5" height="194.3"/>
			<g id="XMLID_1726_">
				<circle id="XMLID_1728_" class="st15" cx="277.3" cy="294.3" r="23.5"/>
				
					<rect id="XMLID_1727_" x="142.2" y="316.9" transform="matrix(-0.7914 0.6113 -0.6113 -0.7914 597.9144 476.8119)" class="st15" width="150.8" height="47.1"/>
			</g>
			<g id="XMLID_1723_">
				<circle id="XMLID_1725_" class="st16" cx="159.5" cy="388.5" r="23.5"/>
				<rect id="XMLID_1724_" x="136" y="223.7" class="st16" width="47.1" height="164.8"/>
			</g>
			<g id="XMLID_1713_">
				<g id="XMLID_1719_">
					<circle id="XMLID_1722_" class="st6" cx="159.5" cy="211.9" r="23.5"/>
					<circle id="XMLID_1721_" class="st6" cx="159.5" cy="235.5" r="23.5"/>
					<rect id="XMLID_1720_" x="136" y="211.9" class="st6" width="47.1" height="23.5"/>
				</g>
				<g id="XMLID_1715_">
					<circle id="XMLID_1718_" class="st33" cx="159.5" cy="200.2" r="23.5"/>
					<circle id="XMLID_1717_" class="st33" cx="159.5" cy="223.7" r="23.5"/>
					<rect id="XMLID_1716_" x="136" y="200.2" class="st33" width="47.1" height="23.5"/>
				</g>
				<path id="XMLID_1714_" class="st34" d="M159.5,219.7L159.5,219.7c18,0,32.6-14.7,32.6-32.6v-42.8c0-18-14.7-32.6-32.6-32.6h0
					c-18,0-32.6,14.7-32.6,32.6v42.8C126.9,205.1,141.6,219.7,159.5,219.7z"/>
			</g>
			<rect id="XMLID_1712_" x="241.9" y="482.7" class="st38" width="188.4" height="11.8"/>
			<rect id="XMLID_1711_" x="371.5" y="400.3" class="st16" width="47.1" height="82.4"/>
			<path id="XMLID_1710_" class="st39" d="M271.4,470.9L271.4,470.9c3.3,0,5.9-2.6,5.9-5.9v-58.9c0-3.3-2.6-5.9-5.9-5.9h0
				c-3.3,0-5.9,2.6-5.9,5.9v58.9C265.5,468.3,268.1,470.9,271.4,470.9z"/>
			<path id="XMLID_1709_" class="st40" d="M400.9,470.9L400.9,470.9c3.3,0,5.9-2.6,5.9-5.9v-58.9c0-3.3-2.6-5.9-5.9-5.9l0,0
				c-3.3,0-5.9,2.6-5.9,5.9v58.9C395,468.3,397.6,470.9,400.9,470.9z"/>
			<rect id="XMLID_1708_" x="324.4" y="482.7" class="st41" width="23.5" height="11.8"/>
			<path id="XMLID_1707_" class="st6" d="M372.9,175.5v-9.8h-31.3c0,0,0.7,9.8,15,9.8C370.8,175.5,372.9,175.5,372.9,175.5z"/>
			<path id="XMLID_1706_" class="st21" d="M289.6,58.9h93c6.8,0,12.4-5.6,12.4-12.4v-2.4c0-6.8-5.6-12.4-12.4-12.4h-93
				c-6.8,0-12.4,5.6-12.4,12.4v2.4C277.3,53.3,282.8,58.9,289.6,58.9z"/>
			<path id="XMLID_1705_" class="st21" d="M300.8,106V47.1c0-6.5-5.3-11.8-11.8-11.8h0c-6.5,0-11.8,5.3-11.8,11.8V106
				c0,6.5,5.3,11.8,11.8,11.8h0C295.5,117.7,300.8,112.4,300.8,106z"/>
			<path id="XMLID_1704_" class="st21" d="M361,58.9c11.8,0,29.4-13.2,29.4-29.4S372.9,0,361,0V58.9z"/>
			
				<rect id="XMLID_1703_" x="327.8" y="433.2" transform="matrix(-0.7071 0.7071 -0.7071 -0.7071 886.0076 516.0248)" class="st37" width="16.7" height="16.6"/>
			<g id="XMLID_1688_">
				<g id="XMLID_1700_">
					<circle id="XMLID_1702_" class="st16" cx="465.6" cy="576.9" r="23.5"/>
					<rect id="XMLID_1701_" x="442.1" y="412.1" class="st16" width="47.1" height="164.8"/>
				</g>
				<g id="XMLID_1694_">
					<path id="XMLID_1699_" class="st18" d="M393.9,754.8h144.4c7.7,0,14-6.3,14-14V639.5c0-7.7-6.3-14-14-14H393.9
						c-7.7,0-14,6.3-14,14v101.3C379.9,748.6,386.2,754.8,393.9,754.8z"/>
					<path id="XMLID_1698_" class="st42" d="M379.9,690.2h172.4v-50.6c0-7.7-6.3-14-14-14H393.9c-7.7,0-14,6.3-14,14V690.2z"/>
					<path id="XMLID_1697_" class="st12" d="M433.8,625.6h64.6v-18.3c0-7.7-6.3-14-14-14h-36.7c-7.7,0-14,6.3-14,14V625.6z"/>
					<path id="XMLID_1696_" class="st21" d="M444.6,625.6h43.1v-12.2c0-5.1-4.2-9.3-9.3-9.3h-24.4c-5.1,0-9.3,4.2-9.3,9.3V625.6z"/>
					<path id="XMLID_1695_" class="st41" d="M464,706h4.3c7.5,0,13.7-6.2,13.7-13.7v-4.3c0-7.5-6.2-13.7-13.7-13.7H464
						c-7.5,0-13.7,6.2-13.7,13.7v4.3C450.3,699.8,456.5,706,464,706z"/>
				</g>
				<circle id="XMLID_1693_" class="st33" cx="465.6" cy="600.5" r="23.5"/>
				<circle id="XMLID_1692_" class="st43" cx="465.6" cy="565.1" r="23.5"/>
				<rect id="XMLID_1691_" x="442.1" y="565.9" class="st43" width="47.1" height="22.8"/>
				<circle id="XMLID_1690_" class="st33" cx="465.6" cy="576.9" r="23.5"/>
				<rect id="XMLID_1689_" x="442.1" y="577.6" class="st33" width="47.1" height="22.8"/>
			</g>
		</g>
	</g>
	<path id="XMLID_1665_" class="st21" d="M395,94.2v-53c0-6.5-5.3-11.8-11.8-11.8h0c-6.5,0-11.8,5.3-11.8,11.8v53
		c0,6.5,5.3,11.8,11.8,11.8h0C389.7,106,395,100.7,395,94.2z"/>
	<path id="XMLID_1664_" class="st34" d="M336.1,223.7L336.1,223.7c32.4,0,58.9-26.5,58.9-58.9V94.2c0-32.4-26.5-58.9-58.9-58.9h0
		c-32.4,0-58.9,26.5-58.9,58.9v70.6C277.3,197.2,303.8,223.7,336.1,223.7z"/>
	<path id="XMLID_1663_" class="st35" d="M336.1,223.7L336.1,223.7l0-188.4h0c-32.4,0-58.9,26.5-58.9,58.9v70.6
		C277.3,197.2,303.8,223.7,336.1,223.7z"/>
	<g id="XMLID_1653_">
		<g id="XMLID_1659_">
			<circle id="XMLID_1662_" class="st6" cx="159.5" cy="211.9" r="23.5"/>
			<circle id="XMLID_1661_" class="st6" cx="159.5" cy="235.5" r="23.5"/>
			<rect id="XMLID_1660_" x="136" y="211.9" class="st6" width="47.1" height="23.5"/>
		</g>
		<g id="XMLID_1655_">
			<circle id="XMLID_1658_" class="st33" cx="159.5" cy="200.2" r="23.5"/>
			<circle id="XMLID_1657_" class="st33" cx="159.5" cy="223.7" r="23.5"/>
			<rect id="XMLID_1656_" x="136" y="200.2" class="st33" width="47.1" height="23.5"/>
		</g>
		<path id="XMLID_1654_" class="st34" d="M159.5,219.7L159.5,219.7c18,0,32.6-14.7,32.6-32.6v-42.8c0-18-14.7-32.6-32.6-32.6h0
			c-18,0-32.6,14.7-32.6,32.6v42.8C126.9,205.1,141.6,219.7,159.5,219.7z"/>
	</g>
	<path id="XMLID_1652_" class="st6" d="M372.9,175.5v-9.8h-31.3c0,0,0.7,9.8,15,9.8C370.8,175.5,372.9,175.5,372.9,175.5z"/>
	<path id="XMLID_1651_" class="st21" d="M289.6,58.9h93c6.8,0,12.4-5.6,12.4-12.4v-2.4c0-6.8-5.6-12.4-12.4-12.4h-93
		c-6.8,0-12.4,5.6-12.4,12.4v2.4C277.3,53.3,282.8,58.9,289.6,58.9z"/>
	<path id="XMLID_1650_" class="st21" d="M300.8,106V47.1c0-6.5-5.3-11.8-11.8-11.8h0c-6.5,0-11.8,5.3-11.8,11.8V106
		c0,6.5,5.3,11.8,11.8,11.8h0C295.5,117.7,300.8,112.4,300.8,106z"/>
	<path id="XMLID_1649_" class="st21" d="M361,58.9c11.8,0,29.4-13.2,29.4-29.4S372.9,0,361,0V58.9z"/>
	<g id="XMLID_1675_">
		<ellipse id="XMLID_1683_" class="st7" cx="418.2" cy="457.3" rx="89.3" ry="17.2"/>
		<path id="XMLID_1682_" class="st44" d="M328.9,457.3c0,9.5,40,17.2,89.3,17.2v-34.3C368.9,440.2,328.9,447.8,328.9,457.3z"/>
		<path id="XMLID_1681_" class="st33" d="M507.3,456.2l7.4,11.7L493,565v17.3c0,0-8.8,21.2-77.2,21.2c-59,0-72.9-20.2-72.9-20.2
			l0.7-20.5l-20-93.9l5.5-12.8c0,0,3,17,83.6,17C506.9,473,507.3,456.2,507.3,456.2z"/>
		<path id="XMLID_1680_" class="st45" d="M418.2,604.4c-59,0-75.2-20.2-75.2-20.2l0.7-20.5l-20-93.9l5.5-12.8c0,0,8.5,16,89,16
			L418.2,604.4z"/>
		<path id="XMLID_1679_" class="st37" d="M414.4,582.2c-35.8,0-70.7-19-70.7-19l-0.7,21.2c0,0,16.6,20,72.2,20
			c67.4,0,77.9-20.3,77.9-20.3l0-19.3C493,564.8,450.2,582.2,414.4,582.2z"/>
		<path id="XMLID_1678_" class="st37" d="M508.7,494.9c0,0-26.5,15.5-89.8,13.4s-89.8-13.5-89.8-13.5l-4.9-23
			c0,0,40.8,15.6,94.7,15.6c63.1,0,94.9-15.6,94.9-15.6L508.7,494.9z"/>
		<path id="XMLID_1677_" class="st46" d="M418.2,582.1c-35.8,0-74.5-18.9-74.5-18.9l-0.7,21.2c0,0,14.6,19.9,75.2,19.9L418.2,582.1z
			"/>
		<path id="XMLID_1676_" class="st46" d="M418.2,508.3c-63.3-2-89-13.5-89-13.5l-4.9-23c0,0,40,15.7,93.9,15.7L418.2,508.3z"/>
	</g>
	<g id="XMLID_1666_">
		<ellipse id="XMLID_1674_" class="st7" cx="283.8" cy="458.5" rx="95.5" ry="18.4"/>
		<path id="XMLID_1673_" class="st44" d="M188.4,458.5c0,10.1,42.7,18.4,95.5,18.4v-36.7C231.1,440.2,188.4,448.4,188.4,458.5z"/>
		<path id="XMLID_1672_" class="st33" d="M379.1,457.4l7.9,12.5l-23.2,103.7v18.5c0,0-9.4,22.7-82.5,22.7c-63.1,0-78-21.6-78-21.6
			l0.7-21.9l-21.4-100.4l5.9-13.7c0,0,3.3,18.2,89.3,18.2C378.7,475.3,379.1,457.4,379.1,457.4z"/>
		<path id="XMLID_1671_" class="st45" d="M283.8,615.8c-63.1,0-80.4-21.6-80.4-21.6l0.7-21.9l-21.4-100.4l5.9-13.7
			c0,0,9.1,17.1,95.2,17.1L283.8,615.8z"/>
		<path id="XMLID_1670_" class="st37" d="M279.8,592c-38.3,0-75.6-20.3-75.6-20.3l-0.7,22.6c0,0,17.8,21.4,77.2,21.4
			c72.1,0,83.3-21.7,83.3-21.7l0-20.6C363.9,573.4,318,592,279.8,592z"/>
		<path id="XMLID_1669_" class="st37" d="M380.7,498.7c0,0-28.3,16.5-96,14.4s-96-14.4-96-14.4l-5.3-24.6c0,0,43.6,16.7,101.2,16.7
			c67.4,0,101.5-16.7,101.5-16.7L380.7,498.7z"/>
		<path id="XMLID_1668_" class="st46" d="M283.8,591.9c-38.3,0-79.7-20.2-79.7-20.2l-0.7,22.6c0,0,15.6,21.3,80.4,21.3L283.8,591.9z
			"/>
		<path id="XMLID_1667_" class="st46" d="M283.8,513c-67.7-2.2-95.1-14.4-95.1-14.4l-5.3-24.6c0,0,42.8,16.8,100.4,16.8L283.8,513z"
			/>
	</g>
</g>
</svg>
