<?xml version="1.0" encoding="utf-8"?>
<!-- Generator: Adobe Illustrator 19.0.0, SVG Export Plug-In . SVG Version: 6.00 Build 0)  -->
<svg version="1.1" xmlns="http://www.w3.org/2000/svg" xmlns:xlink="http://www.w3.org/1999/xlink" x="0px" y="0px"
	 viewBox="0 0 687 511.2" style="enable-background:new 0 0 687 511.2;" xml:space="preserve">
<style type="text/css">
	.st0{display:none;}
	.st1{display:inline;fill:#E0F2F1;}
	.st2{display:inline;fill:#FF7043;}
	.st3{display:inline;}
	.st4{fill:#AEEA00;}
	.st5{fill:#A1887F;}
	.st6{fill:#FFFFFF;}
	.st7{fill:#FAFAFA;}
	.st8{display:inline;fill:#4DB6AC;}
	.st9{fill:#C6FF00;}
	.st10{clip-path:url(#XMLID_106_);}
	.st11{fill:#37474F;}
	.st12{fill:#FFAB00;}
	.st13{fill:#FFCA28;}
	.st14{fill:#82B1FF;}
	.st15{fill:#455A64;}
	.st16{fill:#607D8B;}
	.st17{fill:#FF6E40;}
	.st18{fill:#F4511E;}
	.st19{opacity:0.1;}
	.st20{clip-path:url(#XMLID_107_);}
	.st21{fill:#263238;}
	.st22{fill:#F5F5F5;}
	.st23{fill:#CFD8DC;}
	.st24{clip-path:url(#XMLID_108_);}
	.st25{display:inline;fill:#FFEE58;}
	.st26{display:inline;fill:#00838F;}
	.st27{fill:#EEEEEE;}
	.st28{fill:#B2FF59;}
	.st29{fill:#64DD17;}
	.st30{fill:#76FF03;}
	.st31{clip-path:url(#XMLID_112_);}
	.st32{fill:#FB8C00;}
	.st33{fill:#FFA726;}
	.st34{opacity:0.1;fill:#212121;}
	.st35{fill:#FF9800;}
	.st36{fill:#FF5722;}
	.st37{fill:#BF360C;}
	.st38{fill:#90A4AE;}
	.st39{fill:#78909C;}
	.st40{fill:#FFC400;}
	.st41{fill:#D84315;}
	.st42{fill:#FFF3E0;}
	.st43{display:inline;fill:#263238;}
	.st44{display:inline;fill:#FFA726;}
	.st45{display:inline;opacity:0.1;fill:#212121;}
	.st46{display:inline;fill:#FFFFFF;}
	.st47{fill:#E0E0E0;}
	.st48{fill:#EF6C00;}
	.st49{fill:#E64A19;}
	.st50{fill:#FF7043;}
	.st51{fill:#E0F2F1;}
	.st52{fill:none;}
	.st53{fill:#FFC929;}
	.st54{opacity:0.2;clip-path:url(#XMLID_113_);}
	.st55{opacity:0;fill:#607D89;}
	.st56{opacity:0.71;}
	.st57{fill-rule:evenodd;clip-rule:evenodd;fill:url(#XMLID_115_);}
	.st58{opacity:0.4;}
	.st59{fill-rule:evenodd;clip-rule:evenodd;fill:url(#XMLID_116_);}
	.st60{fill-rule:evenodd;clip-rule:evenodd;fill:#FFFFFF;}
	.st61{fill-rule:evenodd;clip-rule:evenodd;fill:#4DB6AC;}
	.st62{clip-path:url(#XMLID_117_);}
	.st63{fill:#212121;}
	.st64{fill:#FFC107;}
	.st65{fill:#FFA000;}
	.st66{opacity:0.2;fill:#212121;}
	.st67{fill:#E6E6E6;}
	.st68{fill-rule:evenodd;clip-rule:evenodd;fill:#B0BEC5;}
	.st69{fill-rule:evenodd;clip-rule:evenodd;fill:#263238;}
</style>
<g id="Layer_2" class="st0">
	<path id="XMLID_1493_" class="st1" d="M595.2,260.1H92.9C92.9,121.1,205.4,9,344.1,9S595.2,121.1,595.2,260.1z"/>
	<path id="XMLID_1_" class="st2" d="M595.2,260.1H92.9c0,139,112.4,251.1,251.1,251.1S595.2,399.1,595.2,260.1z"/>
	<g id="XMLID_1489_" class="st3">
		<circle id="XMLID_1492_" class="st4" cx="526.4" cy="175.5" r="44.8"/>
		<polygon id="XMLID_1490_" class="st5" points="529.5,281.1 525.8,281.1 525.7,195.8 512.4,188.6 512.4,184.4 525.7,191.6 
			525.8,175.1 508.8,163.5 508.8,159.2 525.8,170.2 525.8,147.6 529.8,147.6 529.8,153.4 539,145.7 539,149.2 529.8,157.6 
			529.8,174.9 529.8,181.2 529.7,198.2 545.3,185 545.3,190.4 529.8,203.3 		"/>
	</g>
	<g id="XMLID_1485_" class="st3">
		<path id="XMLID_1488_" class="st6" d="M247.5,223.1h34.4c0-9-7.7-17.2-17.2-17.2S247.5,214.1,247.5,223.1z"/>
		<path id="XMLID_1487_" class="st6" d="M229,223.1h25.8c0-7-5.8-12.9-12.9-12.9S229,216.1,229,223.1z"/>
		<path id="XMLID_1486_" class="st6" d="M219.6,223.1h11.7c0-3-2.6-5.8-5.8-5.8C222.2,217.3,219.6,220.1,219.6,223.1z"/>
	</g>
	<g id="XMLID_1481_" class="st3">
		<path id="XMLID_1484_" class="st7" d="M558.5,174.1H687c0-35-28.8-64.3-64.3-64.3C587.3,109.8,558.5,139.1,558.5,174.1z"/>
		<path id="XMLID_1483_" class="st7" d="M489.4,174.1h96.4c0-27-21.6-48.2-48.2-48.2S489.4,147.1,489.4,174.1z"/>
		<path id="XMLID_1482_" class="st7" d="M454.4,174.1H498c0-13-9.7-21.8-21.8-21.8C464.2,152.3,454.4,161.1,454.4,174.1z"/>
	</g>
	<path id="XMLID_1480_" class="st8" d="M102,325.2h107.8c9,0,16.4,7.4,16.4,16.4v0c0,9-7.4,16.4-16.4,16.4H102
		c-9,0-16.4-7.4-16.4-16.4v0C85.6,332.6,93,325.2,102,325.2z"/>
	<path id="XMLID_1479_" class="st8" d="M61.7,302h107.8c9,0,16.4,7.4,16.4,16.4v0c0,9-7.4,16.4-16.4,16.4H61.7
		c-9,0-16.4-7.4-16.4-16.4v0C45.2,309.4,52.6,302,61.7,302z"/>
	<path id="XMLID_1478_" class="st8" d="M16.4,302L16.4,302c9,0,16.4,7.4,16.4,16.4v0c0,9-7.4,16.4-16.4,16.4h0
		c-9,0-16.4-7.4-16.4-16.4v0C0,309.4,7.4,302,16.4,302z"/>
	<path id="XMLID_1477_" class="st2" d="M524.9,369.5h70.7c9,0,16.4,7.4,16.4,16.4v0c0,9-7.4,16.4-16.4,16.4h-70.7
		c-9,0-16.4-7.4-16.4-16.4v0C508.4,376.8,515.8,369.5,524.9,369.5z"/>
	<path id="XMLID_1476_" class="st2" d="M514,409.4h107.8c9,0,16.4,7.4,16.4,16.4v0c0,9-7.4,16.4-16.4,16.4H514
		c-9,0-16.4-7.4-16.4-16.4v0C497.5,416.8,504.9,409.4,514,409.4z"/>
	<path id="XMLID_1475_" class="st2" d="M246.7,402.3h-28.9c-9,0-16.4-7.4-16.4-16.4v0c0-9,7.4-16.4,16.4-16.4h28.9
		c9,0,16.4,7.4,16.4,16.4v0C263.1,394.9,255.7,402.3,246.7,402.3z"/>
	<path id="XMLID_1474_" class="st2" d="M657.6,409.4L657.6,409.4c-9,0-16.4,7.4-16.4,16.4v0c0,9,7.4,16.4,16.4,16.4h0
		c9,0,16.4-7.4,16.4-16.4v0C674,416.8,666.6,409.4,657.6,409.4z"/>
	<path id="XMLID_1473_" class="st1" d="M492.6,81.2h102.8c5.5,0,10,4.5,10,10v1.6c0,5.5-4.5,10-10,10H492.6c-5.5,0-10-4.5-10-10
		v-1.6C482.6,85.7,487.1,81.2,492.6,81.2z"/>
	<path id="XMLID_1472_" class="st1" d="M483.5,56.1h39.7c5.5,0,10,4.5,10,10v0c0,5.5-4.5,10-10,10h-39.7c-5.5,0-10-4.5-10-10v0
		C473.5,60.6,478,56.1,483.5,56.1z"/>
	<path id="XMLID_1471_" class="st1" d="M553.5,56.1h6.9c5.5,0,10,4.5,10,10v0c0,5.5-4.5,10-10,10h-6.9c-5.5,0-10-4.5-10-10v0
		C543.5,60.6,548,56.1,553.5,56.1z"/>
	<g id="XMLID_1467_" class="st3">
		<circle id="XMLID_1470_" class="st9" cx="483.9" cy="164.9" r="52.3"/>
		<polygon id="XMLID_1468_" class="st5" points="484.1,290.7 488.3,290.7 488.4,192.6 503.7,184.3 503.7,179.5 488.4,187.7 
			488.4,168.7 507.8,155.4 507.9,150.5 488.3,163.1 488.3,137.1 483.7,137.1 483.7,143.8 473.1,134.9 473.1,139 483.7,148.6 
			483.7,168.5 464.8,152.2 464.8,158.4 483.8,175.7 483.8,195.3 465.8,180.1 465.8,186.4 483.7,201.2 		"/>
	</g>
	<g id="XMLID_1271_" class="st3">
		<defs>
			<circle id="XMLID_1272_" cx="344.1" cy="260.5" r="251.1"/>
		</defs>
		<clipPath id="XMLID_106_">
			<use xlink:href="#XMLID_1272_"  style="overflow:visible;"/>
		</clipPath>
		<g id="XMLID_1273_" class="st10">
			<path id="XMLID_1466_" class="st11" d="M269.2,106.8h97.2c19.9,0,36.2-16.3,36.2-36.2V-8.6H269.2V106.8z"/>
			<g id="XMLID_1280_">
				<g id="XMLID_1463_">
					
						<rect id="XMLID_1465_" x="195.9" y="150.4" transform="matrix(0.7651 0.6439 -0.6439 0.7651 177.1005 -90.5277)" class="st12" width="33.4" height="94.2"/>
					<circle id="XMLID_1464_" class="st12" cx="243" cy="161.4" r="16.7"/>
				</g>
				<g id="XMLID_1458_">
					
						<rect id="XMLID_1462_" x="365.8" y="425.3" transform="matrix(-1 -4.164998e-003 4.164998e-003 -1 754.5386 1195.1158)" class="st13" width="25.4" height="343"/>
					<path id="XMLID_1461_" class="st7" d="M418.2,777l21.3,0.1c0-11.7-9.4-21.3-21.2-21.4C418.3,755.8,418.3,765.3,418.2,777z"/>
					
						<rect id="XMLID_1460_" x="365.1" y="755.6" transform="matrix(-1 -4.164998e-003 4.164998e-003 -1 781.36 1534.1832)" class="st7" width="54.3" height="21.3"/>
					
						<rect id="XMLID_1459_" x="365" y="777" transform="matrix(-1 -4.164998e-003 4.164998e-003 -1 801.2495 1566.2102)" class="st14" width="74.4" height="10.6"/>
				</g>
				<g id="XMLID_1453_">
					
						<rect id="XMLID_1457_" x="283.2" y="424.9" transform="matrix(1 4.164998e-003 -4.164998e-003 1 2.4867 -1.2275)" class="st12" width="25.4" height="343"/>
					<path id="XMLID_1456_" class="st7" d="M254.7,776.3l-21.3-0.1c0-11.7,9.6-21.2,21.4-21.2C254.8,755.1,254.8,764.6,254.7,776.3z
						"/>
					
						<rect id="XMLID_1455_" x="253.6" y="755.2" transform="matrix(1 4.164998e-003 -4.164998e-003 1 3.192 -1.1628)" class="st7" width="54.3" height="21.3"/>
					
						<rect id="XMLID_1454_" x="233.4" y="776.4" transform="matrix(1 4.164998e-003 -4.164998e-003 1 3.2582 -1.1205)" class="st14" width="74.4" height="10.6"/>
				</g>
				<path id="XMLID_1452_" class="st15" d="M373.5,708.7l5.9,0c6.6,0,12.1-5.7,12.1-12.8l25.5-324c0.1-23-17.4-41.8-38.9-41.9h0
					c-21.5-0.1-39.2,18.6-39.3,41.6l22.8,324.2C361.5,702.8,366.9,708.6,373.5,708.7z"/>
				<path id="XMLID_1451_" class="st16" d="M357,300.2l-38.2-0.2c-33.1-0.1-60.4,26.9-60.5,60v0c-0.2,39.8,32.2,72.5,72,72.6
					l14.1,0.1c39.8,0.2,72.5-32.2,72.6-72v0C417.1,327.5,390.1,300.3,357,300.2z"/>
				<path id="XMLID_1450_" class="st16" d="M293,708.3l5.9,0c6.6,0,12.1-5.7,12.1-12.8l25.5-324c0.1-23-17.4-41.8-38.9-41.9h0
					c-21.5-0.1-39.2,18.6-39.3,41.6L281,695.4C280.9,702.5,286.3,708.3,293,708.3z"/>
				<path id="XMLID_1449_" class="st15" d="M357,300.2l-20.8-0.1l-0.6,132.6l8.7,0c39.8,0.2,72.5-32.2,72.6-72v0
					C417.1,327.5,390.1,300.3,357,300.2z"/>
				<g id="XMLID_1446_">
					
						<rect id="XMLID_1448_" x="411.3" y="171.1" transform="matrix(-1 -4.164998e-003 4.164998e-003 -1 854.7026 602.6796)" class="st12" width="33.4" height="258.7"/>
					<path id="XMLID_1447_" class="st12" d="M427.5,482.3l2,0c13.3,0.1,24.2-10.7,24.2-24l0.1-35.5c0.1-13.3-10.7-24.2-24-24.2l-2,0
						c-13.3-0.1-24.2,10.7-24.2,24l-0.1,35.5C403.4,471.3,414.2,482.2,427.5,482.3z"/>
				</g>
				<g id="XMLID_1292_">
					<path id="XMLID_1445_" class="st17" d="M262.3,203.8l182.7,0.8l0.2-47.3c0.1-19.9-16.1-36.2-36-36.3l-144.6-0.6
						c-19.9-0.1-36.2,16.1-36.3,36L262.3,203.8z"/>
					<path id="XMLID_1444_" class="st18" d="M336.6,204.1l108.5,0.5l0.2-47.3c0.1-19.9-16.1-36.2-36-36.3l-72.3-0.3L336.6,204.1z"/>
					<path id="XMLID_1443_" class="st17" d="M303.1,237.3l66.8,0.3c22.9,0.1,41.8-18.6,41.9-41.5l0,0c0.1-22.9-18.6-41.8-41.5-41.9
						l-66.8-0.3c-22.9-0.1-41.8,18.6-41.9,41.5l0,0C261.4,218.4,280.1,237.2,303.1,237.3z"/>
					<path id="XMLID_1442_" class="st18" d="M338.1,237.5l31.7,0.1c22.9,0.1,41.8-18.6,41.9-41.5l0,0c0.1-22.9-18.6-41.8-41.5-41.9
						l-31.7-0.1L338.1,237.5z"/>
					<polygon id="XMLID_1441_" class="st17" points="295.6,311.5 380,311.8 395,214.5 278.1,214.1 					"/>
					<polygon id="XMLID_1440_" class="st18" points="337.8,311.7 380,311.8 395,214.5 338.2,214.3 					"/>
					<g id="XMLID_1435_">
						
							<rect id="XMLID_1439_" x="312" y="45.6" transform="matrix(-1 -4.164998e-003 4.164998e-003 -1 673.7294 184.3055)" class="st12" width="50.1" height="91.8"/>
						<polygon id="XMLID_1438_" class="st12" points="336.7,170.7 378.7,120.8 295.2,120.5 						"/>
						<g id="XMLID_1436_" class="st19">
							
								<rect id="XMLID_1437_" x="312.1" y="45.6" transform="matrix(-1 -4.164998e-003 4.164998e-003 -1 673.8336 167.6164)" width="50.1" height="75.1"/>
						</g>
					</g>
					<path id="XMLID_1434_" class="st13" d="M337.1,87.3L337.1,87.3c36.7,0.2,66.9-29.8,67-66.5l0.1-25c0.2-36.7-29.8-66.9-66.5-67
						h0c-36.7-0.2-66.9,29.8-67,66.5l-0.1,25C270.4,57,300.4,87.1,337.1,87.3z"/>
					<path id="XMLID_1433_" class="st12" d="M337.1,87.3L337.1,87.3c36.7,0.2,66.9-29.8,67-66.5l0.1-25c0.2-36.7-29.8-66.9-66.5-67
						h0L337.1,87.3z"/>
					<g id="XMLID_1294_">
						<defs>
							<path id="XMLID_1429_" d="M337.1,87.3L337.1,87.3c36.7,0.2,66.9-29.8,67-66.5l0.1-25c0.2-36.7-29.8-66.9-66.5-67h0
								c-36.7-0.2-66.9,29.8-67,66.5l-0.1,25C270.4,57,300.4,87.1,337.1,87.3z"/>
						</defs>
						<clipPath id="XMLID_107_">
							<use xlink:href="#XMLID_1429_"  style="overflow:visible;"/>
						</clipPath>
						<g id="XMLID_1430_" class="st20">
							<circle id="XMLID_1432_" class="st21" cx="383.6" cy="-58.6" r="54.2"/>
							<circle id="XMLID_1431_" class="st21" cx="291.8" cy="-58.9" r="54.2"/>
						</g>
					</g>
					<path id="XMLID_1293_" class="st22" d="M321.7,55.4c0,9.9,7.8,17.6,17.5,17.7s17.6-7.7,17.7-17.5"/>
				</g>
				<g id="XMLID_1286_">
					<path id="XMLID_1291_" class="st21" d="M385.8,452.4v-34.7c0-2.1,1.8-3.7,4-3.7h78.1c2.1,0,3.8,1.9,3.8,4v34.7
						c0,2.1-1.8,3.7-4,3.7h-78.1C387.5,456.4,385.8,454.5,385.8,452.4z"/>
					<rect id="XMLID_1290_" x="399.7" y="417.7" class="st23" width="58.2" height="34.8"/>
					<g id="XMLID_1287_">
						<circle id="XMLID_1289_" class="st16" cx="466.1" cy="430.1" r="0.8"/>
						<path id="XMLID_1288_" class="st16" d="M465.3,441.1l0-8.5c0-0.2,0.1-0.3,0.3-0.3l0.7,0c0.2,0,0.3,0.1,0.3,0.3l0,8.5
							c0,0.2-0.1,0.3-0.3,0.3l-0.7,0C465.4,441.4,465.3,441.3,465.3,441.1z"/>
					</g>
				</g>
				<path id="XMLID_1285_" class="st15" d="M295.6,322.6l84.4,0.4c6.6,0,12.1-5.4,12.1-12l0.1-12.1c0-6.6-5.4-12.1-12-12.1
					l-84.4-0.4c-6.6,0-12.1,5.4-12.1,12l-0.1,12.1C283.5,317.1,288.9,322.6,295.6,322.6z"/>
				<path id="XMLID_1284_" class="st12" d="M420.4,448.1L420.4,448.1c-3.8,0-6.9-3.1-6.8-6.9l0.1-32c0-3.8,3.1-6.9,6.9-6.8l0,0
					c3.8,0,6.9,3.1,6.8,6.9l-0.1,32C427.3,445,424.2,448.1,420.4,448.1z"/>
				<path id="XMLID_1283_" class="st15" d="M283.8,708.3l24.1,0.1c3.3,0,6-2.7,6.1-6l0,0c0-3.3-2.7-6-6-6.1l-24.1-0.1
					c-3.3,0-6,2.7-6.1,6l0,0C277.8,705.5,280.5,708.3,283.8,708.3z"/>
				<path id="XMLID_1282_" class="st16" d="M365.1,708.6l24.1,0.1c3.3,0,6-2.7,6.1-6l0,0c0-3.3-2.7-6-6-6.1l-24.1-0.1
					c-3.3,0-6,2.7-6.1,6l0,0C359.1,705.9,361.8,708.6,365.1,708.6z"/>
				<path id="XMLID_1281_" class="st16" d="M336,322.8l43.9,0.2c6.6,0,12.1-5.4,12.1-12l0.1-12.1c0-6.6-5.4-12.1-12-12.1l-43.9-0.2
					L336,322.8z"/>
			</g>
			<g id="XMLID_1274_">
				<path id="XMLID_1279_" class="st13" d="M162,153.2l-1.9,0.6c-12.7,3.7-26.2-3.7-29.9-16.4l-9.9-34c-3.7-12.7,3.7-26.2,16.4-29.9
					l1.9-0.6c12.7-3.7,26.2,3.7,29.9,16.4l9.9,34C182.1,136,174.7,149.4,162,153.2z"/>
				<g id="XMLID_1275_">
					
						<rect id="XMLID_1278_" x="152.8" y="134.7" transform="matrix(0.9599 -0.2803 0.2803 0.9599 -45.2008 54.9485)" class="st13" width="33.4" height="101.7"/>
					<circle id="XMLID_1277_" class="st13" cx="183.8" cy="234.3" r="16.7"/>
					<circle id="XMLID_1276_" class="st13" cx="156.1" cy="139.6" r="16.7"/>
				</g>
			</g>
		</g>
	</g>
	<g id="XMLID_1254_" class="st3">
		<g id="XMLID_1261_">
			<g id="XMLID_1262_">
				<path id="XMLID_1270_" class="st13" d="M337.1,87.3L337.1,87.3c36.7,0.2,66.9-29.8,67-66.5l0.1-25c0.2-36.7-29.8-66.9-66.5-67h0
					c-36.7-0.2-66.9,29.8-67,66.5l-0.1,25C270.4,57,300.4,87.1,337.1,87.3z"/>
				<path id="XMLID_1269_" class="st12" d="M337.1,87.3L337.1,87.3c36.7,0.2,66.9-29.8,67-66.5l0.1-25c0.2-36.7-29.8-66.9-66.5-67h0
					L337.1,87.3z"/>
				<g id="XMLID_1264_">
					<defs>
						<path id="XMLID_1265_" d="M337.1,87.3L337.1,87.3c36.7,0.2,66.9-29.8,67-66.5l0.1-25c0.2-36.7-29.8-66.9-66.5-67h0
							c-36.7-0.2-66.9,29.8-67,66.5l-0.1,25C270.4,57,300.4,87.1,337.1,87.3z"/>
					</defs>
					<clipPath id="XMLID_108_">
						<use xlink:href="#XMLID_1265_"  style="overflow:visible;"/>
					</clipPath>
					<g id="XMLID_1266_" class="st24">
						<circle id="XMLID_1268_" class="st21" cx="383.6" cy="-58.6" r="54.2"/>
						<circle id="XMLID_1267_" class="st21" cx="291.8" cy="-58.9" r="54.2"/>
					</g>
				</g>
				<path id="XMLID_1263_" class="st22" d="M321.7,55.4c0,9.9,7.8,17.6,17.5,17.7s17.6-7.7,17.7-17.5"/>
			</g>
		</g>
		<g id="XMLID_1255_">
			<path id="XMLID_1260_" class="st13" d="M162,153.2l-1.9,0.6c-12.7,3.7-26.2-3.7-29.9-16.4l-9.9-34c-3.7-12.7,3.7-26.2,16.4-29.9
				l1.9-0.6c12.7-3.7,26.2,3.7,29.9,16.4l9.9,34C182.1,136,174.7,149.4,162,153.2z"/>
			<g id="XMLID_1256_">
				
					<rect id="XMLID_1259_" x="152.8" y="134.7" transform="matrix(0.9599 -0.2803 0.2803 0.9599 -45.2008 54.9485)" class="st13" width="33.4" height="101.7"/>
				<circle id="XMLID_1258_" class="st13" cx="183.8" cy="234.3" r="16.7"/>
				<circle id="XMLID_1257_" class="st13" cx="156.1" cy="139.6" r="16.7"/>
			</g>
		</g>
	</g>
</g>
<g id="Layer_1" class="st0">
	<path id="XMLID_59_" class="st25" d="M595.2,260.1H92.9C92.9,121.1,205.4,9,344.1,9S595.2,121.1,595.2,260.1z"/>
	<path id="XMLID_58_" class="st8" d="M595.2,260.1H92.9c0,139,112.4,251.1,251.1,251.1S595.2,399.1,595.2,260.1z"/>
	<ellipse id="XMLID_57_" class="st26" cx="540.9" cy="320.8" rx="27.5" ry="4.6"/>
	<g id="XMLID_53_" class="st3">
		<path id="XMLID_56_" class="st6" d="M466.6,98.9h-87.4c0-23.7,19.6-43.7,43.7-43.7S466.6,75.2,466.6,98.9z"/>
		<path id="XMLID_55_" class="st6" d="M513.7,98.9h-65.6c0-18.5,14.7-32.8,32.8-32.8C499,66.1,513.7,80.4,513.7,98.9z"/>
		<path id="XMLID_54_" class="st6" d="M537.4,98.9h-29.6c0-8.2,6.6-14.8,14.8-14.8C530.8,84.1,537.4,90.6,537.4,98.9z"/>
	</g>
	<g id="XMLID_49_" class="st3">
		<path id="XMLID_52_" class="st27" d="M142.7,174H10.4c0-36,29.6-66.1,66.1-66.1S142.7,138,142.7,174z"/>
		<path id="XMLID_51_" class="st27" d="M213.8,174h-99.2c0-27.8,22.2-49.6,49.6-49.6S213.8,146.2,213.8,174z"/>
		<path id="XMLID_50_" class="st27" d="M249.8,174h-44.8c0-13.4,10-22.4,22.4-22.4S249.8,160.6,249.8,174z"/>
	</g>
	<path id="XMLID_48_" class="st8" d="M76.6,390.8h111.9c9,0,16.4-7.4,16.4-16.4v-1c0-9-7.4-16.4-16.4-16.4H76.6
		c-9,0-16.4,7.4-16.4,16.4v1C60.2,383.4,67.6,390.8,76.6,390.8z"/>
	<path id="XMLID_47_" class="st8" d="M119.2,429.2H231c9,0,16.4-7.4,16.4-16.4v-1c0-9-7.4-16.4-16.4-16.4H119.2
		c-9,0-16.4,7.4-16.4,16.4v1C102.7,421.8,110.1,429.2,119.2,429.2z"/>
	<path id="XMLID_46_" class="st8" d="M16.4,390.8h17.8c9,0,16.4-7.4,16.4-16.4v-1c0-9-7.4-16.4-16.4-16.4H16.4
		c-9,0-16.4,7.4-16.4,16.4l0,1C0,383.4,7.4,390.8,16.4,390.8z"/>
	<path id="XMLID_45_" class="st25" d="M169.6,60.3h-74c-5.5,0-10,4.5-10,10v2.2c0,5.5,4.5,10,10,10h74c5.5,0,10-4.5,10-10v-2.2
		C179.6,64.8,175.1,60.3,169.6,60.3z"/>
	<g id="XMLID_38_" class="st3">
		<g id="XMLID_42_">
			<circle id="XMLID_44_" class="st9" cx="541.9" cy="124.1" r="87.9"/>
			<polygon id="XMLID_43_" class="st5" points="544.7,320.8 537.6,320.8 537.5,156.7 511.9,142.8 511.9,134.8 537.4,148.6 
				537.5,116.9 504.9,94.5 504.8,86.3 537.5,107.5 537.6,63.9 545.3,63.9 545.3,75.2 563,60.3 563,67.1 545.3,83.2 545.2,116.4 
				577,89.3 577,99.5 545.2,128.5 545.1,161.2 575.2,135.9 575.2,146.4 545.3,171.1 			"/>
		</g>
		<path id="XMLID_41_" class="st9" d="M677,113h-74c-5.5,0-10,4.5-10,10v2.2c0,5.5,4.5,10,10,10h74c5.5,0,10-4.5,10-10V123
			C687,117.5,682.5,113,677,113z"/>
		<path id="XMLID_40_" class="st9" d="M630.7,81.1h-27.4c-5.5,0-10,4.5-10,10v0.6c0,5.5,4.5,10,10,10h27.4c5.5,0,10-4.5,10-10v-0.6
			C640.7,85.7,636.2,81.1,630.7,81.1z"/>
		<path id="XMLID_39_" class="st9" d="M656.3,81.1h-0.6c-5.5,0-10,4.5-10,10v0.6c0,5.5,4.5,10,10,10h0.6c5.5,0,10-4.5,10-10v-0.6
			C666.4,85.7,661.9,81.1,656.3,81.1z"/>
	</g>
	<g id="XMLID_34_" class="st3">
		<path id="XMLID_37_" class="st28" d="M160.4,277.1h80.4c0-22.2-18-40.2-40.2-40.2S160.4,254.9,160.4,277.1z"/>
		<path id="XMLID_36_" class="st29" d="M150.1,277.1h59.7c0-16.5-13.4-29.9-29.9-29.9S150.1,260.6,150.1,277.1z"/>
		<path id="XMLID_35_" class="st30" d="M188.4,277.1h38.1c0-10.3-8.5-19-19-19S188.4,266.8,188.4,277.1z"/>
	</g>
	<path id="XMLID_1754_" class="st25" d="M180.9,69.7h-8.6c-5.3,0-9.6,4.3-9.6,9.6v0c0,5.3,4.3,9.6,9.6,9.6h8.6
		c5.3,0,9.6-4.3,9.6-9.6v0C190.5,74,186.2,69.7,180.9,69.7z"/>
	<path id="XMLID_1753_" class="st25" d="M146.9,69.7L146.9,69.7c-5.3,0-9.6,4.3-9.6,9.6v0c0,5.3,4.3,9.6,9.6,9.6h0
		c5.3,0,9.6-4.3,9.6-9.6v0C156.4,74,152.1,69.7,146.9,69.7z"/>
	<g id="XMLID_1685_" class="st3">
		<defs>
			<ellipse id="XMLID_1686_" cx="343.9" cy="260.3" rx="251" ry="250.9"/>
		</defs>
		<clipPath id="XMLID_112_">
			<use xlink:href="#XMLID_1686_"  style="overflow:visible;"/>
		</clipPath>
		<g id="XMLID_1687_" class="st31">
			<path id="XMLID_1748_" class="st21" d="M395-9v-53c0-6.5-5.3-11.8-11.8-11.8h0c-6.5,0-11.8,5.3-11.8,11.8v53
				c0,6.5,5.3,11.8,11.8,11.8h0C389.7,2.8,395-2.5,395-9z"/>
			<g id="XMLID_1744_">
				<circle id="XMLID_1747_" class="st16" cx="464.1" cy="313" r="25.2"/>
				<circle id="XMLID_1746_" class="st16" cx="405.1" cy="201.8" r="25.2"/>
				
					<rect id="XMLID_1745_" x="371.6" y="232.2" transform="matrix(-0.4687 -0.8834 0.8834 -0.4687 410.9229 761.912)" class="st16" width="125.9" height="50.4"/>
			</g>
			<rect id="XMLID_1743_" x="310" y="108.7" class="st32" width="49.6" height="70.6"/>
			<path id="XMLID_1742_" class="st33" d="M336.1,120.5L336.1,120.5c32.4,0,58.9-26.5,58.9-58.9V-9c0-32.4-26.5-58.9-58.9-58.9h0
				c-32.4,0-58.9,26.5-58.9,58.9v70.6C277.3,94,303.8,120.5,336.1,120.5z"/>
			<path id="XMLID_1741_" class="st34" d="M336.1,120.5L336.1,120.5l0-188.4h0c-32.4,0-58.9,26.5-58.9,58.9v70.6
				C277.3,94,303.8,120.5,336.1,120.5z"/>
			<path id="XMLID_1740_" class="st15" d="M316,450.2h40.2c40.8,0,74.1-33.3,74.1-74.1V218.2c0-40.8-33.3-74.1-74.1-74.1H316
				c-40.8,0-74.1,33.3-74.1,74.1v157.9C241.9,416.8,275.3,450.2,316,450.2z"/>
			<path id="XMLID_1739_" class="st16" d="M359.7,144.1h-23.5v306.1h23.5c38.9,0,70.6-31.8,70.6-70.6V214.7
				C430.3,175.9,398.5,144.1,359.7,144.1z"/>
			<path id="XMLID_1738_" class="st16" d="M312.6,379.5h117.7V214.7c0-38.9-31.8-70.6-70.6-70.6h-47.1V379.5z"/>
			<rect id="XMLID_1737_" x="336.1" y="426.6" class="st16" width="58.9" height="412.1"/>
			<rect id="XMLID_1736_" x="277.3" y="426.6" class="st15" width="58.9" height="412.1"/>
			<g id="XMLID_1731_">
				<path id="XMLID_1735_" class="st35" d="M414.5,796.8h26.6c0-14.7-11.9-26.6-26.6-26.6C414.5,770.2,414.5,782.1,414.5,796.8z"/>
				<rect id="XMLID_1734_" x="387.9" y="770.2" class="st35" width="26.6" height="26.6"/>
				<rect id="XMLID_1733_" x="347.9" y="770.2" class="st35" width="40" height="26.6"/>
				<rect id="XMLID_1732_" x="347.9" y="796.8" class="st35" width="93.2" height="13.3"/>
			</g>
			<rect id="XMLID_1730_" x="308.5" y="144.1" class="st7" width="55.2" height="235.5"/>
			<rect id="XMLID_1729_" x="324.4" y="144.1" class="st36" width="23.5" height="194.3"/>
			<g id="XMLID_1726_">
				<circle id="XMLID_1728_" class="st15" cx="277.3" cy="191.2" r="23.5"/>
				
					<rect id="XMLID_1727_" x="142.2" y="213.7" transform="matrix(-0.7914 0.6113 -0.6113 -0.7914 534.8464 291.9808)" class="st15" width="150.8" height="47.1"/>
			</g>
			<g id="XMLID_1723_">
				<circle id="XMLID_1725_" class="st16" cx="159.5" cy="285.4" r="23.5"/>
				<rect id="XMLID_1724_" x="136" y="120.5" class="st16" width="47.1" height="164.8"/>
			</g>
			<g id="XMLID_1713_">
				<g id="XMLID_1719_">
					<circle id="XMLID_1722_" class="st6" cx="159.5" cy="108.7" r="23.5"/>
					<circle id="XMLID_1721_" class="st6" cx="159.5" cy="132.3" r="23.5"/>
					<rect id="XMLID_1720_" x="136" y="108.7" class="st6" width="47.1" height="23.5"/>
				</g>
				<g id="XMLID_1715_">
					<circle id="XMLID_1718_" class="st32" cx="159.5" cy="97" r="23.5"/>
					<circle id="XMLID_1717_" class="st32" cx="159.5" cy="120.5" r="23.5"/>
					<rect id="XMLID_1716_" x="136" y="97" class="st32" width="47.1" height="23.5"/>
				</g>
				<path id="XMLID_1714_" class="st33" d="M159.5,116.6L159.5,116.6c18,0,32.6-14.7,32.6-32.6V41.1c0-18-14.7-32.6-32.6-32.6h0
					c-18,0-32.6,14.7-32.6,32.6v42.8C126.9,101.9,141.6,116.6,159.5,116.6z"/>
			</g>
			<rect id="XMLID_1712_" x="241.9" y="379.5" class="st37" width="188.4" height="11.8"/>
			<rect id="XMLID_1711_" x="371.5" y="297.1" class="st16" width="47.1" height="82.4"/>
			<path id="XMLID_1710_" class="st38" d="M271.4,367.8L271.4,367.8c3.3,0,5.9-2.6,5.9-5.9V303c0-3.3-2.6-5.9-5.9-5.9h0
				c-3.3,0-5.9,2.6-5.9,5.9v58.9C265.5,365.1,268.1,367.8,271.4,367.8z"/>
			<path id="XMLID_1709_" class="st39" d="M400.9,367.8L400.9,367.8c3.3,0,5.9-2.6,5.9-5.9V303c0-3.3-2.6-5.9-5.9-5.9l0,0
				c-3.3,0-5.9,2.6-5.9,5.9v58.9C395,365.1,397.6,367.8,400.9,367.8z"/>
			<rect id="XMLID_1708_" x="324.4" y="379.5" class="st40" width="23.5" height="11.8"/>
			<path id="XMLID_1707_" class="st6" d="M372.9,72.3v-9.8h-31.3c0,0,0.7,9.8,15,9.8C370.8,72.3,372.9,72.3,372.9,72.3z"/>
			<path id="XMLID_1706_" class="st21" d="M289.6-44.3h93c6.8,0,12.4-5.6,12.4-12.4V-59c0-6.8-5.6-12.4-12.4-12.4h-93
				c-6.8,0-12.4,5.6-12.4,12.4v2.4C277.3-49.9,282.8-44.3,289.6-44.3z"/>
			<path id="XMLID_1705_" class="st21" d="M300.8,2.8v-58.9c0-6.5-5.3-11.8-11.8-11.8h0c-6.5,0-11.8,5.3-11.8,11.8V2.8
				c0,6.5,5.3,11.8,11.8,11.8h0C295.5,14.6,300.8,9.3,300.8,2.8z"/>
			<path id="XMLID_1704_" class="st21" d="M361-44.3c11.8,0,29.4-13.2,29.4-29.4s-17.6-29.4-29.4-29.4V-44.3z"/>
			
				<rect id="XMLID_1703_" x="327.8" y="330" transform="matrix(-0.7071 0.7071 -0.7071 -0.7071 813.0515 339.8932)" class="st36" width="16.7" height="16.6"/>
			<g id="XMLID_1688_">
				<g id="XMLID_1700_">
					<circle id="XMLID_1702_" class="st16" cx="465.6" cy="473.7" r="23.5"/>
					<rect id="XMLID_1701_" x="442.1" y="308.9" class="st16" width="47.1" height="164.8"/>
				</g>
				<g id="XMLID_1694_">
					<path id="XMLID_1699_" class="st18" d="M393.9,651.6h144.4c7.7,0,14-6.3,14-14V536.4c0-7.7-6.3-14-14-14H393.9
						c-7.7,0-14,6.3-14,14v101.3C379.9,645.4,386.2,651.6,393.9,651.6z"/>
					<path id="XMLID_1698_" class="st41" d="M379.9,587h172.4v-50.6c0-7.7-6.3-14-14-14H393.9c-7.7,0-14,6.3-14,14V587z"/>
					<path id="XMLID_1697_" class="st12" d="M433.8,522.4h64.6V504c0-7.7-6.3-14-14-14h-36.7c-7.7,0-14,6.3-14,14V522.4z"/>
					<path id="XMLID_1696_" class="st21" d="M444.6,522.4h43.1v-12.2c0-5.1-4.2-9.3-9.3-9.3h-24.4c-5.1,0-9.3,4.2-9.3,9.3V522.4z"/>
					<path id="XMLID_1695_" class="st40" d="M464,602.8h4.3c7.5,0,13.7-6.2,13.7-13.7v-4.3c0-7.5-6.2-13.7-13.7-13.7H464
						c-7.5,0-13.7,6.2-13.7,13.7v4.3C450.3,596.7,456.5,602.8,464,602.8z"/>
				</g>
				<circle id="XMLID_1693_" class="st32" cx="465.6" cy="497.3" r="23.5"/>
				<circle id="XMLID_1692_" class="st42" cx="465.6" cy="462" r="23.5"/>
				<rect id="XMLID_1691_" x="442.1" y="462.7" class="st42" width="47.1" height="22.8"/>
				<circle id="XMLID_1690_" class="st32" cx="465.6" cy="473.7" r="23.5"/>
				<rect id="XMLID_1689_" x="442.1" y="474.5" class="st32" width="47.1" height="22.8"/>
			</g>
		</g>
	</g>
	<path id="XMLID_1665_" class="st43" d="M395-9v-53c0-6.5-5.3-11.8-11.8-11.8h0c-6.5,0-11.8,5.3-11.8,11.8v53
		c0,6.5,5.3,11.8,11.8,11.8h0C389.7,2.8,395-2.5,395-9z"/>
	<path id="XMLID_1664_" class="st44" d="M336.1,120.5L336.1,120.5c32.4,0,58.9-26.5,58.9-58.9V-9c0-32.4-26.5-58.9-58.9-58.9h0
		c-32.4,0-58.9,26.5-58.9,58.9v70.6C277.3,94,303.8,120.5,336.1,120.5z"/>
	<path id="XMLID_1663_" class="st45" d="M336.1,120.5L336.1,120.5l0-188.4h0c-32.4,0-58.9,26.5-58.9,58.9v70.6
		C277.3,94,303.8,120.5,336.1,120.5z"/>
	<g id="XMLID_1653_" class="st3">
		<g id="XMLID_1659_">
			<circle id="XMLID_1662_" class="st6" cx="159.5" cy="108.7" r="23.5"/>
			<circle id="XMLID_1661_" class="st6" cx="159.5" cy="132.3" r="23.5"/>
			<rect id="XMLID_1660_" x="136" y="108.7" class="st6" width="47.1" height="23.5"/>
		</g>
		<g id="XMLID_1655_">
			<circle id="XMLID_1658_" class="st32" cx="159.5" cy="97" r="23.5"/>
			<circle id="XMLID_1657_" class="st32" cx="159.5" cy="120.5" r="23.5"/>
			<rect id="XMLID_1656_" x="136" y="97" class="st32" width="47.1" height="23.5"/>
		</g>
		<path id="XMLID_1654_" class="st33" d="M159.5,116.6L159.5,116.6c18,0,32.6-14.7,32.6-32.6V41.1c0-18-14.7-32.6-32.6-32.6h0
			c-18,0-32.6,14.7-32.6,32.6v42.8C126.9,101.9,141.6,116.6,159.5,116.6z"/>
	</g>
	<path id="XMLID_1652_" class="st46" d="M372.9,72.3v-9.8h-31.3c0,0,0.7,9.8,15,9.8C370.8,72.3,372.9,72.3,372.9,72.3z"/>
	<path id="XMLID_1651_" class="st43" d="M289.6-44.3h93c6.8,0,12.4-5.6,12.4-12.4V-59c0-6.8-5.6-12.4-12.4-12.4h-93
		c-6.8,0-12.4,5.6-12.4,12.4v2.4C277.3-49.9,282.8-44.3,289.6-44.3z"/>
	<path id="XMLID_1650_" class="st43" d="M300.8,2.8v-58.9c0-6.5-5.3-11.8-11.8-11.8h0c-6.5,0-11.8,5.3-11.8,11.8V2.8
		c0,6.5,5.3,11.8,11.8,11.8h0C295.5,14.6,300.8,9.3,300.8,2.8z"/>
	<path id="XMLID_1649_" class="st43" d="M361-44.3c11.8,0,29.4-13.2,29.4-29.4s-17.6-29.4-29.4-29.4V-44.3z"/>
	<g id="XMLID_1675_" class="st3">
		<ellipse id="XMLID_1683_" class="st7" cx="418.2" cy="354.2" rx="89.3" ry="17.2"/>
		<path id="XMLID_1682_" class="st47" d="M328.9,354.2c0,9.5,40,17.2,89.3,17.2V337C368.9,337,328.9,344.7,328.9,354.2z"/>
		<path id="XMLID_1681_" class="st32" d="M507.3,353.1l7.4,11.7l-21.7,97v17.3c0,0-8.8,21.2-77.2,21.2c-59,0-72.9-20.2-72.9-20.2
			l0.7-20.5l-20-93.9l5.5-12.8c0,0,3,17,83.6,17C506.9,369.8,507.3,353.1,507.3,353.1z"/>
		<path id="XMLID_1680_" class="st48" d="M418.2,501.2c-59,0-75.2-20.2-75.2-20.2l0.7-20.5l-20-93.9l5.5-12.8c0,0,8.5,16,89,16
			L418.2,501.2z"/>
		<path id="XMLID_1679_" class="st36" d="M414.4,479c-35.8,0-70.7-19-70.7-19l-0.7,21.2c0,0,16.6,20,72.2,20
			c67.4,0,77.9-20.3,77.9-20.3l0-19.3C493,461.6,450.2,479,414.4,479z"/>
		<path id="XMLID_1678_" class="st36" d="M508.7,391.7c0,0-26.5,15.5-89.8,13.4s-89.8-13.5-89.8-13.5l-4.9-23
			c0,0,40.8,15.6,94.7,15.6c63.1,0,94.9-15.6,94.9-15.6L508.7,391.7z"/>
		<path id="XMLID_1677_" class="st49" d="M418.2,478.9c-35.8,0-74.5-18.9-74.5-18.9l-0.7,21.2c0,0,14.6,19.9,75.2,19.9L418.2,478.9z
			"/>
		<path id="XMLID_1676_" class="st49" d="M418.2,405.1c-63.3-2-89-13.5-89-13.5l-4.9-23c0,0,40,15.7,93.9,15.7L418.2,405.1z"/>
	</g>
	<g id="XMLID_1666_" class="st3">
		<ellipse id="XMLID_1674_" class="st7" cx="283.8" cy="355.3" rx="95.5" ry="18.4"/>
		<path id="XMLID_1673_" class="st47" d="M188.4,355.3c0,10.1,42.7,18.4,95.5,18.4V337C231.1,337,188.4,345.2,188.4,355.3z"/>
		<path id="XMLID_1672_" class="st32" d="M379.1,354.2l7.9,12.5l-23.2,103.7v18.5c0,0-9.4,22.7-82.5,22.7c-63.1,0-78-21.6-78-21.6
			l0.7-21.9l-21.4-100.4l5.9-13.7c0,0,3.3,18.2,89.3,18.2C378.7,372.1,379.1,354.2,379.1,354.2z"/>
		<path id="XMLID_1671_" class="st48" d="M283.8,512.6c-63.1,0-80.4-21.6-80.4-21.6l0.7-21.9l-21.4-100.4l5.9-13.7
			c0,0,9.1,17.1,95.2,17.1L283.8,512.6z"/>
		<path id="XMLID_1670_" class="st36" d="M279.8,488.8c-38.3,0-75.6-20.3-75.6-20.3l-0.7,22.6c0,0,17.8,21.4,77.2,21.4
			c72.1,0,83.3-21.7,83.3-21.7l0-20.6C363.9,470.2,318,488.8,279.8,488.8z"/>
		<path id="XMLID_1669_" class="st36" d="M380.7,395.5c0,0-28.3,16.5-96,14.4c-67.7-2.2-96-14.4-96-14.4l-5.3-24.6
			c0,0,43.6,16.7,101.2,16.7c67.4,0,101.5-16.7,101.5-16.7L380.7,395.5z"/>
		<path id="XMLID_1668_" class="st49" d="M283.8,488.8c-38.3,0-79.7-20.2-79.7-20.2l-0.7,22.6c0,0,15.6,21.3,80.4,21.3L283.8,488.8z
			"/>
		<path id="XMLID_1667_" class="st49" d="M283.8,409.8c-67.7-2.2-95.1-14.4-95.1-14.4l-5.3-24.6c0,0,42.8,16.8,100.4,16.8
			L283.8,409.8z"/>
	</g>
</g>
<g id="Layer_3">
	<path id="XMLID_120_" class="st50" d="M485.4,56h110.2c9,0,16.4,7.4,16.4,16.4v0c0,9-7.4,16.4-16.4,16.4H485.4
		c-9,0-16.4-7.4-16.4-16.4v0C469,63.4,476.4,56,485.4,56z"/>
	<path id="XMLID_62_" class="st50" d="M457,95.1h164.8c9,0,16.4,7.4,16.4,16.4v0c0,9-7.4,16.4-16.4,16.4H457
		c-9,0-16.4-7.4-16.4-16.4v0C440.6,102.5,448,95.1,457,95.1z"/>
	<path id="XMLID_61_" class="st50" d="M670.6,95.1L670.6,95.1c-9,0-16.4,7.4-16.4,16.4v0c0,9,7.4,16.4,16.4,16.4h0
		c9,0,16.4-7.4,16.4-16.4v0C687,102.5,679.6,95.1,670.6,95.1z"/>
	<path id="XMLID_166_" class="st50" d="M595.2,260.1H92.9C92.9,121.1,205.4,9,344.1,9S595.2,121.1,595.2,260.1z"/>
	<path id="XMLID_126_" class="st51" d="M86.3,278.5h162.5c9,0,16.4,7.4,16.4,16.4v0c0,9-7.4,16.4-16.4,16.4H86.3
		c-9,0-16.4-7.4-16.4-16.4v0C69.9,285.9,77.3,278.5,86.3,278.5z"/>
	<path id="XMLID_123_" class="st51" d="M61.7,326.3h107.8c9,0,16.4,7.4,16.4,16.4v0c0,9-7.4,16.4-16.4,16.4H61.7
		c-9,0-16.4-7.4-16.4-16.4v0C45.2,333.7,52.6,326.3,61.7,326.3z"/>
	<path id="XMLID_122_" class="st51" d="M16.4,326.3L16.4,326.3c9,0,16.4,7.4,16.4,16.4v0c0,9-7.4,16.4-16.4,16.4h0
		c-9,0-16.4-7.4-16.4-16.4v0C0,333.7,7.4,326.3,16.4,326.3z"/>
	<path id="XMLID_170_" class="st50" d="M109.1,81.2h102.8c5.5,0,10,4.5,10,10v1.6c0,5.5-4.5,10-10,10H109.1c-5.5,0-10-4.5-10-10
		v-1.6C99.1,85.7,103.6,81.2,109.1,81.2z"/>
	<path id="XMLID_169_" class="st50" d="M100,56.1h39.7c5.5,0,10,4.5,10,10v0c0,5.5-4.5,10-10,10H100c-5.5,0-10-4.5-10-10v0
		C89.9,60.6,94.5,56.1,100,56.1z"/>
	<path id="XMLID_168_" class="st50" d="M170,56.1h35.6c5.5,0,10,4.5,10,10v0c0,5.5-4.5,10-10,10H170c-5.5,0-10-4.5-10-10v0
		C159.9,60.6,164.5,56.1,170,56.1z"/>
	<rect id="XMLID_2559_" x="267.3" y="8.4" class="st52" width="154" height="259.3"/>
	<path id="XMLID_25_" class="st51" d="M92.9,260.1c0,40.9,9.8,79.6,27.1,113.7l112.5-112.5l75.8,75.8l-120,120
		c42.8,33.9,97,54.1,155.9,54.1c138.7,0,251.1-112.1,251.1-251.1H92.9z"/>
	<path id="XMLID_30_" class="st53" d="M232.5,261.3L120,373.7c16.5,32.5,39.9,60.9,68.2,83.3l120-120L232.5,261.3z"/>
	<circle id="XMLID_17_" class="st9" cx="480" cy="164.5" r="52.3"/>
	<ellipse id="XMLID_18_" class="st16" cx="482" cy="290.3" rx="27.5" ry="4.6"/>
	<polygon id="XMLID_16_" class="st5" points="480.2,290.3 484.5,290.3 484.6,192.2 499.8,183.9 499.8,179.1 484.6,187.4 
		484.5,168.4 504,155 504.1,150.1 484.5,162.7 484.5,136.7 479.9,136.7 479.9,143.4 469.3,134.6 469.3,138.6 479.9,148.3 
		479.9,168.1 460.9,151.9 460.9,158 479.9,175.3 480,194.9 462,179.8 462,186 479.9,200.8 	"/>
	<circle id="XMLID_27_" class="st9" cx="202.2" cy="201.4" r="37.7"/>
	<polygon id="XMLID_20_" class="st5" points="202.4,291.9 205.4,291.9 205.5,221.3 216.5,215.3 216.5,211.9 205.5,217.8 
		205.5,204.2 219.5,194.5 219.5,191 205.5,200.1 205.4,181.4 202.1,181.4 202.1,186.2 194.5,179.8 194.5,182.7 202.1,189.7 
		202.1,203.9 188.5,192.3 188.5,196.7 202.2,209.2 202.2,223.2 189.3,212.4 189.3,216.8 202.1,227.5 	"/>
	<g id="XMLID_2480_">
		<defs>
			
				<rect id="XMLID_2479_" x="22.2" y="348.4" transform="matrix(0.7071 -0.7071 0.7071 0.7071 -235.1577 236.2195)" width="290.7" height="107.2"/>
		</defs>
		<clipPath id="XMLID_113_">
			<use xlink:href="#XMLID_2479_"  style="overflow:visible;"/>
		</clipPath>
		<path id="XMLID_2427_" class="st54" d="M206.6,374.3l-5.7-5.7c-28.8-28.8-28.8-75.9,0-104.7l55.1-55.1
			c28.8-28.8,75.9-28.8,104.7,0l5.7,5.7c28.8,28.8,28.8,75.9,0,104.7l-55.1,55.1C282.6,403.1,235.4,403.1,206.6,374.3z"/>
	</g>
	<path id="XMLID_2409_" class="st53" d="M213.5,367.5l-5.7-5.7C179,333,179,285.8,207.8,257l55.1-55.1c28.8-28.8,75.9-28.8,104.7,0
		l5.7,5.7c28.8,28.8,28.8,75.9,0,104.7l-55.1,55.1C289.4,396.3,242.3,396.3,213.5,367.5z"/>
	<g id="XMLID_2413_">
		<path id="XMLID_2444_" class="st53" d="M362.5,297.1L362.5,297.1c-7-7-7-18.6,0-25.6l58.9-58.9c7-7,18.6-7,25.6,0l0,0
			c7,7,7,18.6,0,25.6l-58.9,58.9C381.1,304.2,369.6,304.2,362.5,297.1z"/>
		<path id="XMLID_2442_" class="st53" d="M362.5,297.1L362.5,297.1c-7-7-7-18.6,0-25.6l58.9-58.9c7-7,18.6-7,25.6,0l0,0
			c7,7,7,18.6,0,25.6l-58.9,58.9C381.1,304.2,369.6,304.2,362.5,297.1z"/>
		<path id="XMLID_2414_" class="st53" d="M420.8,217c5.9-5.9,17.6-8,23.4-2.2s3.7,17.6-2.2,23.4L420.8,217z"/>
	</g>
	<g id="XMLID_2445_">
		<path id="XMLID_2450_" class="st53" d="M368.8,248.3L368.8,248.3c-7-7-7-18.6,0-25.6l58.9-58.9c7-7,18.6-7,25.6,0v0
			c7,7,7,18.6,0,25.6l-58.9,58.9C387.4,255.3,375.9,255.3,368.8,248.3z"/>
		<path id="XMLID_2449_" class="st53" d="M368.8,248.3L368.8,248.3c-7-7-7-18.6,0-25.6l58.9-58.9c7-7,18.6-7,25.6,0v0
			c7,7,7,18.6,0,25.6l-58.9,58.9C387.4,255.3,375.9,255.3,368.8,248.3z"/>
		<path id="XMLID_2448_" class="st53" d="M427.1,168.2c5.9-5.9,17.6-8,23.4-2.2c5.8,5.8,3.7,17.6-2.2,23.4L427.1,168.2z"/>
	</g>
	<g id="XMLID_2451_">
		<path id="XMLID_2455_" class="st53" d="M360.9,202.6L360.9,202.6c-7-7-7-18.6,0-25.6l58.9-58.9c7-7,18.6-7,25.6,0l0,0
			c7,7,7,18.6,0,25.6l-58.9,58.9C379.5,209.6,368,209.6,360.9,202.6z"/>
		<path id="XMLID_2454_" class="st53" d="M360.9,202.6L360.9,202.6c-7-7-7-18.6,0-25.6l58.9-58.9c7-7,18.6-7,25.6,0l0,0
			c7,7,7,18.6,0,25.6l-58.9,58.9C379.5,209.6,368,209.6,360.9,202.6z"/>
		<path id="XMLID_2452_" class="st53" d="M419.3,122.5c5.9-5.9,17.6-8,23.4-2.2c5.8,5.8,3.7,17.6-2.2,23.4L419.3,122.5z"/>
	</g>
	<path id="XMLID_2472_" class="st27" d="M418.5,350H277.1c-8.7,0-15.8-7.1-15.8-15.8V15.8c0-8.7,7.1-15.8,15.8-15.8h141.4
		c8.7,0,15.8,7.1,15.8,15.8v318.5C434.2,342.9,427.1,350,418.5,350z"/>
	<rect id="XMLID_2471_" x="270.3" y="41.5" class="st22" width="154" height="267"/>
	<g id="XMLID_2465_">
		<circle id="XMLID_2467_" class="st16" cx="325.6" cy="23.1" r="3.2"/>
		<path id="XMLID_2466_" class="st16" d="M370.3,26h-32.6c-1.2,0-2.2-1-2.2-2.2v-1.1c0-1.2,1-2.2,2.2-2.2h32.6c1.2,0,2.2,1,2.2,2.2
			v1.1C372.5,25,371.5,26,370.3,26z"/>
	</g>
	<g id="XMLID_2811_">
		<rect id="XMLID_2923_" x="404.2" y="73.7" class="st55" width="13.2" height="13.2"/>
		<g id="XMLID_2914_">
			<g id="XMLID_2921_">
				<defs>
					<path id="XMLID_2922_" d="M418.3,147.9v-76c0-0.9-0.7-1.6-1.7-1.6H277.8c-0.9,0-1.7,0.7-1.7,1.6v76H418.3z"/>
				</defs>
				<clipPath id="XMLID_114_">
					<use xlink:href="#XMLID_2922_"  style="overflow:visible;"/>
				</clipPath>
			</g>
			<g id="XMLID_2918_" class="st56">
				<linearGradient id="XMLID_115_" gradientUnits="userSpaceOnUse" x1="347.217" y1="147.9092" x2="347.217" y2="70.2502">
					<stop  offset="0" style="stop-color:#263238;stop-opacity:0.1"/>
					<stop  offset="1" style="stop-color:#263238"/>
				</linearGradient>
				<path id="XMLID_77_" class="st57" d="M418.3,147.9v-76c0-0.9-0.7-1.6-1.7-1.6H277.8c-0.9,0-1.7,0.7-1.7,1.6v76H418.3z"/>
			</g>
			<g id="XMLID_2915_" class="st58">
				<linearGradient id="XMLID_116_" gradientUnits="userSpaceOnUse" x1="292.5189" y1="54.8647" x2="401.9151" y2="164.261">
					<stop  offset="0.5341" style="stop-color:#263238;stop-opacity:0"/>
					<stop  offset="1" style="stop-color:#263238"/>
				</linearGradient>
				<path id="XMLID_75_" class="st59" d="M418.3,147.9v-76c0-0.9-0.7-1.6-1.7-1.6H277.8c-0.9,0-1.7,0.7-1.7,1.6v76H418.3z"/>
			</g>
		</g>
		<g id="more_vertical_3_">
			<path id="XMLID_2910_" class="st6" d="M412.3,77.3c0.4,0,0.7-0.3,0.7-0.7c0-0.4-0.3-0.7-0.7-0.7c-0.4,0-0.7,0.3-0.7,0.7
				C411.7,77,412,77.3,412.3,77.3L412.3,77.3z M412.3,77.9c-0.4,0-0.7,0.3-0.7,0.7c0,0.4,0.3,0.7,0.7,0.7c0.4,0,0.7-0.3,0.7-0.7
				C413,78.2,412.7,77.9,412.3,77.9L412.3,77.9z M412.3,80c-0.4,0-0.7,0.3-0.7,0.7c0,0.4,0.3,0.7,0.7,0.7c0.4,0,0.7-0.3,0.7-0.7
				C413,80.3,412.7,80,412.3,80L412.3,80z"/>
		</g>
		<g id="call_3_">
			<g id="XMLID_94_">
				<path id="XMLID_95_" class="st6" d="M387.4,137.3c0.8,1.5,2,2.7,3.5,3.5l1.2-1.2c0.2-0.2,0.4-0.2,0.5-0.1
					c0.6,0.2,1.2,0.3,1.9,0.3c0.3,0,0.5,0.2,0.5,0.5v1.8c0,0.3-0.2,0.5-0.5,0.5c-5,0-9.1-4.1-9.1-9.1c0-0.3,0.2-0.5,0.5-0.5h1.9
					c0.3,0,0.5,0.2,0.5,0.5c0,0.6,0.1,1.3,0.3,1.9c0.1,0.2,0,0.4-0.1,0.5L387.4,137.3z"/>
			</g>
		</g>
		<rect id="XMLID_2903_" x="404.2" y="73.7" class="st55" width="13.2" height="13.2"/>
		<g id="XMLID_2898_">
			
				<image style="overflow:visible;opacity:0.2;" width="149" height="215" id="XMLID_85_" xlink:href="C1B83AFE.png"  transform="matrix(1 0 0 1 273 68.0903)">
			</image>
			<g id="XMLID_78_">
				<path id="XMLID_84_" class="st60" d="M412.1,278.8H282.5c-3.5,0-6.3-2.8-6.3-6.3V76.6c0-3.5,2.8-6.3,6.3-6.3h129.5
					c3.5,0,6.3,2.8,6.3,6.3v195.8C418.3,275.9,415.5,278.8,412.1,278.8z"/>
			</g>
		</g>
		<g id="XMLID_2885_">
			<path id="XMLID_71_" class="st61" d="M418.3,147.9v-76c0-0.9-0.7-1.6-1.7-1.6H277.8c-0.9,0-1.7,0.7-1.7,1.6v76H418.3z"/>
		</g>
		<g id="XMLID_2835_">
			<defs>
				<path id="XMLID_2884_" d="M418.3,147.9v-76c0-0.9-0.7-1.6-1.7-1.6H277.8c-0.9,0-1.7,0.7-1.7,1.6v76H418.3z"/>
			</defs>
			<clipPath id="XMLID_117_">
				<use xlink:href="#XMLID_2884_"  style="overflow:visible;"/>
			</clipPath>
			<g id="XMLID_2810_" class="st62">
				<path id="XMLID_2864_" class="st41" d="M316.9,219L316.9,219c-1.7-0.4-2.8-2-2.5-3.8l15.3-74.9c0.4-1.7,2-2.8,3.8-2.5l0,0
					c1.7,0.4,2.8,2,2.5,3.8l-15.3,74.9C320.4,218.2,318.7,219.4,316.9,219z"/>
				<circle id="XMLID_2863_" class="st63" cx="343" cy="103.1" r="28.7"/>
				<rect id="XMLID_2862_" x="337.2" y="125.4" class="st41" width="12.7" height="12.7"/>
				<path id="XMLID_2861_" class="st41" d="M316.3,221.8L316.3,221.8c-2.6-0.5-4.2-3.1-3.7-5.6l1.9-9.4c0.5-2.6,3.1-4.2,5.6-3.7h0
					c2.6,0.5,4.2,3.1,3.7,5.6l-1.9,9.4C321.5,220.7,318.9,222.3,316.3,221.8z"/>
				<path id="XMLID_2860_" class="st36" d="M343.6,128.5L343.6,128.5c-7,0-12.7-5.7-12.7-12.7v-9.6c0-7,5.7-12.7,12.7-12.7l0,0
					c7,0,12.7,5.7,12.7,12.7v9.6C356.3,122.8,350.6,128.5,343.6,128.5z"/>
				<path id="XMLID_2859_" class="st22" d="M336.5,120.1h12.7c0,3-2.9,6.4-6.4,6.4C339.3,126.5,336.5,123.1,336.5,120.1z"/>
				<g id="XMLID_2853_">
					<path id="XMLID_2858_" class="st36" d="M326.6,307.9h-4.2c0-2.3,1.9-4.2,4.2-4.2C326.6,303.6,326.6,305.5,326.6,307.9z"/>
					<rect id="XMLID_2857_" x="327.7" y="303.6" class="st36" width="9.6" height="4.2"/>
					<rect id="XMLID_2856_" x="330.9" y="220.9" class="st36" width="6.4" height="86"/>
					<rect id="XMLID_2855_" x="326.6" y="303.6" class="st64" width="4.2" height="4.2"/>
					<rect id="XMLID_2854_" x="322.4" y="307.9" class="st64" width="14.9" height="2.1"/>
				</g>
				<g id="XMLID_2847_">
					<rect id="XMLID_2852_" x="348.2" y="220.9" class="st36" width="6.4" height="86"/>
					<path id="XMLID_2851_" class="st36" d="M358.8,307.9h4.2c0-2.3-1.9-4.2-4.2-4.2C358.8,303.6,358.8,305.5,358.8,307.9z"/>
					<rect id="XMLID_2850_" x="354.5" y="303.6" class="st65" width="4.2" height="4.2"/>
					<rect id="XMLID_2849_" x="348.2" y="303.6" class="st36" width="6.4" height="4.2"/>
					<rect id="XMLID_2848_" x="348.2" y="307.9" class="st65" width="14.9" height="2.1"/>
				</g>
				<path id="XMLID_2846_" class="st11" d="M356.3,227.2h-25.5v-44.6c0-3.5,2.3-6.4,5.1-6.4h15.3c2.8,0,5.1,2.9,5.1,6.4V227.2z"/>
				<g id="XMLID_2842_">
					<path id="XMLID_2845_" class="st41" d="M364.9,169.7L364.9,169.7c-1.7,0.6-3.5-0.3-4.1-1.9l-9.5-26.2c-0.6-1.7,0.3-3.5,1.9-4.1
						l0,0c1.7-0.6,3.5,0.3,4.1,1.9l9.5,26.2C367.4,167.3,366.5,169.1,364.9,169.7z"/>
					<path id="XMLID_2844_" class="st36" d="M364.1,169.9l-1.2-0.4c-1.3-0.5-2-1.9-1.5-3.2l16.8-46.1c0.5-1.3,1.9-2,3.2-1.5l1.2,0.4
						c1.3,0.5,2,1.9,1.5,3.2l-16.8,46.1C366.9,169.7,365.4,170.4,364.1,169.9z"/>
					<path id="XMLID_2843_" class="st36" d="M378.9,129.6L378.9,129.6c-2.6-0.3-4.5-2.7-4.2-5.3l1.1-9.5c0.3-2.6,2.7-4.5,5.3-4.2
						l0,0c2.6,0.3,4.5,2.7,4.2,5.3l-1.1,9.5C383.9,128,381.5,129.9,378.9,129.6z"/>
				</g>
				<rect id="XMLID_2841_" x="327.7" y="93.5" class="st63" width="32" height="17.5"/>
				<rect id="XMLID_2840_" x="327.7" y="95.1" class="st34" width="32" height="17.5"/>
				<path id="XMLID_2839_" class="st66" d="M330.9,227.2h12.7v-50.9h-7.6c-2.8,0-5.1,2.9-5.1,6.4V227.2z"/>
				<path id="XMLID_2838_" class="st11" d="M321.2,218l-10.6-2.2c-1.2-0.2-1.9-1.4-1.7-2.5l0.9-4.2c0.2-1.2,1.4-1.9,2.5-1.7
					l10.6,2.2c1.2,0.2,1.9,1.4,1.7,2.5l-0.9,4.2C323.5,217.5,322.4,218.2,321.2,218z"/>
				<path id="XMLID_2837_" class="st41" d="M316.3,221.8L316.3,221.8c-2.6-0.5-4.2-3.1-3.7-5.6l1.9-9.4c0.5-2.6,3.1-4.2,5.6-3.7h0
					c2.6,0.5,4.2,3.1,3.7,5.6l-1.9,9.4C321.5,220.7,318.9,222.3,316.3,221.8z"/>
				<path id="XMLID_2836_" class="st13" d="M348.6,176.3h-10c-3.1,0-5.6-2.5-5.6-5.6v-30.3c0-3.1,2.5-5.6,5.6-5.6h10
					c3.1,0,5.6,2.5,5.6,5.6v30.3C354.2,173.8,351.7,176.3,348.6,176.3z"/>
			</g>
		</g>
		<path id="XMLID_2827_" class="st6" d="M314.3,81.3h-31.9c-1.2,0-2.2-1-2.2-2.2v-0.8c0-1.2,1-2.2,2.2-2.2h31.9c1.2,0,2.2,1,2.2,2.2
			v0.8C316.6,80.3,315.6,81.3,314.3,81.3z"/>
		<path id="XMLID_2824_" class="st6" d="M369.5,142.2h-87.1c-1.2,0-2.2-1-2.2-2.2v-0.6c0-1.2,1-2.2,2.2-2.2h87.1
			c1.2,0,2.2,1,2.2,2.2v0.6C371.8,141.2,370.8,142.2,369.5,142.2z"/>
		<path id="XMLID_2823_" class="st67" d="M410.8,166H282.5c-1.2,0-2.2-1-2.2-2.2v-1.9c0-1.2,1-2.2,2.2-2.2h128.3
			c1.2,0,2.2,1,2.2,2.2v1.9C413,165,412,166,410.8,166z"/>
		<path id="XMLID_2822_" class="st67" d="M341,177.2h-58.5c-1.2,0-2.2-1-2.2-2.2v-1.9c0-1.2,1-2.2,2.2-2.2H341c1.2,0,2.2,1,2.2,2.2
			v1.9C343.2,176.2,342.2,177.2,341,177.2z"/>
		<circle id="XMLID_2821_" class="st60" cx="399" cy="139.8" r="3"/>
		<circle id="XMLID_64_" class="st60" cx="409" cy="139.8" r="3"/>
		<path id="XMLID_2819_" class="st67" d="M399,190.2H290c-0.5,0-0.9-0.4-0.9-0.9v-0.8c0-0.5,0.4-0.9,0.9-0.9h109
			c0.5,0,0.9,0.4,0.9,0.9v0.8C400,189.8,399.5,190.2,399,190.2z"/>
		<path id="XMLID_2818_" class="st36" d="M362.7,176.2h-14.8c-1.1,0-2-0.9-2-2v-0.3c0-1.1,0.9-2,2-2h14.8c1.1,0,2,0.9,2,2v0.3
			C364.7,175.3,363.8,176.2,362.7,176.2z"/>
		<path id="XMLID_2817_" class="st67" d="M399,202.8H290c-0.5,0-0.9-0.4-0.9-0.9V201c0-0.5,0.4-0.9,0.9-0.9h109
			c0.5,0,0.9,0.4,0.9,0.9v0.8C400,202.3,399.5,202.8,399,202.8z"/>
		<path id="XMLID_26_" class="st67" d="M362.8,215.8H290c-0.5,0-0.9-0.4-0.9-0.9V214c0-0.5,0.4-0.9,0.9-0.9h72.8
			c0.5,0,0.9,0.4,0.9,0.9v0.8C363.7,215.3,363.3,215.8,362.8,215.8z"/>
		<circle id="XMLID_2812_" class="st60" cx="408" cy="78.9" r="4"/>
		<rect id="XMLID_19_" x="330.7" y="234.9" class="st68" width="33" height="33.1"/>
		<rect id="XMLID_21_" x="294.2" y="234.9" class="st68" width="33" height="33.1"/>
		<rect id="XMLID_22_" x="366.9" y="234.9" class="st68" width="33" height="33.1"/>
		<rect id="XMLID_23_" x="403.4" y="234.9" class="st68" width="9.9" height="33.1"/>
		<rect id="XMLID_24_" x="281.1" y="234.9" class="st68" width="9.9" height="33.1"/>
	</g>
	<path id="XMLID_2405_" class="st53" d="M228.6,262.5L228.6,262.5c-7-7-7-18.6,0-25.6l58.9-58.9c7-7,18.6-7,25.6,0l0,0
		c7,7,7,18.6,0,25.6l-58.9,58.9C247.1,269.5,235.6,269.5,228.6,262.5z"/>
	<rect id="XMLID_15_" x="270.3" y="41.5" class="st69" width="154" height="24"/>
	<rect id="XMLID_60_" x="270.3" y="284.5" class="st69" width="154" height="24"/>
	<rect id="XMLID_32_" x="270.3" y="284.5" class="st16" width="38.5" height="24"/>
	<g id="XMLID_734_">
		<path id="XMLID_844_" class="st6" d="M151,223.1h34.4c0-9-7.7-17.2-17.2-17.2S151,214.1,151,223.1z"/>
		<path id="XMLID_843_" class="st6" d="M132.4,223.1h25.8c0-7-5.8-12.9-12.9-12.9S132.4,216.1,132.4,223.1z"/>
		<path id="XMLID_735_" class="st6" d="M123.1,223.1h11.7c0-3-2.6-5.8-5.8-5.8C125.7,217.3,123.1,220.1,123.1,223.1z"/>
	</g>
	<g id="XMLID_127_">
		<path id="XMLID_152_" class="st7" d="M550.6,247.1H644c0-25-20.9-46.7-46.7-46.7S550.6,222.1,550.6,247.1z"/>
		<path id="XMLID_149_" class="st7" d="M500.4,247.1h70.1c0-19-15.7-35-35-35S500.4,228.1,500.4,247.1z"/>
		<path id="XMLID_128_" class="st7" d="M475,247.1h31.6c0-9-7.1-15.8-15.8-15.8S475,238.1,475,247.1z"/>
	</g>
</g>
</svg>
