<?xml version="1.0" encoding="utf-8"?>
<!-- Generator: Adobe Illustrator 19.0.0, SVG Export Plug-In . SVG Version: 6.00 Build 0)  -->
<svg version="1.1" id="Layer_1" xmlns="http://www.w3.org/2000/svg" xmlns:xlink="http://www.w3.org/1999/xlink" x="0px" y="0px"
	 viewBox="0 0 16 16" style="enable-background:new 0 0 16 16;" xml:space="preserve">
<style type="text/css">
	.st0{fill:#D0D8DC;}
</style>
<path class="st0" d="M13.8,15.1L0.9,2.3C0.5,1.8,0.4,1.1,0.7,0.8l0,0c0.4-0.4,1-0.2,1.5,0.2L15,13.7c0.5,0.5,0.6,1.2,0.2,1.5l0,0
	C14.9,15.7,14.3,15.6,13.8,15.1z"/>
<path class="st0" d="M0.7,15.2L0.7,15.2c-0.4-0.4-0.2-1,0.2-1.5L13.7,1c0.5-0.5,1.2-0.6,1.5-0.2l0,0c0.4,0.4,0.2,1-0.2,1.5L2.1,15.1
	C1.6,15.6,1,15.7,0.7,15.2z"/>
</svg>
