<?xml version="1.0" encoding="utf-8"?>
<!-- Generator: Adobe Illustrator 19.0.0, SVG Export Plug-In . SVG Version: 6.00 Build 0)  -->
<svg version="1.1" xmlns="http://www.w3.org/2000/svg" xmlns:xlink="http://www.w3.org/1999/xlink" x="0px" y="0px"
	 viewBox="0 0 212 320" style="enable-background:new 0 0 212 320;" xml:space="preserve">
<style type="text/css">
	.st0{display:none;}
	.st1{fill:#FF6D00;}
	.st2{fill:#FFCA28;}
	.st3{fill:#FF5722;}
	.st4{fill:#E64A19;}
	.st5{fill:#FFAB00;}
	.st6{fill:#F4511E;}
	.st7{fill:#FF9100;}
	.st8{fill:#FCB316;}
</style>
<g id="Sky">
</g>
<g id="Ground">
</g>
<g id="Background_Buildings">
</g>
<g id="White_Screen" class="st0">
</g>
<g id="Aircrafts">
	<rect id="XMLID_1_" x="122.9" y="239.1" class="st1" width="3.9" height="41"/>
	<rect id="XMLID_1975_" x="84.7" y="239.1" class="st1" width="3.9" height="41"/>
	<g id="XMLID_1969_">
		<path id="XMLID_1971_" class="st2" d="M211.8,105.8C211.8,47.4,164.6,0,106.1,0S0.1,47.4,0.1,105.8c0,50.8,83.5,134.4,83.5,134.4
			h44.3C127.9,240.2,211.8,156.6,211.8,105.8z"/>
		<path id="XMLID_1970_" class="st2" d="M211.9,105.8C211.9,47.4,164.6,0,106.3,0v240.2h21.6C127.9,240.2,211.9,156.6,211.9,105.8z"
			/>
	</g>
	<g id="XMLID_1966_">
		<path id="XMLID_1968_" class="st3" d="M126.4,244.4H85.6c-1,0-1.9-0.8-1.9-1.9v-2.4h44.5v2.4C128.3,243.6,127.4,244.4,126.4,244.4
			z"/>
		<path id="XMLID_1967_" class="st4" d="M126.4,244.4h-20.1v-4.3h22v2.4C128.3,243.6,127.4,244.4,126.4,244.4z"/>
	</g>
	<g id="XMLID_1961_">
		<path id="XMLID_1965_" class="st5" d="M128.4,280.7H83.6c-1.2,0-2.2-1-2.2-2.2v-1.3c0-1.2,1-2.2,2.2-2.2h44.8c1.2,0,2.2,1,2.2,2.2
			v1.3C130.6,279.7,129.6,280.7,128.4,280.7z"/>
		<path id="XMLID_1964_" class="st6" d="M126.2,319.8H85.8c-1.2,0-2.2-1-2.2-2.2v-37h44.8v37C128.4,318.8,127.4,319.8,126.2,319.8z"
			/>
		<path id="XMLID_1963_" class="st7" d="M128.4,280.7H106V275h22.4c1.2,0,2.2,1,2.2,2.2v1.3C130.6,279.7,129.6,280.7,128.4,280.7z"
			/>
		<path id="XMLID_1962_" class="st4" d="M126.2,319.8H106v-39.1h22.4v37C128.4,318.8,127.4,319.8,126.2,319.8z"/>
	</g>
	<path id="XMLID_1960_" class="st5" d="M105.9,305.8c-11.2,0-20.6-3.9-22.3-7.7v-4.5c4.6,10.3,42.3,9.3,44.8,0.2l0,4.4
		C126.5,301.6,117.1,305.8,105.9,305.8z"/>
	<path id="XMLID_1931_" class="st8" d="M211.9,105.8C211.9,47.4,164.6,0,106.3,0v240.2h21.6C127.9,240.2,211.9,156.6,211.9,105.8z"
		/>
	<path id="XMLID_1930_" class="st8" d="M73.5,5.1c0,0-65.3,60.1-50,116.7c7.6,36,12.8,51.1,65.8,118.4c7.3,0,7.3,0,7.3,0
		S4.5,106,92.1,0.9C84,2.3,73.5,5.1,73.5,5.1z"/>
	<path id="XMLID_1929_" class="st2" d="M139,5.1c0,0,65.3,60.1,50,116.7c-7.6,36-12.8,51.1-65.8,118.4c-7.3,0-7.3,0-7.3,0
		S208,106,120.5,0.9C128.5,2.3,139,5.1,139,5.1z"/>
</g>
<g id="Clouds">
</g>
<g id="Trees">
</g>
<g id="Character">
</g>
<g id="Copy" class="st0">
</g>
<g id="Logo">
</g>
</svg>
