<?xml version="1.0" encoding="utf-8"?>
<!-- Generator: Adobe Illustrator 19.0.0, SVG Export Plug-In . SVG Version: 6.00 Build 0)  -->
<svg version="1.1" id="Character" xmlns="http://www.w3.org/2000/svg" xmlns:xlink="http://www.w3.org/1999/xlink" x="0px" y="0px"
	 viewBox="0 0 277 283" style="enable-background:new 0 0 277 283;" xml:space="preserve">
<style type="text/css">
	.st0{fill:#263238;}
	.st1{fill:#FFD600;}
	.st2{fill:#FFAB00;}
	.st3{fill:#F4511E;}
	.st4{fill:#FF7043;}
	.st5{opacity:0.1;fill:#212121;}
	.st6{fill:#607D8B;}
	.st7{fill:#37474F;}
	.st8{fill:#FAFAFA;}
	.st9{fill:#FFFFFF;}
	.st10{fill:#212121;}
	.st11{fill:#424242;}
	.st12{fill:#BDBDBD;}
	.st13{fill:#616161;}
	.st14{fill:#E45325;}
	.st15{fill:#757575;}
</style>
<g id="XMLID_2355_">
	<polygon id="XMLID_2357_" class="st0" points="76.3,215.6 69.7,215.6 66.8,139.3 79.2,139.3 	"/>
	<polygon id="XMLID_2356_" class="st0" points="207.3,215.6 200.7,215.6 197.8,139.3 210.2,139.3 	"/>
</g>
<g id="XMLID_2352_">
	<polygon id="XMLID_2354_" class="st0" points="246.3,282 236,282 238.4,218.9 243.9,218.9 	"/>
	<polygon id="XMLID_2353_" class="st0" points="32.5,282 22.2,282 24.6,218.9 30.1,218.9 	"/>
</g>
<path id="XMLID_2351_" class="st1" d="M268.2,173.1H8.8c-1.5,0-2.7-1.2-2.7-2.7v-22.1c0-1.5,1.2-2.7,2.7-2.7h259.5
	c1.5,0,2.7,1.2,2.7,2.7v22.1C270.9,171.9,269.7,173.1,268.2,173.1z"/>
<path id="XMLID_2350_" class="st1" d="M268.2,204.6H8.8c-1.5,0-2.7-1.2-2.7-2.7v-22.1c0-1.5,1.2-2.7,2.7-2.7h259.5
	c1.5,0,2.7,1.2,2.7,2.7v22.1C270.9,203.4,269.7,204.6,268.2,204.6z"/>
<path id="XMLID_2349_" class="st2" d="M274.5,224H2.5c-1.3,0-2.3-1-2.3-2.3l0-5.7c0-1.3,1-2.3,2.3-2.3h271.9c1.3,0,2.3,1,2.3,2.3
	v5.7C276.8,223,275.7,224,274.5,224z"/>
<rect id="XMLID_2347_" x="158.1" y="89" class="st3" width="16.9" height="24.1"/>
<path id="XMLID_2346_" class="st4" d="M171.3,93H161c-8.2,0-15-6.7-15-15V43.7c0-8.2,6.7-15,15-15h10.2c8.2,0,15,6.7,15,15V78
	C186.2,86.3,179.5,93,171.3,93z"/>
<path id="XMLID_2345_" class="st5" d="M171.3,93h-5.1V28.7h5.1c8.2,0,15,6.7,15,15V78C186.2,86.3,179.5,93,171.3,93z"/>
<path id="XMLID_2344_" class="st6" d="M173.3,205.5H159c-13.8,0-25-11.3-25-25V126c0-13.8,11.3-25,25-25h14.3c13.8,0,25,11.3,25,25
	v54.4C198.3,194.2,187,205.5,173.3,205.5z"/>
<path id="XMLID_2343_" class="st7" d="M174.2,181.4H134v-56.2c0-13.3,10.8-24.1,24.1-24.1h16.1V181.4z"/>
<g id="XMLID_2338_">
	
		<ellipse id="XMLID_2340_" transform="matrix(0.7914 0.6113 -0.6113 0.7914 104.6476 -88.0442)" class="st6" cx="181.3" cy="109.3" rx="9" ry="8"/>
	
		<rect id="XMLID_2339_" x="175.3" y="118.9" transform="matrix(0.7914 0.6113 -0.6113 0.7914 120.1655 -98.3068)" class="st6" width="57.6" height="16.1"/>
</g>
<rect id="XMLID_2342_" x="154.1" y="101" class="st8" width="24.1" height="80.3"/>
<path id="XMLID_2341_" class="st9" d="M152.7,82.4v-7h17.5c0,0-0.4,7-8,7C154.5,82.4,152.7,82.4,152.7,82.4z"/>
<g id="XMLID_2335_">
	
		<rect id="XMLID_2337_" x="183.7" y="146.8" transform="matrix(-0.8979 0.4402 -0.4402 -0.8979 460.7599 202.7478)" class="st6" width="46.3" height="16.1"/>
	<circle id="XMLID_2336_" class="st6" cx="227.8" cy="144.4" r="8.2"/>
</g>
<path id="XMLID_2334_" class="st10" d="M182.2,48.8h-32.1c-2.2,0-4-1.8-4-4V20.7c0-2.2,1.8-4,4-4l32.1-16.1c2.2,0,4,1.8,4,4v40.2
	C186.2,47,184.4,48.8,182.2,48.8z"/>
<path id="XMLID_2333_" class="st5" d="M182.2,52.8h-32.1c-2.2,0-4-1.8-4-4V24.7c0-2.2,1.8-4,4-4l32.1-16.1c2.2,0,4,1.8,4,4v40.2
	C186.2,51,184.4,52.8,182.2,52.8z"/>
<rect id="XMLID_2332_" x="146.1" y="36.8" class="st4" width="8" height="4"/>
<rect id="XMLID_2331_" x="146.1" y="28.7" class="st4" width="8" height="4"/>
<rect id="XMLID_2330_" x="138" y="153.3" class="st7" width="16.1" height="28.1"/>
<rect id="XMLID_2329_" x="142" y="153.3" class="st6" width="4" height="24.1"/>
<rect id="XMLID_2328_" x="186.2" y="153.3" class="st7" width="4" height="24.1"/>
<rect id="XMLID_2327_" x="205.5" y="198.2" class="st11" width="12.3" height="83.8"/>
<path id="XMLID_2326_" class="st12" d="M228.5,276.6h10.5c0-7.2-4-11.2-10.5-11.2C228.5,265.4,228.5,269.4,228.5,276.6z"/>
<rect id="XMLID_2325_" x="220.3" y="265.8" class="st6" width="8.2" height="10.8"/>
<rect id="XMLID_2324_" x="205.5" y="265.8" class="st6" width="14.8" height="10.8"/>
<rect id="XMLID_2323_" x="203.2" y="276.6" class="st12" width="37.9" height="5.4"/>
<rect id="XMLID_2321_" x="166.1" y="191.1" class="st11" width="46" height="14.3"/>
<ellipse id="XMLID_2320_" class="st11" cx="211.4" cy="198.2" rx="6.5" ry="7.1"/>
<rect id="XMLID_2318_" x="64.1" y="198.2" class="st13" width="13.7" height="83.8"/>
<path id="XMLID_2317_" class="st12" d="M50.8,276.6h-10c0-7.2,4.5-11.2,10-11.2C50.8,265.4,50.8,269.4,50.8,276.6z"/>
<rect id="XMLID_2316_" x="50.8" y="265.8" class="st6" width="10.8" height="10.8"/>
<rect id="XMLID_2315_" x="61.6" y="265.8" class="st6" width="16.2" height="10.8"/>
<rect id="XMLID_2314_" x="38.6" y="276.6" class="st12" width="41.3" height="5.4"/>
<rect id="XMLID_2312_" x="70.6" y="191.2" class="st13" width="86.6" height="14.3"/>
<circle id="XMLID_2311_" class="st13" cx="71.2" cy="198.3" r="7.1"/>
<path id="XMLID_2308_" class="st13" d="M174.2,205.5h-16.1c-13.3,0-24.1-10.8-24.1-24.1h64.3C198.3,194.6,187.4,205.5,174.2,205.5z"
	/>
<path id="XMLID_2307_" class="st11" d="M174.2,205.5h-8c0,0,0-10.8,0-24.1h32.1C198.3,194.6,187.4,205.5,174.2,205.5z"/>
<rect id="XMLID_2306_" x="134" y="181.4" class="st14" width="64.3" height="4"/>
<g id="XMLID_2302_">
	<circle id="XMLID_2305_" class="st7" cx="103.1" cy="163.3" r="8"/>
	<circle id="XMLID_2304_" class="st7" cx="144.8" cy="116" r="8"/>
	<polygon id="XMLID_2303_" class="st7" points="151,121 109.3,168.4 96.9,158.2 138.5,110.9 	"/>
</g>
<g id="XMLID_2296_">
	<path id="XMLID_2301_" class="st15" d="M156.8,164.6h-15c-1.1,0-2-0.9-2-2v-33c0-1.1,0.9-2,2-2h15c1.1,0,2,0.9,2,2v33
		C158.8,163.7,157.9,164.6,156.8,164.6z"/>
	<rect id="XMLID_2300_" x="139.7" y="132.7" class="st12" width="19.1" height="0.9"/>
	<rect id="XMLID_2299_" x="139.7" y="158.7" class="st12" width="19.1" height="0.9"/>
	<circle id="XMLID_2298_" class="st12" cx="143.4" cy="130" r="0.9"/>
	<circle id="XMLID_2297_" class="st13" cx="149.3" cy="141.2" r="3.2"/>
</g>
<g id="XMLID_2292_">
	<circle id="XMLID_2295_" class="st7" cx="133.2" cy="163.3" r="8"/>
	<circle id="XMLID_2294_" class="st7" cx="105.1" cy="163.3" r="8"/>
	<rect id="XMLID_2293_" x="104.1" y="155.3" class="st7" width="29.1" height="16.1"/>
</g>
<circle id="XMLID_2291_" class="st3" cx="141.2" cy="163.3" r="8"/>
<circle id="XMLID_2290_" class="st3" cx="133.2" cy="163.3" r="8"/>
<rect id="XMLID_2289_" x="133.4" y="155.3" class="st3" width="7.8" height="16.1"/>
<g id="XMLID_2285_">
	<circle id="XMLID_2288_" class="st4" cx="148.3" cy="160.7" r="8.9"/>
	<circle id="XMLID_2287_" class="st4" cx="139.4" cy="160.7" r="8.9"/>
	<rect id="XMLID_2286_" x="139.7" y="151.8" class="st4" width="8.6" height="17.7"/>
</g>
</svg>
