<?xml version="1.0" encoding="utf-8"?>
<!-- Generator: Adobe Illustrator 19.0.0, SVG Export Plug-In . SVG Version: 6.00 Build 0)  -->
<svg version="1.1" id="Layer_1" xmlns="http://www.w3.org/2000/svg" xmlns:xlink="http://www.w3.org/1999/xlink" x="0px" y="0px"
	 viewBox="0 0 280 145" style="enable-background:new 0 0 280 145;" xml:space="preserve">
<style type="text/css">
	.st0{fill:#37474F;}
	.st1{fill:#FF9100;}
	.st2{fill:#F4511E;}
</style>
<g id="XMLID_2355_">
	<polygon id="XMLID_2357_" class="st0" points="78.3,78.6 71.7,78.6 68.8,2.3 81.2,2.3 	"/>
	<polygon id="XMLID_2356_" class="st0" points="209.3,78.6 202.7,78.6 199.8,2.3 212.2,2.3 	"/>
</g>
<g id="XMLID_2352_">
	<polygon id="XMLID_2354_" class="st0" points="248.3,145 238,145 240.4,81.8 245.9,81.8 	"/>
	<polygon id="XMLID_2353_" class="st0" points="34.5,145 24.2,145 26.6,81.8 32.1,81.8 	"/>
</g>
<path id="XMLID_2351_" class="st1" d="M270.2,36.1H10.8c-1.5,0-2.7-1.2-2.7-2.7V11.3c0-1.5,1.2-2.7,2.7-2.7h259.5
	c1.5,0,2.7,1.2,2.7,2.7v22.1C272.9,34.9,271.7,36.1,270.2,36.1z"/>
<path id="XMLID_2350_" class="st1" d="M270.2,67.5H10.8c-1.5,0-2.7-1.2-2.7-2.7V42.7c0-1.5,1.2-2.7,2.7-2.7h259.5
	c1.5,0,2.7,1.2,2.7,2.7v22.1C272.9,66.3,271.7,67.5,270.2,67.5z"/>
<path id="XMLID_2349_" class="st2" d="M276.5,86.9H4.5c-1.3,0-2.3-1-2.3-2.3V79c0-1.3,1-2.3,2.3-2.3h271.9c1.3,0,2.3,1,2.3,2.3v5.7
	C278.8,85.9,277.7,86.9,276.5,86.9z"/>
</svg>
