<?xml version="1.0" encoding="utf-8"?>
<!-- Generator: Adobe Illustrator 19.0.0, SVG Export Plug-In . SVG Version: 6.00 Build 0)  -->
<svg version="1.1" xmlns="http://www.w3.org/2000/svg" xmlns:xlink="http://www.w3.org/1999/xlink" x="0px" y="0px"
	 viewBox="0 0 207 457" style="enable-background:new 0 0 207 457;" xml:space="preserve">
<style type="text/css">
	.st0{fill:#455A64;}
	.st1{fill:#90A4AE;}
	.st2{fill:#FB8C00;}
	.st3{fill:#FFA726;}
	.st4{opacity:0.1;fill:#212121;}
	.st5{fill:#78909C;}
	.st6{fill:#FF6D00;}
	.st7{fill:#FF9800;}
	.st8{fill:#FAFAFA;}
	.st9{fill:#FF5722;}
	.st10{fill:#EEEEEE;}
	.st11{fill:#BDBDBD;}
	.st12{fill:#757575;}
	.st13{fill:#FFFFFF;}
	.st14{fill:#BF360C;}
	.st15{fill:#FFC400;}
	.st16{fill:#F4511E;}
	.st17{fill:#D84315;}
	.st18{fill:#FFAB00;}
	.st19{fill:#FFF3E0;}
</style>
<g id="Layer_1">
</g>
<g id="Layer_2">
	<g id="XMLID_389_">
		<path id="XMLID_461_" class="st0" d="M81.7,45.9V20.2c0-3.1,2.6-5.7,5.7-5.7h0c3.1,0,5.7,2.6,5.7,5.7v25.7c0,3.1-2.6,5.7-5.7,5.7
			h0C84.3,51.6,81.7,49.1,81.7,45.9z"/>
		<g id="XMLID_457_">
			<circle id="XMLID_460_" class="st1" cx="41.5" cy="191.5" r="11.4"/>
			<circle id="XMLID_459_" class="st1" cx="77.6" cy="147.3" r="11.4"/>
			
				<rect id="XMLID_458_" x="31.1" y="157.9" transform="matrix(0.6327 -0.7744 0.7744 0.6327 -109.2381 108.3418)" class="st1" width="57.1" height="22.8"/>
		</g>
		<rect id="XMLID_456_" x="98.8" y="103" class="st2" width="24.1" height="34.2"/>
		<path id="XMLID_455_" class="st3" d="M110.2,108.7L110.2,108.7c-15.7,0-28.5-12.8-28.5-28.5V45.9c0-15.7,12.8-28.5,28.5-28.5h0
			c15.7,0,28.5,12.8,28.5,28.5v34.2C138.8,95.8,125.9,108.7,110.2,108.7z"/>
		<path id="XMLID_454_" class="st4" d="M110.2,108.7L110.2,108.7l0-91.3h0c15.7,0,28.5,12.8,28.5,28.5v34.2
			C138.8,95.8,125.9,108.7,110.2,108.7z"/>
		<path id="XMLID_453_" class="st5" d="M121.6,268.4H98.8c-18.8,0-34.2-15.4-34.2-34.2v-79.9c0-18.8,15.4-34.2,34.2-34.2h22.8
			c18.8,0,34.2,15.4,34.2,34.2v79.9C155.9,253,140.5,268.4,121.6,268.4z"/>
		<path id="XMLID_452_" class="st1" d="M98.8,120.1h11.4v148.4H98.8c-18.8,0-34.2-15.4-34.2-34.2v-79.9
			C64.6,135.5,80,120.1,98.8,120.1z"/>
		<path id="XMLID_451_" class="st1" d="M121.6,234.2H64.6v-79.9c0-18.8,15.4-34.2,34.2-34.2h22.8V234.2z"/>
		<rect id="XMLID_450_" x="81.7" y="257" class="st1" width="22.8" height="199.7"/>
		<rect id="XMLID_449_" x="115.9" y="257" class="st5" width="22.8" height="199.7"/>
		<g id="XMLID_444_">
			<path id="XMLID_448_" class="st6" d="M148.2,450.3h12.9c0-7.1-5.8-12.9-12.9-12.9C148.2,437.4,148.2,443.1,148.2,450.3z"/>
			<rect id="XMLID_447_" x="135.3" y="437.4" class="st6" width="12.9" height="12.9"/>
			<rect id="XMLID_446_" x="115.9" y="437.4" class="st6" width="19.4" height="12.9"/>
			<rect id="XMLID_445_" x="115.9" y="450.3" class="st6" width="45.2" height="6.5"/>
		</g>
		<g id="XMLID_439_">
			<path id="XMLID_443_" class="st7" d="M72.3,450.3H59.3c0-7.1,5.8-12.9,12.9-12.9C72.3,437.4,72.3,443.1,72.3,450.3z"/>
			<rect id="XMLID_442_" x="72.3" y="437.4" class="st7" width="12.9" height="12.9"/>
			<rect id="XMLID_441_" x="85.2" y="437.4" class="st7" width="19.4" height="12.9"/>
			<rect id="XMLID_440_" x="59.3" y="450.3" class="st7" width="45.2" height="6.5"/>
		</g>
		<rect id="XMLID_438_" x="96.9" y="120.1" class="st8" width="26.7" height="114.1"/>
		<rect id="XMLID_437_" x="104.5" y="120.1" class="st9" width="11.4" height="94.1"/>
		<g id="XMLID_434_">
			<circle id="XMLID_436_" class="st5" cx="138.8" cy="143" r="11.4"/>
			
				<rect id="XMLID_435_" x="131.1" y="153.8" transform="matrix(0.7914 0.6113 -0.6113 0.7914 135.9798 -68.0267)" class="st5" width="73.1" height="22.8"/>
		</g>
		<g id="XMLID_431_">
			<circle id="XMLID_433_" class="st1" cx="195.8" cy="188.7" r="11.4"/>
			<rect id="XMLID_432_" x="184.4" y="108.7" class="st1" width="22.8" height="79.9"/>
		</g>
		<path id="XMLID_430_" class="st10" d="M195.8,103h-17.1c-3.2,0-5.7-2.6-5.7-5.7V51.6c0-3.2,2.6-5.7,5.7-5.7h17.1
			c3.2,0,5.7,2.6,5.7,5.7v45.6C201.5,100.4,199,103,195.8,103z"/>
		<path id="XMLID_429_" class="st11" d="M195.1,51.6h-15.5c-1.4,0-2.6-1.2-2.6-2.6v0c0-1.4,1.2-2.6,2.6-2.6h15.5
			c1.4,0,2.6,1.2,2.6,2.6v0C197.7,50.5,196.6,51.6,195.1,51.6z"/>
		<circle id="XMLID_428_" class="st12" cx="187.4" cy="49.1" r="1.5"/>
		<g id="XMLID_414_">
			<g id="XMLID_424_">
				<circle id="XMLID_427_" class="st13" cx="195.8" cy="103.1" r="11.4"/>
				<circle id="XMLID_426_" class="st13" cx="195.8" cy="114.5" r="11.4"/>
				<rect id="XMLID_425_" x="184.4" y="103" class="st13" width="22.8" height="11.4"/>
			</g>
			<g id="XMLID_420_">
				<circle id="XMLID_423_" class="st2" cx="195.8" cy="97.4" r="11.4"/>
				<circle id="XMLID_422_" class="st2" cx="195.8" cy="108.8" r="11.4"/>
				<rect id="XMLID_421_" x="184.4" y="97.3" class="st2" width="22.8" height="11.4"/>
			</g>
			<g id="XMLID_415_">
				<path id="XMLID_419_" class="st3" d="M202.5,84h-28.5c-2.6,0-4.8-2.1-4.8-4.8v0c0-2.6,2.1-4.8,4.8-4.8h28.5
					c2.6,0,4.8,2.1,4.8,4.8v0C207.2,81.8,205.1,84,202.5,84z"/>
				<path id="XMLID_418_" class="st3" d="M197.7,98.2v-19c0-2.6,2.1-4.8,4.8-4.8l0,0c2.6,0,4.8,2.1,4.8,4.8v19
					c0,2.6-2.1,4.8-4.8,4.8l0,0C199.9,103,197.7,100.8,197.7,98.2z"/>
				<path id="XMLID_417_" class="st3" d="M202.5,93.5h-28.5c-2.6,0-4.8-2.1-4.8-4.8v0c0-2.6,2.1-4.8,4.8-4.8h28.5
					c2.6,0,4.8,2.1,4.8,4.8v0C207.2,91.3,205.1,93.5,202.5,93.5z"/>
				<path id="XMLID_416_" class="st3" d="M202.5,103h-19c-2.6,0-4.8-2.1-4.8-4.8v0c0-2.6,2.1-4.8,4.8-4.8h19c2.6,0,4.8,2.1,4.8,4.8
					v0C207.2,100.8,205.1,103,202.5,103z"/>
			</g>
		</g>
		<rect id="XMLID_413_" x="64.6" y="234.2" class="st14" width="91.3" height="5.7"/>
		<rect id="XMLID_412_" x="70.3" y="194.3" class="st1" width="22.8" height="39.9"/>
		<path id="XMLID_411_" class="st1" d="M141.6,228.5L141.6,228.5c-1.6,0-2.9-1.3-2.9-2.9v-28.5c0-1.6,1.3-2.9,2.9-2.9h0
			c1.6,0,2.9,1.3,2.9,2.9v28.5C144.5,227.2,143.2,228.5,141.6,228.5z"/>
		<path id="XMLID_410_" class="st5" d="M78.9,228.5L78.9,228.5c-1.6,0-2.9-1.3-2.9-2.9v-28.5c0-1.6,1.3-2.9,2.9-2.9h0
			c1.6,0,2.9,1.3,2.9,2.9v28.5C81.7,227.2,80.4,228.5,78.9,228.5z"/>
		<rect id="XMLID_409_" x="104.5" y="234.2" class="st15" width="11.4" height="5.7"/>
		<g id="XMLID_406_">
			<circle id="XMLID_408_" class="st1" cx="41.8" cy="268.5" r="11.4"/>
			<rect id="XMLID_407_" x="30.4" y="188.6" class="st1" width="22.8" height="79.9"/>
		</g>
		<g id="XMLID_400_">
			<path id="XMLID_405_" class="st16" d="M76.8,356.7H6.2c-3.6,0-6.5-2.9-6.5-6.5v-49.7c0-3.6,2.9-6.5,6.5-6.5h70.6
				c3.6,0,6.5,2.9,6.5,6.5v49.7C83.3,353.8,80.4,356.7,76.8,356.7z"/>
			<path id="XMLID_404_" class="st17" d="M83.3,325.3H-0.2v-24.9c0-3.6,2.9-6.5,6.5-6.5h70.6c3.6,0,6.5,2.9,6.5,6.5V325.3z"/>
			<path id="XMLID_2_" class="st18" d="M50.7,278.4H32.3c-3.6,0-6.5,2.9-6.5,6.5v9.2h5.2v-6.1c0-2.4,1.9-4.3,4.3-4.3h12.3
				c2.4,0,4.3,1.9,4.3,4.3v6.1h5.2v-9.2C57.2,281.2,54.3,278.4,50.7,278.4z"/>
			<path id="XMLID_401_" class="st15" d="M42.9,333h-2.7c-3.5,0-6.3-2.8-6.3-6.3V324c0-3.5,2.8-6.3,6.3-6.3h2.7
				c3.5,0,6.3,2.8,6.3,6.3v2.7C49.2,330.2,46.4,333,42.9,333z"/>
		</g>
		<circle id="XMLID_399_" class="st2" cx="41.8" cy="280" r="11.4"/>
		<circle id="XMLID_398_" class="st19" cx="41.8" cy="262.8" r="11.4"/>
		<rect id="XMLID_397_" x="30.4" y="263.1" class="st19" width="22.8" height="11.1"/>
		<circle id="XMLID_396_" class="st2" cx="41.8" cy="268.5" r="11.4"/>
		<rect id="XMLID_395_" x="30.4" y="268.8" class="st2" width="22.8" height="11.1"/>
		<path id="XMLID_394_" class="st13" d="M93.9,88.5v-6h13.7c0,0-0.3,6-7.3,6C93.5,88.5,93.9,88.5,93.9,88.5z"/>
		<path id="XMLID_393_" class="st0" d="M133.1,28.8H87.4c-3.1,0-5.7-2.6-5.7-5.7v-1.7c0-3.1,2.6-5.7,5.7-5.7h45.6
			c3.1,0,5.7,2.6,5.7,5.7v1.7C138.8,26.2,136.2,28.8,133.1,28.8z"/>
		<path id="XMLID_392_" class="st0" d="M127.3,51.6V23.1c0-3.1,2.6-5.7,5.7-5.7h0c3.1,0,5.7,2.6,5.7,5.7v28.5c0,3.1-2.6,5.7-5.7,5.7
			h0C129.9,57.3,127.3,54.8,127.3,51.6z"/>
		<path id="XMLID_391_" class="st0" d="M99.9,28.9c-6,0-14.3-6.4-14.3-14.3S93.9,0.4,99.9,0.4V28.9z"/>
		
			<rect id="XMLID_390_" x="106.2" y="210.2" transform="matrix(0.7071 0.7071 -0.7071 0.7071 183.7736 -15.1979)" class="st9" width="8.1" height="8.1"/>
	</g>
</g>
</svg>
