<?xml version="1.0" encoding="utf-8"?>
<!-- Generator: Adobe Illustrator 19.0.0, SVG Export Plug-In . SVG Version: 6.00 Build 0)  -->
<svg version="1.1" id="Layer_1" xmlns="http://www.w3.org/2000/svg" xmlns:xlink="http://www.w3.org/1999/xlink" x="0px" y="0px"
	 viewBox="-49 22 207 457" style="enable-background:new -49 22 207 457;" xml:space="preserve">
<style type="text/css">
	.st0{fill:#455A64;}
	.st1{fill:#607D8B;}
	.st2{fill:#90A4AE;}
	.st3{fill:#FB8C00;}
	.st4{fill:#FFA726;}
	.st5{opacity:0.1;fill:#212121;enable-background:new    ;}
	.st6{fill:#FF6D00;}
	.st7{fill:#FF9800;}
	.st8{fill:#FAFAFA;}
	.st9{fill:#FF5722;}
	.st10{fill:#757575;}
	.st11{fill:#BDBDBD;}
	.st12{fill:#FFFFFF;}
	.st13{fill:#BF360C;}
	.st14{fill:#78909C;}
	.st15{fill:#FFC400;}
	.st16{fill:#F4511E;}
	.st17{fill:#D84315;}
	.st18{fill:#FFAB00;}
	.st19{fill:#FFF3E0;}
</style>
<g id="Layer_1_1_">
</g>
<g id="Layer_2">
	<g id="XMLID_1_">
		<path id="XMLID_64_" class="st0" d="M32.8,69.4V43.8c0-3.1,2.6-5.7,5.7-5.7l0,0c3.1,0,5.7,2.6,5.7,5.7v25.6c0,3.1-2.6,5.7-5.7,5.7
			l0,0C35.4,75.1,32.8,72.6,32.8,69.4z"/>
		<g id="XMLID_60_">
			<circle id="XMLID_63_" class="st1" cx="-7.3" cy="214.6" r="11.4"/>
			<circle id="XMLID_62_" class="st2" cx="28.7" cy="170.5" r="11.4"/>
			
				<rect id="XMLID_61_" x="-17.8" y="181.1" transform="matrix(-0.6327 0.7744 -0.7744 -0.6327 166.4802 305.8876)" class="st1" width="56.9" height="22.7"/>
		</g>
		<rect id="XMLID_59_" x="49.8" y="126.3" class="st3" width="24" height="34.1"/>
		<path id="XMLID_58_" class="st4" d="M61.2,132L61.2,132c-15.7,0-28.4-12.8-28.4-28.4V69.4C32.8,53.7,45.5,41,61.2,41l0,0
			c15.7,0,28.4,12.8,28.4,28.4v34.1C89.7,119.1,76.8,132,61.2,132z"/>
		<path id="XMLID_57_" class="st5" d="M61.2,132L61.2,132V41l0,0c15.7,0,28.4,12.8,28.4,28.4v34.1C89.7,119.1,76.8,132,61.2,132z"/>
		<path id="XMLID_56_" class="st0" d="M72.5,291.2H49.8c-18.7,0-34.1-15.4-34.1-34.1v-79.7c0-18.7,15.4-34.1,34.1-34.1h22.7
			c18.7,0,34.1,15.4,34.1,34.1v79.7C106.7,275.9,91.4,291.2,72.5,291.2z"/>
		<path id="XMLID_55_" class="st1" d="M49.8,143.4h11.4v148H49.8c-18.7,0-34.1-15.4-34.1-34.1v-79.7
			C15.7,158.7,31.1,143.4,49.8,143.4z"/>
		<path id="XMLID_54_" class="st1" d="M72.5,257.1H15.7v-79.7c0-18.7,15.4-34.1,34.1-34.1h22.7V257.1z"/>
		<rect id="XMLID_53_" x="32.8" y="279.9" class="st1" width="22.7" height="199.1"/>
		<rect id="XMLID_52_" x="66.9" y="279.9" class="st0" width="22.7" height="199.1"/>
		<g>
			<rect x="66.9" y="457.4" class="st6" width="23.9" height="15.3"/>
			<path id="XMLID_51_" class="st6" d="M99.1,472.6h12.9c0-7.1-5.8-12.9-12.9-12.9C99.1,459.8,99.1,465.4,99.1,472.6z"/>
			<rect x="66.9" y="459.9" class="st6" width="33.6" height="12.8"/>
			<rect x="66.9" y="472.1" class="st6" width="45.1" height="6.9"/>
		</g>
		<g>
			<rect x="31.6" y="457.4" class="st7" width="23.9" height="15.3"/>
			<path id="XMLID_50_" class="st7" d="M23.3,459.8c-7.1,0-12.9,5.8-12.9,12.9h12.9C23.3,465.4,23.3,459.8,23.3,459.8z"/>
			<rect x="21.9" y="459.9" class="st7" width="33.6" height="12.8"/>
			<rect x="10.4" y="472.1" class="st7" width="45.1" height="6.9"/>
		</g>
		<rect id="XMLID_49_" x="47.9" y="143.4" class="st8" width="26.6" height="113.8"/>
		<rect id="XMLID_48_" x="55.5" y="143.4" class="st9" width="11.4" height="93.8"/>
		<path id="XMLID_558_" class="st10" d="M147.5,127.2h-17.8c-3.3,0-6-2.7-6-6V73.6c0-3.3,2.7-6,6-6h17.8c3.3,0,6,2.7,6,6v47.7
			C153.5,124.5,150.9,127.2,147.5,127.2z"/>
		<g id="XMLID_45_">
			<circle id="XMLID_47_" class="st0" cx="89.7" cy="166.2" r="11.4"/>
			
				<rect id="XMLID_46_" x="82" y="177" transform="matrix(-0.7914 -0.6113 0.6113 -0.7914 97.1209 409.7815)" class="st0" width="72.9" height="22.7"/>
		</g>
		<g id="XMLID_42_">
			<circle id="XMLID_44_" class="st1" cx="146.5" cy="211.8" r="11.4"/>
			<rect id="XMLID_43_" x="135.2" y="132" class="st1" width="22.7" height="79.7"/>
		</g>
		<path id="XMLID_41_" class="st11" d="M146.8,77.1h-15.5c-1.4,0-2.6-1.2-2.6-2.6l0,0c0-1.4,1.2-2.6,2.6-2.6h15.5
			c1.4,0,2.6,1.2,2.6,2.6l0,0C149.4,76,148.3,77.1,146.8,77.1z"/>
		<circle id="XMLID_40_" class="st10" cx="139.2" cy="74.6" r="1.5"/>
		<g id="XMLID_26_">
			<g id="XMLID_36_">
				<circle id="XMLID_39_" class="st12" cx="146.5" cy="126.4" r="11.4"/>
				<circle id="XMLID_38_" class="st12" cx="146.5" cy="137.8" r="11.4"/>
				<rect id="XMLID_37_" x="135.2" y="126.3" class="st12" width="22.7" height="11.4"/>
			</g>
			<g id="XMLID_32_">
				<circle id="XMLID_35_" class="st3" cx="146.5" cy="120.7" r="11.4"/>
				<circle id="XMLID_34_" class="st3" cx="146.5" cy="132.1" r="11.4"/>
				<rect id="XMLID_33_" x="135.2" y="120.6" class="st3" width="22.7" height="11.4"/>
			</g>
			<g id="XMLID_27_">
				<path id="XMLID_31_" class="st4" d="M153.2,107.4h-28.4c-2.6,0-4.8-2.1-4.8-4.8l0,0c0-2.6,2.1-4.8,4.8-4.8h28.4
					c2.6,0,4.8,2.1,4.8,4.8l0,0C157.9,105.2,155.8,107.4,153.2,107.4z"/>
				<path id="XMLID_30_" class="st4" d="M148.4,121.5v-18.9c0-2.6,2.1-4.8,4.8-4.8l0,0c2.6,0,4.8,2.1,4.8,4.8v18.9
					c0,2.6-2.1,4.8-4.8,4.8l0,0C150.6,126.3,148.4,124.1,148.4,121.5z"/>
				<path id="XMLID_29_" class="st4" d="M153.2,116.8h-28.4c-2.6,0-4.8-2.1-4.8-4.8l0,0c0-2.6,2.1-4.8,4.8-4.8h28.4
					c2.6,0,4.8,2.1,4.8,4.8l0,0C157.9,114.7,155.8,116.8,153.2,116.8z"/>
				<path id="XMLID_28_" class="st4" d="M153.2,126.3h-18.9c-2.6,0-4.8-2.1-4.8-4.8l0,0c0-2.6,2.1-4.8,4.8-4.8h18.9
					c2.6,0,4.8,2.1,4.8,4.8l0,0C157.9,124.1,155.8,126.3,153.2,126.3z"/>
			</g>
		</g>
		<rect id="XMLID_25_" x="15.7" y="257.1" class="st13" width="91" height="5.7"/>
		<rect id="XMLID_24_" x="21.4" y="217.4" class="st1" width="22.7" height="39.8"/>
		<path id="XMLID_23_" class="st2" d="M92.5,251.5L92.5,251.5c-1.6,0-2.9-1.3-2.9-2.9v-28.4c0-1.6,1.3-2.9,2.9-2.9l0,0
			c1.6,0,2.9,1.3,2.9,2.9v28.4C95.4,250.2,94.1,251.5,92.5,251.5z"/>
		<path id="XMLID_22_" class="st14" d="M30,251.5L30,251.5c-1.6,0-2.9-1.3-2.9-2.9v-28.4c0-1.6,1.3-2.9,2.9-2.9l0,0
			c1.6,0,2.9,1.3,2.9,2.9v28.4C32.8,250.2,31.5,251.5,30,251.5z"/>
		<rect id="XMLID_21_" x="55.5" y="257.1" class="st15" width="11.4" height="5.7"/>
		<g id="XMLID_18_">
			<circle id="XMLID_20_" class="st2" cx="-7" cy="291.3" r="11.4"/>
			<rect id="XMLID_19_" x="-18.4" y="211.7" class="st1" width="22.7" height="79.7"/>
		</g>
		<g id="XMLID_13_">
			<path id="XMLID_17_" class="st16" d="M27.9,379.3h-70.4c-3.6,0-6.5-2.9-6.5-6.5v-49.6c0-3.6,2.9-6.5,6.5-6.5h70.4
				c3.6,0,6.5,2.9,6.5,6.5v49.6C34.4,376.4,31.5,379.3,27.9,379.3z"/>
			<path id="XMLID_16_" class="st17" d="M34.4,348h-83.3v-24.8c0-3.6,2.9-6.5,6.5-6.5H28c3.6,0,6.5,2.9,6.5,6.5L34.4,348L34.4,348z"
				/>
			<path id="XMLID_15_" class="st18" d="M1.9,301.2h-18.3c-3.6,0-6.5,2.9-6.5,6.5v9.2h5.2v-6.1c0-2.4,1.9-4.3,4.3-4.3h12.3
				c2.4,0,4.3,1.9,4.3,4.3v6.1h5.2v-9.2C8.3,304,5.4,301.2,1.9,301.2z"/>
			<path id="XMLID_14_" class="st15" d="M-5.9,355.7h-2.7c-3.5,0-6.3-2.8-6.3-6.3v-2.7c0-3.5,2.8-6.3,6.3-6.3h2.7
				c3.5,0,6.3,2.8,6.3,6.3v2.7C0.4,352.9-2.4,355.7-5.9,355.7z"/>
		</g>
		<circle id="XMLID_12_" class="st3" cx="-7" cy="302.8" r="11.4"/>
		<circle id="XMLID_11_" class="st19" cx="-7" cy="285.7" r="11.4"/>
		<rect id="XMLID_10_" x="-18.4" y="286" class="st19" width="22.7" height="11.1"/>
		<circle id="XMLID_9_" class="st3" cx="-7" cy="291.3" r="11.4"/>
		<rect id="XMLID_8_" x="-18.4" y="291.6" class="st3" width="22.7" height="11.1"/>
		<path id="XMLID_7_" class="st12" d="M44.9,111.9v-6h13.7c0,0-0.3,6-7.3,6C44.5,111.9,44.9,111.9,44.9,111.9z"/>
		<path id="XMLID_6_" class="st0" d="M84,52.3H38.4c-3.1,0-5.7-2.6-5.7-5.7V45c0-3.1,2.6-5.7,5.7-5.7h45.5c3.1,0,5.7,2.6,5.7,5.7
			v1.7C89.7,49.7,87.1,52.3,84,52.3z"/>
		<path id="XMLID_5_" class="st0" d="M78.2,75.1V46.7c0-3.1,2.6-5.7,5.7-5.7l0,0c3.1,0,5.7,2.6,5.7,5.7v28.4c0,3.1-2.6,5.7-5.7,5.7
			l0,0C80.8,80.8,78.2,78.3,78.2,75.1z"/>
		<path id="XMLID_4_" class="st0" d="M50.9,52.4c-6,0-14.3-6.4-14.3-14.3c0-7.9,8.3-14.2,14.3-14.2V52.4z"/>
		
			<rect id="XMLID_3_" x="57.2" y="233.2" transform="matrix(-0.7071 -0.7071 0.7071 -0.7071 -63.2624 448.3358)" class="st9" width="8.1" height="8.1"/>
	</g>
</g>
</svg>
