<?xml version="1.0" encoding="utf-8"?>
<!-- Generator: Adobe Illustrator 19.0.0, SVG Export Plug-In . SVG Version: 6.00 Build 0)  -->
<svg version="1.1" xmlns="http://www.w3.org/2000/svg" xmlns:xlink="http://www.w3.org/1999/xlink" x="0px" y="0px"
	 viewBox="0 0 167 442" style="enable-background:new 0 0 167 442;" xml:space="preserve">
<style type="text/css">
	.st0{fill:#37474F;}
	.st1{fill:#FFAB00;}
	.st2{fill:#FFCA28;}
	.st3{fill:#FAFAFA;}
	.st4{fill:#82B1FF;}
	.st5{fill:#455A64;}
	.st6{fill:#607D8B;}
	.st7{fill:#FF6E40;}
	.st8{fill:#F4511E;}
	.st9{opacity:0.1;}
	.st10{clip-path:url(#XMLID_2_);}
	.st11{fill:#263238;}
	.st12{fill:#F5F5F5;}
	.st13{fill:#CFD8DC;}
</style>
<g id="Sky">
</g>
<g id="Mountains">
</g>
<g id="Background_Buildings">
</g>
<g id="White_Screen">
</g>
<g id="Buildings">
	<g id="XMLID_1000_">
		<path id="XMLID_1137_" class="st0" d="M53.3,91.4h49.8c10.2,0,18.6-8.4,18.6-18.6V32.1H53.3V91.4z"/>
		<g id="XMLID_1007_">
			<g id="XMLID_1134_">
				
					<rect id="XMLID_1136_" x="14.7" y="113.7" transform="matrix(0.7651 0.6439 -0.6439 0.7651 94.2691 17.4417)" class="st1" width="17.1" height="48.4"/>
				<circle id="XMLID_1135_" class="st1" cx="38.8" cy="119.4" r="8.6"/>
			</g>
			<g id="XMLID_1129_">
				
					<rect id="XMLID_1133_" x="101.9" y="254.9" transform="matrix(-1 -4.164998e-003 4.164998e-003 -1 215.4485 686.5264)" class="st2" width="13.1" height="176.2"/>
				<path id="XMLID_1132_" class="st3" d="M128.8,435.6l10.9,0c0-6-4.8-10.9-10.9-11C128.9,424.7,128.9,429.6,128.8,435.6z"/>
				
					<rect id="XMLID_1131_" x="101.6" y="424.6" transform="matrix(-1 -4.164998e-003 4.164998e-003 -1 229.226 860.6977)" class="st3" width="27.9" height="10.9"/>
				
					<rect id="XMLID_1130_" x="101.5" y="435.6" transform="matrix(-1 -4.164998e-003 4.164998e-003 -1 239.4428 877.1493)" class="st4" width="38.2" height="5.5"/>
			</g>
			<g id="XMLID_1124_">
				
					<rect id="XMLID_1128_" x="59.5" y="254.8" transform="matrix(1 4.164998e-003 -4.164998e-003 1 1.4286 -0.272)" class="st1" width="13.1" height="176.2"/>
				<path id="XMLID_1127_" class="st3" d="M44.9,435.3l-10.9,0c0-6,4.9-10.9,11-10.9C44.9,424.4,44.9,429.2,44.9,435.3z"/>
				
					<rect id="XMLID_1126_" x="44.3" y="424.4" transform="matrix(1 4.164998e-003 -4.164998e-003 1 1.7909 -0.2388)" class="st3" width="27.9" height="10.9"/>
				
					<rect id="XMLID_1125_" x="33.9" y="435.3" transform="matrix(1 4.164998e-003 -4.164998e-003 1 1.8249 -0.2171)" class="st4" width="38.2" height="5.5"/>
			</g>
			<path id="XMLID_1123_" class="st5" d="M105.9,400.5l3,0c3.4,0,6.2-2.9,6.2-6.6l13.1-166.4c0-11.8-8.9-21.5-20-21.5h0
				c-11,0-20.1,9.6-20.2,21.4l11.7,166.5C99.7,397.5,102.5,400.5,105.9,400.5z"/>
			<path id="XMLID_1122_" class="st6" d="M97.4,190.7l-19.6-0.1c-17-0.1-31,13.8-31.1,30.8v0c-0.1,20.4,16.6,37.2,37,37.3l7.2,0
				c20.4,0.1,37.2-16.6,37.3-37v0C128.3,204.7,114.4,190.7,97.4,190.7z"/>
			<path id="XMLID_1121_" class="st6" d="M64.5,400.3l3,0c3.4,0,6.2-2.9,6.2-6.6l13.1-166.4c0-11.8-8.9-21.5-20-21.5h0
				c-11,0-20.1,9.6-20.2,21.4l11.7,166.5C58.3,397.3,61.1,400.3,64.5,400.3z"/>
			<path id="XMLID_1120_" class="st5" d="M97.4,190.7l-10.7,0l-0.3,68.1l4.5,0c20.4,0.1,37.2-16.6,37.3-37v0
				C128.3,204.7,114.4,190.7,97.4,190.7z"/>
			<g id="XMLID_1039_">
				
					<rect id="XMLID_1119_" x="125.3" y="124.4" transform="matrix(-1 -4.164998e-003 4.164998e-003 -1 266.9005 382.205)" class="st1" width="17.1" height="132.9"/>
				<path id="XMLID_1040_" class="st1" d="M133.6,284.2l1,0c6.8,0,12.4-5.5,12.4-12.3l0.1-18.2c0-6.8-5.5-12.4-12.3-12.4l-1,0
					c-6.8,0-12.4,5.5-12.4,12.3l-0.1,18.2C121.2,278.6,126.8,284.2,133.6,284.2z"/>
			</g>
			<g id="XMLID_1019_">
				<path id="XMLID_1038_" class="st7" d="M48.8,141.2l93.9,0.4l0.1-24.3c0-10.2-8.3-18.6-18.5-18.7l-74.3-0.3
					c-10.2,0-18.6,8.3-18.7,18.5L48.8,141.2z"/>
				<path id="XMLID_1037_" class="st8" d="M86.9,141.3l55.7,0.2l0.1-24.3c0-10.2-8.3-18.6-18.5-18.7l-37.1-0.2L86.9,141.3z"/>
				<path id="XMLID_1036_" class="st7" d="M69.7,158.4l34.3,0.1c11.8,0,21.5-9.6,21.5-21.3l0,0c0-11.8-9.6-21.5-21.3-21.5l-34.3-0.1
					c-11.8,0-21.5,9.6-21.5,21.3l0,0C48.3,148.7,57.9,158.4,69.7,158.4z"/>
				<path id="XMLID_1035_" class="st8" d="M87.7,158.5l16.3,0.1c11.8,0,21.5-9.6,21.5-21.3l0,0c0-11.8-9.6-21.5-21.3-21.5l-16.3-0.1
					L87.7,158.5z"/>
				<polygon id="XMLID_1034_" class="st7" points="65.8,196.5 109.2,196.7 116.9,146.7 56.9,146.4 				"/>
				<polygon id="XMLID_1033_" class="st8" points="87.5,196.6 109.2,196.7 116.9,146.7 87.7,146.6 				"/>
				<g id="XMLID_1028_">
					
						<rect id="XMLID_1032_" x="74.3" y="59.9" transform="matrix(-1 -4.164998e-003 4.164998e-003 -1 173.9386 167.2954)" class="st1" width="25.7" height="47.2"/>
					<polygon id="XMLID_1031_" class="st1" points="87,124.2 108.5,98.6 65.6,98.4 					"/>
					<g id="XMLID_1029_" class="st9">
						
							<rect id="XMLID_1030_" x="74.3" y="59.9" transform="matrix(-1 -4.164998e-003 4.164998e-003 -1 173.9921 158.7226)" width="25.7" height="38.6"/>
					</g>
				</g>
				<path id="XMLID_1027_" class="st2" d="M87.2,81.3L87.2,81.3c18.9,0.1,34.4-15.3,34.4-34.1l0.1-12.9C121.7,15.5,106.4,0,87.5-0.1
					l0,0C68.6-0.2,53.1,15.2,53.1,34L53,46.9C52.9,65.7,68.3,81.2,87.2,81.3z"/>
				<path id="XMLID_1026_" class="st1" d="M87.2,81.3L87.2,81.3c18.9,0.1,34.4-15.3,34.4-34.1l0.1-12.9C121.7,15.5,106.4,0,87.5-0.1
					l0,0L87.2,81.3z"/>
				<g id="XMLID_1021_">
					<defs>
						<path id="XMLID_1022_" d="M87.2,81.3L87.2,81.3c18.9,0.1,34.4-15.3,34.4-34.1l0.1-12.9C121.7,15.5,106.4,0,87.5-0.1l0,0
							C68.6-0.2,53.1,15.2,53.1,34L53,46.9C52.9,65.7,68.3,81.2,87.2,81.3z"/>
					</defs>
					<clipPath id="XMLID_2_">
						<use xlink:href="#XMLID_1022_"  style="overflow:visible;"/>
					</clipPath>
					<g id="XMLID_1023_" class="st10">
						<circle id="XMLID_1025_" class="st11" cx="111" cy="6.4" r="27.9"/>
						<circle id="XMLID_1024_" class="st11" cx="63.9" cy="6.2" r="27.9"/>
					</g>
				</g>
				<path id="XMLID_1020_" class="st12" d="M79.3,64.9c0,5.1,4,9.1,9,9.1s9.1-3.9,9.1-9"/>
			</g>
			<g id="XMLID_1013_">
				<path id="XMLID_1018_" class="st11" d="M123.2,271.9l0.1-17.8c0-1.1,0.9-2,2-2l40.1,0.2c1.1,0,2,0.9,2,2l-0.1,17.8
					c0,1.1-0.9,2-2,2l-40.1-0.2C124,273.9,123.2,273,123.2,271.9z"/>
				
					<rect id="XMLID_1017_" x="136.3" y="248" transform="matrix(-4.164998e-003 1 -1 -4.164998e-003 408.8356 118.8198)" class="st13" width="17.9" height="29.9"/>
				<g id="XMLID_1014_">
					<circle id="XMLID_1016_" class="st6" cx="164.4" cy="260.4" r="0.4"/>
					<path id="XMLID_1015_" class="st6" d="M164,266.1l0-4.4c0-0.1,0.1-0.2,0.2-0.2l0.4,0c0.1,0,0.2,0.1,0.2,0.2l0,4.4
						c0,0.1-0.1,0.2-0.2,0.2l-0.4,0C164.1,266.2,164,266.2,164,266.1z"/>
				</g>
			</g>
			<path id="XMLID_1012_" class="st5" d="M65.8,202.2l43.3,0.2c3.4,0,6.2-2.8,6.2-6.2l0-6.2c0-3.4-2.8-6.2-6.2-6.2l-43.3-0.2
				c-3.4,0-6.2,2.8-6.2,6.2l0,6.2C59.6,199.4,62.4,202.2,65.8,202.2z"/>
			
				<rect id="XMLID_1011_" x="123.2" y="247.9" transform="matrix(1 4.164998e-003 -4.164998e-003 1 1.0981 -0.5456)" class="st1" width="16.7" height="31"/>
			<path id="XMLID_1010_" class="st5" d="M59.8,400.3l12.4,0.1c1.7,0,3.1-1.4,3.1-3.1v0c0-1.7-1.4-3.1-3.1-3.1l-12.4-0.1
				c-1.7,0-3.1,1.4-3.1,3.1v0C56.7,398.9,58.1,400.3,59.8,400.3z"/>
			<path id="XMLID_1009_" class="st6" d="M101.6,400.5l12.4,0.1c1.7,0,3.1-1.4,3.1-3.1l0,0c0-1.7-1.4-3.1-3.1-3.1l-12.4-0.1
				c-1.7,0-3.1,1.4-3.1,3.1l0,0C98.5,399.1,99.9,400.5,101.6,400.5z"/>
			<path id="XMLID_1008_" class="st6" d="M86.6,202.3l22.6,0.1c3.4,0,6.2-2.8,6.2-6.2l0-6.2c0-3.4-2.8-6.2-6.2-6.2l-22.6-0.1
				L86.6,202.3z"/>
		</g>
		<g id="XMLID_1001_">
			<path id="XMLID_1006_" class="st2" d="M38.6,184.3l0.7-0.7c4.9-4.8,12.8-4.7,17.5,0.2l12.7,13c4.8,4.9,4.7,12.8-0.2,17.5
				l-0.7,0.7c-4.9,4.8-12.8,4.7-17.5-0.2l-12.7-13C33.6,196.9,33.7,189,38.6,184.3z"/>
			<g id="XMLID_1002_">
				
					<rect id="XMLID_1005_" x="18.8" y="145.3" transform="matrix(-0.716 0.6981 -0.6981 -0.716 166.6635 275.0395)" class="st2" width="17.1" height="52.2"/>
				<circle id="XMLID_1004_" class="st2" cx="9.2" cy="152.7" r="8.6"/>
				<circle id="XMLID_1003_" class="st2" cx="44.5" cy="189" r="8.6"/>
			</g>
		</g>
	</g>
</g>
</svg>
