<?xml version="1.0" encoding="utf-8"?>
<!-- Generator: Adobe Illustrator 19.0.0, SVG Export Plug-In . SVG Version: 6.00 Build 0)  -->
<svg version="1.1" id="Layer_1" xmlns="http://www.w3.org/2000/svg" xmlns:xlink="http://www.w3.org/1999/xlink" x="0px" y="0px"
	 viewBox="0 0 1920 418.5" style="enable-background:new 0 0 1920 418.5;" xml:space="preserve">
<style type="text/css">
	.st0{fill:#D1D1D1;}
	.st1{fill:#E9E9E9;}
</style>
<g id="XMLID_3_">
	<path id="XMLID_101_" class="st0" d="M1286.3,294.5h-65.2c-0.8,0-1.4,0.6-1.4,1.4v121.3c0,0.8,0.6,1.4,1.4,1.4h65.2
		c0.8,0,1.4-0.6,1.4-1.4V295.9C1287.6,295.1,1287,294.5,1286.3,294.5z"/>
	<path id="XMLID_100_" class="st1" d="M1887,383.8l-21.3,12c-0.2,0-0.3,0.2-0.3,0.3v21.9c0,0.2,0.2,0.3,0.3,0.3h21.3
		c0.2,0,0.3-0.2,0.3-0.3v-33.9C1887.4,384,1887.2,383.8,1887,383.8z"/>
	<path id="XMLID_99_" class="st1" d="M1865.1,383.8l-21.3,12c-0.2,0-0.3,0.2-0.3,0.3v21.9c0,0.2,0.2,0.3,0.3,0.3h21.3
		c0.2,0,0.3-0.2,0.3-0.3v-33.9C1865.4,384,1865.2,383.8,1865.1,383.8z"/>
	<path id="XMLID_98_" class="st1" d="M1919.7,383.8l-21.3,12c-0.2,0-0.3,0.2-0.3,0.3v21.9c0,0.2,0.2,0.3,0.3,0.3h21.3
		c0.2,0,0.3-0.2,0.3-0.3v-33.9C1920,384,1919.8,383.8,1919.7,383.8z"/>
	<path id="XMLID_97_" class="st0" d="M1489.9,268.1H1425c-0.8,0-1.5,0.7-1.5,1.5V417c0,0.8,0.7,1.5,1.5,1.5h64.9
		c0.8,0,1.5-0.7,1.5-1.5V269.6C1491.4,268.7,1490.7,268.1,1489.9,268.1z"/>
	<path id="XMLID_96_" class="st0" d="M1828.9,348.6H1763c-0.6,0-1,0.5-1,1v67.9c0,0.6,0.5,1,1,1h65.9c0.6,0,1-0.5,1-1v-67.9
		C1829.9,349,1829.5,348.6,1828.9,348.6z"/>
	<path id="XMLID_95_" class="st0" d="M1072.1,348.6h-65.9c-0.6,0-1,0.5-1,1v67.9c0,0.6,0.5,1,1,1h65.9c0.6,0,1-0.5,1-1v-67.9
		C1073.1,349,1072.6,348.6,1072.1,348.6z"/>
	<path id="XMLID_94_" class="st0" d="M914.4,348.6h-65.9c-0.6,0-1,0.5-1,1v67.9c0,0.6,0.5,1,1,1h65.9c0.6,0,1-0.5,1-1v-67.9
		C915.4,349,914.9,348.6,914.4,348.6z"/>
	<path id="XMLID_87_" class="st0" d="M813.9,348.6H748c-0.6,0-1,0.5-1,1v67.9c0,0.6,0.5,1,1,1h65.9c0.6,0,1-0.5,1-1v-67.9
		C814.9,349,814.5,348.6,813.9,348.6z"/>
	<path id="XMLID_86_" class="st0" d="M711.6,294.5h-73.5c-0.8,0-1.4,0.6-1.4,1.4v121.1c0,0.8,0.6,1.4,1.4,1.4h73.5
		c0.8,0,1.4-0.6,1.4-1.4V296C713.1,295.2,712.4,294.5,711.6,294.5z"/>
	<path id="XMLID_84_" class="st0" d="M246.8,294.5h-71.6c-0.8,0-1.4,0.6-1.4,1.4v121.1c0,0.8,0.6,1.4,1.4,1.4h71.6
		c0.8,0,1.4-0.6,1.4-1.4V296C248.2,295.2,247.6,294.5,246.8,294.5z"/>
	<path id="XMLID_83_" class="st0" d="M663.3,72.6h-70.2c-1.2,0-2.1,0.9-2.1,2.1v71.2c0,1.2,0.9,2.1,2.1,2.1h70.2
		c1.2,0,2.1-0.9,2.1-2.1V74.7C665.4,73.5,664.5,72.6,663.3,72.6z"/>
	<path id="XMLID_82_" class="st0" d="M1825.2,332.6h-56.4c-0.3,0-0.5,0.2-0.5,0.5v18.6c0,0.3,0.2,0.5,0.5,0.5h56.4
		c0.3,0,0.5-0.2,0.5-0.5v-18.6C1825.7,332.9,1825.5,332.6,1825.2,332.6z"/>
	<path id="XMLID_81_" class="st0" d="M1853.9,398.9h-56.4c-0.3,0-0.5,0.2-0.5,0.5V418c0,0.3,0.2,0.5,0.5,0.5h56.4
		c0.3,0,0.5-0.2,0.5-0.5v-18.6C1854.4,399.1,1854.2,398.9,1853.9,398.9z"/>
	<path id="XMLID_80_" class="st1" d="M1908.2,408.7H1880c-0.1,0-0.2,0.1-0.2,0.2v9.3c0,0.1,0.1,0.2,0.2,0.2h28.2
		c0.1,0,0.2-0.1,0.2-0.2v-9.3C1908.4,408.8,1908.3,408.7,1908.2,408.7z"/>
	<path id="XMLID_79_" class="st0" d="M1819.4,318.3h-44.8c-0.2,0-0.4,0.2-0.4,0.4v18.7c0,0.2,0.2,0.4,0.4,0.4h44.8
		c0.2,0,0.4-0.2,0.4-0.4v-18.7C1819.9,318.5,1819.7,318.3,1819.4,318.3z"/>
	<path id="XMLID_78_" class="st0" d="M1626,313.4h-65.4c-0.7,0-1.3,0.6-1.3,1.3v102.6c0,0.7,0.6,1.3,1.3,1.3h65.4
		c0.7,0,1.3-0.6,1.3-1.3V314.6C1627.2,313.9,1626.7,313.4,1626,313.4z"/>
	<path id="XMLID_77_" class="st0" d="M1619.9,283.9h-53.3c-0.3,0-0.6,0.3-0.6,0.6v30.2c0,0.3,0.3,0.6,0.6,0.6h53.3
		c0.3,0,0.6-0.3,0.6-0.6v-30.2C1620.6,284.2,1620.3,283.9,1619.9,283.9z"/>
	<path id="XMLID_76_" class="st0" d="M1596.7,257.7h-7c-0.1,0-0.2,0.1-0.2,0.2v30.9c0,0.1,0.1,0.2,0.2,0.2h7c0.1,0,0.2-0.1,0.2-0.2
		v-30.9C1597,257.8,1596.9,257.7,1596.7,257.7z"/>
	<path id="XMLID_75_" class="st0" d="M295.1,285.7h-82.6c-0.9,0-1.6,0.7-1.6,1.6v129.6c0,0.9,0.7,1.6,1.6,1.6h82.6
		c0.9,0,1.6-0.7,1.6-1.6V287.3C296.7,286.4,296,285.7,295.1,285.7z"/>
	<path id="XMLID_74_" class="st0" d="M287.5,248.6h-67.4c-0.4,0-0.8,0.3-0.8,0.8v38.1c0,0.4,0.3,0.8,0.8,0.8h67.4
		c0.4,0,0.8-0.3,0.8-0.8v-38.1C288.3,248.9,288,248.6,287.5,248.6z"/>
	<path id="XMLID_73_" class="st0" d="M258.2,215.4h-8.8c-0.2,0-0.3,0.1-0.3,0.3v39.1c0,0.2,0.1,0.3,0.3,0.3h8.8
		c0.2,0,0.3-0.1,0.3-0.3v-39.1C258.5,215.5,258.4,215.4,258.2,215.4z"/>
	<path id="XMLID_72_" class="st0" d="M1557.4,182.1h-64.2c-1,0-1.9,0.8-1.9,1.9v232.7c0,1,0.8,1.9,1.9,1.9h64.2c1,0,1.9-0.8,1.9-1.9
		V184C1559.3,182.9,1558.5,182.1,1557.4,182.1z"/>
	<path id="XMLID_71_" class="st0" d="M1693.1,141.9h-63.9c-1.1,0-2,0.9-2,2v272.5c0,1.1,0.9,2,2,2h63.9c1.1,0,2-0.9,2-2V144
		C1695.1,142.8,1694.2,141.9,1693.1,141.9z"/>
	<path id="XMLID_70_" class="st0" d="M1698.6,141.9h-74.9c-0.4,0-0.8,0.4-0.8,0.8v34.9c0,0.4,0.4,0.8,0.8,0.8h74.9
		c0.4,0,0.8-0.4,0.8-0.8v-34.9C1699.4,142.3,1699.1,141.9,1698.6,141.9z"/>
	<g id="XMLID_66_">
		<path id="XMLID_69_" class="st0" d="M1354.2,294.5H1289c-0.8,0-1.4,0.6-1.4,1.4v121.3c0,0.8,0.6,1.4,1.4,1.4h65.2
			c0.8,0,1.4-0.6,1.4-1.4V295.9C1355.5,295.1,1354.9,294.5,1354.2,294.5z"/>
		<path id="XMLID_68_" class="st0" d="M1344.8,273.4h-46.5c-0.3,0-0.5,0.2-0.5,0.5v20.2c0,0.3,0.2,0.5,0.5,0.5h46.5
			c0.3,0,0.5-0.2,0.5-0.5v-20.2C1345.3,273.6,1345.1,273.4,1344.8,273.4z"/>
		<path id="XMLID_67_" class="st0" d="M1339.2,262.8H1304c-0.2,0-0.3,0.1-0.3,0.3v10c0,0.2,0.1,0.3,0.3,0.3h35.2
			c0.2,0,0.3-0.1,0.3-0.3v-10C1339.5,262.9,1339.3,262.8,1339.2,262.8z"/>
	</g>
	<g id="XMLID_63_">
		<path id="XMLID_65_" class="st0" d="M1761.7,294.5h-65.2c-0.8,0-1.4,0.6-1.4,1.4v121.3c0,0.8,0.6,1.4,1.4,1.4h65.2
			c0.8,0,1.4-0.6,1.4-1.4V295.9C1763.1,295.1,1762.5,294.5,1761.7,294.5z"/>
		<path id="XMLID_64_" class="st0" d="M1751.9,274.8h-45.6c-0.4,0-0.7,0.2-0.7,0.5l-10.5,20.2c0,0.3,0.3,0.5,0.7,0.5h66.5
			c0.4,0,0.7-0.2,0.7-0.5l-10.5-20.2C1752.6,275,1752.3,274.8,1751.9,274.8z"/>
	</g>
	<g id="XMLID_59_">
		<path id="XMLID_62_" class="st0" d="M1421.7,208.2h-64.4c-1,0-1.8,0.8-1.8,1.8v206.7c0,1,0.8,1.8,1.8,1.8h64.4
			c1,0,1.8-0.8,1.8-1.8V210C1423.5,209,1422.7,208.2,1421.7,208.2z"/>
		<path id="XMLID_61_" class="st0" d="M1412.6,172.3h-46.2c-0.3,0-0.6,0.3-0.6,0.6v34.7c0,0.3,0.3,0.6,0.6,0.6h46.2
			c0.3,0,0.6-0.3,0.6-0.6v-34.7C1413.2,172.6,1413,172.3,1412.6,172.3z"/>
		<path id="XMLID_60_" class="st0" d="M1407,154.3h-35c-0.2,0-0.4,0.2-0.4,0.4v17.2c0,0.2,0.2,0.4,0.4,0.4h35c0.2,0,0.4-0.2,0.4-0.4
			v-17.2C1407.4,154.5,1407.2,154.3,1407,154.3z"/>
	</g>
	<g id="XMLID_57_">
		<path id="XMLID_58_" class="st1" d="M94.3,370.5H51.9c-0.4,0-0.7,0.3-0.7,0.7v46.6c0,0.4,0.3,0.7,0.7,0.7h42.4
			c0.4,0,0.7-0.3,0.7-0.7v-46.6C95,370.8,94.7,370.5,94.3,370.5z"/>
	</g>
	<g id="XMLID_55_">
		<path id="XMLID_56_" class="st1" d="M43.1,370.5H0.7c-0.4,0-0.7,0.3-0.7,0.7v46.6c0,0.4,0.3,0.7,0.7,0.7h42.4
			c0.4,0,0.7-0.3,0.7-0.7v-46.6C43.7,370.8,43.4,370.5,43.1,370.5z"/>
	</g>
	<g id="XMLID_53_">
		<path id="XMLID_54_" class="st1" d="M65.2,399.6H22.3c-0.2,0-0.4,0.2-0.4,0.4v18.1c0,0.2,0.2,0.4,0.4,0.4h42.9
			c0.2,0,0.4-0.2,0.4-0.4V400C65.6,399.8,65.4,399.6,65.2,399.6z"/>
	</g>
	<g id="XMLID_51_">
		<path id="XMLID_52_" class="st0" d="M101.1,399.6H58.2c-0.2,0-0.4,0.2-0.4,0.4v18.1c0,0.2,0.2,0.4,0.4,0.4h42.9
			c0.2,0,0.4-0.2,0.4-0.4V400C101.5,399.8,101.3,399.6,101.1,399.6z"/>
	</g>
	<g id="XMLID_47_">
		<path id="XMLID_50_" class="st0" d="M371.8,179.7h-73.1c-1.1,0-2,0.9-2,2v234.7c0,1.1,0.9,2,2,2h73.1c1.1,0,2-0.9,2-2V181.7
			C373.9,180.6,373,179.7,371.8,179.7z"/>
		<path id="XMLID_49_" class="st0" d="M361.5,139h-52.5c-0.4,0-0.7,0.3-0.7,0.7V179c0,0.4,0.3,0.7,0.7,0.7h52.5
			c0.4,0,0.7-0.3,0.7-0.7v-39.4C362.2,139.3,361.9,139,361.5,139z"/>
		<path id="XMLID_48_" class="st0" d="M355.2,118.6h-39.8c-0.2,0-0.4,0.2-0.4,0.4v19.5c0,0.2,0.2,0.4,0.4,0.4h39.8
			c0.2,0,0.4-0.2,0.4-0.4V119C355.6,118.8,355.4,118.6,355.2,118.6z"/>
	</g>
	<g id="XMLID_43_">
		<path id="XMLID_46_" class="st0" d="M190.7,305.3h-74.3c-0.8,0-1.4,0.6-1.4,1.4v110.4c0,0.8,0.6,1.4,1.4,1.4h74.3
			c0.8,0,1.4-0.6,1.4-1.4V306.7C192.1,305.9,191.5,305.3,190.7,305.3z"/>
		<path id="XMLID_45_" class="st0" d="M180,286h-52.9c-0.3,0-0.5,0.2-0.5,0.5v18.4c0,0.3,0.2,0.5,0.5,0.5H180c0.3,0,0.5-0.2,0.5-0.5
			v-18.4C180.5,286.2,180.2,286,180,286z"/>
		<path id="XMLID_44_" class="st0" d="M173.5,276.3h-40c-0.2,0-0.3,0.1-0.3,0.3v9.1c0,0.2,0.1,0.3,0.3,0.3h40c0.2,0,0.3-0.1,0.3-0.3
			v-9.1C173.8,276.4,173.7,276.3,173.5,276.3z"/>
	</g>
	<g id="XMLID_39_">
		<path id="XMLID_42_" class="st0" d="M122.6,354.3H80.4c-0.4,0-0.8,0.4-0.8,0.8v62.6c0,0.4,0.4,0.8,0.8,0.8h42.2
			c0.4,0,0.8-0.4,0.8-0.8v-62.6C123.4,354.6,123,354.3,122.6,354.3z"/>
		<path id="XMLID_41_" class="st0" d="M116.5,343.3h-30c-0.1,0-0.3,0.1-0.3,0.3V354c0,0.1,0.1,0.3,0.3,0.3h30c0.1,0,0.3-0.1,0.3-0.3
			v-10.4C116.8,343.4,116.7,343.3,116.5,343.3z"/>
		<path id="XMLID_40_" class="st0" d="M112.8,337.8H90.1c-0.1,0-0.2,0.1-0.2,0.2v5.1c0,0.1,0.1,0.2,0.2,0.2h22.7
			c0.1,0,0.2-0.1,0.2-0.2V338C113,337.9,112.9,337.8,112.8,337.8z"/>
	</g>
	<path id="XMLID_38_" class="st0" d="M1219,257.2h-85.2c-0.4,0-0.7,0.3-0.7,0.7v159.9c0,0.4,0.3,0.7,0.7,0.7h85.2
		c0.4,0,0.7-0.3,0.7-0.7V257.9C1219.7,257.5,1219.4,257.2,1219,257.2z"/>
	<path id="XMLID_37_" class="st0" d="M459.7,257.2h-85.2c-0.4,0-0.7,0.3-0.7,0.7v159.9c0,0.4,0.3,0.7,0.7,0.7h85.2
		c0.4,0,0.7-0.3,0.7-0.7V257.9C460.4,257.5,460.1,257.2,459.7,257.2z"/>
	<path id="XMLID_36_" class="st0" d="M1132.2,154.3h-84.8c-0.5,0-0.9,0.4-0.9,0.9v262.4c0,0.5,0.4,0.9,0.9,0.9h84.8
		c0.5,0,0.9-0.4,0.9-0.9V155.2C1133.1,154.7,1132.7,154.3,1132.2,154.3z"/>
	<path id="XMLID_35_" class="st0" d="M539.5,154.3h-84.8c-0.5,0-0.9,0.4-0.9,0.9v262.4c0,0.5,0.4,0.9,0.9,0.9h84.8
		c0.5,0,0.9-0.4,0.9-0.9V155.2C540.4,154.7,540,154.3,539.5,154.3z"/>
	<path id="XMLID_34_" class="st0" d="M874.5,154.3h-84.8c-0.5,0-0.9,0.4-0.9,0.9v262.4c0,0.5,0.4,0.9,0.9,0.9h84.8
		c0.5,0,0.9-0.4,0.9-0.9V155.2C875.4,154.7,875,154.3,874.5,154.3z"/>
	<path id="XMLID_14_" class="st0" d="M770.5,154.3h-84.8c-0.5,0-0.9,0.4-0.9,0.9v262.4c0,0.5,0.4,0.9,0.9,0.9h84.8
		c0.5,0,0.9-0.4,0.9-0.9V155.2C771.4,154.7,771,154.3,770.5,154.3z"/>
	<path id="XMLID_13_" class="st0" d="M637.9,51.4h-19.4c-0.3,0-0.5,0.2-0.5,0.5V418c0,0.3,0.2,0.5,0.5,0.5h19.4
		c0.3,0,0.5-0.2,0.5-0.5V51.9C638.4,51.6,638.2,51.4,637.9,51.4z"/>
	<path id="XMLID_10_" class="st0" d="M631.1,3.2h-5.8c-0.1,0-0.1,0.1-0.1,0.1v93.9c0,0.1,0.1,0.1,0.1,0.1h5.8c0.1,0,0.1-0.1,0.1-0.1
		V3.3C631.2,3.3,631.2,3.2,631.1,3.2z"/>
	<path id="XMLID_9_" class="st0" d="M1030,192.1L939.4,84.2c-0.3,0-0.6,0.6-0.6,1.4v331.4c0,0.8,0.2,1.4,0.6,1.4h90.6
		c0.3,0,0.6-0.6,0.6-1.4V193.6C1030.5,192.8,1030.3,192.1,1030,192.1z"/>
	<path id="XMLID_8_" class="st0" d="M985.3,329.1l-92.8-42.6c-0.3,0-0.6,0.3-0.6,0.6v130.9c0,0.3,0.3,0.6,0.6,0.6h92.8
		c0.3,0,0.6-0.3,0.6-0.6v-88.3C985.8,329.3,985.6,329.1,985.3,329.1z"/>
	<path id="XMLID_7_" class="st0" d="M633.8,329.1l-92.8-42.6c-0.3,0-0.6,0.3-0.6,0.6v130.9c0,0.3,0.3,0.6,0.6,0.6h92.8
		c0.3,0,0.6-0.3,0.6-0.6v-88.3C634.3,329.3,634.1,329.1,633.8,329.1z"/>
</g>
</svg>
