<?xml version="1.0" encoding="utf-8"?>
<!-- Generator: Adobe Illustrator 19.0.0, SVG Export Plug-In . SVG Version: 6.00 Build 0)  -->
<svg version="1.1" xmlns="http://www.w3.org/2000/svg" xmlns:xlink="http://www.w3.org/1999/xlink" x="0px" y="0px"
	 viewBox="0 0 420 433" style="enable-background:new 0 0 420 433;" xml:space="preserve">
<style type="text/css">
	.st0{fill:#D84315;}
	.st1{fill:#F9A825;}
	.st2{fill:#F4511E;}
	.st3{fill:#FFCA28;}
	.st4{fill:#212121;}
	.st5{fill:#37474F;}
	.st6{fill:#FBC02D;}
	.st7{fill:#FFAB00;}
	.st8{fill:#F5F5F5;}
	.st9{fill:none;stroke:#FBC02D;stroke-width:3;stroke-linecap:round;stroke-miterlimit:10;}
	.st10{fill:none;stroke:#FFAB00;stroke-width:4;stroke-linecap:round;stroke-miterlimit:10;}
</style>
<g id="Layer_1">
	<polygon id="XMLID_3393_" class="st0" points="327.2,425.2 313.4,425.2 315.2,238.4 331.1,238.4 	"/>
	<path id="XMLID_3392_" class="st0" d="M304.2,427.5h-9.2c0-5.1,4.1-9.2,9.2-9.2C304.2,418.3,304.2,422.4,304.2,427.5z"/>
	<rect id="XMLID_3391_" x="304.2" y="418.3" class="st1" width="9.2" height="9.2"/>
	<rect id="XMLID_3390_" x="313.4" y="418.3" class="st0" width="13.8" height="9.2"/>
	<rect id="XMLID_3389_" x="294.9" y="427.5" class="st1" width="32.3" height="4.6"/>
	<g id="XMLID_3386_">
		<polygon id="XMLID_3388_" class="st2" points="352.1,333.2 338.2,333.2 332.4,248.4 352.1,248.4 		"/>
		<circle id="XMLID_3387_" class="st2" cx="345.1" cy="333.2" r="6.9"/>
	</g>
	<path id="XMLID_3385_" class="st2" d="M400.4,411.3l-6.5,6.5c-3.6-3.6-3.6-9.4,0-13.1C393.9,404.8,396.8,407.7,400.4,411.3z"/>
	
		<rect id="XMLID_3384_" x="395.8" y="400.2" transform="matrix(0.7071 -0.7071 0.7071 0.7071 -168.9577 401.7062)" class="st3" width="9.2" height="9.2"/>
	
		<rect id="XMLID_3383_" x="401.7" y="392" transform="matrix(0.7071 -0.7071 0.7071 0.7071 -160.8008 405.0849)" class="st2" width="13.8" height="9.2"/>
	
		<rect id="XMLID_3382_" x="390.8" y="405.8" transform="matrix(0.7071 -0.7071 0.7071 0.7071 -169.3535 407.2761)" class="st3" width="32.3" height="4.6"/>
	<g id="XMLID_3378_">
		
			<rect id="XMLID_3381_" x="368.2" y="320.8" transform="matrix(0.7071 -0.7071 0.7071 0.7071 -146.9389 371.6194)" class="st2" width="13.8" height="84.8"/>
		<circle id="XMLID_3380_" class="st2" cx="405.1" cy="393.1" r="6.9"/>
		<circle id="XMLID_3379_" class="st2" cx="345.1" cy="333.2" r="6.9"/>
	</g>
	<path id="XMLID_3317_" class="st0" d="M294.2,186.7l0.5,1.2c1,2.5,3.9,3.7,6.4,2.6l53-22c2.5-1,3.7-3.9,2.6-6.4l-0.5-1.2
		c-1-2.5-3.9-3.7-6.4-2.6l-53,22C294.4,181.4,293.2,184.2,294.2,186.7z"/>
	<path id="XMLID_3316_" class="st0" d="M353.5,168.9L353.5,168.9c2.8-1.8,3.6-5.5,1.8-8.3l-28.2-44.3c-1.8-2.8-5.5-3.6-8.3-1.8l0,0
		c-2.8,1.8-3.6,5.5-1.8,8.3l28.2,44.3C347,169.9,350.7,170.7,353.5,168.9z"/>
	<circle id="XMLID_3315_" class="st4" cx="336" cy="53.8" r="53.9"/>
	<rect id="XMLID_3314_" x="318.3" y="90" class="st0" width="24" height="24"/>
	<path id="XMLID_3313_" class="st2" d="M330.3,96L330.3,96c13.2,0,24-10.8,24-24v-18c0-13.2-10.8-24-24-24h0c-13.2,0-24,10.8-24,24
		v18C306.3,85.3,317.1,96,330.3,96z"/>
	<rect id="XMLID_3312_" x="299" y="30.1" class="st4" width="60.3" height="33"/>
	<path id="XMLID_3311_" class="st5" d="M275.5,96.3l0.5-21c0.1-2.9-2.3-5.4-5.2-5.4l-7.4-0.2c-2.9-0.1-5.4,2.3-5.4,5.2l-0.5,21
		c-0.1,2.9,2.3,5.4,5.2,5.4l7.4,0.2C273,101.6,275.5,99.3,275.5,96.3z"/>
	<path id="XMLID_3310_" class="st3" d="M320.6,181.8h12.5c5.6,0,10.2-4.6,10.2-10.2l17.1-53.4c0-5.6-4.6-10.2-10.2-10.2h-29.5
		c-5.6,0-10.2,4.6-10.2,10.2v53.4C310.3,177.2,314.9,181.8,320.6,181.8z"/>
	<circle id="XMLID_3306_" class="st3" cx="313.2" cy="133.5" r="14.2"/>
	<circle id="XMLID_3126_" class="st6" cx="335.9" cy="133.5" r="14.2"/>
	<path id="XMLID_3125_" class="st2" d="M294.8,157L294.8,157c1.9,2.7,5.6,3.4,8.3,1.5l47.1-33.1c2.7-1.9,3.4-5.6,1.5-8.3v0
		c-1.9-2.7-5.6-3.4-8.3-1.5l-47.1,33.1C293.5,150.6,292.9,154.3,294.8,157z"/>
	<path id="XMLID_3124_" class="st3" d="M353.7,123.6l3.5-2.5c3.1-2.2,3.9-6.5,1.7-9.6l0,0c-2.2-3.1-6.5-3.9-9.6-1.7l-3.5,2.5
		C342.6,114.5,350.6,125.8,353.7,123.6z"/>
	<path id="XMLID_3123_" class="st2" d="M267,115.9L267,115.9c4.9-0.9,8.2-5.5,7.3-10.4l-3.1-17.7c-0.9-4.9-5.5-8.2-10.4-7.3l0,0
		c-4.9,0.9-8.2,5.5-7.3,10.4l3.1,17.7C257.4,113.5,262.1,116.8,267,115.9z"/>
	<path id="XMLID_3116_" class="st2" d="M266.4,105.7L266.4,105.7c-2.7,1.9-3.4,5.6-1.5,8.3l30.2,43c1.9,2.7,5.6,3.4,8.3,1.5h0
		c2.7-1.9,3.4-5.6,1.5-8.3l-30.2-43C272.9,104.5,269.1,103.8,266.4,105.7z"/>
	<path id="XMLID_3107_" class="st0" d="M302,183.5l0.7,0.7c4.5,4.6,4.4,12.1-0.2,16.6l-12.4,12.1c-4.6,4.5-12.1,4.4-16.6-0.2
		l-0.7-0.7c-4.5-4.6-4.4-12.1,0.2-16.6l12.4-12.1C290,178.7,297.5,178.8,302,183.5z"/>
	<rect id="XMLID_3106_" x="310.3" y="183.7" class="st5" width="33.7" height="24.8"/>
	<path id="XMLID_3105_" class="st5" d="M363.6,213.9c0,16.5-12.8,29.9-29.9,29.9V184C350.8,184,363.6,197.4,363.6,213.9z"/>
	<rect id="XMLID_3104_" x="310.3" y="205.2" class="st5" width="46.8" height="67.9"/>
	<rect id="XMLID_3103_" x="310.3" y="169.2" class="st7" width="33.7" height="15.1"/>
	<path id="XMLID_3_" class="st8" d="M324.5,86.3h-5.5c-1.5,0-2.7-1.2-2.7-2.7v0c0-1.5,1.2-2.7,2.7-2.7h5.5c1.5,0,2.7,1.2,2.7,2.7v0
		C327.2,85.1,325.9,86.3,324.5,86.3z"/>
	<path id="XMLID_5_" class="st3" d="M136.9,290.5c0,0,17-5.1,37.3-8.7c20.3-3.6,30.4,10.8,34.1,22.2c5.9,18.3,2.1,42.9,4.5,52.6
		c2.4,9.7,8.6,12.4,19.1,21.8c6.6,6,14,45.6,11.4,48.1c-7,6.6-15.1,5.8-16.1,3.8c-0.7-1.5,5.3-10.4,5.3-13.2s-2.3-20-5.3-25
		c-2.4-3.9-5.9-8.5-11.4-13.3c-4.9-4.3-12.8-8.1-24.6-19.2c-14.1-13.2-10.1-33-21.5-35.4c-4.3-0.9-6.8,2.7-17.3,11.2
		c-6.6,5.4-10.9,3.6-10.9,3.6L136.9,290.5z"/>
	<path id="XMLID_14_" class="st2" d="M253.2,396.6c2.3,10.2-0.1,26.5-9.4,29.4c-8.5,2.6-19.3-6.6-23.2-16.2
		c-4.9-11.8-1.3-28.6,8.2-31.9c6.4-2.2,13.9,2.2,17.8,6C251.4,388.6,252.7,394.1,253.2,396.6z"/>
	<path id="XMLID_16_" class="st3" d="M205.3,275.4l4,0.3c0.2,1.6,0.6,6.1-1.8,10.9c-2.4,4.9-6.3,7.2-7.7,8c-1.5-1.2-3-2.4-4.5-3.5
		c1.5-0.7,5.3-2.9,7.8-7.4C204.9,280.3,205.2,277.1,205.3,275.4z"/>
	<path id="XMLID_10_" class="st3" d="M75,352.9l15.3,3.3c0,0-10,35.7-10,42.5s-1.3,29.1-4.9,31.4c-3.6,2.3-6.2,2.1-12.4,1.9
		c-6.7-0.2-8.5-0.2-8.6-2c-0.2-1.8,3.1-5.8,5.9-8.5c2.6-2.4,5.3-3.9,5.9-6.6c0.6-2.6,6-46.5,6-46.5L75,352.9z"/>
	<path id="XMLID_4_" class="st3" d="M91.4,263c-7-4.3-7.1-8-7.1-8s-51.9-27.2-54.5-25.6c-2.5,1.6-10.9,4.4-14.5,4.9
		c-3.6,0.5-13.4,0.4-14.8,1.1c-1.4,0.7,1.4,8,4.5,11.8c3.1,3.8,10.7,6.3,15,6.3s5.4-0.8,8.9-1.3c4.2-0.6,11.9-1.4,14,1.1
		c2.8,3.4,11,23.1,7.5,34.1C47.5,295.7,94.3,264.1,91.4,263z"/>
	<path id="XMLID_12_" class="st2" d="M94.3,401.3c-1.5,9.9-8,27.4-17.9,27.4c-9.9,0-17.9-12.2-17.9-27.4c0-11.8,7.3-26.7,17.9-27.4
		c6.6-0.4,12.6,4.7,15.6,9.5C96,389.8,95,396.4,94.3,401.3z"/>
	<path id="XMLID_17_" class="st2" d="M34.2,231.2c0.1,0.9,1.8,6.4,4.2,8.3c3,2.4,7.7,2.5,11.6,0c-0.3,0.1-6.8,3.5-7.1,10.1
		c-0.2,3.4,1.4,6,2,7c-2.5,2-3.7,5.2-3,8.4c0.6,3.1,3,5.6,6,6.4c-3.5,1.5-5.5,5.4-4.6,9c0.8,3.4,4,5.9,7.6,5.9
		c17.4-7.4,34.8-14.8,52.1-22.2c2.1-1.3,4.7-4.9,3.3-10.4c-1-3.9-3.4-7.3-6-8c2.2-0.6,5.6-4.5,5.1-8.4c-0.5-4.4-2.3-7.7-5.9-9
		c3-0.8,5.9-4.8,5.5-7.8c-0.4-2.9-2.9-5.2-5.9-5.2c2.5-1.4,3.5-4.5,2.4-7c-1.1-2.5-3.8-3.9-6.5-3.2c1.6-3.4,0.8-7.4-1.8-9.9
		c-2.5-2.3-6.2-2.9-9.4-1.5c0.6-2.5-0.5-5.1-2.6-6.4c-2.4-1.5-5.8-0.9-7.7,1.5c-1.3-2.6-4.1-4.2-6.9-3.8c-2.6,0.3-4.8,2.2-5.6,4.8
		c-2.1-2.5-5.5-3.6-8.6-2.7c-3.3,0.9-5.7,3.8-6.1,7.3c-2.9-2.2-6.9-2.1-9.6,0.2c-2.8,2.3-3.5,6.4-1.8,9.6c-2.8,0.4-4.8,2.6-4.8,4.9
		c-0.1,3,1.6,7.2,3.9,7.4c-2.6-0.2-5.1,2.8-4.8,7.7C29.2,228.1,29.4,230.9,34.2,231.2z"/>
	<path id="XMLID_7_" class="st2" d="M50.9,286.4c-0.5,0.2-4,1.6-5.4,5.4c-1.7,4.7,1.3,8.7,1.5,8.9c-0.7,0.7-4.5,4.8-4.2,10.9
		c0.2,4.4,2.5,7.5,3.3,8.5c-0.3,0.5-3.1,5-1.1,10.1c1.6,4.1,5.2,5.8,5.9,6.1c-1.3,3.1-0.9,6.6,1.1,9.2c2.8,3.7,7.4,3.6,7.8,3.6
		c0,0.2-0.6,5.1,3.3,8.2c3.9,3,8.4,1.4,8.7,1.3c1.1,1.4,4,4.9,9.3,6.7c5.3,1.8,9.8,0.8,11.5,0.4c0.8,0.6,4.8,3.5,10.4,2.8
		c5.2-0.7,8.3-4.1,8.9-5c0.6,0.3,6,2.7,11.6-0.3c5.4-2.9,6.4-8.6,6.5-9.2c1.4,0,4.5-0.1,7.4-2.3c5.8-4.2,5.1-12.1,5-12.5
		c1.2-0.8,4.3-3.2,6-7.6c2-5.3,0.6-9.9,0.2-11.2c0.7-1,3.4-4.9,3-10.5c-0.4-5.5-3.5-8.9-4.4-9.8c0.3-0.8,1.9-6-1.2-11.2
		c-2.7-4.6-7.1-6-8.1-6.3c-0.1-1-0.8-5.9-5.2-9.5c-4.8-3.8-10.2-3-11-2.9c-0.5-0.9-2.9-5.1-8.2-6.8c-5.2-1.7-9.5,0.2-10.5,0.6
		C85.7,271.6,68.3,279,50.9,286.4z"/>
	<path id="XMLID_1_" class="st9" d="M50.9,286.4"/>
	<path id="XMLID_13_" class="st10" d="M50.5,286.6c5.6,0.5,14,0.5,23.5-2.3c17.1-5.1,26.9-16.7,31.2-21.4c3.7-4.1,8.1-6.7,11.9-8.9
		c33.3-19,74.2-0.7,83.1,3.5c3.9,1.5,28.5,10.2,53.4-3c32.2-17.2,34.1-54.8,34.1-56.4"/>
	<path id="XMLID_8_" class="st2" d="M202.3,276.7c-0.1,2.5,1.5,4.7,3.8,5.3c2.5,0.6,5.2-0.9,6-3.4c0.9,2.1,3.2,3.1,5.1,2.6
		c2.3-0.6,3.7-3.3,2.8-5.7c2.3,0.6,4.6-0.5,5.5-2.6c0.8-2,0-4.3-1.8-5.5c2.7-1.6,3.5-4.8,2.3-7c-0.9-1.5-2.8-2.4-4.8-2.2
		c1.8-1.8,1.8-4.6,0.2-6.2c-1.7-1.7-4.8-1.5-6.5,0.7c-0.4-2.7-2.9-4.7-5.5-4.5c-2.4,0.2-4.4,2-4.8,4.5c-2.1-2.2-5.6-2.2-7.6-0.2
		c-2,1.9-2.1,5.2-0.2,7.3c-2.1,0.4-3.8,1.9-4.3,3.8c-0.5,2.4,1.1,5.1,3.8,5.9c-1.4,1.6-1.7,3.9-0.8,5.5
		C196.7,277.1,199.7,278,202.3,276.7z"/>
	<path id="XMLID_6_" class="st7" d="M9.4,234.8c-1.6,0.1-2.9,0.1-3.8,0.1c-0.3,0-1.1,0-2.6,0c-0.6,0-2.3,0.1-2.8,0.7
		c-0.1,0.2-0.2,0.4-0.2,0.4C0,236.4,0,236.7,0,237c0.1,0.7,0.3,1.1,0.3,1.2c0.2,0.5,0.4,1.1,0.7,2c1.3,0.2,3.1,0.3,5.1,0
		c0.9-0.1,1.7-0.3,2.4-0.5c0.3-0.7,0.7-1.6,0.9-2.9C9.5,236.1,9.5,235.4,9.4,234.8z"/>
</g>
<g id="Layer_2">
</g>
</svg>
