<?xml version="1.0" encoding="utf-8"?>
<!-- Generator: Adobe Illustrator 19.0.0, SVG Export Plug-In . SVG Version: 6.00 Build 0)  -->
<svg version="1.1" id="Layer_1" xmlns="http://www.w3.org/2000/svg" xmlns:xlink="http://www.w3.org/1999/xlink" x="0px" y="0px"
	 viewBox="-72 162.3 160 176.7" style="enable-background:new -72 162.3 160 176.7;" xml:space="preserve">
<style type="text/css">
	.st0{display:none;}
	.st1{fill:#607D8B;}
	.st2{fill:#FFAB00;}
	.st3{fill:#A7DBD6;}
	.st4{fill:#4DB6AC;}
	.st5{fill:#FFCA28;}
	.st6{fill:#FFFFFF;}
</style>
<g id="Sky">
</g>
<g id="Ground">
</g>
<g id="Background_Buildings">
</g>
<g id="White_Screen" class="st0">
</g>
<g id="Aircrafts">
</g>
<g id="Clouds">
</g>
<g id="XMLID_1462_">
	<path id="XMLID_1475_" class="st1" d="M7.8,246.6c-1.1,0-1.9-0.9-1.9-1.9v-43.9c0-7.7-6.3-13.9-13.9-13.9s-13.9,6.2-13.9,13.9
		c0,1.1-0.9,1.9-1.9,1.9c-1.1,0-1.9-0.9-1.9-1.9c0-9.8,8-17.7,17.8-17.7s17.8,8,17.8,17.7v43.8C9.7,245.7,8.9,246.6,7.8,246.6z"/>
	<path id="XMLID_1474_" class="st1" d="M7.8,246.6c-1.1,0-1.9-0.9-1.9-1.9v-43.9c0-9.8,8-17.7,17.8-17.7s17.8,8,17.8,17.7
		c0,1.1-0.9,1.9-1.9,1.9c-1.1,0-1.9-0.9-1.9-1.9c0-7.7-6.3-13.9-13.9-13.9s-13.9,6.2-13.9,13.9v43.8C9.7,245.7,8.9,246.6,7.8,246.6z
		"/>
	<path id="XMLID_1473_" class="st1" d="M7.8,267c-1.1,0-1.9-0.9-1.9-1.9v-73.8c0-13.6-11.1-24.7-24.8-24.7s-24.8,11.1-24.8,24.7
		c0,1.1-0.9,1.9-1.9,1.9s-1.9-0.9-1.9-1.9c0-15.8,12.9-28.6,28.7-28.6s28.7,12.8,28.7,28.6v73.8C9.7,266.2,8.9,267,7.8,267z"/>
	<path id="XMLID_1472_" class="st1" d="M7.8,267c-1.1,0-1.9-0.9-1.9-1.9v-73.8c0-15.8,12.9-28.6,28.7-28.6s28.7,12.8,28.7,28.6
		c0,1.1-0.9,1.9-1.9,1.9s-1.9-0.9-1.9-1.9c0-13.6-11.1-24.7-24.8-24.7s-25,11-25,24.7v73.8C9.7,266.2,8.9,267,7.8,267z"/>
	<path id="XMLID_1471_" class="st1" d="M-24,256.5c-1.1,0-1.9-0.9-1.9-1.9V217c0-1.1,0.9-1.9,1.9-1.9c1.1,0,1.9,0.9,1.9,1.9v37.6
		C-22,255.6-22.9,256.5-24,256.5z"/>
	<path id="XMLID_1470_" class="st1" d="M-45.8,294.7c-1.1,0-1.9-0.9-1.9-2.1v-84.7c0-1.1,0.9-2.1,1.9-2.1s1.9,0.9,1.9,2.1v84.7
		C-43.8,293.8-44.7,294.7-45.8,294.7z"/>
	<path id="XMLID_1469_" class="st1" d="M-24,212.7c-1.1,0-1.9-0.9-1.9-1.9v-4.7c0-1.1,0.9-1.9,1.9-1.9c1.1,0,1.9,0.9,1.9,1.9v4.7
		C-22,211.9-22.9,212.7-24,212.7z"/>
	<path id="XMLID_1468_" class="st1" d="M-45.8,204.4c-1.1,0-1.9-0.9-1.9-1.9v-4.7c0-1.1,0.9-1.9,1.9-1.9s1.9,0.9,1.9,1.9v4.7
		C-43.8,203.5-44.7,204.4-45.8,204.4z"/>
	<path id="XMLID_1467_" class="st1" d="M39.6,220c-1.1,0-1.9-0.9-1.9-1.9v-9.3c0-1.1,0.9-1.9,1.9-1.9c1.1,0,1.9,0.9,1.9,1.9v9.3
		C41.5,219.1,40.6,220,39.6,220z"/>
	<path id="XMLID_1466_" class="st1" d="M61.3,220c-1.1,0-1.9-0.9-1.9-1.9v-20c0-1.1,0.9-1.9,1.9-1.9s1.9,0.9,1.9,1.9v20
		C63.3,219.1,62.4,220,61.3,220z"/>
	<path id="XMLID_1465_" class="st1" d="M61.3,298.7c-1.1,0-1.9-1.3-1.9-3v-34.6c0-1.6,0.9-3,1.9-3s1.9,1.3,1.9,3v34.6
		C63.3,297.3,62.4,298.7,61.3,298.7z"/>
	<path id="XMLID_1464_" class="st1" d="M39.6,256.5c-1.1,0-1.9-0.9-1.9-1.9v-30.1c0-1.1,0.9-1.9,1.9-1.9c1.1,0,1.9,0.9,1.9,1.9v30.1
		C41.5,255.6,40.6,256.5,39.6,256.5z"/>
	<path id="XMLID_1463_" class="st1" d="M61.1,256c-0.9,0-1.7-0.6-1.7-1.4v-30.1c0-0.8,0.8-1.4,1.7-1.4s1.7,0.6,1.7,1.4v30.1
		C62.8,255.4,62,256,61.1,256z"/>
</g>
<rect id="XMLID_2002_" x="1" y="241.1" class="st2" width="14" height="78.8"/>
<circle id="XMLID_2001_" class="st3" cx="-47" cy="303.8" r="12.4"/>
<circle id="XMLID_2000_" class="st1" cx="56.1" cy="303.8" r="12.4"/>
<circle id="XMLID_1999_" class="st4" cx="-34.6" cy="303.8" r="6"/>
<circle id="XMLID_1998_" class="st3" cx="68.4" cy="303.8" r="6"/>
<circle id="XMLID_1996_" class="st3" cx="-14.5" cy="302.9" r="7"/>
<circle id="XMLID_1997_" class="st1" cx="-25.7" cy="302.9" r="7"/>
<circle id="XMLID_1994_" class="st1" cx="5" cy="303.8" r="7"/>
<circle id="XMLID_1995_" class="st4" cx="-6" cy="305" r="7"/>
<circle id="XMLID_1480_" class="st4" cx="27.3" cy="301.3" r="6.5"/>
<circle id="XMLID_1993_" class="st3" cx="16.5" cy="304.3" r="8.4"/>
<circle id="XMLID_1479_" class="st1" cx="37.8" cy="303.8" r="8.4"/>
<circle id="XMLID_1478_" class="st3" cx="45.3" cy="301.9" r="7"/>
<path id="XMLID_1477_" class="st5" d="M66.7,338.6H-51.1c-9.4,0-16.9-7.6-16.9-16.9v-17.8H83.7v17.8C83.6,331,76.1,338.6,66.7,338.6
	z"/>
<circle id="XMLID_1476_" class="st1" cx="-54.7" cy="302.9" r="7"/>
<circle id="XMLID_1460_" class="st4" cx="61.3" cy="303.8" r="6"/>
<path id="XMLID_1459_" class="st6" d="M86.4,310.2h-156c-0.9,0-1.6-0.7-1.6-1.6v-3.1c0-0.9,0.7-1.6,1.6-1.6h156
	c0.9,0,1.6,0.7,1.6,1.6v3.1C88,309.5,87.3,310.2,86.4,310.2z"/>
<path id="XMLID_1457_" class="st5" d="M22.6,243.9H-7c-5.3,0-9.6-4.3-9.6-9.6v-9h48.8v9C32.2,239.5,27.9,243.9,22.6,243.9z"/>
<path id="XMLID_1456_" class="st5" d="M38.7,284.7h-61.8c-7.2,0-13-5.8-13-13V263h87.9v8.7C51.7,278.9,45.9,284.7,38.7,284.7z"/>
<path id="XMLID_1461_" class="st6" d="M54.4,263.8h-92c-0.9,0-1.6-0.7-1.6-1.6v-3.1c0-0.9,0.7-1.6,1.6-1.6h92c0.9,0,1.6,0.7,1.6,1.6
	v3.1C56.1,263.1,55.3,263.8,54.4,263.8z"/>
<path id="XMLID_1458_" class="st6" d="M34.7,226.3h-52.6c-0.9,0-1.6-0.7-1.6-1.6v-3.1c0-0.9,0.7-1.6,1.6-1.6h52.7
	c0.9,0,1.6,0.7,1.6,1.6v3.1C36.4,225.5,35.6,226.3,34.7,226.3z"/>
</svg>
