<?xml version="1.0" encoding="utf-8"?>
<!-- Generator: Adobe Illustrator 19.0.0, SVG Export Plug-In . SVG Version: 6.00 Build 0)  -->
<svg version="1.1" xmlns="http://www.w3.org/2000/svg" xmlns:xlink="http://www.w3.org/1999/xlink" x="0px" y="0px"
	 viewBox="0 0 160 176.7" style="enable-background:new 0 0 160 176.7;" xml:space="preserve">
<style type="text/css">
	.st0{display:none;}
	.st1{fill:#263238;}
	.st2{fill:#FFAB00;}
	.st3{fill:#FFCA28;}
	.st4{fill:#FFFFFF;}
</style>
<g id="Sky">
</g>
<g id="Ground">
</g>
<g id="Background_Buildings">
</g>
<g id="White_Screen" class="st0">
</g>
<g id="Aircrafts">
</g>
<g id="Clouds">
</g>
<g id="Trees">
	<g id="XMLID_1462_">
		<path id="XMLID_1475_" class="st1" d="M79.4,84.7c-1.1,0-1.9-0.9-1.9-1.9V38.9c0-7.7-6.3-13.9-13.9-13.9s-13.9,6.2-13.9,13.9
			c0,1.1-0.9,1.9-1.9,1.9c-1.1,0-1.9-0.9-1.9-1.9c0-9.8,8-17.7,17.8-17.7s17.8,8,17.8,17.7v43.8C81.3,83.8,80.5,84.7,79.4,84.7z"/>
		<path id="XMLID_1474_" class="st1" d="M79.4,84.7c-1.1,0-1.9-0.9-1.9-1.9V38.9c0-9.8,8-17.7,17.8-17.7s17.8,8,17.8,17.7
			c0,1.1-0.9,1.9-1.9,1.9c-1.1,0-1.9-0.9-1.9-1.9c0-7.7-6.3-13.9-13.9-13.9s-13.9,6.2-13.9,13.9v43.8C81.3,83.8,80.5,84.7,79.4,84.7
			z"/>
		<path id="XMLID_1473_" class="st1" d="M79.4,105.1c-1.1,0-1.9-0.9-1.9-1.9V29.4c0-13.6-11.1-24.7-24.8-24.7
			c-13.7,0-24.8,11.1-24.8,24.7c0,1.1-0.9,1.9-1.9,1.9s-1.9-0.9-1.9-1.9c0-15.8,12.9-28.6,28.7-28.6c15.8,0,28.7,12.8,28.7,28.6
			v73.8C81.3,104.3,80.5,105.1,79.4,105.1z"/>
		<path id="XMLID_1472_" class="st1" d="M79.4,105.1c-1.1,0-1.9-0.9-1.9-1.9V29.4c0-15.8,12.9-28.6,28.7-28.6s28.7,12.8,28.7,28.6
			c0,1.1-0.9,1.9-1.9,1.9s-1.9-0.9-1.9-1.9c0-13.6-11.1-24.7-24.8-24.7S81.3,15.7,81.3,29.4v73.8C81.3,104.3,80.5,105.1,79.4,105.1z
			"/>
		<path id="XMLID_1471_" class="st1" d="M47.6,94.6c-1.1,0-1.9-0.9-1.9-1.9V55.1c0-1.1,0.9-1.9,1.9-1.9c1.1,0,1.9,0.9,1.9,1.9v37.6
			C49.6,93.7,48.7,94.6,47.6,94.6z"/>
		<path id="XMLID_1470_" class="st1" d="M25.8,132.8c-1.1,0-1.9-0.9-1.9-2.1V46c0-1.1,0.9-2.1,1.9-2.1s1.9,0.9,1.9,2.1v84.7
			C27.8,131.9,26.9,132.8,25.8,132.8z"/>
		<path id="XMLID_1469_" class="st1" d="M47.6,50.8c-1.1,0-1.9-0.9-1.9-1.9v-4.7c0-1.1,0.9-1.9,1.9-1.9c1.1,0,1.9,0.9,1.9,1.9v4.7
			C49.6,50,48.7,50.8,47.6,50.8z"/>
		<path id="XMLID_1468_" class="st1" d="M25.8,42.5c-1.1,0-1.9-0.9-1.9-1.9v-4.7c0-1.1,0.9-1.9,1.9-1.9s1.9,0.9,1.9,1.9v4.7
			C27.8,41.6,26.9,42.5,25.8,42.5z"/>
		<path id="XMLID_1467_" class="st1" d="M111.2,58.1c-1.1,0-1.9-0.9-1.9-1.9v-9.3c0-1.1,0.9-1.9,1.9-1.9c1.1,0,1.9,0.9,1.9,1.9v9.3
			C113.1,57.2,112.2,58.1,111.2,58.1z"/>
		<path id="XMLID_1466_" class="st1" d="M132.9,58.1c-1.1,0-1.9-0.9-1.9-1.9v-20c0-1.1,0.9-1.9,1.9-1.9s1.9,0.9,1.9,1.9v20
			C134.9,57.2,134,58.1,132.9,58.1z"/>
		<path id="XMLID_1465_" class="st1" d="M132.9,136.8c-1.1,0-1.9-1.3-1.9-3V99.2c0-1.6,0.9-3,1.9-3s1.9,1.3,1.9,3v34.6
			C134.9,135.4,134,136.8,132.9,136.8z"/>
		<path id="XMLID_1464_" class="st1" d="M111.2,94.6c-1.1,0-1.9-0.9-1.9-1.9V62.6c0-1.1,0.9-1.9,1.9-1.9c1.1,0,1.9,0.9,1.9,1.9v30.1
			C113.1,93.7,112.2,94.6,111.2,94.6z"/>
		<path id="XMLID_1463_" class="st1" d="M132.7,94.1c-0.9,0-1.7-0.6-1.7-1.4V62.6c0-0.8,0.8-1.4,1.7-1.4s1.7,0.6,1.7,1.4v30.1
			C134.4,93.5,133.6,94.1,132.7,94.1z"/>
	</g>
	<rect id="XMLID_2002_" x="72.6" y="79.2" class="st2" width="14" height="78.8"/>
	<circle id="XMLID_2001_" class="st1" cx="24.6" cy="141.9" r="12.4"/>
	<circle id="XMLID_2000_" class="st1" cx="127.7" cy="141.9" r="12.4"/>
	<circle id="XMLID_1999_" class="st1" cx="39.6" cy="141.9" r="6"/>
	<circle id="XMLID_1998_" class="st1" cx="140" cy="141.9" r="6"/>
	<circle id="XMLID_1997_" class="st1" cx="50.7" cy="141" r="7"/>
	<circle id="XMLID_1996_" class="st1" cx="60.7" cy="141" r="7"/>
	<circle id="XMLID_1995_" class="st1" cx="67.6" cy="145.1" r="7"/>
	<circle id="XMLID_1994_" class="st1" cx="76.6" cy="141.9" r="7"/>
	<circle id="XMLID_1993_" class="st1" cx="88.1" cy="142.4" r="8.4"/>
	<circle id="XMLID_1480_" class="st1" cx="100.9" cy="142.4" r="6.5"/>
	<circle id="XMLID_1479_" class="st1" cx="107.4" cy="141.9" r="8.4"/>
	<circle id="XMLID_1478_" class="st1" cx="114.9" cy="141" r="7"/>
	<path id="XMLID_1477_" class="st3" d="M138.3,176.7H20.5c-9.4,0-16.9-7.6-16.9-16.9v-17.8h151.7v17.8
		C155.2,169.1,147.7,176.7,138.3,176.7z"/>
	<circle id="XMLID_1476_" class="st1" cx="22.3" cy="141" r="7"/>
	<circle id="XMLID_1460_" class="st1" cx="132.9" cy="141.9" r="6"/>
	<path id="XMLID_1459_" class="st4" d="M158,148.3H2c-0.9,0-1.6-0.7-1.6-1.6v-3.1c0-0.9,0.7-1.6,1.6-1.6H158c0.9,0,1.6,0.7,1.6,1.6
		v3.1C159.6,147.6,158.9,148.3,158,148.3z"/>
	<path id="XMLID_1457_" class="st3" d="M94.2,82H64.6c-5.3,0-9.6-4.3-9.6-9.6v-9h48.8v9C103.8,77.6,99.5,82,94.2,82z"/>
	<path id="XMLID_1456_" class="st3" d="M110.3,122.8H48.5c-7.2,0-13-5.8-13-13v-8.7h87.9v8.7C123.3,117,117.5,122.8,110.3,122.8z"/>
	<path id="XMLID_1461_" class="st4" d="M126,101.9H34c-0.9,0-1.6-0.7-1.6-1.6v-3.1c0-0.9,0.7-1.6,1.6-1.6H126c0.9,0,1.6,0.7,1.6,1.6
		v3.1C127.7,101.2,126.9,101.9,126,101.9z"/>
	<path id="XMLID_1458_" class="st4" d="M106.3,64.4H53.7c-0.9,0-1.6-0.7-1.6-1.6l0-3.1c0-0.9,0.7-1.6,1.6-1.6h52.7
		c0.9,0,1.6,0.7,1.6,1.6v3.1C108,63.6,107.2,64.4,106.3,64.4z"/>
</g>
<g id="Character">
</g>
</svg>
