<?xml version="1.0" encoding="utf-8"?>
<!-- Generator: Adobe Illustrator 19.0.0, SVG Export Plug-In . SVG Version: 6.00 Build 0)  -->
<svg version="1.1" id="Layer_1" xmlns="http://www.w3.org/2000/svg" xmlns:xlink="http://www.w3.org/1999/xlink" x="0px" y="0px"
	 viewBox="-72 162.3 160 176.7" style="enable-background:new -72 162.3 160 176.7;" xml:space="preserve">
<style type="text/css">
	.st0{display:none;}
	.st1{fill:#42A5F5;}
	.st2{fill:#FFAB00;}
	.st3{fill:#FFCA28;}
	.st4{fill:#FFFFFF;}
</style>
<g id="Sky">
</g>
<g id="Ground">
</g>
<g id="Background_Buildings">
</g>
<g id="White_Screen" class="st0">
</g>
<g id="Aircrafts">
</g>
<g id="Clouds">
</g>
<g id="Trees">
	<g id="XMLID_1462_">
		<path id="XMLID_1475_" class="st1" d="M7.4,247c-1.1,0-1.9-0.9-1.9-1.9v-43.9c0-7.7-6.3-13.9-13.9-13.9s-13.9,6.2-13.9,13.9
			c0,1.1-0.9,1.9-1.9,1.9c-1.1,0-1.9-0.9-1.9-1.9c0-9.8,8-17.7,17.8-17.7s17.8,8,17.8,17.7V245C9.3,246.1,8.5,247,7.4,247z"/>
		<path id="XMLID_1474_" class="st1" d="M7.4,247c-1.1,0-1.9-0.9-1.9-1.9v-43.9c0-9.8,8-17.7,17.8-17.7s17.8,8,17.8,17.7
			c0,1.1-0.9,1.9-1.9,1.9c-1.1,0-1.9-0.9-1.9-1.9c0-7.7-6.3-13.9-13.9-13.9s-13.9,6.2-13.9,13.9V245C9.3,246.1,8.5,247,7.4,247z"/>
		<path id="XMLID_1473_" class="st1" d="M7.4,267.4c-1.1,0-1.9-0.9-1.9-1.9v-73.8c0-13.6-11.1-24.7-24.8-24.7s-24.8,11.1-24.8,24.7
			c0,1.1-0.9,1.9-1.9,1.9s-1.9-0.9-1.9-1.9c0-15.8,12.9-28.6,28.7-28.6s28.7,12.8,28.7,28.6v73.8C9.3,266.6,8.5,267.4,7.4,267.4z"/>
		<path id="XMLID_1472_" class="st1" d="M7.4,267.4c-1.1,0-1.9-0.9-1.9-1.9v-73.8c0-15.8,12.9-28.6,28.7-28.6s28.7,12.8,28.7,28.6
			c0,1.1-0.9,1.9-1.9,1.9s-1.9-0.9-1.9-1.9c0-13.6-11.1-24.7-24.8-24.7s-25,11-25,24.7v73.8C9.3,266.6,8.5,267.4,7.4,267.4z"/>
		<path id="XMLID_1471_" class="st1" d="M-24.4,256.9c-1.1,0-1.9-0.9-1.9-1.9v-37.6c0-1.1,0.9-1.9,1.9-1.9c1.1,0,1.9,0.9,1.9,1.9
			V255C-22.4,256-23.3,256.9-24.4,256.9z"/>
		<path id="XMLID_1470_" class="st1" d="M-46.2,295.1c-1.1,0-1.9-0.9-1.9-2.1v-84.7c0-1.1,0.9-2.1,1.9-2.1s1.9,0.9,1.9,2.1V293
			C-44.2,294.2-45.1,295.1-46.2,295.1z"/>
		<path id="XMLID_1469_" class="st1" d="M-24.4,213.1c-1.1,0-1.9-0.9-1.9-1.9v-4.7c0-1.1,0.9-1.9,1.9-1.9c1.1,0,1.9,0.9,1.9,1.9v4.7
			C-22.4,212.3-23.3,213.1-24.4,213.1z"/>
		<path id="XMLID_1468_" class="st1" d="M-46.2,204.8c-1.1,0-1.9-0.9-1.9-1.9v-4.7c0-1.1,0.9-1.9,1.9-1.9s1.9,0.9,1.9,1.9v4.7
			C-44.2,203.9-45.1,204.8-46.2,204.8z"/>
		<path id="XMLID_1467_" class="st1" d="M39.2,220.4c-1.1,0-1.9-0.9-1.9-1.9v-9.3c0-1.1,0.9-1.9,1.9-1.9c1.1,0,1.9,0.9,1.9,1.9v9.3
			C41.1,219.5,40.2,220.4,39.2,220.4z"/>
		<path id="XMLID_1466_" class="st1" d="M60.9,220.4c-1.1,0-1.9-0.9-1.9-1.9v-20c0-1.1,0.9-1.9,1.9-1.9s1.9,0.9,1.9,1.9v20
			C62.9,219.5,62,220.4,60.9,220.4z"/>
		<path id="XMLID_1465_" class="st1" d="M60.9,299.1c-1.1,0-1.9-1.3-1.9-3v-34.6c0-1.6,0.9-3,1.9-3s1.9,1.3,1.9,3v34.6
			C62.9,297.7,62,299.1,60.9,299.1z"/>
		<path id="XMLID_1464_" class="st1" d="M39.2,256.9c-1.1,0-1.9-0.9-1.9-1.9v-30.1c0-1.1,0.9-1.9,1.9-1.9c1.1,0,1.9,0.9,1.9,1.9V255
			C41.1,256,40.2,256.9,39.2,256.9z"/>
		<path id="XMLID_1463_" class="st1" d="M60.7,256.4c-0.9,0-1.7-0.6-1.7-1.4v-30.1c0-0.8,0.8-1.4,1.7-1.4s1.7,0.6,1.7,1.4V255
			C62.4,255.8,61.6,256.4,60.7,256.4z"/>
	</g>
	<rect id="XMLID_2002_" x="0.6" y="241.5" class="st2" width="14" height="78.8"/>
	<circle id="XMLID_2001_" class="st1" cx="-47.4" cy="304.2" r="12.4"/>
	<circle id="XMLID_2000_" class="st1" cx="55.7" cy="304.2" r="12.4"/>
	<circle id="XMLID_1999_" class="st1" cx="-32.4" cy="304.2" r="6"/>
	<circle id="XMLID_1998_" class="st1" cx="68" cy="304.2" r="6"/>
	<circle id="XMLID_1997_" class="st1" cx="-21.3" cy="303.3" r="7"/>
	<circle id="XMLID_1996_" class="st1" cx="-11.3" cy="303.3" r="7"/>
	<circle id="XMLID_1995_" class="st1" cx="-4.4" cy="307.4" r="7"/>
	<circle id="XMLID_1994_" class="st1" cx="4.6" cy="304.2" r="7"/>
	<circle id="XMLID_1993_" class="st1" cx="16.1" cy="304.7" r="8.4"/>
	<circle id="XMLID_1480_" class="st1" cx="28.9" cy="304.7" r="6.5"/>
	<circle id="XMLID_1479_" class="st1" cx="35.4" cy="304.2" r="8.4"/>
	<circle id="XMLID_1478_" class="st1" cx="42.9" cy="303.3" r="7"/>
	<path id="XMLID_1477_" class="st3" d="M66.3,339H-51.5c-9.4,0-16.9-7.6-16.9-16.9v-17.8H83.3v17.8C83.2,331.4,75.7,339,66.3,339z"
		/>
	<circle id="XMLID_1476_" class="st1" cx="-49.7" cy="303.3" r="7"/>
	<circle id="XMLID_1460_" class="st1" cx="60.9" cy="304.2" r="6"/>
	<path id="XMLID_1459_" class="st4" d="M86,310.6H-70c-0.9,0-1.6-0.7-1.6-1.6v-3.1c0-0.9,0.7-1.6,1.6-1.6H86c0.9,0,1.6,0.7,1.6,1.6
		v3.1C87.6,309.9,86.9,310.6,86,310.6z"/>
	<path id="XMLID_1457_" class="st3" d="M22.2,244.3H-7.4c-5.3,0-9.6-4.3-9.6-9.6v-9h48.8v9C31.8,239.9,27.5,244.3,22.2,244.3z"/>
	<path id="XMLID_1456_" class="st3" d="M38.3,285.1h-61.8c-7.2,0-13-5.8-13-13v-8.7h87.9v8.7C51.3,279.3,45.5,285.1,38.3,285.1z"/>
	<path id="XMLID_1461_" class="st4" d="M54,264.2h-92c-0.9,0-1.6-0.7-1.6-1.6v-3.1c0-0.9,0.7-1.6,1.6-1.6h92c0.9,0,1.6,0.7,1.6,1.6
		v3.1C55.7,263.5,54.9,264.2,54,264.2z"/>
	<path id="XMLID_1458_" class="st4" d="M34.3,226.7h-52.6c-0.9,0-1.6-0.7-1.6-1.6V222c0-0.9,0.7-1.6,1.6-1.6h52.7
		c0.9,0,1.6,0.7,1.6,1.6v3.1C36,225.9,35.2,226.7,34.3,226.7z"/>
</g>
<g id="Character">
</g>
</svg>
