<?xml version="1.0" encoding="utf-8"?>
<!-- Generator: Adobe Illustrator 19.0.0, SVG Export Plug-In . SVG Version: 6.00 Build 0)  -->
<svg version="1.1" id="Layer_1" xmlns="http://www.w3.org/2000/svg" xmlns:xlink="http://www.w3.org/1999/xlink" x="0px" y="0px"
	 viewBox="0 0 305 474.4" style="enable-background:new 0 0 305 474.4;" xml:space="preserve">
<style type="text/css">
	.st0{fill:#37474F;}
	.st1{fill:#FFAB00;}
	.st2{fill:#FFCA28;}
	.st3{fill:#FAFAFA;}
	.st4{fill:#82B1FF;}
	.st5{fill:#455A64;}
	.st6{fill:#607D8B;}
	.st7{fill:#FF6E40;}
	.st8{fill:#F4511E;}
	.st9{opacity:0.1;}
	.st10{clip-path:url(#XMLID_18_);}
	.st11{fill:#263238;}
	.st12{fill:#F5F5F5;}
	.st13{fill:#FFFFFF;}
	.st14{fill:#FB8C00;}
	.st15{fill:#FFA726;}
	.st16{opacity:0.1;fill:#212121;enable-background:new    ;}
	.st17{fill:#FF6D00;}
	.st18{fill:#FF9800;}
	.st19{fill:#FF5722;}
	.st20{fill:#BF360C;}
	.st21{fill:#90A4AE;}
	.st22{fill:#78909C;}
	.st23{fill:#FFC400;}
	.st24{fill:#FFF3E0;}
</style>
<g id="XMLID_3_">
	<path id="XMLID_1509_" class="st0" d="M221.6,125.1h43.6c10.2,0,18.6-8.4,18.6-18.6V65.9h-62.2V125.1z"/>
	<g id="XMLID_1506_">
		
			<rect id="XMLID_1508_" x="285" y="153" transform="matrix(-0.993 -0.118 0.118 -0.993 563.9064 382.2197)" class="st1" width="16.6" height="42.8"/>
		<circle id="XMLID_1507_" class="st1" cx="295.8" cy="153.1" r="8.6"/>
	</g>
	<g id="XMLID_1503_">
		
			<rect id="XMLID_1505_" x="193.4" y="153" transform="matrix(0.9957 9.290787e-002 -9.290787e-002 0.9957 17.3379 -17.9996)" class="st1" width="17.1" height="48.3"/>
		<circle id="XMLID_1504_" class="st1" cx="204.2" cy="153.1" r="8.6"/>
	</g>
	<g id="XMLID_1498_">
		
			<rect id="XMLID_1502_" x="263.2" y="288.5" transform="matrix(1 -4.164998e-003 4.164998e-003 1 -1.5656 1.1268)" class="st2" width="13" height="176"/>
		<path id="XMLID_1501_" class="st3" d="M249.4,468.9l-10.9,0c0-6,4.8-10.9,10.9-11C249.3,458,249.4,462.9,249.4,468.9z"/>
		
			<rect id="XMLID_1500_" x="248.8" y="457.9" transform="matrix(1 -4.164998e-003 4.164998e-003 1 -1.9278 1.0982)" class="st3" width="27.9" height="10.9"/>
		
			<rect id="XMLID_1499_" x="238.5" y="468.9" transform="matrix(1 -4.164998e-003 4.164998e-003 1 -1.962 1.0769)" class="st4" width="38.2" height="5.5"/>
	</g>
	<g id="XMLID_1299_">
		
			<rect id="XMLID_1497_" x="221.9" y="288.3" transform="matrix(1 4.164998e-003 -4.164998e-003 1 1.5692 -0.9481)" class="st1" width="13" height="176"/>
		<path id="XMLID_1496_" class="st3" d="M207.3,468.6l-10.9,0c0-6,4.9-10.9,11-10.9C207.3,457.6,207.3,462.5,207.3,468.6z"/>
		
			<rect id="XMLID_1495_" x="206.7" y="457.7" transform="matrix(1 4.164998e-003 -4.164998e-003 1 1.931 -0.9149)" class="st3" width="27.9" height="10.9"/>
		
			<rect id="XMLID_1300_" x="196.4" y="468.6" transform="matrix(1 4.164998e-003 -4.164998e-003 1 1.9649 -0.8932)" class="st4" width="38.2" height="5.5"/>
	</g>
	<path id="XMLID_1298_" class="st5" d="M268.2,433.8l3,0c3.4,0,6.2-2.9,6.2-6.6l13.1-166.2c0-11.8-8.9-21.4-20-21.5h0
		c-11,0-20.1,9.6-20.1,21.3L262,427.2C262,430.8,264.8,433.8,268.2,433.8z"/>
	<path id="XMLID_1297_" class="st6" d="M259.7,224.3l-19.6-0.1c-17-0.1-31,13.8-31,30.8v0c-0.1,20.4,16.5,37.2,36.9,37.2l7.2,0
		c20.4,0.1,37.2-16.5,37.2-36.9v0C290.6,238.3,276.7,224.4,259.7,224.3z"/>
	<path id="XMLID_1296_" class="st6" d="M226.9,433.7l3,0c3.4,0,6.2-2.9,6.2-6.6l13.1-166.2c0-11.8-8.9-21.4-20-21.5h0
		c-11,0-20.1,9.6-20.1,21.3L220.7,427C220.7,430.7,223.5,433.7,226.9,433.7z"/>
	<path id="XMLID_1295_" class="st5" d="M259.7,224.3l-10.7,0l-0.3,68l4.5,0c20.4,0.1,37.2-16.5,37.2-36.9v0
		C290.6,238.3,276.7,224.4,259.7,224.3z"/>
	<path id="XMLID_1252_" class="st7" d="M193.7,174.9l111.2,0.4L305,151c0-10.2-8.3-18.6-18.5-18.6l-74.2-0.3
		c-10.2,0-18.6,8.3-18.6,18.5V174.9z"/>
	<path id="XMLID_1251_" class="st8" d="M249.3,175l55.6,0.2L305,151c0-10.2-8.3-18.6-18.5-18.7l-37.1-0.2L249.3,175z"/>
	<path id="XMLID_1250_" class="st7" d="M232.1,192.1l34.2,0.1c11.8,0,21.4-9.5,21.5-21.3v0c0-11.8-9.5-21.4-21.3-21.5l-34.2-0.1
		c-11.8,0-21.4,9.5-21.5,21.3v0C210.7,182.4,220.3,192,232.1,192.1z"/>
	<path id="XMLID_1249_" class="st8" d="M250,192.2l16.3,0.1c11.8,0,21.4-9.5,21.5-21.3v0c0-11.8-9.5-21.4-21.3-21.5l-16.3-0.1
		L250,192.2z"/>
	<polygon id="XMLID_1248_" class="st7" points="228.2,230.1 271.5,230.3 279.2,180.4 219.3,180.1 	"/>
	<polygon id="XMLID_1247_" class="st8" points="249.9,230.2 271.5,230.3 279.2,180.4 250.1,180.3 	"/>
	<g id="XMLID_1242_">
		
			<rect id="XMLID_1246_" x="236.7" y="93.7" transform="matrix(-1 -4.164998e-003 4.164998e-003 -1 498.5031 235.5506)" class="st1" width="25.7" height="47.1"/>
		<polygon id="XMLID_1245_" class="st2" points="249.3,157.9 270.8,132.3 228,132.1 		"/>
		<g id="XMLID_1243_" class="st9">
			
				<rect id="XMLID_1244_" x="236.7" y="93.7" transform="matrix(-1 -4.164998e-003 4.164998e-003 -1 498.5566 226.9903)" width="25.7" height="38.5"/>
		</g>
	</g>
	<path id="XMLID_1241_" class="st1" d="M249.5,115.1L249.5,115.1c18.8,0.1,34.3-15.3,34.4-34.1l0.1-12.8
		c0.1-18.8-15.3-34.3-34.1-34.4h0c-18.8-0.1-34.3,15.3-34.4,34.1l-0.1,12.8C215.3,99.6,230.7,115,249.5,115.1z"/>
	<path id="XMLID_7_" class="st2" d="M249.5,115.1c18.8,0.1,34.3-15.3,34.4-34.1l0.1-12.8c0.1-18.8-15.3-34.3-34.1-34.4h0
		c-4.7,0-9.2,0.9-13.3,2.6v76.1C240.6,114.2,244.9,115.1,249.5,115.1L249.5,115.1z"/>
	<g id="XMLID_1235_">
		<defs>
			<path id="XMLID_1236_" d="M249.5,115.1L249.5,115.1c18.8,0.1,34.3-15.3,34.4-34.1l0.1-12.8c0.1-18.8-15.3-34.3-34.1-34.4h0
				c-18.8-0.1-34.3,15.3-34.4,34.1l-0.1,12.8C215.3,99.6,230.7,115,249.5,115.1z"/>
		</defs>
		<clipPath id="XMLID_18_">
			<use xlink:href="#XMLID_1236_"  style="overflow:visible;"/>
		</clipPath>
		<g id="XMLID_1237_" class="st10">
			<circle id="XMLID_1239_" class="st11" cx="261.4" cy="41.3" r="27.8"/>
			<circle id="XMLID_1238_" class="st11" cx="214.3" cy="41.1" r="27.8"/>
			<path id="XMLID_2_" class="st11" d="M262.4,69.1c3.5,0,6,0.9,7.6,1.8c7.4,3.9,11.3,14.2,9.9,25.8c5.1-5,10.1-9.9,15.2-14.9
				l-11.2-30.3L262.4,69.1z"/>
		</g>
	</g>
	<path id="XMLID_1234_" class="st12" d="M230.9,98.9c0,3.8,3,6.8,6.7,6.8s6.8-2.9,6.8-6.7"/>
	<path id="XMLID_1229_" class="st5" d="M228.2,235.8l43.3,0.2c3.4,0,6.2-2.8,6.2-6.2l0-6.2c0-3.4-2.8-6.2-6.2-6.2l-43.3-0.2
		c-3.4,0-6.2,2.8-6.2,6.2l0,6.2C222,233,224.8,235.8,228.2,235.8z"/>
	<path id="XMLID_1228_" class="st5" d="M222.2,433.6l12.4,0.1c1.7,0,3.1-1.4,3.1-3.1v0c0-1.7-1.4-3.1-3.1-3.1l-12.4-0.1
		c-1.7,0-3.1,1.4-3.1,3.1l0,0C219.1,432.2,220.5,433.6,222.2,433.6z"/>
	<path id="XMLID_1227_" class="st6" d="M263.9,433.8l12.4,0.1c1.7,0,3.1-1.4,3.1-3.1l0,0c0-1.7-1.4-3.1-3.1-3.1l-12.4-0.1
		c-1.7,0-3.1,1.4-3.1,3.1l0,0C260.8,432.4,262.2,433.8,263.9,433.8z"/>
	<path id="XMLID_1226_" class="st6" d="M249,235.9l22.5,0.1c3.4,0,6.2-2.8,6.2-6.2l0-6.2c0-3.4-2.8-6.2-6.2-6.2l-22.5-0.1L249,235.9
		z"/>
	<g id="XMLID_1219_">
		<path id="XMLID_1224_" class="st1" d="M157,202.8l0.1,1c0.5,6.8-4.6,12.8-11.4,13.3l-18.1,1.3c-6.8,0.5-12.8-4.6-13.3-11.4l-0.1-1
			c-0.5-6.8,4.6-12.8,11.4-13.3l18.1-1.3C150.6,190.9,156.5,196,157,202.8z"/>
		<g id="XMLID_1220_">
			
				<rect id="XMLID_1223_" x="165.5" y="176.4" transform="matrix(-7.411317e-002 -0.9972 0.9972 -7.411317e-002 -14.9303 391.041)" class="st1" width="17.1" height="52.1"/>
			<circle id="XMLID_1222_" class="st1" cx="200.1" cy="200.5" r="8.6"/>
			<circle id="XMLID_1221_" class="st1" cx="149.6" cy="204.3" r="8.6"/>
		</g>
	</g>
	<g id="Layer_2_2_">
		<g id="XMLID_892_">
			<g id="XMLID_981_">
				<g id="XMLID_1039_">
					<circle id="XMLID_1217_" class="st11" cx="77.9" cy="181.8" r="11.9"/>
					
						<rect id="XMLID_1216_" x="75.8" y="180.3" transform="matrix(0.95 -0.3123 0.3123 0.95 -61.5796 37.9229)" class="st11" width="23.7" height="61.8"/>
				</g>
				<g id="XMLID_984_">
					<g id="XMLID_1035_">
						<circle id="XMLID_1038_" class="st13" cx="102.2" cy="251.9" r="11.9"/>
						<circle id="XMLID_1037_" class="st13" cx="98.5" cy="240.7" r="11.9"/>
						
							<rect id="XMLID_1036_" x="88.5" y="240.5" transform="matrix(0.95 -0.3123 0.3123 0.95 -71.9348 43.6579)" class="st13" width="23.7" height="11.9"/>
					</g>
					<g id="XMLID_985_">
						<circle id="XMLID_1033_" class="st14" cx="104" cy="257.6" r="11.9"/>
						<circle id="XMLID_987_" class="st14" cx="100.3" cy="246.3" r="11.9"/>
						
							<rect id="XMLID_986_" x="90.3" y="246.1" transform="matrix(0.95 -0.3123 0.3123 0.95 -73.6003 44.5174)" class="st14" width="23.7" height="11.9"/>
					</g>
				</g>
				<circle id="XMLID_983_" class="st11" cx="77.9" cy="146.2" r="11.9"/>
				<rect id="XMLID_982_" x="66" y="145" class="st11" width="23.8" height="34.7"/>
			</g>
			<path id="XMLID_976_" class="st5" d="M71.1,53.2L71.1,53.2c-3.2,0-5.9-2.7-5.9-5.9V20.6c0-3.2,2.7-5.9,5.9-5.9l0,0
				c3.2,0,5.9,2.7,5.9,5.9v26.7C77,50.6,74.3,53.2,71.1,53.2z"/>
			<rect id="XMLID_975_" x="35.6" y="106.7" class="st14" width="25.1" height="35.6"/>
			<path id="XMLID_974_" class="st15" d="M17.8,82.9V47.3c0-16.3,13.3-29.6,29.6-29.6l0,0C63.7,17.7,77,31,77,47.3V83
				c0,16.3-13.3,29.6-29.6,29.6l0,0C31.1,112.6,17.7,99.2,17.8,82.9z"/>
			<path id="XMLID_973_" class="st16" d="M17.8,82.9V47.3c0-16.3,13.3-29.6,29.6-29.6l0,0v94.9l0,0C31.1,112.6,17.7,99.2,17.8,82.9z
				"/>
			<path id="XMLID_972_" class="st5" d="M59.3,278.6H35.6C16,278.6,0,262.6,0,243.1V160c0-19.5,16-35.6,35.6-35.6h23.7
				c19.5,0,35.6,16,35.6,35.6v83.1C94.9,262.6,78.9,278.6,59.3,278.6z"/>
			<path id="XMLID_971_" class="st6" d="M35.6,124.4h11.9v154.3H35.6C16,278.7,0,262.7,0,243.2v-83.1C0,140.5,16,124.4,35.6,124.4z"
				/>
			<path id="XMLID_970_" class="st6" d="M59.3,243.1H0V160c0-19.5,16-35.6,35.6-35.6h23.7V243.1z"/>
			<rect id="XMLID_969_" x="17.8" y="266.8" class="st6" width="23.7" height="207.6"/>
			<rect id="XMLID_968_" x="53.3" y="266.8" class="st5" width="23.7" height="207.6"/>
			<g id="XMLID_959_">
				<rect id="XMLID_967_" x="53.3" y="451.8" class="st17" width="25" height="15.9"/>
				<path id="XMLID_963_" class="st17" d="M86.9,467.7h13.4c0-7.4-6-13.4-13.4-13.4C86.9,454.3,86.9,460.3,86.9,467.7z"/>
				<rect id="XMLID_962_" x="53.3" y="454.4" class="st17" width="35" height="13.3"/>
				<rect id="XMLID_961_" x="53.3" y="467.2" class="st17" width="47" height="7.2"/>
			</g>
			<g id="XMLID_954_">
				<rect id="XMLID_958_" x="18" y="451.8" class="st18" width="25" height="15.9"/>
				<path id="XMLID_957_" class="st18" d="M51.6,467.7H65c0-7.4-6-13.4-13.4-13.4C51.6,454.3,51.6,460.3,51.6,467.7z"/>
				<rect id="XMLID_956_" x="18" y="454.4" class="st18" width="35" height="13.3"/>
				<rect id="XMLID_955_" x="18" y="467.2" class="st18" width="47" height="7.2"/>
			</g>
			<rect id="XMLID_953_" x="33.6" y="124.4" class="st3" width="27.8" height="118.6"/>
			<rect id="XMLID_952_" x="41.5" y="124.4" class="st19" width="11.9" height="97.8"/>
			<rect id="XMLID_951_" x="0" y="243.1" class="st20" width="94.9" height="5.9"/>
			<rect id="XMLID_950_" x="5.9" y="201.6" class="st6" width="23.7" height="41.5"/>
			<path id="XMLID_949_" class="st21" d="M80.1,237.1L80.1,237.1c-1.7,0-3-1.4-3-3v-29.6c0-1.7,1.4-3,3-3l0,0c1.7,0,3,1.4,3,3v29.6
				C83.1,235.8,81.7,237.1,80.1,237.1z"/>
			<path id="XMLID_948_" class="st22" d="M14.9,237.1L14.9,237.1c-1.7,0-3-1.4-3-3v-29.6c0-1.7,1.4-3,3-3l0,0c1.7,0,3,1.4,3,3v29.6
				C17.8,235.8,16.4,237.1,14.9,237.1z"/>
			<rect id="XMLID_947_" x="41.5" y="243.1" class="st23" width="11.9" height="5.9"/>
			<path id="XMLID_946_" class="st13" d="M57.7,91.6c-7.3,0-7.6-6.2-7.6-6.2h14.2v6.2C64.4,91.6,64.8,91.6,57.7,91.6z"/>
			<path id="XMLID_941_" class="st5" d="M17.8,23.6v-1.8c0-3.2,2.7-5.9,5.9-5.9h47.4c3.2,0,5.9,2.7,5.9,5.9v1.8
				c0,3.2-2.7,5.9-5.9,5.9H23.6C20.4,29.5,17.7,26.8,17.8,23.6z"/>
			<path id="XMLID_940_" class="st5" d="M23.7,59.2L23.7,59.2c-3.2,0-5.9-2.7-5.9-5.9V23.6c0-3.2,2.7-5.9,5.9-5.9l0,0
				c3.2,0,5.9,2.7,5.9,5.9v29.6C29.6,56.6,26.9,59.2,23.7,59.2z"/>
			<path id="XMLID_939_" class="st5" d="M58.1,0C64.4,0,73,6.5,73,14.8c0,8.2-8.6,14.9-14.9,14.9V0z"/>
			
				<rect id="XMLID_938_" x="43.2" y="218.1" transform="matrix(-0.7071 -0.7071 0.7071 -0.7071 -76.2219 413.1368)" class="st19" width="8.4" height="8.4"/>
			<g id="XMLID_934_">
				<circle id="XMLID_937_" class="st6" cx="40" cy="206" r="11.9"/>
				<circle id="XMLID_936_" class="st6" cx="13.8" cy="152.8" r="11.9"/>
				
					<rect id="XMLID_935_" x="-2.9" y="167.5" transform="matrix(0.4403 0.8979 -0.8979 0.4403 176.0238 76.3067)" class="st6" width="59.4" height="23.7"/>
			</g>
			<g id="XMLID_925_">
				<g id="XMLID_931_">
					<circle id="XMLID_933_" class="st21" cx="105.2" cy="205.4" r="11.9"/>
					
						<rect id="XMLID_932_" x="59.6" y="171.7" transform="matrix(1.876206e-003 1 -1 1.876206e-003 276.7645 133.5986)" class="st6" width="23.7" height="67.4"/>
				</g>
				<circle id="XMLID_930_" class="st14" cx="117.1" cy="205.4" r="11.9"/>
				<circle id="XMLID_929_" class="st24" cx="99.2" cy="205.4" r="11.9"/>
				
					<rect id="XMLID_928_" x="93.5" y="199.6" transform="matrix(1.876206e-003 1 -1 1.876206e-003 310.5071 99.6655)" class="st24" width="23.7" height="11.5"/>
				<circle id="XMLID_927_" class="st14" cx="105.2" cy="205.4" r="11.9"/>
				
					<rect id="XMLID_926_" x="99.4" y="199.6" transform="matrix(1.876206e-003 1 -1 1.876206e-003 316.411 93.7283)" class="st14" width="23.7" height="11.5"/>
			</g>
		</g>
	</g>
	<g id="XMLID_880_">
		<path id="XMLID_890_" class="st2" d="M279,236l-1-0.3c-6.6-1.8-13.4,2-15.3,8.6l-4.9,17.5c-1.8,6.6,2,13.4,8.6,15.3l1,0.3
			c6.6,1.8,13.4-2,15.3-8.6l4.9-17.5C289.4,244.7,285.6,237.9,279,236z"/>
		<g id="XMLID_882_">
			
				<rect id="XMLID_888_" x="275.1" y="193.3" transform="matrix(0.9632 0.2686 -0.2686 0.9632 69.3728 -68.1421)" class="st2" width="17.1" height="52.1"/>
			<circle id="XMLID_886_" class="st2" cx="290.7" cy="194.3" r="8.6"/>
			<circle id="XMLID_884_" class="st2" cx="277.1" cy="243" r="8.6"/>
		</g>
	</g>
	<path id="XMLID_853_" class="st14" d="M144.9,206.1l0-1.9c0.1-6.8-5.5-12.4-12.3-12.5l-19.8-0.2c-6.8-0.1-12.4,5.5-12.5,12.3l0,1.9
		c-0.1,6.8,5.5,12.4,12.3,12.5l19.8,0.2C139.2,218.4,144.8,212.9,144.9,206.1z"/>
</g>
</svg>
