<?xml version="1.0" encoding="utf-8"?>
<!-- Generator: Adobe Illustrator 19.0.0, SVG Export Plug-In . SVG Version: 6.00 Build 0)  -->
<svg version="1.1" xmlns="http://www.w3.org/2000/svg" xmlns:xlink="http://www.w3.org/1999/xlink" x="0px" y="0px"
	 viewBox="0 0 218 470" style="enable-background:new 0 0 218 470;" xml:space="preserve">
<style type="text/css">
	.st0{fill:#FFAB00;}
	.st1{fill:#455A64;}
	.st2{fill:#FFF176;}
	.st3{fill:#FDD835;}
	.st4{fill:#263238;}
	.st5{fill:#4DB6AC;}
	.st6{fill:#A6DAD5;}
	.st7{opacity:0.5;fill:#FFFFFF;}
</style>
<g id="Ground">
</g>
<g id="Aircrafts">
</g>
<g id="Clouds">
</g>
<g id="Trees">
</g>
<g id="Character">
	<path id="XMLID_2231_" class="st0" d="M116.7,94.3V44.6c0-19,15.5-34.8,34.5-34.5c18.3,0.4,33.1,15.3,33.1,33.8v17.6c0,0,0,0,0,0
		h9.2c0,0,0,0,0,0V41.8c0-22.6-18.3-40.9-40.9-40.9h-3.3c-22.6,0-40.9,18.3-40.9,40.9v52.5c0,0,0,0,0,0L116.7,94.3
		C116.6,94.3,116.7,94.3,116.7,94.3z"/>
	<path id="XMLID_2230_" class="st0" d="M100,94.3V44.6c0-19-15.5-34.8-34.5-34.5c-18.3,0.4-33.1,15.3-33.1,33.8v17.6c0,0,0,0,0,0
		h-9.2c0,0,0,0,0,0V41.8c0-22.6,18.3-40.9,40.9-40.9h3.3c22.6,0,40.9,18.3,40.9,40.9v52.5c0,0,0,0,0,0L100,94.3
		C100,94.3,100,94.3,100,94.3z"/>
	<rect id="XMLID_2229_" x="95.9" y="251.5" class="st1" width="25" height="151.5"/>
	<path id="XMLID_2228_" class="st1" d="M123.1,408.9H94.2v-8.2c0-1.4,1.1-2.5,2.5-2.5h23.8c1.4,0,2.5,1.1,2.5,2.5V408.9z"/>
	<path id="XMLID_2095_" class="st1" d="M126.6,417H90.5v-6.4c0-1.4,1.1-2.5,2.5-2.5h31c1.4,0,2.5,1.1,2.5,2.5V417z"/>
	<path id="XMLID_2094_" class="st1" d="M126.5,446.6H89.8c-1.8,0-3.3-1.5-3.3-3.3v-23.1c0-1.8,1.5-3.3,3.3-3.3h36.7
		c1.8,0,3.3,1.5,3.3,3.3v23.1C129.8,445.2,128.3,446.6,126.5,446.6z"/>
	<path id="XMLID_2093_" class="st1" d="M135.4,450.4H81.9v-4.3c0-1.8,1.5-3.3,3.3-3.3h46.9c1.8,0,3.3,1.5,3.3,3.3V450.4z"/>
	<path id="XMLID_2092_" class="st1" d="M140.4,459.7H75.9v-6.3c0-1.8,1.5-3.3,3.3-3.3h57.9c1.8,0,3.3,1.5,3.3,3.3V459.7z"/>
	<rect id="XMLID_2091_" x="99.9" y="93" class="st0" width="17.1" height="166"/>
	<path id="XMLID_2090_" class="st1" d="M38.9,47.6H17.2v-3c0-1.8,1.5-3.3,3.3-3.3h15.2c1.8,0,3.3,1.5,3.3,3.3V47.6z"/>
	<path id="XMLID_2089_" class="st1" d="M120.8,77.9h-25V76c0-1.7,1.4-3.1,3.1-3.1h18.7c1.7,0,3.1,1.4,3.1,3.1V77.9z"/>
	<path id="XMLID_2088_" class="st1" d="M96.1,95.5h24.5v1.9c0,1.7-1.4,3.1-3.1,3.1H99.2c-1.7,0-3.1-1.4-3.1-3.1V95.5z"/>
	<path id="XMLID_2087_" class="st1" d="M43,53.7H13.1v-3c0-1.8,1.5-3.3,3.3-3.3h23.3c1.8,0,3.3,1.5,3.3,3.3V53.7z"/>
	<path id="XMLID_2086_" class="st1" d="M121.1,95.5H95.8c-1.1,0-2-0.9-2-2V80c0-1.1,0.9-2,2-2h25.3c1.1,0,2,0.9,2,2v13.5
		C123.1,94.6,122.2,95.5,121.1,95.5z"/>
	<path id="XMLID_2085_" class="st1" d="M94.7,256.2H122v4.5c0,1.2-1,2.2-2.2,2.2H96.9c-1.2,0-2.2-1-2.2-2.2V256.2z"/>
	<path id="XMLID_2084_" class="st1" d="M122,256.2H94.7v-5.2c0-1,0.8-1.8,1.8-1.8h23.7c1,0,1.8,0.8,1.8,1.8V256.2z"/>
	<path id="XMLID_2083_" class="st2" d="M189,110.6L189,110.6c-10.1,0-18.3-8.2-18.3-18.3V53.6h36.6v38.7
		C207.3,102.3,199.1,110.6,189,110.6z"/>
	<path id="XMLID_2082_" class="st3" d="M189,110.6L189,110.6v-57h18.3v38.7C207.3,102.3,199.1,110.6,189,110.6z"/>
	<path id="XMLID_2081_" class="st2" d="M28,110.6L28,110.6c-10.1,0-18.3-8.2-18.3-18.3V53.6h36.6v38.7
		C46.3,102.3,38.1,110.6,28,110.6z"/>
	<path id="XMLID_2080_" class="st3" d="M28,110.6L28,110.6v-57h18.3v38.7C46.3,102.3,38.1,110.6,28,110.6z"/>
	<path id="XMLID_2079_" class="st4" d="M55.5,61.4h-53C1.1,61.4,0,60.3,0,59v-2.9c0-1.4,1.1-2.4,2.4-2.4h53c1.4,0,2.4,1.1,2.4,2.4
		V59C57.9,60.3,56.8,61.4,55.5,61.4z"/>
	<path id="XMLID_2078_" class="st1" d="M199,47.6h-21.8v-3c0-1.8,1.5-3.3,3.3-3.3h15.2c1.8,0,3.3,1.5,3.3,3.3V47.6z"/>
	<path id="XMLID_2077_" class="st1" d="M203,53.7h-29.8v-3c0-1.8,1.5-3.3,3.3-3.3h23.3c1.8,0,3.3,1.5,3.3,3.3V53.7z"/>
	<path id="XMLID_2076_" class="st4" d="M215.5,61.4h-53c-1.4,0-2.4-1.1-2.4-2.4v-2.9c0-1.4,1.1-2.4,2.4-2.4h53
		c1.4,0,2.4,1.1,2.4,2.4V59C218,60.3,216.9,61.4,215.5,61.4z"/>
	<path id="XMLID_2074_" class="st5" d="M53.9,466.6H8c-4.4,0-8-3.6-8-8V389c0-4.4,3.6-8,8-8h45.9c4.4,0,8,3.6,8,8v69.7
		C61.9,463,58.3,466.6,53.9,466.6z"/>
	<rect id="XMLID_2073_" x="1.7" y="464.6" class="st6" width="58.6" height="5.4"/>
	<path id="XMLID_2072_" class="st6" d="M1.7,382.5h58.5l0-7c-3.3-14.9-16.9-25.1-31.4-24c-13,0.9-24.1,10.8-27,24.2
		C1.5,377.6,1.8,382.5,1.7,382.5C1.7,382.5,1.7,382.5,1.7,382.5z"/>
	<path id="XMLID_2071_" class="st4" d="M9.6,365.7c-0.3,0.4-1.3,1.6-1.3,3.4c0,1.6,0.1,2.7,1.3,3.7c3.7,2.1,11.2,4.5,21.1,4.6
		c10.5,0.1,18.7-2.3,22.2-4.6c0.7-0.4,1.3-2.2,1.3-3.5c0-1.8-1-3.1-1.3-3.5c-0.8-0.9-8.4-9.8-21.9-9.7
		C17.9,356.1,10.4,364.8,9.6,365.7z"/>
	<path id="XMLID_1_" class="st7" d="M53.9,464.6H8c-4.4,0-8-3.6-8-8v-66.1c0-4.4,3.6-8,8-8h45.9c4.4,0,8,3.6,8,8v66.1
		C61.9,461,58.3,464.6,53.9,464.6z"/>
	<g id="XMLID_2004_">
		<path id="XMLID_2070_" class="st5" d="M57.8,466.6h-5.4V381h5.4c2.3,0,4.1,1.8,4.1,4.1v77.5C61.9,464.8,60.1,466.6,57.8,466.6z"/>
		<path id="XMLID_2007_" class="st5" d="M4.1,381h5.4v85.7H4.1c-2.3,0-4.1-1.8-4.1-4.1L0,385C0,382.8,1.8,381,4.1,381z"/>
		<rect id="XMLID_2006_" x="17" y="381" class="st5" width="10.4" height="85.6"/>
		<rect id="XMLID_2005_" x="34.5" y="381" class="st5" width="10.4" height="85.6"/>
	</g>
</g>
</svg>
