<?xml version="1.0" encoding="utf-8"?>
<!-- Generator: Adobe Illustrator 19.0.0, SVG Export Plug-In . SVG Version: 6.00 Build 0)  -->
<svg version="1.1" xmlns="http://www.w3.org/2000/svg" xmlns:xlink="http://www.w3.org/1999/xlink" x="0px" y="0px"
	 viewBox="0 0 218.5 252.5" style="enable-background:new 0 0 218.5 252.5;" xml:space="preserve">
<style type="text/css">
	.st0{fill:#FFCA28;}
	.st1{fill:#FFAB00;}
	.st2{fill:#A1887F;}
	.st3{fill:#C6FF00;}
	.st4{fill:#C0F700;}
</style>
<g id="Layer_1">
	<circle id="XMLID_68_" class="st0" cx="149" cy="68.9" r="69.5"/>
	<path id="XMLID_67_" class="st1" d="M218.5,68.9c0,38.4-31.1,69.5-69.5,69.5V-0.6C187.4-0.6,218.5,30.5,218.5,68.9z"/>
	<polygon id="XMLID_28_" class="st2" points="145.8,252.6 153.2,252.6 153.3,106.6 188.5,84.4 188.5,75.2 153.3,97.1 153.4,77 
		180.1,60.7 180.1,52.1 153.2,68.7 153.2,22.6 145.1,22.6 145.3,80 121.8,53.2 121.8,64.3 145.1,92.4 	"/>
	<circle id="XMLID_153_" class="st3" cx="59" cy="98.3" r="58.7"/>
	<path id="XMLID_152_" class="st4" d="M117.7,98.3c0,32.4-26.3,58.7-58.7,58.7V39.6C91.4,39.6,117.7,65.9,117.7,98.3z"/>
	<polygon id="XMLID_151_" class="st2" points="57.2,252.4 63.6,252.4 63.7,111.2 86.8,98.6 86.8,91.4 63.7,103.9 63.5,65.3 
		56.6,65.3 56.8,115.2 36.5,91.1 36.5,100.5 56.6,124.2 	"/>
</g>
<g id="Layer_2">
</g>
</svg>
