<?xml version="1.0" encoding="utf-8"?>
<!-- Generator: Adobe Illustrator 19.0.0, SVG Export Plug-In . SVG Version: 6.00 Build 0)  -->
<svg version="1.1" id="Layer_1" xmlns="http://www.w3.org/2000/svg" xmlns:xlink="http://www.w3.org/1999/xlink" x="0px" y="0px"
	 viewBox="-58 136 550 89" style="enable-background:new -58 136 550 89;" xml:space="preserve">
<style type="text/css">
	.st0{fill:#FFFFFF;}
	.st1{fill:#263238;}
	.st2{fill:#FFAB00;}
	.st3{fill:#FF9100;}
	.st4{fill:#FF6D00;}
	.st5{display:none;}
</style>
<g id="Sky">
</g>
<g id="Ground">
</g>
<g id="Background_Buildings">
	<path class="st0" d="M-2.1,148.1c2.1,1,4.3,2.1,6.4,3.1c1.7,5,3.4,9.9,5.1,14.9l-17.4,14l17.8,12.7c-1.6,2.5-3.7,5.3-6.5,7.9
		c-0.7,0.6-1.3,1.2-2,1.7c-5.8-1.7-11.7-3.4-17.5-5.2l-7.5,25.1l-12.5-12.4c0.7-4.9,1.4-15.4-3.1-27.3
		c-4.7-12.2-12.5-19.6-16.3-22.8c0.7-1.9,1.7-4.1,3.2-6.5c1.5-2.3,3-4.2,4.3-5.6c3.8,9.9,13.5,16.4,23.9,16
		C-14.5,163.4-5.8,157.3-2.1,148.1z"/>
	<circle class="st0" cx="-25.4" cy="149.8" r="12.4"/>
	<polygon class="st1" points="109,145.7 78,179 111.5,214.1 111.5,214.9 95.3,214.9 66.2,184.1 66.2,214.9 53.1,214.9 53.1,145.3 
		66.2,145.3 66.2,174.7 92.7,145.3 109,145.3 	"/>
	<path class="st1" d="M159.3,159.9l-12.9,29.6h25.8L159.3,159.9z M177.5,201.8h-36.4l-6,13.1H121l31.2-69.6h14.3l31.2,69.6h-14.3
		L177.5,201.8z"/>
	<polygon class="st1" points="227.7,145.3 227.7,202.8 263.5,202.8 263.5,214.9 214.6,214.9 214.6,145.3 	"/>
	<rect x="282.8" y="145.3" class="st1" width="13" height="69.6"/>
	<path class="st1" d="M330.2,202.3h14.3c15.8,0,22.1-11.5,21.8-22.9c-0.3-10.8-6.7-21.7-21.8-21.7h-14.3V202.3z M379.3,179.5
		c0.3,17.6-10.4,35.4-34.8,35.4h-27.3v-69.6h27.3C368.4,145.3,379,162.3,379.3,179.5"/>
	<path class="st1" d="M406.5,180.8c0.3,11.4,6.5,23.7,22.9,23.7s22.6-12.3,22.8-23.8c0.2-11.7-6.4-24.8-22.8-24.8
		C412.9,155.8,406.2,169.1,406.5,180.8 M465,180.5c-0.2,18-11.2,36-35.7,36s-35.8-17.6-35.8-35.9s11.7-36.7,35.8-36.7
		C453.3,143.9,465.2,162.3,465,180.5"/>
	<path class="st2" d="M-35.6,146.1c2-5.7,8.3-8.6,14-6.6s8.6,8.3,6.6,14s-8.3,8.6-14,6.6C-34.7,158-37.6,151.7-35.6,146.1
		 M-40.4,160.5c6,5.4,17.4,12.3,33.3-2.2l4-4.1c1.7-1.7,4.4-1.8,6.2-0.2c1.8,1.5,1.8,4.2,0.2,5.8l-6.1,6.2c-5,6-13,14.9-2.2,21.9
		l13.2,6.4c0.2,0.1,0.3,0.2,0.5,0.3c10.5-14.4,9.3-34.8-3.7-47.8c-14.4-14.4-37.7-14.4-52.1,0c-1.3,1.3-2.5,2.7-3.6,4.1
		C-48.8,152.7-42.1,158.9-40.4,160.5"/>
	<path class="st3" d="M-22.9,201.9l-1.4,19.8c0,0,0,0,0,0.1c1.9,1.9,3.2,3.2,3.2,3.2s17.9-17.9,24-24
		C-4.1,196.9-21.8,186.4-22.9,201.9"/>
	<path class="st4" d="M-33.1,211.3c-0.4-24.7-5.1-34.9-14.3-45.5l-7.7-7.3c-5.7,13.4-3,29.5,7.9,40.4c0.1,0.1,7.3,7.3,14.2,14.2
		L-33.1,211.3z"/>
</g>
<g id="White_Screen" class="st5">
</g>
<g id="Clouds">
</g>
<g id="Trees">
</g>
<g id="Character">
</g>
<g>
	<path class="st1" d="M469.7,146.7h-3.6v-1.9c3.2,0,6,0,9.2,0v1.9h-3.6v9.3h-2.1V146.7z"/>
	<path class="st1" d="M486.4,147.9l-3.6,4.9h-0.4l-3.6-4.9v8.1h-2.1v-11.2h2.4l3.5,4.8l3.5-4.8h2.4V156h-2.1V147.9z"/>
</g>
</svg>
