<?xml version="1.0" encoding="utf-8"?>
<!-- Generator: Adobe Illustrator 19.0.0, SVG Export Plug-In . SVG Version: 6.00 Build 0)  -->
<svg version="1.1" id="Layer_1" xmlns="http://www.w3.org/2000/svg" xmlns:xlink="http://www.w3.org/1999/xlink" x="0px" y="0px"
	 viewBox="8 81 656 200" style="enable-background:new 8 81 656 200;" xml:space="preserve">
<style type="text/css">
	.st0{fill:#FFFFFF;}
	.st1{fill:#263238;}
	.st2{fill:#FFAB00;}
	.st3{fill:#FF9100;}
	.st4{fill:#FF6D00;}
	.st5{display:none;}
	.st6{enable-background:new    ;}
</style>
<g id="Sky">
</g>
<g id="Ground">
</g>
<g id="Background_Buildings">
	<path class="st0" d="M117.6,106.3c2.1,1,4.3,2.1,6.4,3.1c1.7,5,3.4,9.9,5.1,14.9l-17.4,14l17.8,12.7c-1.6,2.5-3.7,5.3-6.5,7.9
		c-0.7,0.6-1.3,1.2-2,1.7c-5.8-1.7-11.7-3.4-17.5-5.2L96,180.7l-12.5-12.4c0.7-4.9,1.4-15.4-3.1-27.4C75.7,128.7,67.8,121.3,64,118
		c0.7-1.9,1.7-4.1,3.2-6.5c1.5-2.3,3-4.2,4.3-5.6c3.8,9.9,13.5,16.4,23.9,16C105.2,121.7,113.9,115.5,117.6,106.3z"/>
	<circle class="st0" cx="94.3" cy="108" r="12.4"/>
	<polygon class="st1" points="228.9,104.9 197.9,138.3 231.5,173.4 231.5,174.2 215.2,174.2 186.1,143.4 186.1,174.2 172.9,174.2 
		172.9,104.5 186.1,104.5 186.1,134 212.6,104.5 228.9,104.5 	"/>
	<path class="st1" d="M279.3,119.1l-12.9,29.7h25.8L279.3,119.1z M297.6,161.1h-36.5l-6,13.1H241l31.3-69.7h14.3l31.3,69.7h-14.3
		L297.6,161.1z"/>
	<polygon class="st1" points="347.9,104.5 347.9,162.1 383.7,162.1 383.7,174.2 334.7,174.2 334.7,104.5 	"/>
	<rect x="403.1" y="104.5" class="st1" width="13" height="69.7"/>
	<path class="st1" d="M450.6,161.6h14.3c15.8,0,22.1-11.5,21.8-22.9c-0.3-10.8-6.7-21.7-21.8-21.7h-14.3V161.6z M499.8,138.8
		c0.3,17.6-10.4,35.5-34.9,35.5h-27.4v-69.7h27.4C488.8,104.5,499.5,121.5,499.8,138.8"/>
	<path class="st1" d="M527,140.1c0.3,11.4,6.5,23.7,22.9,23.7s22.6-12.3,22.8-23.8c0.2-11.7-6.4-24.8-22.8-24.8
		C533.4,115,526.7,128.4,527,140.1 M585.6,139.8c-0.2,18-11.2,36.1-35.8,36.1s-35.9-17.6-35.9-36s11.7-36.8,35.9-36.8
		C573.9,103.1,585.8,121.5,585.6,139.8"/>
	<path class="st2" d="M84.1,104.3c2-5.7,8.3-8.6,14-6.6c5.7,2,8.6,8.3,6.6,14c-2,5.7-8.3,8.6-14,6.6C85,116.2,82.1,109.9,84.1,104.3
		 M79.3,118.7c6,5.4,17.4,12.3,33.4-2.2l4-4.1c1.7-1.7,4.4-1.8,6.2-0.2c1.8,1.5,1.8,4.2,0.2,5.8l-6.1,6.2c-5,6-13,14.9-2.2,21.9
		l13.2,6.4c0.2,0.1,0.3,0.2,0.5,0.3c10.5-14.4,9.3-34.9-3.7-47.9c-14.4-14.4-37.8-14.4-52.2,0c-1.3,1.3-2.5,2.7-3.6,4.1
		C70.8,110.9,77.6,117.1,79.3,118.7"/>
	<path class="st3" d="M96.8,160.2l-1.4,19.8c0,0,0,0,0,0.1c1.9,1.9,3.2,3.2,3.2,3.2s17.9-17.9,24-24
		C115.6,155.2,97.9,144.7,96.8,160.2"/>
	<path class="st4" d="M86.6,169.6c-0.4-24.7-5.1-35-14.3-45.6l-7.7-7.3c-5.7,13.4-3,29.6,7.9,40.5c0.1,0.1,7.3,7.3,14.2,14.2
		L86.6,169.6z"/>
</g>
<g id="White_Screen" class="st5">
</g>
<g id="Clouds">
</g>
<g id="Trees">
</g>
<g id="Character">
</g>
<g class="st6">
	<path class="st1" d="M148.5,229.7l11.3-21.1h2.9l-12.8,23.7v14.9h-2.8v-14.7l-12.9-23.9h3.1L148.5,229.7z"/>
	<path class="st1" d="M191.2,232.8c0,4.7-1.1,8.3-3.4,11s-5.4,3.9-9.4,3.9c-2.5,0-4.7-0.6-6.6-1.8c-1.9-1.2-3.4-3-4.4-5.2
		c-1-2.3-1.5-4.9-1.5-7.9c0-4.7,1.1-8.3,3.4-10.9c2.3-2.6,5.4-3.9,9.3-3.9c3.9,0,7,1.3,9.3,4S191.2,228.2,191.2,232.8z M168.6,232.8
		c0,3.9,0.9,7,2.6,9.2c1.7,2.2,4.2,3.3,7.3,3.3s5.6-1.1,7.3-3.3c1.7-2.2,2.6-5.3,2.6-9.2c0-4-0.9-7-2.6-9.2
		c-1.7-2.2-4.2-3.3-7.4-3.3s-5.6,1.1-7.3,3.3C169.5,225.8,168.6,228.9,168.6,232.8z"/>
	<path class="st1" d="M201.4,218.5v18.6c0,2.9,0.6,5,1.8,6.3c1.2,1.3,3.1,2,5.6,2c3.4,0,5.9-0.9,7.5-2.6s2.4-4.5,2.4-8.4v-15.8h2.6
		v28.7h-2.2l-0.5-4h-0.2c-1.9,3-5.2,4.5-9.9,4.5c-6.5,0-9.8-3.5-9.8-10.5v-18.7H201.4z"/>
	<path class="st1" d="M262.8,239.7c0,2.6-1,4.5-2.9,5.9c-2,1.4-4.7,2.1-8.3,2.1c-3.8,0-6.9-0.6-9.1-1.8v-2.8
		c2.9,1.4,5.9,2.2,9.1,2.2c2.8,0,5-0.5,6.4-1.4c1.5-0.9,2.2-2.2,2.2-3.8c0-1.4-0.6-2.7-1.8-3.6c-1.2-1-3.1-2-5.8-2.9
		c-2.9-1-4.9-1.9-6-2.7s-2-1.6-2.6-2.5c-0.6-0.9-0.9-2.1-0.9-3.4c0-2.1,0.9-3.8,2.7-5.1c1.8-1.2,4.3-1.9,7.6-1.9
		c3.1,0,6,0.6,8.8,1.7l-1,2.4c-2.8-1.2-5.4-1.7-7.8-1.7c-2.3,0-4.2,0.4-5.6,1.2s-2.1,1.8-2.1,3.2c0,1.5,0.5,2.7,1.6,3.6
		c1.1,0.9,3.1,1.9,6.2,3c2.6,0.9,4.5,1.8,5.6,2.5c1.2,0.7,2.1,1.6,2.6,2.5C262.5,237.3,262.8,238.5,262.8,239.7z"/>
	<path class="st1" d="M290.2,247.2v-18.6c0-2.9-0.6-5-1.8-6.3s-3.1-2-5.6-2c-3.4,0-5.9,0.9-7.5,2.6c-1.6,1.7-2.4,4.5-2.4,8.4v15.8
		h-2.6v-41h2.6v13.1l-0.1,3.7h0.2c1.1-1.7,2.4-3,4.1-3.7s3.7-1.2,6.1-1.2c6.5,0,9.8,3.5,9.8,10.5v18.7H290.2z"/>
	<path class="st1" d="M325.7,232.8c0,4.7-1.1,8.3-3.4,11s-5.4,3.9-9.4,3.9c-2.5,0-4.7-0.6-6.6-1.8c-1.9-1.2-3.4-3-4.4-5.2
		c-1-2.3-1.5-4.9-1.5-7.9c0-4.7,1.1-8.3,3.4-10.9c2.3-2.6,5.4-3.9,9.3-3.9c3.9,0,7,1.3,9.3,4S325.7,228.2,325.7,232.8z M303.1,232.8
		c0,3.9,0.9,7,2.6,9.2c1.7,2.2,4.2,3.3,7.3,3.3s5.6-1.1,7.3-3.3c1.7-2.2,2.6-5.3,2.6-9.2c0-4-0.9-7-2.6-9.2
		c-1.7-2.2-4.2-3.3-7.4-3.3s-5.6,1.1-7.3,3.3C304,225.8,303.1,228.9,303.1,232.8z"/>
	<path class="st1" d="M335.9,218.5v18.6c0,2.9,0.6,5,1.8,6.3c1.2,1.3,3.1,2,5.6,2c3.4,0,5.9-0.9,7.5-2.6s2.4-4.5,2.4-8.4v-15.8h2.6
		v28.7h-2.2l-0.5-4h-0.2c-1.9,3-5.2,4.5-9.9,4.5c-6.5,0-9.8-3.5-9.8-10.5v-18.7H335.9z"/>
	<path class="st1" d="M368.1,247.2h-2.6v-41h2.6V247.2z"/>
	<path class="st1" d="M388.2,218c2.1,0,3.9,0.4,5.4,1.1c1.5,0.8,2.9,2,4.1,3.9h0.2c-0.1-2.2-0.2-4.4-0.2-6.5v-10.3h2.6v41h-1.7
		l-0.7-4.4h-0.2c-2.2,3.3-5.3,4.9-9.4,4.9c-4,0-7-1.2-9.1-3.7c-2.1-2.5-3.1-6-3.1-10.8c0-5,1-8.7,3.1-11.4
		C381.3,219.3,384.3,218,388.2,218z M388.2,220.4c-3.1,0-5.5,1.1-7.1,3.3s-2.4,5.4-2.4,9.6c0,8.1,3.2,12.2,9.5,12.2
		c3.2,0,5.6-0.9,7.1-2.8c1.5-1.9,2.3-5,2.3-9.3v-0.4c0-4.4-0.7-7.6-2.2-9.6S391.6,220.4,388.2,220.4z"/>
	<path class="st1" d="M459.7,247.2v-18.8c0-2.8-0.5-4.8-1.6-6.1s-2.8-1.9-5-1.9c-2.9,0-5.1,0.8-6.5,2.4c-1.4,1.6-2.1,4.2-2.1,7.6
		v16.8h-2.7v-19.6c0-4.8-2.2-7.3-6.6-7.3c-3,0-5.2,0.9-6.6,2.6c-1.4,1.8-2.1,4.5-2.1,8.4v15.8h-2.6v-28.7h2.2l0.6,3.9h0.2
		c0.8-1.4,1.9-2.5,3.4-3.3c1.5-0.8,3.1-1.2,4.8-1.2c4.5,0,7.4,1.7,8.7,5.1h0.1c0.9-1.6,2.2-2.9,3.8-3.8s3.4-1.3,5.4-1.3
		c3.1,0,5.5,0.8,7,2.5s2.3,4.3,2.3,8v18.7H459.7z"/>
	<path class="st1" d="M483.2,247.7c-4.2,0-7.4-1.3-9.7-3.8s-3.5-6.2-3.5-10.8c0-4.6,1.1-8.2,3.4-11s5.3-4.1,9.1-4.1
		c3.4,0,6,1.2,8,3.5s2.9,5.6,2.9,9.6v2.1h-20.6c0,3.9,1,6.9,2.8,9s4.4,3.1,7.7,3.1c1.6,0,3.1-0.1,4.3-0.3c1.2-0.2,2.8-0.7,4.7-1.5
		v2.4c-1.6,0.7-3.1,1.2-4.5,1.4C486.3,247.6,484.8,247.7,483.2,247.7z M482.4,220.3c-2.8,0-5,0.9-6.6,2.7c-1.7,1.8-2.6,4.4-2.9,7.9
		h17.7c0-3.3-0.7-5.9-2.2-7.8C486.9,221.2,484.9,220.3,482.4,220.3z"/>
	<path class="st1" d="M512.8,247.7c-4.2,0-7.4-1.3-9.7-3.8s-3.5-6.2-3.5-10.8c0-4.6,1.1-8.2,3.4-11s5.3-4.1,9.1-4.1
		c3.4,0,6,1.2,8,3.5s2.9,5.6,2.9,9.6v2.1h-20.6c0,3.9,1,6.9,2.8,9s4.4,3.1,7.7,3.1c1.6,0,3.1-0.1,4.3-0.3c1.2-0.2,2.8-0.7,4.7-1.5
		v2.4c-1.6,0.7-3.1,1.2-4.5,1.4C516,247.6,514.4,247.7,512.8,247.7z M512,220.3c-2.8,0-5,0.9-6.6,2.7c-1.7,1.8-2.6,4.4-2.9,7.9h17.7
		c0-3.3-0.7-5.9-2.2-7.8C516.6,221.2,514.6,220.3,512,220.3z"/>
	<path class="st1" d="M538.4,245.4c1.7,0,3.1-0.1,4.3-0.4v2.1c-1.3,0.4-2.7,0.6-4.4,0.6c-2.5,0-4.4-0.7-5.6-2
		c-1.2-1.4-1.8-3.5-1.8-6.4v-18.5h-4.2v-1.5l4.2-1.2l1.3-6.5h1.3v6.9h8.4v2.3h-8.4v18.1c0,2.2,0.4,3.8,1.2,4.9
		S536.8,245.4,538.4,245.4z"/>
	<path class="st1" d="M548.4,245.1c0-1.7,0.7-2.6,2.1-2.6c1.4,0,2.2,0.9,2.2,2.6s-0.7,2.6-2.2,2.6
		C549.1,247.7,548.4,246.9,548.4,245.1z"/>
</g>
<g>
	<path class="st1" d="M590.2,105.1h-3.6v-1.9c3.2,0,6,0,9.2,0v1.9h-3.6v9.3h-2.1V105.1z"/>
	<path class="st1" d="M606.9,106.3l-3.7,4.9h-0.4l-3.6-4.9v8.2h-2.1v-11.2h2.4l3.5,4.8l3.5-4.8h2.4v11.2h-2.1V106.3z"/>
</g>
</svg>
