<?xml version="1.0" encoding="utf-8"?>
<!-- Generator: Adobe Illustrator 19.0.0, SVG Export Plug-In . SVG Version: 6.00 Build 0)  -->
<svg version="1.1" id="Layer_1" xmlns="http://www.w3.org/2000/svg" xmlns:xlink="http://www.w3.org/1999/xlink" x="0px" y="0px"
	 viewBox="156 -19 656 200" style="enable-background:new 156 -19 656 200;" xml:space="preserve">
<style type="text/css">
	.st0{fill:#FFFFFF;}
	.st1{fill:#263238;}
	.st2{fill:#FFAB00;}
	.st3{fill:#FF9100;}
	.st4{fill:#FF6D00;}
	.st5{display:none;}
	.st6{font-family:'OpenSans-Light';}
	.st7{font-size:54px;}
</style>
<g id="Sky">
</g>
<g id="Ground">
</g>
<g id="Background_Buildings">
	<path class="st0" d="M266.4-6.9c2.1,1,4.3,2.1,6.4,3.1c1.7,5,3.4,9.9,5.1,14.9l-17.4,14l17.8,12.7c-1.6,2.5-3.7,5.3-6.5,7.9
		c-0.7,0.6-1.3,1.2-2,1.7c-5.8-1.7-11.7-3.4-17.5-5.2l-7.5,25.1l-12.5-12.4c0.7-4.9,1.4-15.4-3.1-27.3C224.5,15.4,216.7,8,212.9,4.8
		c0.7-1.9,1.7-4.1,3.2-6.5c1.5-2.3,3-4.2,4.3-5.6c3.8,9.9,13.5,16.4,23.9,16C254,8.4,262.7,2.3,266.4-6.9z"/>
	<circle class="st0" cx="243.1" cy="-5.2" r="12.4"/>
	<polygon class="st1" points="377.5,-9.3 346.5,24 380,59.1 380,59.9 363.8,59.9 334.7,29.1 334.7,59.9 321.6,59.9 321.6,-9.7 
		334.7,-9.7 334.7,19.7 361.2,-9.7 377.5,-9.7 	"/>
	<path class="st1" d="M427.8,4.9l-12.9,29.6h25.8L427.8,4.9z M446,46.8h-36.4l-6,13.1h-14.1l31.2-69.6H435l31.2,69.6h-14.3L446,46.8
		z"/>
	<polygon class="st1" points="496.2,-9.7 496.2,47.8 532,47.8 532,59.9 483.1,59.9 483.1,-9.7 	"/>
	<rect x="551.3" y="-9.7" class="st1" width="13" height="69.6"/>
	<path class="st1" d="M598.7,47.3H613c15.8,0,22.1-11.5,21.8-22.9c-0.3-10.8-6.7-21.7-21.8-21.7h-14.3V47.3z M647.8,24.5
		c0.3,17.6-10.4,35.4-34.8,35.4h-27.3V-9.7H613C636.9-9.7,647.5,7.3,647.8,24.5"/>
	<path class="st1" d="M675,25.8c0.3,11.4,6.5,23.7,22.9,23.7c16.4,0,22.6-12.3,22.8-23.8c0.2-11.7-6.4-24.8-22.8-24.8
		C681.4,0.8,674.7,14.1,675,25.8 M733.5,25.5c-0.2,18-11.2,36-35.7,36S662,43.9,662,25.6s11.7-36.7,35.8-36.7
		C721.8-11.1,733.7,7.3,733.5,25.5"/>
	<path class="st2" d="M232.9-8.9c2-5.7,8.3-8.6,14-6.6c5.7,2,8.6,8.3,6.6,14s-8.3,8.6-14,6.6C233.8,3,230.9-3.3,232.9-8.9
		 M228.1,5.5c6,5.4,17.4,12.3,33.3-2.2l4-4.1c1.7-1.7,4.4-1.8,6.2-0.2c1.8,1.5,1.8,4.2,0.2,5.8l-6.1,6.2c-5,6-13,14.9-2.2,21.9
		l13.2,6.4c0.2,0.1,0.3,0.2,0.5,0.3c10.5-14.4,9.3-34.8-3.7-47.8c-14.4-14.4-37.7-14.4-52.1,0c-1.3,1.3-2.5,2.7-3.6,4.1
		C219.7-2.3,226.4,3.9,228.1,5.5"/>
	<path class="st3" d="M245.6,46.9l-1.4,19.8c0,0,0,0,0,0.1c1.9,1.9,3.2,3.2,3.2,3.2s17.9-17.9,24-24
		C264.4,41.9,246.7,31.4,245.6,46.9"/>
	<path class="st4" d="M235.4,56.3c-0.4-24.7-5.1-34.9-14.3-45.5l-7.7-7.3c-5.7,13.4-3,29.5,7.9,40.4c0.1,0.1,7.3,7.3,14.2,14.2
		L235.4,56.3z"/>
</g>
<g id="White_Screen" class="st5">
</g>
<g id="Clouds">
</g>
<g id="Trees">
</g>
<g id="Character">
</g>
<text transform="matrix(1 0 0 1 160 150)" class="st6 st7">We think you should meet.</text>
</svg>
