<?xml version="1.0" encoding="utf-8"?>
<!-- Generator: Adobe Illustrator 19.0.0, SVG Export Plug-In . SVG Version: 6.00 Build 0)  -->
<svg version="1.1" xmlns="http://www.w3.org/2000/svg" xmlns:xlink="http://www.w3.org/1999/xlink" x="0px" y="0px"
	 viewBox="0 0 523 89" style="enable-background:new 0 0 523 89;" xml:space="preserve">
<style type="text/css">
	.st0{fill:#FFFFFF;}
	.st1{fill:#263238;}
	.st2{fill:#FFAB00;}
	.st3{fill:#FF9100;}
	.st4{fill:#FF6D00;}
	.st5{display:none;}
</style>
<g id="Sky">
</g>
<g id="Ground">
</g>
<g id="Background_Buildings">
	<path class="st0" d="M55.9,12.1c2.1,1,4.3,2.1,6.4,3.1c1.7,5,3.4,9.9,5.1,14.9L50,44.1l17.8,12.7c-1.6,2.5-3.7,5.3-6.5,7.9
		c-0.7,0.6-1.3,1.2-2,1.7c-5.8-1.7-11.7-3.4-17.5-5.2l-7.5,25.1L21.8,73.9c0.7-4.9,1.4-15.4-3.1-27.3C14,34.4,6.2,27,2.4,23.8
		c0.7-1.9,1.7-4.1,3.2-6.5c1.5-2.3,3-4.2,4.3-5.6c3.8,9.9,13.5,16.4,23.9,16C43.5,27.4,52.2,21.3,55.9,12.1z"/>
	<circle class="st0" cx="32.6" cy="13.8" r="12.4"/>
	<polygon class="st1" points="167,9.7 136,43 169.5,78.1 169.5,78.9 153.3,78.9 124.2,48.1 124.2,78.9 111.1,78.9 111.1,9.3 
		124.2,9.3 124.2,38.7 150.7,9.3 167,9.3 	"/>
	<path class="st1" d="M217.3,23.9l-12.9,29.6h25.8L217.3,23.9z M235.5,65.8h-36.4l-6,13.1H179l31.2-69.6h14.3l31.2,69.6h-14.3
		L235.5,65.8z"/>
	<polygon class="st1" points="285.7,9.3 285.7,66.8 321.5,66.8 321.5,78.9 272.6,78.9 272.6,9.3 	"/>
	<rect x="340.8" y="9.3" class="st1" width="13" height="69.6"/>
	<path class="st1" d="M388.2,66.3h14.3c15.8,0,22.1-11.5,21.8-22.9c-0.3-10.8-6.7-21.7-21.8-21.7h-14.3V66.3z M437.3,43.5
		c0.3,17.6-10.4,35.4-34.8,35.4h-27.3V9.3h27.3C426.4,9.3,437,26.3,437.3,43.5"/>
	<path class="st1" d="M464.5,44.8c0.3,11.4,6.5,23.7,22.9,23.7c16.4,0,22.6-12.3,22.8-23.8c0.2-11.7-6.4-24.8-22.8-24.8
		C470.9,19.8,464.2,33.1,464.5,44.8 M523,44.5c-0.2,18-11.2,36-35.7,36c-24.5,0-35.8-17.6-35.8-35.9c0-18.3,11.7-36.7,35.8-36.7
		C511.3,7.9,523.2,26.3,523,44.5"/>
	<path class="st2" d="M22.4,10.1c2-5.7,8.3-8.6,14-6.6c5.7,2,8.6,8.3,6.6,14c-2,5.7-8.3,8.6-14,6.6C23.3,22,20.4,15.7,22.4,10.1
		 M17.6,24.5c6,5.4,17.4,12.3,33.3-2.2l4-4.1c1.7-1.7,4.4-1.8,6.2-0.2c1.8,1.5,1.8,4.2,0.2,5.8L55.2,30c-5,6-13,14.9-2.2,21.9
		l13.2,6.4c0.2,0.1,0.3,0.2,0.5,0.3c10.5-14.4,9.3-34.8-3.7-47.8c-14.4-14.4-37.7-14.4-52.1,0c-1.3,1.3-2.5,2.7-3.6,4.1
		C9.2,16.7,15.9,22.9,17.6,24.5"/>
	<path class="st3" d="M35.1,65.9l-1.4,19.8c0,0,0,0,0,0.1c1.9,1.9,3.2,3.2,3.2,3.2s17.9-17.9,24-24C53.9,60.9,36.2,50.4,35.1,65.9"
		/>
	<path class="st4" d="M24.9,75.3c-0.4-24.7-5.1-34.9-14.3-45.5l-7.7-7.3c-5.7,13.4-3,29.5,7.9,40.4c0.1,0.1,7.3,7.3,14.2,14.2
		L24.9,75.3z"/>
</g>
<g id="White_Screen" class="st5">
</g>
<g id="Clouds">
</g>
<g id="Trees">
</g>
<g id="Character">
</g>
</svg>
