<?xml version="1.0" encoding="utf-8"?>
<!-- Generator: Adobe Illustrator 19.0.0, SVG Export Plug-In . SVG Version: 6.00 Build 0)  -->
<svg version="1.1" id="Layer_1" xmlns="http://www.w3.org/2000/svg" xmlns:xlink="http://www.w3.org/1999/xlink" x="0px" y="0px"
	 viewBox="175 151 656 200" style="enable-background:new 175 151 656 200;" xml:space="preserve">
<style type="text/css">
	.st0{fill:#FFFFFF;}
	.st1{fill:#263238;}
	.st2{fill:#FFAB00;}
	.st3{fill:#FF9100;}
	.st4{fill:#FF6D00;}
	.st5{display:none;}
	.st6{font-family:'OpenSans-Light';}
	.st7{font-size:54px;}
</style>
<g id="Sky">
</g>
<g id="Ground">
</g>
<g id="Background_Buildings">
	<path class="st0" d="M287.4,172.4c2.1,1,4.3,2.1,6.4,3.1c1.7,5,3.4,9.9,5.1,14.9l-17.4,14l17.8,12.7c-1.6,2.5-3.7,5.3-6.5,7.9
		c-0.7,0.6-1.3,1.2-2,1.7c-5.8-1.7-11.7-3.4-17.5-5.2l-7.5,25.1l-12.5-12.4c0.7-4.9,1.4-15.4-3.1-27.3
		c-4.7-12.2-12.5-19.6-16.3-22.8c0.7-1.9,1.7-4.1,3.2-6.5c1.5-2.3,3-4.2,4.3-5.6c3.8,9.9,13.5,16.4,23.9,16
		C275,187.7,283.7,181.6,287.4,172.4z"/>
	<circle class="st0" cx="264.1" cy="174.1" r="12.4"/>
	<polygon class="st1" points="398.5,170 367.5,203.3 401,238.4 401,239.2 384.8,239.2 355.7,208.4 355.7,239.2 342.6,239.2 
		342.6,169.6 355.7,169.6 355.7,199 382.2,169.6 398.5,169.6 	"/>
	<path class="st1" d="M448.8,184.2l-12.9,29.6h25.8L448.8,184.2z M467,226.1h-36.4l-6,13.1h-14.1l31.2-69.6H456l31.2,69.6h-14.3
		L467,226.1z"/>
	<polygon class="st1" points="517.2,169.6 517.2,227.1 553,227.1 553,239.2 504.1,239.2 504.1,169.6 	"/>
	<rect x="572.3" y="169.6" class="st1" width="13" height="69.6"/>
	<path class="st1" d="M619.7,226.6H634c15.8,0,22.1-11.5,21.8-22.9c-0.3-10.8-6.7-21.7-21.8-21.7h-14.3V226.6z M668.8,203.8
		c0.3,17.6-10.4,35.4-34.8,35.4h-27.3v-69.6H634C657.9,169.6,668.5,186.6,668.8,203.8"/>
	<path class="st1" d="M696,205.1c0.3,11.4,6.5,23.7,22.9,23.7s22.6-12.3,22.8-23.8c0.2-11.7-6.4-24.8-22.8-24.8
		C702.4,180.1,695.7,193.4,696,205.1 M754.5,204.8c-0.2,18-11.2,36-35.7,36S683,223.2,683,204.9s11.7-36.7,35.8-36.7
		C742.8,168.2,754.7,186.6,754.5,204.8"/>
	<path class="st2" d="M253.9,170.4c2-5.7,8.3-8.6,14-6.6c5.7,2,8.6,8.3,6.6,14s-8.3,8.6-14,6.6C254.8,182.3,251.9,176,253.9,170.4
		 M249.1,184.8c6,5.4,17.4,12.3,33.3-2.2l4-4.1c1.7-1.7,4.4-1.8,6.2-0.2c1.8,1.5,1.8,4.2,0.2,5.8l-6.1,6.2c-5,6-13,14.9-2.2,21.9
		l13.2,6.4c0.2,0.1,0.3,0.2,0.5,0.3c10.5-14.4,9.3-34.8-3.7-47.8c-14.4-14.4-37.7-14.4-52.1,0c-1.3,1.3-2.5,2.7-3.6,4.1
		C240.7,177,247.4,183.2,249.1,184.8"/>
	<path class="st3" d="M266.6,226.2l-1.4,19.8c0,0,0,0,0,0.1c1.9,1.9,3.2,3.2,3.2,3.2s17.9-17.9,24-24
		C285.4,221.2,267.7,210.7,266.6,226.2"/>
	<path class="st4" d="M256.4,235.6c-0.4-24.7-5.1-34.9-14.3-45.5l-7.7-7.3c-5.7,13.4-3,29.5,7.9,40.4c0.1,0.1,7.3,7.3,14.2,14.2
		L256.4,235.6z"/>
</g>
<g id="White_Screen" class="st5">
</g>
<g id="Clouds">
</g>
<g id="Trees">
</g>
<g id="Character">
</g>
<text transform="matrix(1 0 0 1 292.7143 329.3)" class="st1 st6 st7">You should meet.</text>
</svg>
