<?xml version="1.0" encoding="utf-8"?>
<!-- Generator: Adobe Illustrator 19.0.0, SVG Export Plug-In . SVG Version: 6.00 Build 0)  -->
<svg version="1.1" id="Layer_1" xmlns="http://www.w3.org/2000/svg" xmlns:xlink="http://www.w3.org/1999/xlink" x="0px" y="0px"
	 viewBox="0 475 1920 605" style="enable-background:new 0 475 1920 605;" xml:space="preserve">
<style type="text/css">
	.st0{fill:#FBFBFB;}
	.st1{fill:#F8F8F8;}
	.st2{fill:#E9E9E9;}
	.st3{fill:#F3F3F3;}
</style>
<g id="XMLID_39_">
	<polygon id="XMLID_41_" class="st0" points="1287.4,481.3 766.2,1080 1808.5,1080 1287.4,481.3 766.2,1080 1808.5,1080 	"/>
	<polygon id="XMLID_40_" class="st1" points="1288,481.3 1288,600.6 1205,683.8 1205,814.9 937.6,1080 1808.4,1080 	"/>
</g>
<g id="XMLID_36_">
	<polygon id="XMLID_38_" class="st2" points="1022.1,612.5 615.1,1080 1429,1080 1022.1,612.5 615.1,1080 1429,1080 	"/>
	<polygon id="XMLID_37_" class="st3" points="1021,614 1021,666.9 957,731.2 1064,837.8 1064,897.1 946,1015.8 946,1080 615.4,1080 
			"/>
</g>
<g id="XMLID_14_">
	<polygon id="XMLID_35_" class="st2" points="1574.6,683.2 1229.2,1080 1920,1080 1574.6,683.2 1229.2,1080 1920,1080 	"/>
	<polygon id="XMLID_34_" class="st3" points="1574,684.7 1574,729.5 1519.5,784.2 1610,874.6 1610,925 1510,1025.7 1510,1080 
		1229.4,1080 	"/>
</g>
<g id="XMLID_9_">
	<polygon id="XMLID_13_" class="st2" points="345.1,683.2 -0.4,1080 690.5,1080 345.1,683.2 -0.4,1080 690.5,1080 	"/>
	<polygon id="XMLID_10_" class="st3" points="344,684.7 344,729.5 290,784.2 381,874.6 381,925 280,1025.7 280,1080 -0.1,1080 	"/>
</g>
<g id="XMLID_3_">
	<polygon id="XMLID_8_" class="st3" points="701.6,507 202.8,1080 1200.3,1080 701.6,507 202.8,1080 1200.3,1080 	"/>
	<polygon id="XMLID_7_" class="st1" points="701,507.2 701,542.8 657.3,589 701.3,589 779,665 779,734 657,734 555,835.2 555,935 
		654,935 731.1,1012 942,1012 1010.8,1080 203.2,1080 	"/>
</g>
</svg>
