<?xml version="1.0" encoding="utf-8"?>
<!-- Generator: Adobe Illustrator 19.0.0, SVG Export Plug-In . SVG Version: 6.00 Build 0)  -->
<svg version="1.1" id="Layer_1" xmlns="http://www.w3.org/2000/svg" xmlns:xlink="http://www.w3.org/1999/xlink" x="0px" y="0px"
	 viewBox="560 -440 1920 1080" style="enable-background:new 560 -440 1920 1080;" xml:space="preserve">
<style type="text/css">
	.st0{fill:#4DB6AC;}
	.st1{fill:#82CCC5;}
	.st2{fill:#A7DBD6;}
	.st3{fill:#C1E6E2;}
	.st4{fill:#D3EDEB;}
	.st5{fill:#FFFFFF;}
</style>
<rect id="XMLID_92_" x="560" y="-440" class="st0" width="1920" height="216"/>
<rect id="XMLID_91_" x="560" y="-224" class="st1" width="1920" height="216"/>
<rect id="XMLID_4_" x="560" y="-8.1" class="st2" width="1920" height="216"/>
<rect id="XMLID_89_" x="560" y="207.9" class="st3" width="1920" height="216"/>
<rect id="XMLID_88_" x="560" y="424" class="st4" width="1920" height="216"/>
<g>
	<path class="st5" d="M2240.4,24h128.5c0-35-28.8-64.3-64.3-64.3S2240.4-11,2240.4,24z"/>
	<path class="st5" d="M2171.3,24h96.4c0-27-21.6-48.2-48.2-48.2S2171.3-3,2171.3,24z"/>
	<path class="st5" d="M2136.3,24h43.6c0-13-9.7-21.8-21.8-21.8S2136.3,11,2136.3,24z"/>
</g>
<g>
	<path class="st5" d="M1958.5-127h79.2c0-21-17.7-39.6-39.6-39.6S1958.5-148,1958.5-127z"/>
	<path class="st5" d="M1915.9-127h59.5c0-16-13.3-29.7-29.7-29.7S1915.9-143,1915.9-127z"/>
	<path class="st5" d="M1894.3-127h26.9c0-6-6-13.4-13.4-13.4C1900.3-140.4,1894.3-133,1894.3-127z"/>
</g>
<g>
	<path class="st5" d="M1136.4,30h-104.3c0-29,23.3-52.2,52.2-52.2S1136.4,1,1136.4,30z"/>
	<path class="st5" d="M1158.6,30h-44.3c0-14,9.9-22.1,22.1-22.1C1148.7,7.9,1158.6,16,1158.6,30z"/>
</g>
<g>
	<path class="st5" d="M960.7-243h-160c0-44,35.8-80,80-80C924.8-323,960.7-287,960.7-243z"/>
	<path class="st5" d="M1046.8-243H926.7c0-34,26.9-60,60-60C1019.9-303,1046.8-277,1046.8-243z"/>
	<path class="st5" d="M1090.3-243H1036c0-15,12.1-27.1,27.1-27.1C1078.1-270.1,1090.3-258,1090.3-243z"/>
	<path class="st5" d="M827.8-243h-89.6c0-25,20.1-44.8,44.8-44.8S827.8-268,827.8-243z"/>
</g>
</svg>
