<?xml version="1.0" encoding="utf-8"?>
<!-- Generator: Adobe Illustrator 19.0.0, SVG Export Plug-In . SVG Version: 6.00 Build 0)  -->
<svg version="1.1" id="Layer_1" xmlns="http://www.w3.org/2000/svg" xmlns:xlink="http://www.w3.org/1999/xlink" x="0px" y="0px"
	 viewBox="0 0 1920 1080" style="enable-background:new 0 0 1920 1080;" xml:space="preserve">
<style type="text/css">
	.st0{fill:#FFF38A;}
	.st1{fill:#FFF59F;}
	.st2{fill:#FFF8BA;}
	.st3{fill:#FFFBD6;}
	.st4{fill:#FFFEEE;}
	.st5{fill:#FFFFFF;}
</style>
<rect id="XMLID_92_" class="st0" width="1920" height="216"/>
<rect id="XMLID_91_" y="216" class="st1" width="1920" height="216"/>
<rect id="XMLID_90_" y="431.9" class="st2" width="1920" height="216"/>
<rect id="XMLID_89_" y="647.9" class="st3" width="1920" height="216"/>
<rect id="XMLID_88_" x="0" y="864" class="st4" width="1920" height="216"/>
<g id="XMLID_39_">
	<path id="XMLID_42_" class="st5" d="M467,566h128.5c0-35-28.8-64.3-64.3-64.3S467,531,467,566z"/>
	<path id="XMLID_41_" class="st5" d="M397.9,566h96.4c0-27-21.6-48.2-48.2-48.2C419.4,517.8,397.9,539,397.9,566z"/>
	<path id="XMLID_40_" class="st5" d="M362.9,566h43.6c0-13-9.7-21.8-21.8-21.8S362.9,553,362.9,566z"/>
</g>
<g id="XMLID_35_">
	<path id="XMLID_38_" class="st5" d="M1363.1,151h79.2c0-21-17.7-39.6-39.6-39.6C1380.8,111.4,1363.1,130,1363.1,151z"/>
	<path id="XMLID_37_" class="st5" d="M1320.5,151h59.5c0-16-13.3-29.7-29.7-29.7C1333.8,121.3,1320.5,135,1320.5,151z"/>
	<path id="XMLID_36_" class="st5" d="M1298.9,151h26.9c0-6-6-13.4-13.4-13.4S1298.9,145,1298.9,151z"/>
</g>
<g id="XMLID_13_">
	<path id="XMLID_34_" class="st5" d="M1682,359h-104.3c0-29,23.3-52.2,52.2-52.2S1682,330,1682,359z"/>
	<path id="XMLID_14_" class="st5" d="M1704.2,359h-44.3c0-14,9.9-22.1,22.1-22.1S1704.2,345,1704.2,359z"/>
</g>
<g id="XMLID_3_">
	<path id="XMLID_10_" class="st5" d="M388.2,342h-160c0-44,35.8-80,80-80S388.2,298,388.2,342z"/>
	<path id="XMLID_9_" class="st5" d="M474.4,342H354.3c0-34,26.9-60,60-60S474.4,308,474.4,342z"/>
	<path id="XMLID_8_" class="st5" d="M517.9,342h-54.2c0-15,12.1-27.1,27.1-27.1S517.9,327,517.9,342z"/>
	<path id="XMLID_7_" class="st5" d="M255.4,342h-89.6c0-25,20.1-44.8,44.8-44.8S255.4,317,255.4,342z"/>
</g>
</svg>
