<?xml version="1.0" encoding="utf-8"?>
<!-- Generator: Adobe Illustrator 19.0.0, SVG Export Plug-In . SVG Version: 6.00 Build 0)  -->
<svg version="1.1" id="Layer_1" xmlns="http://www.w3.org/2000/svg" xmlns:xlink="http://www.w3.org/1999/xlink" x="0px" y="0px"
	 viewBox="24 27.8 353.6 446.2" style="enable-background:new 24 27.8 353.6 446.2;" xml:space="preserve">
<style type="text/css">
	.st0{fill:#FFCA28;}
	.st1{fill:#FFAB00;}
	.st2{fill:#A1887F;}
	.st3{fill:#C6FF00;}
	.st4{fill:#C0F700;}
</style>
<circle id="XMLID_707_" class="st0" cx="284.7" cy="225.6" r="92.9"/>
<path id="XMLID_706_" class="st1" d="M377.6,225.6c0,51.3-41.6,92.9-92.9,92.9V132.7C336,132.7,377.6,174.3,377.6,225.6z"/>
<polygon id="XMLID_705_" class="st2" points="281.8,474 292,474 292.1,246 328.6,226.1 328.6,214.5 292.1,234.3 291.9,173.3 
	280.9,173.3 281.2,252.3 249.1,214.2 249.1,229.1 280.9,266.5 "/>
<circle id="XMLID_703_" class="st3" cx="147.3" cy="153.1" r="123.3"/>
<path id="XMLID_702_" class="st4" d="M270.6,153.1c0,68.2-55.3,123.3-123.3,123.3V29.6C215.5,29.6,270.6,84.9,270.6,153.1z"/>
<g id="Layer_2">
</g>
<polygon id="XMLID_699_" class="st2" points="143,474 154.1,474 154.3,218.6 194.3,196.2 194.3,183.3 154.3,205.5 154.2,154.4 
	181.6,135.6 181.8,122.5 154.2,139.3 154,72.5 142,72.5 142,87.4 142,100.4 142.1,153.7 92.4,110.1 92.4,126.6 142.2,173.2 
	142.3,225.7 95.2,185.1 95.2,201.8 142,241.8 "/>
</svg>
