<?xml version="1.0" encoding="utf-8"?>
<!-- Generator: Adobe Illustrator 19.0.0, SVG Export Plug-In . SVG Version: 6.00 Build 0)  -->
<svg version="1.1" id="Layer_1" xmlns="http://www.w3.org/2000/svg" xmlns:xlink="http://www.w3.org/1999/xlink" x="0px" y="0px"
	 viewBox="-222 77.8 353.6 446.2" style="enable-background:new -222 77.8 353.6 446.2;" xml:space="preserve">
<style type="text/css">
	.st0{fill:#C6FF00;}
	.st1{fill:#C0F700;enable-background:new    ;}
	.st2{fill:#A1887F;}
	.st3{fill:#FFCA28;}
	.st4{fill:#FFAB00;}
</style>
<circle id="XMLID_707_" class="st0" cx="38.7" cy="273.8" r="92.9"/>
<path id="XMLID_706_" class="st1" d="M131.6,273.8c0,51.3-41.6,92.9-92.9,92.9V180.9C90,180.9,131.6,222.5,131.6,273.8z"/>
<polygon id="XMLID_705_" class="st2" points="35.8,522.2 46,522.2 46.1,294.2 82.6,274.3 82.6,262.7 46.1,282.5 45.9,221.5 
	34.9,221.5 35.2,300.5 3.1,262.4 3.1,277.3 34.9,314.7 "/>
<circle id="XMLID_703_" class="st3" cx="-98.7" cy="201.3" r="123.3"/>
<path id="XMLID_702_" class="st4" d="M24.6,201.3c0,68.2-55.3,123.3-123.3,123.3V77.8C-30.5,77.8,24.6,133.1,24.6,201.3z"/>
<g id="Layer_2">
</g>
<polygon id="XMLID_699_" class="st2" points="-103,522.2 -91.9,522.2 -91.7,266.8 -51.7,244.4 -51.7,231.5 -91.7,253.7 -91.8,202.6 
	-64.4,183.8 -64.2,170.7 -91.8,187.5 -92,120.7 -104,120.7 -104,135.6 -104,148.6 -103.9,201.9 -153.6,158.3 -153.6,174.8 
	-103.8,221.4 -103.7,273.9 -150.8,233.3 -150.8,250 -104,290 "/>
</svg>
