<?xml version="1.0" encoding="utf-8"?>
<!-- Generator: Adobe Illustrator 19.0.0, SVG Export Plug-In . SVG Version: 6.00 Build 0)  -->
<svg version="1.1" xmlns="http://www.w3.org/2000/svg" xmlns:xlink="http://www.w3.org/1999/xlink" x="0px" y="0px"
	 viewBox="0 0 202 280" style="enable-background:new 0 0 202 280;" xml:space="preserve">
<style type="text/css">
	.st0{fill:#FFEA00;}
	.st1{fill:#C62828;}
	.st2{fill:#6A1B9A;}
	.st3{fill:#E53935;}
	.st4{fill:#D32F2F;}
	.st5{fill:#4DB6AC;}
	.st6{fill:#AB47BC;}
	.st7{fill:#8E24AA;}
	.st8{fill:#7B1FA2;}
	.st9{fill:#FFFFFF;}
	.st10{fill:#FFCA28;}
</style>
<g id="Ground">
</g>
<g id="Aircrafts">
	<circle id="XMLID_2282_" class="st0" cx="125.1" cy="26" r="24.6"/>
	<rect id="XMLID_2281_" x="115.2" y="61.2" class="st1" width="18.8" height="23.4"/>
	<path id="XMLID_2280_" class="st1" d="M51.3,199.7h73.5c3.8,0,7,3.1,7,7v0c0,3.8-3.1,7-7,7H51.3c-3.8,0-7-3.1-7-7v0
		C44.3,202.8,47.4,199.7,51.3,199.7z"/>
	<path id="XMLID_2279_" class="st2" d="M112.3,204.3v-51.2c0-5.7,4.6-10.3,10.3-10.3h0.3c5.7,0,10.3,4.6,10.3,10.3v51.2
		c0,5.7-4.6,10.3-10.3,10.3h-0.3C117,214.6,112.3,209.9,112.3,204.3z"/>
	<path id="XMLID_2278_" class="st1" d="M65.2,88.4h53.6c3.6,0,6.5,2.9,6.5,6.5v0c0,3.6-2.9,6.5-6.5,6.5H65.2c-3.6,0-6.5-2.9-6.5-6.5
		v0C58.7,91.3,61.6,88.4,65.2,88.4z"/>
	<path id="XMLID_2277_" class="st1" d="M61.7,148.6l-4.2-52.6c-0.3-3.8,2.5-7.1,6.3-7.4h0c3.8-0.3,7.1,2.5,7.4,6.3l4.2,52.6
		c0.3,3.8-2.5,7.1-6.3,7.4h0C65.4,155.2,62,152.3,61.7,148.6z"/>
	<path id="XMLID_2276_" class="st3" d="M130,68.6L130,68.6c-14.8,0-26.9-12.1-26.9-26.9v-2.2c0-14.8,12.1-26.9,26.9-26.9h2.4
		c7.4,0,13.4,6,13.4,13.4v26.7C145.8,61.5,138.6,68.6,130,68.6z"/>
	<path id="XMLID_2275_" class="st4" d="M126.9,178.5h-5c-10.1,0-21.6-13.3-21.6-23.4l15.7-21.3l-12.6-38.9
		c0-10.1,8.3-18.4,18.4-18.4h5c10.1,0,18.4,18.4,18.4,18.4c0,10.9-6.3,13.1-6.3,13.1l6.3,52C145.3,170.2,137.1,178.5,126.9,178.5z"
		/>
	<path id="XMLID_2274_" class="st5" d="M112.7,123.5l-9.2-28.6c0-10.1,8.3-18.4,18.4-18.4h5c10.1,0,18.4,18.4,18.4,18.4
		c0,10.9-6.3,13.1-6.3,13.1l1.6,15.5L112.7,123.5z"/>
	<path id="XMLID_2273_" class="st0" d="M65.4,44.7h48.3c5.7,0,10.3-4.6,10.3-10.3v0c0-5.7-4.6-10.3-10.3-10.3H65.4
		c-5.7,0-10.3,4.6-10.3,10.3v0C55.1,40,59.7,44.7,65.4,44.7z"/>
	<path id="XMLID_2272_" class="st0" d="M67.1,26h54.4c6.9,0,12.6-5.7,12.6-12.6v0c0-6.9-5.7-12.6-12.6-12.6H67.1
		c-6.9,0-12.6,5.7-12.6,12.6v0C54.6,20.3,60.2,26,67.1,26z"/>
	<path id="XMLID_2271_" class="st0" d="M33.6,40.6h47.8c5.7,0,10.3-4.6,10.3-10.3v0c0-5.7-4.6-10.3-10.3-10.3H33.6
		c-5.7,0-10.3,4.6-10.3,10.3v0C23.3,36,27.9,40.6,33.6,40.6z"/>
	<path id="XMLID_2270_" class="st0" d="M50,51h58.4c3.8,0,6.9-3.1,6.9-6.9v0c0-3.8-3.1-6.9-6.9-6.9H50c-3.8,0-6.9,3.1-6.9,6.9v0
		C43.1,47.9,46.2,51,50,51z"/>
	<g id="XMLID_2266_">
		<path id="XMLID_2269_" class="st3" d="M162.6,266.5L150,205.9c-0.8-4.1,1.8-8.1,5.9-9h0c4.1-0.8,8.1,1.8,9,5.9l12.6,60.5
			c0.8,4.1-1.8,8.1-5.9,9h0C167.5,273.2,163.4,270.6,162.6,266.5z"/>
		<path id="XMLID_2268_" class="st6" d="M191.7,278.1l-28.8,1.7c-0.5-8.7,5.6-14.8,13.6-15.3C184.4,264.1,191.2,269.4,191.7,278.1z"
			/>
		
			<rect id="XMLID_2267_" x="159.3" y="265.1" transform="matrix(-0.9983 5.886287e-002 -5.886287e-002 -0.9983 351.9446 534.186)" class="st6" width="17.6" height="14.4"/>
	</g>
	<path id="XMLID_2265_" class="st7" d="M43,227.9V199c8,0,14.4,6.5,14.4,14.4S51,227.9,43,227.9z"/>
	<path id="XMLID_2264_" class="st8" d="M124,178.5c-13,0-23.6-10.6-23.6-23.6c0-13,10.6-23.6,23.6-23.6V178.5z"/>
	<rect id="XMLID_2263_" x="43.2" y="198.8" class="st7" width="14.4" height="14.9"/>
	<circle id="XMLID_2262_" class="st0" cx="125.1" cy="26" r="24.6"/>
	<path id="XMLID_2261_" class="st3" d="M108.3,51h37.5V27.5c0-5.5-4.4-9.9-9.9-9.9h0c-15.2,0-27.6,12.3-27.6,27.6V51z"/>
	<path id="XMLID_2259_" class="st0" d="M136.6,31.4l8.5-8.5c0.8-0.8,0.8-2.2,0-3v0c-1-1-2.8-1-3.8,0l-7.7,7.7c-1,1-1,2.8,0,3.8v0
		C134.4,32.2,135.8,32.2,136.6,31.4z"/>
	<path id="XMLID_2257_" class="st0" d="M132.2,24.1l9.7-9.7c0.8-0.8,0.8-2.2,0-3v0c-0.8-0.8-2.2-0.8-3,0l-9.7,9.7
		c-0.8,0.8-0.8,2.2,0,3l0,0C130.1,24.9,131.4,24.9,132.2,24.1z"/>
	<path id="XMLID_1_" class="st0" d="M122.8,33.5l9.7-9.7c0.8-0.8,0.8-2.2,0-3v0c-0.8-0.8-2.2-0.8-3,0l-9.7,9.7c-0.8,0.8-0.8,2.2,0,3
		l0,0C120.6,34.4,121.9,34.4,122.8,33.5z"/>
	<path id="XMLID_2_" class="st0" d="M107.5,34.2h13.8c1.2,0,2.1-1,2.1-2.1v0c0-1.2-1-2.1-2.1-2.1l-13.8,0c-1.2,0-2.1,1-2.1,2.1v0
		C105.3,33.2,106.3,34.2,107.5,34.2z"/>
	<path id="XMLID_2256_" class="st8" d="M126.9,178.5h-5c-10.1,0-21.6-13.3-21.6-23.4l14.9-23.9l26.7,0.2l3.5,28.7
		C145.3,170.2,137.1,178.5,126.9,178.5z"/>
	<path id="XMLID_2255_" class="st9" d="M142.6,60.2c-1.2,0-2.7-1.1-2.7-2.7c0-1.6,1.4-2.6,2.7-2.7c1.3-0.1,2.6,0.9,2.7,1.8
		c0,0.2-0.2,0.7-0.5,1.7c-0.4,1-0.4,1.2-0.6,1.4C143.6,60.3,142.7,60.2,142.6,60.2z"/>
	<path id="XMLID_2254_" class="st5" d="M148.1,57.5c0-0.5,0.4-0.8,0.8-0.8h19.2c3.4,0,6.1-2.7,6.1-6.1s-2.7-6.1-6.1-6.1
		c-0.5,0-0.8-0.4-0.8-0.8s0.4-0.8,0.8-0.8c4.3,0,7.8,3.5,7.8,7.8s-3.5,7.8-7.8,7.8H149C148.5,58.4,148.1,58,148.1,57.5z"/>
	<path id="XMLID_2253_" class="st5" d="M148.1,57.5c0-0.5,0.4-0.8,0.8-0.8h10.6c4.3,0,7.8,3.5,7.8,7.8c0,4.3-3.5,7.8-7.8,7.8
		c-0.5,0-0.8-0.4-0.8-0.8s0.4-0.8,0.8-0.8c3.4,0,6.1-2.7,6.1-6.1c0-3.4-2.7-6.1-6.1-6.1H149C148.5,58.4,148.1,58,148.1,57.5z"/>
	<polygon id="XMLID_2251_" class="st6" points="140.9,123.5 112.7,123.5 111.5,119.7 140.5,119.7 	"/>
	<path id="XMLID_2250_" class="st8" d="M146.8,211.9l-33.6-52.1c-3.1-4.8-1.7-11.2,3.1-14.3h0c4.8-3.1,11.2-1.7,14.3,3.1l33.6,52.1
		c3.1,4.8,1.7,11.2-3.1,14.3l0,0C156.3,218.1,149.9,216.7,146.8,211.9z"/>
	<path id="XMLID_2249_" class="st3" d="M155,136l-37.9-37.9c-2.5-2.5-2.5-6.6,0-9.2l0,0c2.5-2.5,6.6-2.5,9.2,0l37.9,37.9
		c2.5,2.5,2.5,6.6,0,9.2l0,0C161.7,138.5,157.5,138.5,155,136z"/>
	<path id="XMLID_2248_" class="st3" d="M200,95.9l-34.2,40.2c-2.5,2.9-6.8,3.2-9.7,0.8l0,0c-2.9-2.5-3.2-6.8-0.8-9.7L189.6,87
		c2.5-2.9,6.8-3.2,9.7-0.8l0,0C202.1,88.6,202.5,93,200,95.9z"/>
	<path id="XMLID_2247_" class="st10" d="M45.8,147.3H27.4c-2.5,0-4.5-2-4.5-4.5l0,0c0-2.5,2-4.5,4.5-4.5h18.4c2.5,0,4.5,2,4.5,4.5v0
		C50.4,145.2,48.3,147.3,45.8,147.3z"/>
	<path id="XMLID_2246_" class="st10" d="M174.4,91L174.4,91c2.5,0,4.5-2,4.5-4.5v0c0-2.5-2-4.5-4.5-4.5h0c-2.5,0-4.5,2-4.5,4.5v0
		C169.9,88.9,171.9,91,174.4,91z"/>
	<path id="XMLID_2245_" class="st10" d="M156.3,91h6.5c2.5,0,4.5-2,4.5-4.5v0c0-2.5-2-4.5-4.5-4.5h-6.5c-2.5,0-4.5,2-4.5,4.5v0
		C151.8,88.9,153.8,91,156.3,91z"/>
	<path id="XMLID_2244_" class="st10" d="M135.4,249.8H98.8c-2.5,0-4.5-2-4.5-4.5v0c0-2.5,2-4.5,4.5-4.5h36.6c2.5,0,4.5,2,4.5,4.5v0
		C140,247.8,137.9,249.8,135.4,249.8z"/>
	<path id="XMLID_2243_" class="st10" d="M145.3,264.7L145.3,264.7c-2.5,0-4.5-2-4.5-4.5l0,0c0-2.5,2-4.5,4.5-4.5h0
		c2.5,0,4.5,2,4.5,4.5v0C149.9,262.6,147.8,264.7,145.3,264.7z"/>
	<path id="XMLID_2242_" class="st10" d="M131.4,264.7h-20.2c-2.5,0-4.5-2-4.5-4.5v0c0-2.5,2-4.5,4.5-4.5h20.2c2.5,0,4.5,2,4.5,4.5v0
		C135.9,262.6,133.9,264.7,131.4,264.7z"/>
	<path id="XMLID_2241_" class="st10" d="M34.7,132.1H4.9c-2.5,0-4.5-2-4.5-4.5v0c0-2.5,2-4.5,4.5-4.5h29.9c2.5,0,4.5,2,4.5,4.5v0
		C39.3,130,37.2,132.1,34.7,132.1z"/>
	<path id="XMLID_2240_" class="st10" d="M50.2,132.1h-2.6c-2.5,0-4.5-2-4.5-4.5v0c0-2.5,2-4.5,4.5-4.5h2.6c2.5,0,4.5,2,4.5,4.5v0
		C54.7,130,52.7,132.1,50.2,132.1z"/>
	<g id="XMLID_2233_">
		<path id="XMLID_2239_" class="st5" d="M179.3,98.3l1.6-1.9c0.7-0.8,2-0.9,2.8-0.2l8.4,7.4c0.8,0.7,0.9,2,0.2,2.8l-1.6,1.9
			c-0.7,0.8-2,0.9-2.8,0.2l-8.4-7.4C178.7,100.3,178.6,99.1,179.3,98.3z"/>
		<path id="XMLID_2237_" class="st9" d="M182.2,99.3l0.2-0.3c1.7-2,4.7-2.2,6.7-0.4v0c2,1.7,2.2,4.7,0.4,6.7l-0.2,0.3
			c-1.7,2-4.7,2.2-6.7,0.4l0,0C180.6,104.3,180.4,101.3,182.2,99.3z"/>
	</g>
</g>
<g id="Clouds">
</g>
<g id="Trees">
</g>
<g id="Character">
</g>
</svg>
