<?xml version="1.0" encoding="utf-8"?>
<!-- Generator: Adobe Illustrator 19.0.0, SVG Export Plug-In . SVG Version: 6.00 Build 0)  -->
<svg version="1.1" id="Layer_1" xmlns="http://www.w3.org/2000/svg" xmlns:xlink="http://www.w3.org/1999/xlink" x="0px" y="0px"
	 viewBox="-51 111 202 280" style="enable-background:new -51 111 202 280;" xml:space="preserve">
<style type="text/css">
	.st0{fill:#FFEA00;}
	.st1{fill:#C62828;}
	.st2{fill:#6A1B9A;}
	.st3{fill:#E53935;}
	.st4{fill:#D32F2F;}
	.st5{fill:#4DB6AC;}
	.st6{fill:#AB47BC;}
	.st7{fill:#8E24AA;}
	.st8{fill:#7B1FA2;}
	.st9{fill:#FFCA28;}
	.st10{fill:#FFFFFF;}
</style>
<g id="Ground">
</g>
<g id="Aircrafts">
	<circle id="XMLID_2282_" class="st0" cx="74.1" cy="137" r="24.6"/>
	<rect id="XMLID_2281_" x="64.2" y="172.2" class="st1" width="18.8" height="23.4"/>
	<path id="XMLID_2280_" class="st1" d="M0.3,310.7h73.5c3.8,0,7,3.1,7,7l0,0c0,3.8-3.1,7-7,7H0.3c-3.8,0-7-3.1-7-7l0,0
		C-6.7,313.8-3.6,310.7,0.3,310.7z"/>
	<path id="XMLID_2279_" class="st2" d="M61.3,315.3v-51.2c0-5.7,4.6-10.3,10.3-10.3h0.3c5.7,0,10.3,4.6,10.3,10.3v51.2
		c0,5.7-4.6,10.3-10.3,10.3h-0.3C66,325.6,61.3,320.9,61.3,315.3z"/>
	<path id="XMLID_2278_" class="st1" d="M14.2,199.4h53.6c3.6,0,6.5,2.9,6.5,6.5l0,0c0,3.6-2.9,6.5-6.5,6.5H14.2
		c-3.6,0-6.5-2.9-6.5-6.5l0,0C7.7,202.3,10.6,199.4,14.2,199.4z"/>
	<path id="XMLID_2277_" class="st1" d="M10.7,259.6L6.5,207c-0.3-3.8,2.5-7.1,6.3-7.4l0,0c3.8-0.3,7.1,2.5,7.4,6.3l4.2,52.6
		c0.3,3.8-2.5,7.1-6.3,7.4l0,0C14.4,266.2,11,263.3,10.7,259.6z"/>
	<path id="XMLID_2276_" class="st3" d="M79,179.6L79,179.6c-14.8,0-26.9-12.1-26.9-26.9v-2.2c0-14.8,12.1-26.9,26.9-26.9h2.4
		c7.4,0,13.4,6,13.4,13.4v26.7C94.8,172.5,87.6,179.6,79,179.6z"/>
	<path id="XMLID_2275_" class="st4" d="M75.9,289.5h-5c-10.1,0-21.6-13.3-21.6-23.4L65,244.8l-12.6-38.9c0-10.1,8.3-18.4,18.4-18.4
		h5c10.1,0,18.4,18.4,18.4,18.4c0,10.9-6.3,13.1-6.3,13.1l6.3,52C94.3,281.2,86.1,289.5,75.9,289.5z"/>
	<path id="XMLID_2274_" class="st5" d="M61.7,234.5l-9.2-28.6c0-10.1,8.3-18.4,18.4-18.4h5c10.1,0,18.4,18.4,18.4,18.4
		c0,10.9-6.3,13.1-6.3,13.1l1.6,15.5H61.7z"/>
	<path id="XMLID_2273_" class="st0" d="M14.4,155.7h48.3c5.7,0,10.3-4.6,10.3-10.3l0,0c0-5.7-4.6-10.3-10.3-10.3H14.4
		c-5.7,0-10.3,4.6-10.3,10.3l0,0C4.1,151,8.7,155.7,14.4,155.7z"/>
	<path id="XMLID_2272_" class="st0" d="M16.1,137h54.4c6.9,0,12.6-5.7,12.6-12.6l0,0c0-6.9-5.7-12.6-12.6-12.6H16.1
		c-6.9,0-12.6,5.7-12.6,12.6l0,0C3.6,131.3,9.2,137,16.1,137z"/>
	<path id="XMLID_2271_" class="st0" d="M-17.4,151.6h47.8c5.7,0,10.3-4.6,10.3-10.3l0,0c0-5.7-4.6-10.3-10.3-10.3h-47.8
		c-5.7,0-10.3,4.6-10.3,10.3l0,0C-27.7,147-23.1,151.6-17.4,151.6z"/>
	<path id="XMLID_2270_" class="st0" d="M-1,162h58.4c3.8,0,6.9-3.1,6.9-6.9l0,0c0-3.8-3.1-6.9-6.9-6.9H-1c-3.8,0-6.9,3.1-6.9,6.9
		l0,0C-7.9,158.9-4.8,162-1,162z"/>
	<g id="XMLID_2266_">
		<path id="XMLID_2269_" class="st3" d="M111.6,377.5L99,316.9c-0.8-4.1,1.8-8.1,5.9-9l0,0c4.1-0.8,8.1,1.8,9,5.9l12.6,60.5
			c0.8,4.1-1.8,8.1-5.9,9l0,0C116.5,384.2,112.4,381.6,111.6,377.5z"/>
		<path id="XMLID_2268_" class="st6" d="M140.7,389.1l-28.8,1.7c-0.5-8.7,5.6-14.8,13.6-15.3C133.4,375.1,140.2,380.4,140.7,389.1z"
			/>
		
			<rect id="XMLID_2267_" x="108.3" y="376" transform="matrix(0.9983 -5.886088e-002 5.886088e-002 0.9983 -22.355 7.5572)" class="st6" width="17.6" height="14.4"/>
	</g>
	<path id="XMLID_2265_" class="st7" d="M-8,338.9V310c8,0,14.4,6.5,14.4,14.4S0,338.9-8,338.9z"/>
	<path id="XMLID_2264_" class="st8" d="M73,289.5c-13,0-23.6-10.6-23.6-23.6S60,242.3,73,242.3V289.5z"/>
	<rect id="XMLID_2263_" x="-7.8" y="309.8" class="st7" width="14.4" height="14.9"/>
	<circle id="XMLID_2262_" class="st0" cx="74.1" cy="137" r="24.6"/>
	<path id="XMLID_2261_" class="st3" d="M57.3,162h37.5v-23.5c0-5.5-4.4-9.9-9.9-9.9l0,0c-15.2,0-27.6,12.3-27.6,27.6
		C57.3,156.2,57.3,162,57.3,162z"/>
	<path id="XMLID_2256_" class="st8" d="M75.9,289.5h-5c-10.1,0-21.6-13.3-21.6-23.4l14.9-23.9l26.7,0.2l3.5,28.7
		C94.3,281.2,86.1,289.5,75.9,289.5z"/>
	<polygon id="XMLID_2251_" class="st6" points="89.9,234.5 61.7,234.5 60.5,230.7 89.5,230.7 	"/>
	<path id="XMLID_2250_" class="st8" d="M95.8,322.9l-33.6-52.1c-3.1-4.8-1.7-11.2,3.1-14.3l0,0c4.8-3.1,11.2-1.7,14.3,3.1l33.6,52.1
		c3.1,4.8,1.7,11.2-3.1,14.3l0,0C105.3,329.1,98.9,327.7,95.8,322.9z"/>
	<path id="XMLID_2249_" class="st3" d="M104,247l-37.9-37.9c-2.5-2.5-2.5-6.6,0-9.2l0,0c2.5-2.5,6.6-2.5,9.2,0l37.9,37.9
		c2.5,2.5,2.5,6.6,0,9.2l0,0C110.7,249.5,106.5,249.5,104,247z"/>
	<path id="XMLID_2248_" class="st3" d="M149,206.9l-34.2,40.2c-2.5,2.9-6.8,3.2-9.7,0.8l0,0c-2.9-2.5-3.2-6.8-0.8-9.7l34.3-40.2
		c2.5-2.9,6.8-3.2,9.7-0.8l0,0C151.1,199.6,151.5,204,149,206.9z"/>
	<path id="XMLID_2247_" class="st9" d="M-5.2,258.3h-18.4c-2.5,0-4.5-2-4.5-4.5l0,0c0-2.5,2-4.5,4.5-4.5h18.4c2.5,0,4.5,2,4.5,4.5
		l0,0C-0.6,256.2-2.7,258.3-5.2,258.3z"/>
	<path id="XMLID_2246_" class="st9" d="M123.4,202L123.4,202c2.5,0,4.5-2,4.5-4.5l0,0c0-2.5-2-4.5-4.5-4.5l0,0c-2.5,0-4.5,2-4.5,4.5
		l0,0C118.9,199.9,120.9,202,123.4,202z"/>
	<path id="XMLID_2245_" class="st9" d="M105.3,202h6.5c2.5,0,4.5-2,4.5-4.5l0,0c0-2.5-2-4.5-4.5-4.5h-6.5c-2.5,0-4.5,2-4.5,4.5l0,0
		C100.8,199.9,102.8,202,105.3,202z"/>
	<path id="XMLID_2244_" class="st9" d="M84.4,360.8H47.8c-2.5,0-4.5-2-4.5-4.5l0,0c0-2.5,2-4.5,4.5-4.5h36.6c2.5,0,4.5,2,4.5,4.5
		l0,0C89,358.8,86.9,360.8,84.4,360.8z"/>
	<path id="XMLID_2243_" class="st9" d="M94.3,375.7L94.3,375.7c-2.5,0-4.5-2-4.5-4.5l0,0c0-2.5,2-4.5,4.5-4.5l0,0
		c2.5,0,4.5,2,4.5,4.5l0,0C98.9,373.6,96.8,375.7,94.3,375.7z"/>
	<path id="XMLID_2242_" class="st9" d="M80.4,375.7H60.2c-2.5,0-4.5-2-4.5-4.5l0,0c0-2.5,2-4.5,4.5-4.5h20.2c2.5,0,4.5,2,4.5,4.5
		l0,0C84.9,373.6,82.9,375.7,80.4,375.7z"/>
	<path id="XMLID_2241_" class="st9" d="M-16.3,243.1h-29.8c-2.5,0-4.5-2-4.5-4.5l0,0c0-2.5,2-4.5,4.5-4.5h29.9c2.5,0,4.5,2,4.5,4.5
		l0,0C-11.7,241-13.8,243.1-16.3,243.1z"/>
	<path id="XMLID_2240_" class="st9" d="M-0.8,243.1h-2.6c-2.5,0-4.5-2-4.5-4.5l0,0c0-2.5,2-4.5,4.5-4.5h2.6c2.5,0,4.5,2,4.5,4.5l0,0
		C3.7,241,1.7,243.1-0.8,243.1z"/>
	<g id="XMLID_2233_">
		<path id="XMLID_2239_" class="st5" d="M128.3,209.3l1.6-1.9c0.7-0.8,2-0.9,2.8-0.2l8.4,7.4c0.8,0.7,0.9,2,0.2,2.8l-1.6,1.9
			c-0.7,0.8-2,0.9-2.8,0.2l-8.4-7.4C127.7,211.3,127.6,210.1,128.3,209.3z"/>
		<path id="XMLID_2237_" class="st10" d="M131.2,210.3l0.2-0.3c1.7-2,4.7-2.2,6.7-0.4l0,0c2,1.7,2.2,4.7,0.4,6.7l-0.2,0.3
			c-1.7,2-4.7,2.2-6.7,0.4l0,0C129.6,215.3,129.4,212.3,131.2,210.3z"/>
	</g>
	<path class="st0" d="M94.9,139.3h-4.4c-0.9,0-1.5-0.8-1.5-1.5l0,0c0-0.9,0.8-1.5,1.5-1.5h4.4c0.9,0,1.5,0.8,1.5,1.5l0,0
		C96.4,138.5,95.8,139.3,94.9,139.3z"/>
	<path class="st0" d="M94.4,134.6h-5.9c-0.9,0-1.5-0.8-1.5-1.6l0,0c0-0.9,0.8-1.5,1.5-1.5h5.9c0.9,0,1.5,0.8,1.5,1.5l0,0
		C95.9,134,95.2,134.6,94.4,134.6z"/>
</g>
<g id="Clouds">
</g>
<g id="Trees">
</g>
<g id="Character">
</g>
</svg>
