<?xml version="1.0" encoding="utf-8"?>
<!-- Generator: Adobe Illustrator 19.0.0, SVG Export Plug-In . SVG Version: 6.00 Build 0)  -->
<svg version="1.1" id="Layer_1" xmlns="http://www.w3.org/2000/svg" xmlns:xlink="http://www.w3.org/1999/xlink" x="0px" y="0px"
	 viewBox="0 0 41.6 47" style="enable-background:new 0 0 41.6 47;" xml:space="preserve">
<style type="text/css">
	.st0{opacity:0.1;}
	.st1{fill:#FFFF00;}
	.st2{fill:#FFD600;}
	.st3{fill:#A1887F;}
	.st4{fill:#FF8A65;}
	.st5{fill:#FF7043;}
</style>
<ellipse id="XMLID_35_" class="st0" cx="13.1" cy="46.1" rx="4.6" ry="0.9"/>
<circle id="XMLID_34_" class="st1" cx="12.7" cy="12.7" r="12.7"/>
<path id="XMLID_33_" class="st2" d="M25.7,12.7c0,7-5.7,12.7-12.7,12.7V0C20,0,25.7,5.7,25.7,12.7z"/>
<polygon id="XMLID_32_" class="st3" points="12.3,46 13.7,46 13.7,15.5 18.7,12.8 18.7,11.2 13.7,13.9 13.7,5.6 12.2,5.6 12.2,16.4 
	7.8,11.1 7.8,13.2 12.2,18.3 "/>
<ellipse id="XMLID_6_" class="st0" cx="31.1" cy="46.2" rx="3.9" ry="0.8"/>
<circle id="XMLID_5_" class="st4" cx="30.8" cy="17.8" r="10.8"/>
<path id="XMLID_4_" class="st5" d="M41.6,17.8c0,6-4.8,10.8-10.8,10.8V7C36.8,7,41.6,11.8,41.6,17.8z"/>
<polygon id="XMLID_3_" class="st3" points="30.5,46.2 31.7,46.2 31.7,20.2 35.9,17.9 35.9,16.5 31.7,18.8 31.6,11.7 30.4,11.7 
	30.4,20.9 26.7,16.5 26.7,18.2 30.4,22.6 "/>
</svg>
