<?xml version="1.0" encoding="utf-8"?>
<!-- Generator: Adobe Illustrator 19.0.0, SVG Export Plug-In . SVG Version: 6.00 Build 0)  -->
<svg version="1.1" id="Layer_1" xmlns="http://www.w3.org/2000/svg" xmlns:xlink="http://www.w3.org/1999/xlink" x="0px" y="0px"
	 viewBox="0 0 32 32" style="enable-background:new 0 0 32 32;" xml:space="preserve">
<style type="text/css">
	.st0{fill:#B0BEC5;}
</style>
<g id="XMLID_1_">
	<path id="XMLID_14_" class="st0" d="M16,1c8.3,0,15,6.7,15,15s-6.7,15-15,15S1,24.3,1,16S7.7,1,16,1 M16,0C7.2,0,0,7.2,0,16
		s7.2,16,16,16s16-7.2,16-16S24.8,0,16,0L16,0z"/>
</g>
<g id="XMLID_4_">
	<path id="XMLID_16_" class="st0" d="M15.4,9.4c0.4-0.2,0.6-0.3,0.8-0.3C16.5,9,16.9,9,17.2,9h2.3v2.5h-1.7c-0.2,0-0.3,0.1-0.4,0.2
		c-0.1,0.1-0.3,0.3-0.3,0.4v1.6h2.3c0,0.3-0.1,0.6-0.1,0.9l-0.1,0.8c-0.1,0.3-0.1,0.5-0.1,0.7h-2.1v7H14v-7.1h-1.5v-2.4H14v-1.9
		c0-0.3,0.1-1,0.5-1.6C14.9,9.6,15.2,9.4,15.4,9.4z"/>
</g>
</svg>
