<?xml version="1.0" encoding="utf-8"?>
<!-- Generator: Adobe Illustrator 19.0.0, SVG Export Plug-In . SVG Version: 6.00 Build 0)  -->
<svg version="1.1" id="Layer_1" xmlns="http://www.w3.org/2000/svg" xmlns:xlink="http://www.w3.org/1999/xlink" x="0px" y="0px"
	 viewBox="-751 1009 32 32" style="enable-background:new -751 1009 32 32;" xml:space="preserve">
<style type="text/css">
	.st0{fill:#455A64;}
</style>
<g>
	<path id="XMLID_16_" class="st0" d="M-735.7,1017.4c0.4-0.2,0.7-0.3,0.9-0.3c0.4-0.1,0.8-0.1,1.2-0.1h2.6v2.9h-1.9
		c-0.2,0-0.3,0.1-0.5,0.2c-0.1,0.1-0.3,0.3-0.3,0.4v1.8h2.6c0,0.3-0.1,0.7-0.1,1l-0.1,0.9c-0.1,0.3-0.1,0.6-0.1,0.8h-2.4v8h-3.5
		v-8.1h-1.7v-2.7h1.7v-2.2c0-0.3,0.1-1.1,0.6-1.8C-736.3,1017.7-735.9,1017.5-735.7,1017.4z"/>
</g>
</svg>
