<?xml version="1.0" encoding="utf-8"?>
<!-- Generator: Adobe Illustrator 19.0.0, SVG Export Plug-In . SVG Version: 6.00 Build 0)  -->
<svg version="1.1" id="Layer_1" xmlns="http://www.w3.org/2000/svg" xmlns:xlink="http://www.w3.org/1999/xlink" x="0px" y="0px"
	 viewBox="0 0 32 32" style="enable-background:new 0 0 32 32;" xml:space="preserve">
<style type="text/css">
	.st0{fill:#B0BEC5;}
</style>
<g id="XMLID_1_">
	<path id="XMLID_14_" class="st0" d="M16,1c8.3,0,15,6.7,15,15s-6.7,15-15,15S1,24.3,1,16S7.7,1,16,1 M16,0C7.2,0,0,7.2,0,16
		s7.2,16,16,16s16-7.2,16-16S24.8,0,16,0L16,0z"/>
</g>
<g>
	<path id="XMLID_2_" class="st0" d="M24,10.9c-0.6,0.3-1.2,0.5-1.9,0.5c0.7-0.4,1.2-1.1,1.4-1.9c-0.6,0.4-1.4,0.7-2.1,0.8
		C20.9,9.7,20,9.3,19,9.3c-1.9,0-3.3,1.5-3.3,3.4c0,0.3,0.1,0.5,0.1,0.8C13,13.3,10.6,11.9,9,9.9c-0.3,0.5-0.4,1.1-0.4,1.7
		c0,1.2,0.6,2.3,1.5,2.9c-0.5,0-1-0.2-1.5-0.4c0,0,0,0,0,0.1c0,1.7,1.2,3,2.6,3.3c-0.3,0.1-0.6,0.1-0.8,0.1s-0.4,0-0.6-0.1
		c0.4,1.4,1.7,2.3,3.1,2.4c-1.2,0.9-2.5,1.5-4.1,1.5c-0.3,0-0.5,0-0.8-0.1c1.4,0.9,3.2,1.5,5.1,1.5c6.1,0,9.4-5.2,9.4-9.7
		c0-0.1,0-0.3,0-0.4C23,12.1,23.6,11.6,24,10.9z"/>
</g>
</svg>
