<?xml version="1.0" encoding="utf-8"?>
<!-- Generator: Adobe Illustrator 19.0.0, SVG Export Plug-In . SVG Version: 6.00 Build 0)  -->
<svg version="1.1" id="Layer_1" xmlns="http://www.w3.org/2000/svg" xmlns:xlink="http://www.w3.org/1999/xlink" x="0px" y="0px"
	 viewBox="-751 1009 32 32" style="enable-background:new -751 1009 32 32;" xml:space="preserve">
<style type="text/css">
	.st0{fill:#455A64;}
</style>
<g>
	<path id="XMLID_15_" class="st0" d="M-725.5,1018.9c-0.7,0.4-1.4,0.6-2.2,0.6c0.8-0.5,1.4-1.3,1.7-2.2c-0.7,0.5-1.6,0.8-2.5,1
		c-0.7-0.8-1.7-1.3-2.9-1.3c-2.2,0-3.9,1.8-3.9,4c0,0.4,0.1,0.6,0.1,0.9c-3.3-0.1-6.1-1.8-8-4.2c-0.3,0.6-0.5,1.3-0.5,2
		c0,1.4,0.7,2.7,1.8,3.4c-0.6,0-1.2-0.2-1.8-0.5c0,0,0,0,0,0.1c0,2,1.4,3.6,3.1,3.9c-0.3,0.1-0.7,0.1-1,0.1c-0.3,0-0.5,0-0.7-0.1
		c0.5,1.6,2,2.7,3.7,2.8c-1.4,1.1-3,1.8-4.8,1.8c-0.3,0-0.6,0-1-0.1c1.7,1.1,3.8,1.8,6,1.8c7.2,0,11.1-6.2,11.1-11.4
		c0-0.1,0-0.4,0-0.5C-726.7,1020.4-726,1019.7-725.5,1018.9z"/>
</g>
</svg>
