<?xml version="1.0" encoding="utf-8"?>
<!-- Generator: Adobe Illustrator 19.0.0, SVG Export Plug-In . SVG Version: 6.00 Build 0)  -->
<svg version="1.1" id="Layer_1" xmlns="http://www.w3.org/2000/svg" xmlns:xlink="http://www.w3.org/1999/xlink" x="0px" y="0px"
	 viewBox="-197 16 804.9 600" style="enable-background:new -197 16 804.9 600;" xml:space="preserve">
<g id="XMLID_161_">
	<path id="XMLID_175_" style="fill:#607D8B;" d="M-56.1,520.5c-3-14.4-14.8-18.2-28-19.5c-42.7-4-50.2,28-50.2,41.5
		c0,23.1,6.7,42.2,48.6,42.2c7.7,0,29-8,29-20.9H3.5c-2.4,38.4-66.8,47.6-94.9,47.6c-58.2,0-108-10.9-105.6-68.3
		c1.7-41,40.4-69.8,117.3-68c42.9,1,84.1,14.4,84.2,45.5L-56.1,520.5L-56.1,520.5z"/>
	<path id="XMLID_174_" style="fill:#607D8B;" d="M547.2,520.5c-3-14.4-14.8-18.2-28-19.5c-42.7-4-50.2,28-50.2,41.5
		c0,23.1,6.7,42.2,48.6,42.2c7.7,0,29-8,29-20.9h60.2c-2.4,38.4-66.8,47.6-94.9,47.6c-58.2,0-108-10.9-105.6-68.3
		c1.7-41,40.4-69.8,117.3-68c42.9,1,84.1,14.4,84.3,45.5L547.2,520.5L547.2,520.5z"/>
	<polygon id="XMLID_173_" style="fill:#607D8B;" points="15.4,477.8 93.6,477.8 160.3,571.5 160.8,571.5 160.8,477.8 210.9,477.8 
		210.9,608 136,608 66.1,514.2 65.5,514.2 65.5,608 15.4,608 	"/>
	<path id="XMLID_169_" style="fill:#607D8B;" d="M226.4,477.8h95c45.6,0,72.5,12.8,72.5,32.1c0,11.4-11.2,25.5-36.3,29.6v0.4
		c30.2,1.8,41.3,20.9,41.3,32.4c0,22.9-26.2,35.7-77.2,35.7h-95.2L226.4,477.8L226.4,477.8L226.4,477.8z M281.4,528.4h15.7
		c24.2,0,37.1-1.9,37.1-12c0-10.8-10.7-14.4-32.5-14.4h-20.3V528.4L281.4,528.4L281.4,528.4z M281.4,580.7h15.7
		c29.2,0,39.9-3.1,39.9-13.2c0-10.8-13.5-14.4-35.4-14.4h-20.3L281.4,580.7L281.4,580.7z"/>
	<path id="XMLID_167_" style="fill:#607D8B;" d="M475.7,278.3L251.8,428l75.4-179.2l35.8-83.5c14.5-27,41.8-44.2,71.5-44.6
		c28.5,0,53.8,13.7,69.8,38.3c16.5,24.6,17.4,64.8,0.9,89.8C497.9,260.4,486.9,270.8,475.7,278.3L475.7,278.3z"/>
	<path id="XMLID_166_" style="fill:#607D8B;" d="M364.2,136.9L253.5,398.6l-4.9-28.5l-33.3-214.5c-1.4-13.1,4-24.1,14.5-31.4
		l15.9-9.5c0.9-3.3-3.7-4.4-5.9-5.5l-31.1-0.3c-2-30.9,11.6-59,37.8-75.9c20.4-13.3,51.3-16.7,74-6c29.4,12,49.9,43.4,50.4,75.4
		C370.7,114.2,368.7,126.4,364.2,136.9L364.2,136.9z"/>
	<path id="XMLID_165_" style="fill:#607D8B;" d="M151.6,399.6l-109-262.3c-11.7-28.1-6.8-65,13.3-87.7
		c21.4-23.8,51.6-33.9,82.8-25.9c26.4,6.5,51,31.7,57.5,58.7c3.1,10.1,2.6,22.2,2,33.3L151.6,399.6L151.6,399.6z"/>
	<path id="XMLID_164_" style="fill:#607D8B;" d="M-81.4,268.8c-22.4-19.4-32.4-45.3-29.1-75.2c3.2-30.3,27.1-59.9,55.7-69.1
		c29.3-9.1,61.2-1.9,82.5,20c8.9,8.5,14.5,18.6,19.1,29l105.3,254.9L-81.4,268.8L-81.4,268.8z"/>
	<path id="XMLID_163_" style="fill:#607D8B;" d="M-105.3,455c-29.1-3.3-51.6-19-65.3-45.7c-13.9-27-10.3-65.2,8.4-89.1
		c20.3-24.3,49.7-36.6,79.3-30.6c12.1,1.9,22.2,7.1,31.7,13.1l226.6,152.4L-105.3,455L-105.3,455z"/>
	<path id="XMLID_162_" style="fill:#607D8B;" d="M509.9,455c29.1-3.3,51.6-19,65.3-45.7c13.9-27,10.3-65.2-8.4-89.1
		c-20.3-24.3-49.7-36.6-79.3-30.6c-12.1,1.9-22.2,7.1-31.7,13.1L229.2,455.1L509.9,455L509.9,455z"/>
</g>
</svg>
