<?xml version="1.0" encoding="utf-8"?>
<!-- Generator: Adobe Illustrator 19.0.0, SVG Export Plug-In . SVG Version: 6.00 Build 0)  -->
<svg version="1.1" id="Layer_1" xmlns="http://www.w3.org/2000/svg" xmlns:xlink="http://www.w3.org/1999/xlink" x="0px" y="0px"
	 viewBox="1642 16 4483.9 600" style="enable-background:new 1642 16 4483.9 600;" xml:space="preserve">
<g id="XMLID_16_">
	<g>
		<path style="fill:#78909C;" d="M1642,16v600h1623.4V16H1642z M2030.2,142.7c-0.6,4.9-1.5,8.9-2.7,11.9s-2.7,5.2-4.5,6.7
			c-1.8,1.4-3.8,2.2-5.9,2.2h-116.9v376c0,2.4-0.8,4.6-2.3,6.5c-1.6,1.9-4.1,3.5-7.8,4.7c-3.6,1.2-8.5,2.2-14.6,2.9
			c-6.1,0.7-13.8,1.1-22.9,1.1c-9.1,0-16.8-0.4-22.9-1.1c-6.1-0.7-11-1.7-14.6-2.9c-3.6-1.2-6.2-2.8-7.8-4.7s-2.3-4.1-2.3-6.5v-376
			h-116.7c-2.4,0-4.5-0.7-6.1-2.2c-1.7-1.4-3.1-3.7-4.3-6.7s-2.1-7-2.7-11.9c-0.6-4.9-0.9-10.9-0.9-17.8c0-7.2,0.3-13.3,0.9-18.4
			c0.6-5,1.5-9.1,2.7-12.1s2.6-5.2,4.3-6.5s3.7-2,6.1-2H2017c2.2,0,4.1,0.7,5.9,2c1.8,1.3,3.3,3.5,4.5,6.5s2.1,7,2.7,12.1
			c0.7,5,1,11.1,1,18.4C2031.1,131.9,2030.8,137.8,2030.2,142.7z M2369.2,532.8c-0.6,4.7-1.5,8.5-2.7,11.4c-1.2,2.9-2.7,5-4.5,6.3
			s-3.8,2-5.9,2h-234.4c-7.9,0-14.6-2.3-20-7s-8.1-12.3-8.1-22.9V115.8c0-10.6,2.7-18.2,8.1-22.9c5.4-4.7,12.1-7,20-7h232.9
			c2.2,0,4.1,0.6,5.8,1.8s3.1,3.3,4.3,6.3s2.1,6.9,2.7,11.5c0.6,4.7,0.9,10.6,0.9,17.8c0,6.7-0.3,12.4-0.9,17.1
			c-0.6,4.7-1.5,8.5-2.7,11.4s-2.6,5-4.3,6.3s-3.6,2-5.8,2h-166.5V274H2329c2.2,0,4.1,0.7,6,2c1.8,1.3,3.3,3.4,4.5,6.1
			c1.2,2.8,2.1,6.5,2.7,11.2c0.6,4.7,0.9,10.4,0.9,17.1c0,7-0.3,12.7-0.9,17.3c-0.6,4.6-1.5,8.2-2.7,11c-1.2,2.8-2.7,4.7-4.5,6
			c-1.8,1.2-3.8,1.8-6,1.8h-140.9v131.6h168c2.2,0,4.1,0.7,5.9,2c1.8,1.3,3.3,3.4,4.5,6.3c1.2,2.9,2.1,6.7,2.7,11.4
			c0.6,4.7,0.9,10.5,0.9,17.5S2369.8,528.1,2369.2,532.8z M2772.4,497c-0.4,4.2-0.9,7.8-1.6,10.8s-1.7,5.6-2.9,7.7
			c-1.2,2.2-3.1,4.6-5.8,7.4c-2.7,2.8-7.8,6.3-15.3,10.6c-7.6,4.3-16.8,8.5-27.8,12.4c-10.9,4-23.4,7.3-37.5,9.9s-29.3,4-45.6,4
			c-32,0-60.8-4.9-86.5-14.8c-25.7-9.8-47.6-24.6-65.6-44.2s-31.8-44-41.5-73.4c-9.6-29.3-14.4-63.4-14.4-102.4
			c0-39.7,5.3-74.9,15.9-105.6c10.6-30.8,25.4-56.6,44.3-77.5c19-20.9,41.8-36.8,68.3-47.6c26.6-10.8,55.8-16.2,87.8-16.2
			c13,0,25.5,1.1,37.5,3.2c12,2.2,23.1,5,33.3,8.5s19.4,7.5,27.6,12.1c8.2,4.6,13.9,8.5,17.1,11.7s5.5,6,6.7,8.1
			c1.2,2.2,2.2,4.9,2.9,8.3c0.7,3.4,1.3,7.3,1.6,11.9c0.4,4.6,0.5,10.2,0.5,16.9c0,7.2-0.2,13.3-0.7,18.4c-0.5,5.1-1.3,9.1-2.5,12.3
			c-1.2,3.1-2.6,5.4-4.3,6.9c-1.7,1.4-3.6,2.2-5.8,2.2c-3.6,0-8.2-2.1-13.7-6.3s-12.7-8.9-21.4-14.1c-8.8-5.2-19.2-9.9-31.4-14.1
			c-12.1-4.2-26.6-6.3-43.4-6.3c-18.5,0-35,3.8-49.6,11.4c-14.5,7.6-26.9,18.4-37.1,32.4c-10.2,14.1-18,31.1-23.3,51
			s-7.9,42.4-7.9,67.4c0,27.4,2.8,51.1,8.5,71.2c5.6,20.1,13.7,36.6,24.2,49.6s23.1,22.7,37.8,29c14.8,6.4,31.4,9.6,49.9,9.6
			c16.8,0,31.4-2,43.6-6c12.3-4,22.8-8.3,31.5-13.2c8.8-4.8,16-9.1,21.6-13c5.6-3.8,10-5.8,13.2-5.8c2.4,0,4.3,0.5,5.8,1.4
			c1.4,1,2.6,2.9,3.6,5.8c1,2.9,1.7,6.9,2.2,12.1s0.7,12.4,0.7,21C2772.9,487.7,2772.7,492.8,2772.4,497z M3212.6,539.4
			c0,2.4-0.8,4.6-2.3,6.5c-1.6,1.9-4.1,3.5-7.8,4.7c-3.7,1.2-8.4,2.2-14.4,2.9c-6,0.7-13.6,1.1-22.7,1.1c-9.4,0-17.1-0.4-23.3-1.1
			c-6.1-0.7-10.9-1.7-14.4-2.9c-3.5-1.2-6-2.8-7.6-4.7s-2.3-4.1-2.3-6.5V350.9h-174.5v188.5c0,2.4-0.7,4.6-2.2,6.5
			c-1.4,1.9-4,3.5-7.6,4.7c-3.6,1.2-8.4,2.2-14.4,2.9c-6,0.7-13.7,1.1-23.1,1.1c-9.1,0-16.8-0.4-22.9-1.1c-6.1-0.7-11-1.7-14.6-2.9
			c-3.6-1.2-6.2-2.8-7.8-4.7s-2.3-4.1-2.3-6.5V98.9c0-2.4,0.8-4.6,2.3-6.5c1.6-1.9,4.1-3.5,7.8-4.7c3.6-1.2,8.5-2.2,14.6-2.9
			s13.8-1.1,22.9-1.1c9.4,0,17.1,0.4,23.1,1.1s10.8,1.7,14.4,2.9c3.6,1.2,6.1,2.8,7.6,4.7c1.4,1.9,2.2,4.1,2.2,6.5v171.2h174.5V98.9
			c0-2.4,0.8-4.6,2.3-6.5c1.6-1.9,4.1-3.5,7.6-4.7s8.3-2.2,14.4-2.9c6.1-0.7,13.9-1.1,23.3-1.1c9.1,0,16.7,0.4,22.7,1.1
			s10.8,1.7,14.4,2.9c3.6,1.2,6.2,2.8,7.8,4.7s2.3,4.1,2.3,6.5V539.4z"/>
	</g>
	<g>
		<path style="fill:#607D8B;" d="M5138.1,162.3c-4.8-1.2-10.3-2.2-16.4-2.9s-14.6-1.1-25.4-1.1h-42.5v132.3h48.3
			c13.5,0,25.2-1.6,35.3-4.9c10.1-3.2,18.5-7.8,25.2-13.7s11.8-12.9,15.1-21.1c3.5-8,5.2-17.2,5.2-27.3c0-15.4-3.5-28.4-10.5-38.9
			C5165.4,174.1,5154,166.7,5138.1,162.3z"/>
		<path style="fill:#607D8B;" d="M3265.4,16v600h2860.5V16H3265.4z M3662.9,497c-0.4,4.2-0.9,7.8-1.6,10.8s-1.7,5.6-2.9,7.7
			c-1.2,2.2-3.1,4.6-5.8,7.4c-2.7,2.8-7.8,6.3-15.3,10.6c-7.6,4.3-16.8,8.5-27.8,12.4c-10.9,4-23.4,7.3-37.5,9.9s-29.3,4-45.6,4
			c-32,0-60.8-4.9-86.5-14.8c-25.7-9.8-47.6-24.6-65.6-44.2s-31.8-44-41.5-73.4c-9.6-29.3-14.4-63.4-14.4-102.4
			c0-39.7,5.3-74.9,15.9-105.6c10.6-30.8,25.4-56.6,44.3-77.5c19-20.9,41.8-36.8,68.3-47.6c26.6-10.8,55.8-16.2,87.8-16.2
			c13,0,25.5,1.1,37.5,3.2c12,2.2,23.1,5,33.3,8.5s19.4,7.5,27.6,12.1s13.9,8.5,17.1,11.7s5.5,6,6.7,8.1c1.2,2.2,2.2,4.9,2.9,8.3
			c0.7,3.4,1.3,7.3,1.6,11.9c0.4,4.6,0.5,10.2,0.5,16.9c0,7.2-0.2,13.3-0.7,18.4c-0.5,5.1-1.3,9.1-2.5,12.3
			c-1.2,3.1-2.6,5.4-4.3,6.9c-1.7,1.4-3.6,2.2-5.8,2.2c-3.6,0-8.2-2.1-13.7-6.3s-12.7-8.9-21.4-14.1c-8.8-5.2-19.2-9.9-31.4-14.1
			c-12.1-4.2-26.6-6.3-43.4-6.3c-18.5,0-35,3.8-49.6,11.4c-14.5,7.6-26.9,18.4-37.1,32.4c-10.2,14.1-18,31.1-23.3,51
			s-7.9,42.4-7.9,67.4c0,27.4,2.8,51.1,8.5,71.2c5.6,20.1,13.7,36.6,24.2,49.6s23.1,22.7,37.8,29c14.8,6.4,31.4,9.6,49.9,9.6
			c16.8,0,31.4-2,43.6-6c12.3-4,22.8-8.3,31.5-13.2c8.8-4.8,16-9.1,21.6-13c5.6-3.8,10-5.8,13.2-5.8c2.4,0,4.3,0.5,5.8,1.4
			c1.4,1,2.6,2.9,3.6,5.8c1,2.9,1.7,6.9,2.2,12.1c0.5,5.5,0.7,12.4,0.7,21C3663.4,487.7,3663.2,492.8,3662.9,497z M4014.5,532.8
			c-0.6,4.7-1.5,8.5-2.7,11.4c-1.2,2.9-2.7,5-4.5,6.3s-3.8,2-5.9,2h-234.3c-7.9,0-14.6-2.3-20-7s-8.1-12.3-8.1-22.9V115.8
			c0-10.6,2.7-18.2,8.1-22.9s12.1-7,20-7H4000c2.2,0,4.1,0.6,5.8,1.8c1.7,1.2,3.1,3.3,4.3,6.3s2.1,6.9,2.7,11.5
			c0.6,4.7,0.9,10.6,0.9,17.8c0,6.7-0.3,12.4-0.9,17.1s-1.5,8.5-2.7,11.4s-2.6,5-4.3,6.3c-1.7,1.3-3.6,2-5.8,2h-166.5V274h141
			c2.2,0,4.1,0.7,5.9,2s3.3,3.4,4.5,6.1c1.2,2.8,2.1,6.5,2.7,11.2c0.6,4.7,0.9,10.4,0.9,17.1c0,7-0.3,12.7-0.9,17.3
			c-0.6,4.6-1.5,8.2-2.7,11c-1.2,2.8-2.7,4.7-4.5,6c-1.8,1.2-3.8,1.8-5.9,1.8h-141v131.6h168c2.2,0,4.1,0.7,5.9,2s3.3,3.4,4.5,6.3
			c1.2,2.9,2.1,6.7,2.7,11.4c0.5,4.7,0.8,10.5,0.8,17.5S4015.1,528.1,4014.5,532.8z M4488.2,534c-1.9,4.3-4.5,7.9-7.7,10.8
			c-3.3,2.9-7.1,5-11.5,6.3c-4.4,1.3-9,2-13.5,2H4415c-8.4,0-15.7-0.8-21.8-2.5c-6.1-1.7-11.8-4.7-17-9.2c-5.2-4.4-10.1-10.5-15-18
			c-4.8-7.6-10.2-17.4-16.2-29.4l-116-218.1c-6.7-13-13.6-27-20.5-42c-7-15-13.2-29.6-18.8-43.8h-0.7c1,17.3,1.7,34.5,2.2,51.7
			s0.7,34.9,0.7,53.2v244c0,2.4-0.7,4.6-2,6.5s-3.6,3.6-6.9,4.9c-3.3,1.3-7.6,2.3-13.2,3.1c-5.5,0.7-12.6,1.1-21.3,1.1
			c-8.4,0-15.4-0.4-20.9-1.1s-9.9-1.7-13-3.1c-3.1-1.3-5.3-2.9-6.5-4.9c-1.2-1.9-1.8-4.1-1.8-6.5V119.8c0-11.3,3.3-19.8,9.9-25.4
			c6.6-5.6,14.7-8.5,24.3-8.5h50.8c9.1,0,16.8,0.8,23.1,2.3c6.3,1.5,11.8,4.1,16.8,7.8c4.9,3.6,9.6,8.6,13.9,15s8.8,14.2,13.3,23.6
			l90.8,170.5c5.3,10.3,10.5,20.5,15.7,30.5s10.1,19.9,15,29.9c4.8,10,9.5,19.8,14.1,29.4c4.6,9.6,9,19.2,13.3,28.8h0.4
			c-0.7-16.8-1.3-34.4-1.6-52.6c-0.4-18.3-0.5-35.7-0.5-52.3V100c0-2.4,0.7-4.6,2.2-6.5c1.4-1.9,3.8-3.6,7.2-5
			c3.4-1.4,7.8-2.5,13.3-3.1s12.6-0.9,21.3-0.9c8.2,0,15,0.3,20.6,0.9c5.5,0.6,9.8,1.6,12.8,3.1c3,1.4,5.1,3.1,6.3,5
			c1.2,1.9,1.8,4.1,1.8,6.5v419.2C4491.1,524.7,4490.1,529.7,4488.2,534z M4904.4,142.7c-0.6,4.9-1.5,8.9-2.7,11.9s-2.7,5.2-4.5,6.7
			c-1.8,1.4-3.8,2.2-6,2.2h-116.8v376c0,2.4-0.8,4.6-2.3,6.5c-1.6,1.9-4.1,3.5-7.8,4.7c-3.6,1.2-8.5,2.2-14.6,2.9
			s-13.8,1.1-22.9,1.1s-16.8-0.4-22.9-1.1s-11-1.7-14.6-2.9c-3.6-1.2-6.2-2.8-7.8-4.7c-1.6-1.9-2.3-4.1-2.3-6.5v-376h-116.8
			c-2.4,0-4.4-0.7-6.1-2.2c-1.7-1.4-3.1-3.7-4.3-6.7c-1.2-3-2.1-7-2.7-11.9s-0.9-10.9-0.9-17.8c0-7.2,0.3-13.3,0.9-18.4
			c0.6-5,1.5-9.1,2.7-12.1s2.6-5.2,4.3-6.5c1.7-1.3,3.7-2,6.1-2h328.8c2.2,0,4.1,0.7,6,2c1.8,1.3,3.3,3.5,4.5,6.5s2.1,7,2.7,12.1
			c0.6,5,0.9,11.1,0.9,18.4C4905.3,131.9,4905,137.8,4904.4,142.7z M5303.7,546.8c-1,1.8-3.2,3.3-6.8,4.5c-3.6,1.2-8.9,2-15.9,2.5
			s-16.5,0.7-28.5,0.7c-10.1,0-18.1-0.2-24.2-0.7c-6-0.5-10.8-1.4-14.2-2.7c-3.5-1.3-6-3-7.4-5s-2.6-4.5-3.6-7.4l-41.8-104.2
			c-5-11.8-10-22.2-14.8-31.4c-4.8-9.1-10.1-16.8-16-22.9s-12.7-10.8-20.4-13.9c-7.7-3.1-16.6-4.7-26.7-4.7h-29.6v177.7
			c0,2.4-0.8,4.6-2.3,6.5c-1.6,1.9-4.1,3.5-7.8,4.7c-3.6,1.2-8.4,2.2-14.4,2.9c-6,0.7-13.7,1.1-23.1,1.1c-9.1,0-16.8-0.4-22.9-1.1
			c-6.1-0.7-11-1.7-14.6-2.9c-3.6-1.2-6.1-2.8-7.6-4.7c-1.4-1.9-2.2-4.1-2.2-6.5V115.8c0-10.6,2.7-18.2,8.1-22.9s12.1-7,20-7h120.8
			c12.3,0,22.4,0.2,30.3,0.7s15.1,1.1,21.6,1.8c18.8,2.6,35.6,7.2,50.6,13.7s27.8,15,38.2,25.4c10.5,10.5,18.4,22.8,24,37.1
			c5.5,14.3,8.3,30.7,8.3,49.2c0,15.6-2,29.9-6,42.7c-4,12.9-9.8,24.3-17.5,34.4s-17.2,18.9-28.5,26.3c-11.3,7.5-24.2,13.5-38.6,18
			c7,3.4,13.5,7.5,19.6,12.3s11.9,10.6,17.3,17.5c5.4,6.8,10.5,14.7,15.3,23.4c4.8,8.8,9.5,18.7,14.1,29.7l39.3,91.9
			c3.6,9.1,6,15.8,7.2,20c1.5,4.4,2.1,7.7,2.1,10.1C5305.1,542.7,5304.6,545,5303.7,546.8z M5757.8,549.1c-2.6,2.5-7.3,4.1-14.1,4.7
			c-6.7,0.6-16,0.9-27.8,0.9c-12.3,0-21.8-0.2-28.7-0.5s-12.1-1.1-15.7-2.2s-6.1-2.6-7.6-4.5c-1.4-1.9-2.6-4.4-3.6-7.6l-31.4-93.7
			h-175.2l-29.6,91.2c-1,3.4-2.2,6.2-3.8,8.5c-1.6,2.3-4.1,4.1-7.6,5.4s-8.4,2.2-14.8,2.7s-14.7,0.7-25.1,0.7
			c-11.1,0-19.7-0.4-26-1.1c-6.2-0.7-10.6-2.5-13-5.2c-2.4-2.8-3.3-6.7-2.5-11.7c0.7-5.1,2.5-11.8,5.4-20.2l143.8-413.8
			c1.4-4.1,3.1-7.4,5.1-9.9c1.9-2.5,5-4.4,9.2-5.8c4.2-1.3,10-2.2,17.5-2.5c7.5-0.4,17.3-0.5,29.6-0.5c14.2,0,25.5,0.2,33.9,0.5
			c8.4,0.4,15,1.2,19.6,2.5c4.7,1.3,8.1,3.3,10.1,6c2,2.6,3.8,6.3,5.2,10.8l144.6,413.3c2.9,8.7,4.7,15.5,5.4,20.6
			C5761.4,542.8,5760.5,546.5,5757.8,549.1z M6074.5,530.9c-0.6,4.9-1.5,9-2.7,12.3s-2.7,5.6-4.5,7s-3.9,2.2-6.3,2.2h-213.8
			c-7.9,0-14.6-2.3-20-7s-8.1-12.3-8.1-22.9V98.9c0-2.4,0.8-4.6,2.3-6.5c1.6-1.9,4.1-3.5,7.8-4.7c3.6-1.2,8.5-2.2,14.6-2.9
			s13.8-1.1,22.9-1.1c9.4,0,17.1,0.4,23.1,1.1s10.8,1.7,14.4,2.9s6.2,2.8,7.8,4.7c1.6,1.9,2.3,4.1,2.3,6.5v375.3H6061
			c2.4,0,4.5,0.7,6.3,2s3.3,3.5,4.5,6.5s2.1,7,2.7,11.9s0.9,10.9,0.9,18.1S6075.1,526,6074.5,530.9z"/>
		<polygon style="fill:#607D8B;" points="5540.8,175 5474.8,373.3 5607.1,373.3 5541.2,175 		"/>
	</g>
</g>
</svg>
