<?xml version="1.0" encoding="utf-8"?>
<!-- Generator: Adobe Illustrator 19.0.0, SVG Export Plug-In . SVG Version: 6.00 Build 0)  -->
<svg version="1.1" id="Layer_1" xmlns="http://www.w3.org/2000/svg" xmlns:xlink="http://www.w3.org/1999/xlink" x="0px" y="0px"
	 viewBox="1951 -275 3952 600" style="enable-background:new 1951 -275 3952 600;" xml:space="preserve">
<style type="text/css">
	.st0{fill:#ECEFF1;}
</style>
<g id="XMLID_67_">
	<path id="XMLID_90_" class="st0" d="M2144-93.3c-56.1-6-149.3-10-141.3-63.5c4.8-31.7,49.3-41.2,112.7-25.3
		c49.7,12.4,94.4,34.1,171.4,77.8l62.7-106.3c0,0-33.1,12.8-73.8-11.1c-46.6-27.4-154-65.9-238.9-7.1c-41.5,28.7-77,92.9-44.4,176.2
		c14.5,37.2,56.2,63.3,109.5,68.3c94.4,8.7,132.5,19.8,167.5,51.6c67.3,61.2,11.9,103.2,11.9,103.2s-154.8-175.8-286.7-87
		c-32.7,22-53.6,65.2-38.7,111.9c13.9,43.5,63.1,55.9,101.2,35.1c21.3-11.7,41.1-32.7,61.5-75.4c0,0,58.7,40.5,93.7,90.5
		c0,0,128.6-89.7,142.1-162.7C2364.1,30.2,2379.7-67.9,2144-93.3z M2022.6,228.8c-44.6-0.6-56.7-35.1-55.4-54.2
		c3.6-51.2,63.1-51.2,63.1-51.2c47,0,75,23.8,75,23.8C2078.5,228.2,2022.6,228.8,2022.6,228.8z"/>
	<path id="XMLID_89_" class="st0" d="M2373.4-70.2l74.7-55.6l57.9,57.1v173.3c0,0-0.6,15,6.8,21.4c7.6,6.6,9.2,7.9,23.8,18.8
		c14.2,10.6,36,12.3,36-9.8V-25.4c0,0,2.8-32.9-32.4-43.5l77.1-57.1l67.3,56.9c0,0-9.9,4-9.9,17.9v159.9c0,32.5,35.5,47.7,35.5,47.7
		l-67.3,73.8l-70.2-73.1l-82.2,73.4l-77.8-67.1c0,0-6.7-4.4-6.7-22.2v-167C2405.9-25.8,2408.3-55.6,2373.4-70.2z"/>
	<path id="XMLID_88_" class="st0" d="M2835.7-69c0,0-0.1,18.3,0.3,17.6v-17.3L2835.7-69z"/>
	<path id="XMLID_87_" class="st0" d="M3004.7,108.7V-52.5c0-12.9-1.9-18.6-7.7-22.3l-84.2-51.2l-77.1,57l-57.5-56.8l-69.9,55.6
		c32.9,11.1,27.8,44.4,27.8,44.4v167.1c0,15.2,3.2,17.3,6.7,22.2l61.5,67.2l65.5-73.2c-18.4-11.2-33.7-10.9-33.7-49.2V-51.4
		c22.3-39.8,66.7,26,66.7,26v167.6c0,10.9-8.7,14.7-8.7,14.7l78.6,74.4l71.7-74.9C3044.3,156.4,3004.7,149,3004.7,108.7z"/>
	<path id="XMLID_84_" class="st0" d="M3172.5-242.9c-15.8-14.6-18.2-32.1-18.2-32.1l-84.9,65.9l107.5,94.4l-103.2,52.4v174.7
		c0,17.9,2.1,24.7,2.1,24.7l114.3,93.4l167.2-116.7V-79L3172.5-242.9z M3257.7,154.4c0,0,3,22.3-13.5,11
		c-17.5-12.1-40.1-31.4-50.2-40.1c-17.3-14.9-20.2-44-20.2-61.9c0-46,0-145.2,0-145.2c0-34.2,18.2-21.2,18.2-21.2l65.7,56.3V154.4z"
		/>
	<path id="XMLID_81_" class="st0" d="M3707,160.3c0,0-47.2-6.6-47.2-51.6V-52.5c0-12.9-1.9-18.6-7.7-22.3l-64.7-51
		c0,0-84.6,45.3-113.3,59.5c-5.5,2.7-12.6,5.9-24.2,2.5c8.9-6.4,21.3-15.1,23.2-28.9c2.8-20-9.1-38.1-26.5-40.5
		c-17.4-2.4-33.8,11.8-36.6,31.8c-1.4,10.1,1.5,22.8,7.1,30.8c17.3,24.7,47.1,18.2,61.9,12.2c71.1-28.6,80.4,28.9,79.7,52.1v25.9
		c-138.9-15.2-167.5,70.9-167.8,102.5c-0.8,80.9,80,108.9,80,108.9l84.8-61.8l72.2,62.2L3707,160.3z M3484.1,107.9
		c-14.3-86,61-83.4,74.7-82.4v124c0,7.9-0.7,10.1-3.9,12.6C3519,164.2,3488.8,136,3484.1,107.9z"/>
	<path id="XMLID_80_" class="st0" d="M3702.7-66.7l81.4-59.1l59.9,59.9V98.4c0,0-1.2,13.1,5.9,22.6c0,0,15.5,20.6,34.1,30.1
		c0,0,29.8,15.5,29.8-11.5V-24.6c0,0,1.2-23.4-38.9-41.7l77.4-59.1l71.4,57.9c0,0-10.1,6.9-10.1,29.3v187.8c0,0-2.2,32.9,14.1,61.9
		L3909,325h-134.5l145.3-128.7c0,0-5.7-21.7-7.1-37.5l-86.6,72.1l-84.9-72.2v-177C3741.2-18.3,3746.3-54.8,3702.7-66.7z"/>
	<path id="XMLID_77_" class="st0" d="M4370.1-92.5V75c0,40.5-12.7,39.7-12.7,39.7l6.3,6.4l54.8-21.4c62.9-23.8,56.4-84.9,56.4-84.9
		v-150L4370.1-92.5z M4507.4,153.6v-284.2l-0.3-0.2c49,12.5,61-4.3,73.1-19c30.4-36.9,58.9-77.4,58.9-77.4l-7.1-6
		c-36.3,32.2-103.8,23.2-126.2,17.9c-85.7-20.2-102.3-24.9-144.6-33.9c-108.3-23.2-168.4,28.6-172,75.6
		c-3.2,42.3,13.1,61.3,13.1,61.3l6.6-2.4c6.5-71.4,91-60.6,123.8-53c34.2,7.9,130.9,27.9,162.1,34.3v288.7
		c-22.5,2.7-38.3,2.6-38.3,2.6c-147.6,0-144-133.9-144-133.9c0-117.9,82.7-171.4,82.7-171.4C4268.9-125.8,4210-30.8,4210,50.8
		c0,204.7,215.5,192.2,215.5,192.2c141.1,0,197-129.2,197-129.2l-4.2-4.7C4588.3,136.2,4542.6,148.2,4507.4,153.6z"/>
	<path id="XMLID_70_" class="st0" d="M4761.8,125.8V-51.6c0-11,7.1-16.4,7.1-16.4l-65-57.8l-74.7,55.6
		c34.9,14.7,32.5,44.4,32.5,44.4v181.3c0,17.9,6.7,22.2,6.7,22.2l61.1,52.8l65.1-61.1C4794.7,169.4,4761.8,165.5,4761.8,125.8z
		 M4760.3-200.7l-61.2-54.1l-56.4,59.1l59.5,55.2L4760.3-200.7z"/>
	<path id="XMLID_69_" class="st0" d="M5260.8,109.5V-68.2l-80.6-57.6l-82.9,58.2l-75-58.2l-91.8,58.1l-59.6-58.5l-77,56
		c36.5,12.3,36.9,44.4,36.9,44.4v169c0,17.9,6.7,22.2,6.7,22.2l61.1,65.1l71-73c0,0-38.9-5.2-38.9-44.8V-45.9
		c0-43.2,64.3,1.5,64.3,30.4c0,5.2,0,159.6,0,159.6c0,10.9-5.2,14.1-5.2,14.1l73,72.4l68-72c0,0-35.9-4.2-35.9-50v-151
		c0-50.5,65.7,10.8,65.7,34.9c0,15.1,0,152.6,0,152.6c0,10.9-5.2,14.1-5.2,14.1l73,72.4l68-72
		C5296.7,159.5,5259.4,148.4,5260.8,109.5z"/>
	<path id="XMLID_68_" class="st0" d="M5423.7,103.9L5586.8,1.5l-84.5-127L5323.7-60v191.5c0,19.6,9.1,24,9.1,24l84.1,51.2l40.9,24.6
		l110.3-86.1l-4.8-5.9C5499.9,168.3,5423.7,139.3,5423.7,103.9z M5434.8-63.5l42.9,69.8c22.6,42.1-11.5,57.1-11.5,57.1L5423.7,88
		V-59.6C5423.7-79.8,5431.8-68.1,5434.8-63.5z"/>
	<path id="XMLID_74_" class="st0" d="M5717.1-65.3c0,0-12.5-19-12.5-0.6v88.7c0,0-1.5,53,23.2,31.5l67.3-51.8
		c14-10.1,39.9-32.4,55.3-8.9l33.3,48.2v81l-146.4,108.9c0,0-80.4-79.2-169-12.5l-6.5-7.7c0,0,128.6-126.2,220.2-47l7.6-5.8V59.9
		c0,0,0.4-39.7-31.4-15.5l-104.4,84.1l-41.7-47.2V-59.1l159.1-70.2c0,0,36.1,101.6,91.3,66.7c0,0-27.4-8.7-27.4-37.3
		c0-11.6,6.9-31.4,32.5-32.9c13.1-0.8,34.3,8.5,35.3,32.9c1.6,37.1-72.8,77.3-108.3,79C5794.7-21,5759.8-17.5,5717.1-65.3z"/>
</g>
</svg>
