<?xml version="1.0" encoding="utf-8"?>
<!-- Generator: Adobe Illustrator 19.0.0, SVG Export Plug-In . SVG Version: 6.00 Build 0)  -->
<svg version="1.1" id="Layer_1" xmlns="http://www.w3.org/2000/svg" xmlns:xlink="http://www.w3.org/1999/xlink" x="0px" y="0px"
	 viewBox="1376 16 3952 600" style="enable-background:new 1376 16 3952 600;" xml:space="preserve">
<g id="XMLID_67_">
	<path id="XMLID_90_" style="fill:#607D8B;" d="M1569,197.7c-56.1-6-149.3-10-141.3-63.5c4.8-31.7,49.3-41.2,112.7-25.3
		c49.7,12.4,94.4,34.1,171.4,77.8l62.7-106.3c0,0-33.1,12.8-73.8-11.1c-46.6-27.4-154-65.9-238.9-7.1c-41.5,28.7-77,92.9-44.4,176.2
		c14.5,37.2,56.2,63.3,109.5,68.3c94.4,8.7,132.5,19.8,167.5,51.6c67.3,61.2,11.9,103.2,11.9,103.2s-154.8-175.8-286.7-87
		c-32.7,22-53.6,65.2-38.7,111.9c13.9,43.5,63.1,55.9,101.2,35.1c21.3-11.7,41.1-32.7,61.5-75.4c0,0,58.7,40.5,93.7,90.5
		c0,0,128.6-89.7,142.1-162.7C1789.1,321.2,1804.7,223.1,1569,197.7z M1447.6,519.8c-44.6-0.6-56.7-35.1-55.4-54.2
		c3.6-51.2,63.1-51.2,63.1-51.2c47,0,75,23.8,75,23.8C1503.5,519.2,1447.6,519.8,1447.6,519.8z"/>
	<path id="XMLID_89_" style="fill:#607D8B;" d="M1798.4,220.8l74.7-55.6l57.9,57.1v173.3c0,0-0.6,15,6.8,21.4
		c7.6,6.6,9.2,7.9,23.8,18.8c14.2,10.6,36,12.3,36-9.8V265.6c0,0,2.8-32.9-32.4-43.5l77.1-57.1l67.3,56.9c0,0-9.9,4-9.9,17.9v159.9
		c0,32.5,35.5,47.7,35.5,47.7l-67.3,73.8l-70.2-73.1l-82.2,73.4l-77.8-67.1c0,0-6.7-4.4-6.7-22.2v-167
		C1830.9,265.2,1833.3,235.4,1798.4,220.8z"/>
	<path id="XMLID_88_" style="fill:#607D8B;" d="M2260.7,222c0,0-0.1,18.3,0.3,17.6v-17.3L2260.7,222z"/>
	<path id="XMLID_87_" style="fill:#607D8B;" d="M2429.7,399.7V238.5c0-12.9-1.9-18.6-7.7-22.3l-84.2-51.2l-77.1,57l-57.5-56.8
		l-69.9,55.6c32.9,11.1,27.8,44.4,27.8,44.4v167.1c0,15.2,3.2,17.3,6.7,22.2l61.5,67.2l65.5-73.2c-18.4-11.2-33.7-10.9-33.7-49.2
		V239.6c22.3-39.8,66.7,26,66.7,26v167.6c0,10.9-8.7,14.7-8.7,14.7l78.6,74.4l71.7-74.9C2469.3,447.4,2429.7,440,2429.7,399.7z"/>
	<path id="XMLID_84_" style="fill:#607D8B;" d="M2597.5,48.1c-15.8-14.6-18.2-32.1-18.2-32.1l-84.9,65.9l107.5,94.4l-103.2,52.4
		v174.7c0,17.9,2.1,24.7,2.1,24.7l114.3,93.4l167.2-116.7V212L2597.5,48.1z M2682.7,445.4c0,0,3,22.3-13.5,11
		c-17.5-12.1-40.1-31.4-50.2-40.1c-17.3-14.9-20.2-44-20.2-61.9c0-46,0-145.2,0-145.2c0-34.2,18.2-21.2,18.2-21.2l65.7,56.3V445.4z"
		/>
	<path id="XMLID_81_" style="fill:#607D8B;" d="M3132,451.3c0,0-47.2-6.6-47.2-51.6V238.5c0-12.9-1.9-18.6-7.7-22.3l-64.7-51
		c0,0-84.6,45.3-113.3,59.5c-5.5,2.7-12.6,5.9-24.2,2.5c8.9-6.4,21.3-15.1,23.2-28.9c2.8-20-9.1-38.1-26.5-40.5
		c-17.4-2.4-33.8,11.8-36.6,31.8c-1.4,10.1,1.5,22.8,7.1,30.8c17.3,24.7,47.1,18.2,61.9,12.2c71.1-28.6,80.4,28.9,79.7,52.1v25.9
		c-138.9-15.2-167.5,70.9-167.8,102.5c-0.8,80.9,80,108.9,80,108.9l84.8-61.8l72.2,62.2L3132,451.3z M2909.1,398.9
		c-14.3-86,61-83.4,74.7-82.4v124c0,7.9-0.7,10.1-3.9,12.6C2944,455.2,2913.8,427,2909.1,398.9z"/>
	<path id="XMLID_80_" style="fill:#607D8B;" d="M3127.7,224.3l81.4-59.1l59.9,59.9v164.3c0,0-1.2,13.1,5.9,22.6
		c0,0,15.5,20.6,34.1,30.1c0,0,29.8,15.5,29.8-11.5V266.4c0,0,1.2-23.4-38.9-41.7l77.4-59.1l71.4,57.9c0,0-10.1,6.9-10.1,29.3v187.8
		c0,0-2.2,32.9,14.1,61.9L3334,616h-134.5l145.3-128.7c0,0-5.7-21.7-7.1-37.5l-86.6,72.1l-84.9-72.2v-177
		C3166.2,272.7,3171.3,236.2,3127.7,224.3z"/>
	<path id="XMLID_77_" style="fill:#607D8B;" d="M3795.1,198.5V366c0,40.5-12.7,39.7-12.7,39.7l6.3,6.4l54.8-21.4
		c62.9-23.8,56.4-84.9,56.4-84.9v-150L3795.1,198.5z M3932.4,444.6V160.4l-0.3-0.2c49,12.5,61-4.3,73.1-19
		c30.4-36.9,58.9-77.4,58.9-77.4l-7.1-6C4020.7,90,3953.2,81,3930.8,75.7c-85.7-20.2-102.3-24.9-144.6-33.9
		c-108.3-23.2-168.4,28.6-172,75.6c-3.2,42.3,13.1,61.3,13.1,61.3l6.6-2.4c6.5-71.4,91-60.6,123.8-53
		c34.2,7.9,130.9,27.9,162.1,34.3v288.7c-22.5,2.7-38.3,2.6-38.3,2.6c-147.6,0-144-133.9-144-133.9c0-117.9,82.7-171.4,82.7-171.4
		C3693.9,165.2,3635,260.2,3635,341.8c0,204.7,215.5,192.2,215.5,192.2c141.1,0,197-129.2,197-129.2l-4.2-4.7
		C4013.3,427.2,3967.6,439.2,3932.4,444.6z"/>
	<path id="XMLID_70_" style="fill:#607D8B;" d="M4186.8,416.8V239.4c0-11,7.1-16.4,7.1-16.4l-65-57.8l-74.7,55.6
		c34.9,14.7,32.5,44.4,32.5,44.4v181.3c0,17.9,6.7,22.2,6.7,22.2l61.1,52.8l65.1-61.1C4219.7,460.4,4186.8,456.5,4186.8,416.8z
		 M4185.3,90.3l-61.2-54.1l-56.4,59.1l59.5,55.2L4185.3,90.3z"/>
	<path id="XMLID_69_" style="fill:#607D8B;" d="M4685.8,400.5V222.8l-80.6-57.6l-82.9,58.2l-75-58.2l-91.8,58.1l-59.6-58.5l-77,56
		c36.5,12.3,36.9,44.4,36.9,44.4v169c0,17.9,6.7,22.2,6.7,22.2l61.1,65.1l71-73c0,0-38.9-5.2-38.9-44.8V245.1
		c0-43.2,64.3,1.5,64.3,30.4c0,5.2,0,159.6,0,159.6c0,10.9-5.2,14.1-5.2,14.1l73,72.4l68-72c0,0-35.9-4.2-35.9-50v-151
		c0-50.5,65.7,10.8,65.7,34.9c0,15.1,0,152.6,0,152.6c0,10.9-5.2,14.1-5.2,14.1l73,72.4l68-72
		C4721.7,450.5,4684.4,439.4,4685.8,400.5z"/>
	<path id="XMLID_68_" style="fill:#607D8B;" d="M4848.7,394.9l163.1-102.4l-84.5-127L4748.7,231v191.5c0,19.6,9.1,24,9.1,24
		l84.1,51.2l40.9,24.6l110.3-86.1l-4.8-5.9C4924.9,459.3,4848.7,430.3,4848.7,394.9z M4859.8,227.5l42.9,69.8
		c22.6,42.1-11.5,57.1-11.5,57.1l-42.5,24.6V231.4C4848.7,211.2,4856.8,222.9,4859.8,227.5z"/>
	<path id="XMLID_74_" style="fill:#607D8B;" d="M5142.1,225.7c0,0-12.5-19-12.5-0.6v88.7c0,0-1.5,53,23.2,31.5l67.3-51.8
		c14-10.1,39.9-32.4,55.3-8.9l33.3,48.2v81l-146.4,108.9c0,0-80.4-79.2-169-12.5l-6.5-7.7c0,0,128.6-126.2,220.2-47l7.6-5.8v-98.8
		c0,0,0.4-39.7-31.4-15.5l-104.4,84.1l-41.7-47.2V231.9l159.1-70.2c0,0,36.1,101.6,91.3,66.7c0,0-27.4-8.7-27.4-37.3
		c0-11.6,6.9-31.4,32.5-32.9c13.1-0.8,34.3,8.5,35.3,32.9c1.6,37.1-72.8,77.3-108.3,79C5219.7,270,5184.8,273.5,5142.1,225.7z"/>
</g>
</svg>
