<?xml version="1.0" encoding="utf-8"?>
<!-- Generator: Adobe Illustrator 19.0.0, SVG Export Plug-In . SVG Version: 6.00 Build 0)  -->
<svg version="1.1" id="Layer_1" xmlns="http://www.w3.org/2000/svg" xmlns:xlink="http://www.w3.org/1999/xlink" x="0px" y="0px"
	 viewBox="1122 -275 2293.4 600" style="enable-background:new 1122 -275 2293.4 600;" xml:space="preserve">
<style type="text/css">
	.st0{fill:#ECEFF1;}
</style>
<g id="XMLID_108_">
	<g id="XMLID_126_">
		<path id="XMLID_136_" class="st0" d="M1935.2,72.1c-8.6-73.2-39.6-126.7-90.9-156.9c-56.9-33.5-143.4-35.4-204.8-4.6
			c-44.4,22.3-80.6,65.2-96.7,114.4c-16.6,50.8-16.6,117.6,0,169.5c10.6,33.2,25.1,57.5,47.4,79.6c26.7,26.4,61.7,43.4,101.6,49.2
			c14.3,2.1,59.5,2.1,74.3,0.1c7-1,19.1-3.6,26.9-5.9c72.5-21,121.9-76.7,138.9-156.4C1936.1,141.7,1937.8,94.5,1935.2,72.1z
			 M1811.3,160c-5.4,76.9-22.1,118.7-53.3,133.2c-11.3,5.3-31.3,5.5-42.2,0.6c-27.1-12.3-46.3-49.6-55.9-108.7
			c-6.1-37.5-6.7-120.8-1.1-161.6c7.8-57.3,24.3-91.2,50-102.6c17.6-7.8,42-3.2,57.7,11C1801.3-36.7,1818.8,52.8,1811.3,160z"/>
		<path id="XMLID_135_" class="st0" d="M2232.5-111.7c-19.2,0-29.5,2.1-45,9.2c-28.2,12.9-49.5,34.2-68.4,68.3l-5.9,10.7l0.8-19
			c0.4-10.4,1.1-29.9,1.6-43.3l0.8-24.3h-4.1c-5.2,0-168.6,32.6-173.5,34.7c-3.2,1.3-3.7,2.7-3.7,10.6c0,8.1,0.4,9.2,3.7,9.8
			c2,0.4,9.5,1.9,16.7,3.3c14.4,2.8,18.7,5,24.7,12.9c11,14.5,13.2,40.2,13.1,148.8c-0.1,88.8-2,133.1-6.2,146.9
			c-5.2,17-14.3,25.6-30.3,28.6c-5.2,1-12,2.3-15.1,3l-5.8,1.2l-0.5,11.4c-0.3,8,0.1,11.8,1.6,12.8c1.2,0.7,57,1.2,124.2,1l122-0.4
			l0.5-12.8c0.3-7-0.1-12.8-0.8-12.8c-9.5,0-38.5-4-43.1-5.9c-13.8-5.8-20.4-18.1-23.3-43.2c-3.4-29.4-5.4-102.6-4.4-162.6
			c0.9-60.6,1-60.8,4.7-64.9c8.8-9.5,31.2-16.9,51.3-16.9c16.1,0,32.7,4.1,50.4,12.6c8.5,4.1,16.3,7.1,17.4,6.6
			c2.2-0.9,42.2-106.6,42.2-111.6C2277.9-104.3,2255.2-111.7,2232.5-111.7z"/>
		<path id="XMLID_134_" class="st0" d="M1340-218.9h51.9c59.6,0,69.4,1.3,90.5,11.6c30.6,15,53,44.8,72.5,96.4
			c7.9,21,7.8,20.9,25.5,15.6l11.7-3.6L1591-175c-0.6-41.8-1.6-79.1-2.1-82.7l-1.1-6.6l-227.5-0.5c-125.1-0.2-229.9,0.1-232.9,0.6
			l-5.4,1l0.5,13.5l0.5,13.5l17.3,2.1c22.5,2.7,35.9,9,43.9,20.6c17.9,26.2,21.2,61.8,21.2,231.2c0,180.4-3.8,224.2-21.1,247
			c-9,11.7-16.2,15.6-36.5,19.3c-26.4,4.9-25.6,4.3-25.6,18c0,7.6,0.7,11.7,2.1,12.3c3,1.2,293.9,1.3,297.1,0.1
			c4-1.5,3.7-23-0.3-25.1c-1.6-0.8-11.4-2.8-21.8-4.3c-10.4-1.6-21.9-4.1-25.6-5.7c-19.1-8.3-29.7-31.2-33.6-72.7
			c-2.9-29.8-5.1-84.6-5.1-125.2V44l17.7,0.5c37.7,1.1,57.3,3.1,65.1,6.6c17.1,7.5,30.9,28.6,38.1,58l3.8,15.7l13.5,0.5l13.5,0.5
			V26.7v-99.1l-13.5,0.5l-13.5,0.5l-3.9,15.7c-7.6,30.3-20.1,48.9-38.3,57.4c-7.4,3.4-12.7,4.4-30.5,5.5
			c-11.8,0.7-28.4,1.3-36.8,1.4l-15.3,0.1v-49c0-49.2,2.6-153.6,4.3-169.8L1340-218.9z"/>
		<path id="XMLID_131_" class="st0" d="M2547-102.9c-9.7-2-18.5-2.4-37.4-1.8c-28.4,1-48,5.3-69.3,15.1c-7,3.3-13.2,5.9-13.7,5.9
			s-0.4-43,0.2-95.6c0.8-74.1,0.6-95.6-1-95.7c-5.4-0.1-173.8,32-175.6,33.5c-1.4,1.1-2,4.7-1.7,10.1c0.5,9.4-0.6,8.6,20,13.2
			c6.2,1.4,13.4,4.1,16.1,6c6.9,4.9,12.5,15.4,16.5,30.6c3.1,11.9,3.5,20.5,5,101.3c1.5,82.5,1.2,167.2-1.1,322.5l-0.9,64.5
			l12.1,2.7c17.5,4,67.4,12.3,83.8,13.9c24,2.4,79.9,2.1,97.7-0.6c77.3-11.7,135.6-56.5,162.8-125.2c7.2-18.2,14.1-46.3,16.5-67.1
			c2.8-24.4,1.3-73.3-3-92.9C2657.5-37.8,2610.5-89.8,2547-102.9z M2551.1,157.8c-7.6,48-21.4,85.1-40.6,109.1
			c-9.3,11.6-24.8,22.6-36.9,26.2c-7.8,2.3-24.5,2.9-39.4,1.3c-3.3-0.4-6.9-1.6-7.9-2.9c-2.8-3.4-5.9-227.2-4-292.7l1.5-51.9
			l13.2-3.8c19.5-5.6,40.4-4.7,55.3,2.3c29.8,14.1,49.4,49,59.6,106.2C2555.2,70.1,2554.7,134.8,2551.1,157.8z"/>
		<path id="XMLID_128_" class="st0" d="M2989-95c-45.3-22.7-115.2-21.1-166.4,3.9c-48.5,23.6-81.9,63.1-100.5,118.7
			c-9.7,29-12.8,52.3-11.8,89.9c0.6,23.8,1.7,36,4.2,47c19.1,85.3,77.6,143.3,159.4,158.1c18,3.2,58.9,3.3,77.1,0.1
			c26-4.6,56-16.1,74.9-28.9c23.1-15.6,46.7-39,46.7-46.3c0-4.4-7.9-14.6-11.4-14.6c-1.5,0-7.9,3.3-14.2,7.4
			c-22.6,14.6-44.1,20.6-74.1,20.6c-41.4,0-67.6-10.3-94-36.9c-11.7-11.8-16.5-18.1-22.5-29.8c-13.3-25.7-20.5-55.2-21.5-88.6
			l-0.5-14.4l122-0.4l122-0.4l0.5-8.2c0.3-4.5-0.3-16.4-1.3-26.4C3070-18.5,3040-69.5,2989-95z M2925.7,53.8
			c-15.8,0.6-42.6,1.2-59.6,1.5l-30.9,0.5v-6.7c0-3.7,1.1-13.4,2.3-21.5c10.3-66.4,35.1-106.2,66.1-106.3
			c28.5,0,46.1,39.2,49.7,111.1l1,20.4L2925.7,53.8z"/>
		<path id="XMLID_127_" class="st0" d="M3404.6,130.5c-13.9-27.7-39.4-46.7-92.9-69.1c-43.7-18.2-65.6-30.9-79-45.5
			c-10.9-11.9-14-21.5-13-39.2c1-16.4,5-26.2,15.3-37.2c13.2-14.1,31.3-19,53-14.4c35.6,7.5,58.5,32.2,78.2,84.3
			c7,18.6,7.8,19.2,20.5,14.5l8-3l-0.3-21.4c-0.2-11.8-0.8-36.5-1.3-55L3392-89l-5.9-2.5c-32.6-13.8-94.8-22.4-135.3-18.7
			c-46,4.2-79.8,18.8-105.8,45.7c-25.9,26.8-37.5,58.2-35.4,95.5c1.7,30.8,10.8,53,29.8,72.4c17.6,18,32.4,26.6,74.8,43.1
			c68.5,26.8,86.6,42.6,86.4,75.6c-0.1,27.8-14.9,48.2-41.8,57.7c-9.6,3.4-33.9,3.4-46.9-0.1c-34-9-60.1-38.4-82.3-93.1l-5.7-14
			l-6.7,0.3c-3.7,0.2-8.7,1.3-11.2,2.5l-4.6,2.2l0.4,23.9c0.2,13.1,0.9,40.8,1.5,61.6l1,37.7l7.6,3.3c15.6,6.7,62.3,16.9,91.7,20.1
			c3.6,0.4,23.7,0.5,44.5,0.3c36.2-0.4,38.8-0.6,57-5.4c53.7-14,88.5-44,103.9-89.4c4.7-14,5.4-18.2,6.1-39
			C3416.1,162.9,3413.6,148.5,3404.6,130.5z"/>
	</g>
	<g id="XMLID_109_">
		<g id="XMLID_250_">
			<path id="XMLID_263_" class="st0" d="M2681.8-170.4h-19.4l-7.7-20h-35.2l-7.3,20h-18.9l34.3-88.1h18.8L2681.8-170.4z M2649-205.3
				l-12.2-32.7l-11.9,32.7H2649z"/>
			<path id="XMLID_261_" class="st0" d="M2692.5-170.4v-88.1h60.4v14.9h-42.6v20.9h36.8v14.9h-36.8v37.4L2692.5-170.4L2692.5-170.4z
				"/>
			<path id="XMLID_258_" class="st0" d="M2768.9-170.4v-88.1h37.4c9.4,0,16.3,0.8,20.5,2.4c4.3,1.6,7.7,4.4,10.2,8.4
				c2.6,4,3.8,8.7,3.8,13.9c0,6.6-1.9,12.1-5.8,16.4c-3.9,4.3-9.7,7-17.4,8.1c3.8,2.2,7,4.7,9.5,7.4s5.9,7.5,10.1,14.3l10.8,17.2
				h-21.3l-12.7-19.2c-4.6-6.9-7.7-11.2-9.4-13s-3.5-3-5.3-3.7s-4.9-1-9-1h-3.6v36.8h-17.8V-170.4z M2786.7-221.3h13.2
				c8.5,0,13.9-0.4,16-1.1c2.1-0.7,3.8-2,5-3.7c1.2-1.8,1.8-4,1.8-6.6c0-3-0.8-5.4-2.4-7.2c-1.6-1.8-3.8-3-6.7-3.5
				c-1.4-0.2-5.8-0.3-13-0.3h-13.9L2786.7-221.3L2786.7-221.3z"/>
			<path id="XMLID_256_" class="st0" d="M2858.4-170.4v-88.1h17.8v88.1H2858.4z"/>
			<path id="XMLID_254_" class="st0" d="M2950.8-202.8l17.3,5.5c-2.6,9.6-7,16.8-13.2,21.4c-6.2,4.7-14,7-23.4,7
				c-11.7,0-21.3-4-28.9-12c-7.5-8-11.3-18.9-11.3-32.8c0-14.7,3.8-26.1,11.4-34.2c7.6-8.1,17.5-12.2,29.9-12.2
				c10.8,0,19.5,3.2,26.3,9.6c4,3.8,7,9.2,9,16.2l-17.6,4.2c-1-4.6-3.2-8.2-6.5-10.8s-7.3-4-12.1-4c-6.5,0-11.8,2.3-15.9,7
				c-4.1,4.7-6.1,12.3-6.1,22.8c0,11.1,2,19.1,6,23.8s9.2,7.1,15.6,7.1c4.7,0,8.8-1.5,12.2-4.5
				C2946.9-191.6,2949.3-196.4,2950.8-202.8z"/>
			<path id="XMLID_251_" class="st0" d="M3064-170.4h-19.4l-7.7-20h-35.2l-7.3,20h-18.9l34.3-88.1h18.8L3064-170.4z M3031.3-205.3
				l-12.2-32.7l-11.9,32.7H3031.3z"/>
		</g>
	</g>
</g>
</svg>
