<?xml version="1.0" encoding="utf-8"?>
<!-- Generator: Adobe Illustrator 19.0.0, SVG Export Plug-In . SVG Version: 6.00 Build 0)  -->
<svg version="1.1" id="Layer_1" xmlns="http://www.w3.org/2000/svg" xmlns:xlink="http://www.w3.org/1999/xlink" x="0px" y="0px"
	 viewBox="377 -275 804.9 600" style="enable-background:new 377 -275 804.9 600;" xml:space="preserve">
<style type="text/css">
	.st0{fill:#ECEFF1;}
</style>
<g id="XMLID_161_">
	<path id="XMLID_175_" class="st0" d="M517.9,234.1c-3-14.4-14.8-18.2-28-19.5c-42.7-4-50.2,28-50.2,41.5c0,23.1,6.7,42.2,48.6,42.2
		c7.7,0,29-8,29-20.9h60.2c-2.4,38.4-66.8,47.6-94.9,47.6c-58.2,0-108-10.9-105.6-68.3c1.7-41,40.4-69.8,117.3-68
		c42.9,1,84.1,14.4,84.2,45.5L517.9,234.1L517.9,234.1z"/>
	<path id="XMLID_174_" class="st0" d="M1121.2,234.1c-3-14.4-14.8-18.2-28-19.5c-42.7-4-50.2,28-50.2,41.5
		c0,23.1,6.7,42.2,48.6,42.2c7.7,0,29-8,29-20.9h60.2c-2.4,38.4-66.8,47.6-94.9,47.6c-58.2,0-108-10.9-105.6-68.3
		c1.7-41,40.4-69.8,117.3-68c42.9,1,84.1,14.4,84.3,45.5L1121.2,234.1L1121.2,234.1z"/>
	<polygon id="XMLID_173_" class="st0" points="589.4,191.4 667.6,191.4 734.3,285.1 734.8,285.1 734.8,191.4 784.9,191.4 
		784.9,321.6 710,321.6 640.1,227.8 639.5,227.8 639.5,321.6 589.4,321.6 	"/>
	<path id="XMLID_169_" class="st0" d="M800.4,191.4h95c45.6,0,72.5,12.8,72.5,32.1c0,11.4-11.2,25.5-36.3,29.6v0.4
		c30.2,1.8,41.3,20.9,41.3,32.4c0,22.9-26.2,35.7-77.2,35.7h-95.2L800.4,191.4L800.4,191.4L800.4,191.4z M855.4,242h15.7
		c24.2,0,37.1-1.9,37.1-12c0-10.8-10.7-14.4-32.5-14.4h-20.3V242L855.4,242L855.4,242z M855.4,294.3h15.7c29.2,0,39.9-3.1,39.9-13.2
		c0-10.8-13.5-14.4-35.4-14.4h-20.3L855.4,294.3L855.4,294.3z"/>
	<path id="XMLID_167_" class="st0" d="M1049.7-8.1L825.8,141.6l75.4-179.2l35.8-83.5c14.5-27,41.8-44.2,71.5-44.6
		c28.5,0,53.8,13.7,69.8,38.3c16.5,24.6,17.4,64.8,0.9,89.8C1071.9-26,1060.9-15.6,1049.7-8.1L1049.7-8.1z"/>
	<path id="XMLID_166_" class="st0" d="M938.2-149.5L827.5,112.2l-4.9-28.5l-33.3-214.5c-1.4-13.1,4-24.1,14.5-31.4l15.9-9.5
		c0.9-3.3-3.7-4.4-5.9-5.5l-31.1-0.3c-2-30.9,11.6-59,37.8-75.9c20.4-13.3,51.3-16.7,74-6c29.4,12,49.9,43.4,50.4,75.4
		C944.7-172.2,942.7-160,938.2-149.5L938.2-149.5z"/>
	<path id="XMLID_165_" class="st0" d="M725.6,113.2l-109-262.3c-11.7-28.1-6.8-65,13.3-87.7c21.4-23.8,51.6-33.9,82.8-25.9
		c26.4,6.5,51,31.7,57.5,58.7c3.1,10.1,2.6,22.2,2,33.3L725.6,113.2L725.6,113.2z"/>
	<path id="XMLID_164_" class="st0" d="M492.6-17.6c-22.4-19.4-32.4-45.3-29.1-75.2c3.2-30.3,27.1-59.9,55.7-69.1
		c29.3-9.1,61.2-1.9,82.5,20c8.9,8.5,14.5,18.6,19.1,29L726.1,142L492.6-17.6L492.6-17.6z"/>
	<path id="XMLID_163_" class="st0" d="M468.7,168.6c-29.1-3.3-51.6-19-65.3-45.7c-13.9-27-10.3-65.2,8.4-89.1
		c20.3-24.3,49.7-36.6,79.3-30.6c12.1,1.9,22.2,7.1,31.7,13.1l226.6,152.4L468.7,168.6L468.7,168.6z"/>
	<path id="XMLID_162_" class="st0" d="M1083.9,168.6c29.1-3.3,51.6-19,65.3-45.7c13.9-27,10.3-65.2-8.4-89.1
		c-20.3-24.3-49.7-36.6-79.3-30.6c-12.1,1.9-22.2,7.1-31.7,13.1L803.2,168.7L1083.9,168.6L1083.9,168.6z"/>
</g>
</svg>
