<?xml version="1.0" encoding="utf-8"?>
<!-- Generator: Adobe Illustrator 19.0.0, SVG Export Plug-In . SVG Version: 6.00 Build 0)  -->
<svg version="1.1" id="Layer_1" xmlns="http://www.w3.org/2000/svg" xmlns:xlink="http://www.w3.org/1999/xlink" x="0px" y="0px"
	 viewBox="606 -275 1262.2 600" style="enable-background:new 606 -275 1262.2 600;" xml:space="preserve">
<style type="text/css">
	.st0{fill:#ECEFF1;}
</style>
<g>
	<path class="st0" d="M1793.6-272.9v478.6c0,17.7-8.7,31.5-22.7,36c-3.3,1-6.5,1.4-9.6,1.4c-10.8,0-21.4-5.7-28.7-15.8
		c-2.3-3.7-196.4-315.4-245.8-397c-4.7-6.3-11.8-9.1-18.2-7c-6.7,2.2-10.7,9.3-10.7,19.1v363.3c0,17.8-8.5,31.6-22.3,36.1
		c-13.3,4.3-28-1.4-37.4-14.4c-2.3-3.7-197.6-315.4-247-397c-4.7-6.3-11.8-9.1-18.2-7c-6.7,2.2-10.7,9.3-10.7,19.1v360.9
		c0,22.1-17.3,39.4-39.4,39.4H908.7c-157.4,0-229.1-113.9-229.1-219.8c0-57.5,19.9-111.4,56.1-151.8c40.7-45.3,98.1-69.3,166-69.3
		h105.1v-74.8h-92.3c-414,0-410.5,590.4,5.8,590.4h162.4c70.3,0,115.3-40.3,115.3-117.6V50c0,0,91.1,152.2,126.9,211
		c61.1,100.3,208.8,80.7,207.6-45V50.1c0,0,92.3,152.2,128,211c60,100.3,207.6,80.7,207.6-45v-489H1793.6z"/>
	<path class="st0" d="M749.8-116.2C716.7-79.3,698.5-29.9,698.5,23c0,96.8,65.8,201,210.3,201h174.1c11.5,0,20.6-9,20.6-20.6v-361
		c0-18.1,9.1-32.2,23.8-37c14.1-4.6,30,1.1,39.4,14.2l0.4,0.6c49,80.9,244.7,393.4,246.7,396.6c4.3,5.9,10.6,8.8,16,7
		c5.8-1.9,9.3-8.7,9.3-18.2v-363.2c0-18.1,9.1-32.3,23.8-37c14.1-4.6,30,1.1,39.4,14.2l0.4,0.6c49,80.9,243.6,393.5,245.6,396.6
		c4.3,5.9,11,8.8,16.8,6.9c6.1-2,9.7-8.7,9.7-18.1v-478.5h-75.1v279c0,0-43.8-76.1-119.9-206.4c-74.9-128-215.6-75-215.6,34.6V6.1
		c0,0-43.8-76.1-120-206.4c-74.9-128-215.6-75-215.6,34.6v295.2c0,10.4-8.1,19.6-19.6,20.8h-92.2c-199.5,0-181-256-11.5-256
		c76.1,0,101.5,0,101.5,0v-73.6h-105C839.4-179.3,786.8-157.5,749.8-116.2z"/>
	<rect x="1006.8" y="-198.1" class="st0" width="2.2" height="18.8"/>
</g>
</svg>
