<?xml version="1.0" encoding="utf-8"?>
<!-- Generator: Adobe Illustrator 19.0.0, SVG Export Plug-In . SVG Version: 6.00 Build 0)  -->
<svg version="1.1" id="Layer_1" xmlns="http://www.w3.org/2000/svg" xmlns:xlink="http://www.w3.org/1999/xlink" x="0px" y="0px"
	 viewBox="0 0 32 32" style="enable-background:new 0 0 32 32;" xml:space="preserve">
<g id="XMLID_1_">
	<path id="XMLID_14_" style="fill:#B0BEC5;" d="M16,1c8.3,0,15,6.7,15,15s-6.7,15-15,15S1,24.3,1,16S7.7,1,16,1 M16,0
		C7.2,0,0,7.2,0,16s7.2,16,16,16s16-7.2,16-16S24.8,0,16,0L16,0z"/>
</g>
<g id="XMLID_15_">
	<path id="XMLID_17_" style="fill:#B0BEC5;" d="M24,11v10c0,0.8-0.3,1.5-0.9,2.1C22.5,23.7,21.8,24,21,24H11c-0.8,0-1.5-0.3-2.1-0.9
		C8.3,22.5,8,21.8,8,21V11c0-0.8,0.3-1.5,0.9-2.1C9.5,8.3,10.2,8,11,8h10c0.8,0,1.5,0.3,2.1,0.9C23.7,9.5,24,10.2,24,11z M13,11.9
		c0-0.4-0.1-0.7-0.4-0.9c-0.2-0.2-0.6-0.4-1-0.4s-0.7,0.1-1,0.4c-0.3,0.2-0.4,0.5-0.4,0.9c0,0.4,0.1,0.7,0.4,0.9
		c0.2,0.2,0.6,0.4,1,0.4h0c0.4,0,0.7-0.1,1-0.4C12.9,12.6,13,12.3,13,11.9z M10.5,21.4h2.4v-7.2h-2.4V21.4z M19.1,21.4h2.4v-4.1
		c0-1.1-0.3-1.9-0.8-2.4c-0.5-0.5-1.2-0.8-2-0.8c-0.9,0-1.7,0.4-2.2,1.2h0v-1.1h-2.4c0,0.5,0,2.9,0,7.2h2.4v-4c0-0.3,0-0.5,0.1-0.6
		c0.1-0.2,0.3-0.4,0.5-0.6c0.2-0.2,0.5-0.3,0.8-0.3c0.8,0,1.2,0.5,1.2,1.6V21.4z"/>
</g>
</svg>
