<?xml version="1.0" encoding="utf-8"?>
<!-- Generator: Adobe Illustrator 19.0.0, SVG Export Plug-In . SVG Version: 6.00 Build 0)  -->
<svg version="1.1" id="Layer_1" xmlns="http://www.w3.org/2000/svg" xmlns:xlink="http://www.w3.org/1999/xlink" x="0px" y="0px"
	 viewBox="0 0 418.3 76.6" style="enable-background:new 0 0 418.3 76.6;" xml:space="preserve">
<style type="text/css">
	.st0{fill:#FFFFFF;}
	.st1{fill:#FFAB00;}
	.st2{fill:#FF6D00;}
	.st3{fill:#FF9100;}
</style>
<g id="XMLID_546_">
	<g id="XMLID_566_">
		<path id="XMLID_580_" class="st0" d="M126.6,11.2l-24.4,26.3l26.5,27.7v0.6h-12.8l-23-24.3v24.3H82.5v-55h10.4v23.2l20.9-23.2
			h12.9V11.2z"/>
		<path id="XMLID_577_" class="st0" d="M180.8,55.5h-28.7l-4.7,10.4h-11.2l24.7-55h11.3l24.7,55h-11.3L180.8,55.5z M166.4,22.4
			l-10.2,23.4h20.4L166.4,22.4z"/>
		<path id="XMLID_575_" class="st0" d="M220.5,10.9v45.4h28.3v9.6h-38.6v-55H220.5z"/>
		<path id="XMLID_573_" class="st0" d="M264,65.9v-55h10.3v55H264z"/>
		<path id="XMLID_570_" class="st0" d="M340.2,37.9c0.2,13.9-8.2,28-27.5,28c-6.8,0-14.8,0-21.6,0v-55c6.8,0,14.8,0,21.6,0
			C331.6,10.9,340,24.3,340.2,37.9z M301.4,55.9h11.3c12.5,0,17.4-9.1,17.2-18.1c-0.2-8.6-5.3-17.1-17.2-17.1h-11.3V55.9z"/>
		<path id="XMLID_567_" class="st0" d="M409.7,38.7c-0.2,14.2-8.9,28.4-28.2,28.4c-19.3,0-28.3-13.9-28.3-28.4
			c0-14.5,9.3-29,28.3-29C400.5,9.8,409.9,24.3,409.7,38.7z M363.5,38.9c0.2,9,5.1,18.7,18.1,18.7c13,0,17.8-9.7,18-18.8
			c0.2-9.3-5-19.6-18-19.6C368.6,19.2,363.2,29.6,363.5,38.9z"/>
	</g>
	<g id="XMLID_547_">
		<path id="XMLID_553_" class="st0" d="M31.7,76.6l-23.9-24c0,0-16.3-19.8-1.6-39.8C7.8,10.9,18.4-3.2,38.5,0.7
			c2.9,0.8,18.2,4,23.9,22.8c1,7,2.9,14.6-5,26.9c-2,2.3-4.9,5.5-4.9,5.5L31.7,76.6z"/>
		<path id="XMLID_550_" class="st1" d="M15.1,21.1c5.2,4.7,15,10.6,28.6-1.9l3.5-3.5c1.4-1.4,3.8-1.5,5.3-0.2c1.5,1.3,1.6,3.6,0.2,5
			l-5.2,5.3c-4.3,5.1-11.2,12.8-1.9,18.8L57,50.2c0.1,0.1,0.3,0.1,0.4,0.2c9.1-12.4,8-29.9-3.2-41.1C41.8-3.1,21.7-3.1,9.3,9.3
			c-1.1,1.1-2.1,2.3-3.1,3.6C7.9,14.4,13.6,19.7,15.1,21.1z M19.2,8.7C21,3.8,26.5,1.3,31.4,3c4.9,1.8,7.5,7.2,5.7,12.2
			c-1.8,4.9-7.2,7.5-12.2,5.7C20,19.1,17.5,13.7,19.2,8.7z"/>
		<path id="XMLID_549_" class="st2" d="M30.2,56.7L29,73.8c0,0,0,0,0,0.1c1.7,1.7,2.7,2.7,2.7,2.7s15.4-15.4,20.7-20.7
			C46.4,52.4,31.1,43.4,30.2,56.7z"/>
		<path id="XMLID_548_" class="st3" d="M21.5,64.9c-0.3-21.3-4.4-30.1-12.3-39.2l-6.6-6.3c-4.9,11.5-2.6,25.4,6.8,34.8
			c0,0,6.3,6.3,12.2,12.2L21.5,64.9z"/>
	</g>
	<g id="XMLID_542_">
		<path id="XMLID_543_" class="st0" d="M412.2,14h-0.7v-3.6h-1.2V9.8h3.2v0.6h-1.2V14z M415.7,14l-1.2-3.3h0l0,0.8V14h-0.7V9.8h1.1
			L416,13l1.2-3.3h1.1V14h-0.7v-2.5l0-0.8h0l-1.2,3.3H415.7z"/>
	</g>
</g>
</svg>
