<?xml version="1.0" encoding="utf-8"?>
<!-- Generator: Adobe Illustrator 19.0.0, SVG Export Plug-In . SVG Version: 6.00 Build 0)  -->
<svg version="1.1" id="Layer_1" xmlns="http://www.w3.org/2000/svg" xmlns:xlink="http://www.w3.org/1999/xlink" x="0px" y="0px"
	 viewBox="-391 218.5 63.5 76.6" style="enable-background:new -391 218.5 63.5 76.6;" xml:space="preserve">
<style type="text/css">
	.st0{fill:#FFFFFF;}
	.st1{fill:#FFAB00;}
	.st2{fill:#FF6D00;}
	.st3{fill:#FF9100;}
</style>
<g id="XMLID_1567_">
	<path id="XMLID_1573_" class="st0" d="M-359.3,295.1l-23.9-24c0,0-16.3-19.8-1.6-39.8c1.5-1.9,12.2-16.1,32.2-12.1
		c2.9,0.8,18.2,4,23.9,22.8c1,7,2.9,14.6-5,26.9c-2,2.3-4.9,5.5-4.9,5.5L-359.3,295.1z"/>
	<path id="XMLID_1570_" class="st1" d="M-375.9,239.6c5.2,4.7,15,10.6,28.6-1.9l3.5-3.5c1.4-1.4,3.8-1.5,5.3-0.2
		c1.5,1.3,1.6,3.6,0.2,5l-5.2,5.3c-4.3,5.1-11.2,12.8-1.9,18.8l11.4,5.6c0.1,0.1,0.3,0.1,0.4,0.2c9.1-12.4,8-29.9-3.2-41.1
		c-12.4-12.4-32.5-12.4-44.9,0c-1.1,1.1-2.1,2.3-3.1,3.6C-383.1,232.9-377.4,238.2-375.9,239.6z M-371.8,227.2
		c1.8-4.9,7.2-7.5,12.2-5.7c4.9,1.8,7.5,7.2,5.7,12.2c-1.8,4.9-7.2,7.5-12.2,5.7C-371,237.6-373.5,232.2-371.8,227.2z"/>
	<path id="XMLID_1569_" class="st2" d="M-360.8,275.2l-1.2,17.1c0,0,0,0,0,0.1c1.7,1.7,2.7,2.7,2.7,2.7s15.4-15.4,20.7-20.7
		C-344.6,270.9-359.9,261.9-360.8,275.2z"/>
	<path id="XMLID_1568_" class="st3" d="M-369.5,283.4c-0.3-21.3-4.4-30.1-12.3-39.2l-6.6-6.3c-4.9,11.5-2.6,25.4,6.8,34.8
		c0,0,6.3,6.3,12.2,12.2L-369.5,283.4z"/>
</g>
</svg>
