<?xml version="1.0" encoding="utf-8"?>
<!-- Generator: Adobe Illustrator 19.0.0, SVG Export Plug-In . SVG Version: 6.00 Build 0)  -->
<svg version="1.1" id="Layer_1" xmlns="http://www.w3.org/2000/svg" xmlns:xlink="http://www.w3.org/1999/xlink" x="0px" y="0px"
	 viewBox="-90 262.4 418.3 76.6" style="enable-background:new -90 262.4 418.3 76.6;" xml:space="preserve">
<style type="text/css">
	.st0{fill:#263238;}
	.st1{fill:#FFFFFF;}
	.st2{fill:#FFAB00;}
	.st3{fill:#FF6D00;}
	.st4{fill:#FF9100;}
</style>
<g id="XMLID_546_">
	<g id="XMLID_566_">
		<path id="XMLID_580_" class="st0" d="M36.6,273.6l-24.4,26.3l26.5,27.7v0.6H25.9l-23-24.3v24.3H-7.5v-55H2.9v23.2l20.9-23.2h12.9
			v0.4H36.6z"/>
		<path id="XMLID_577_" class="st0" d="M90.8,317.9H62.1l-4.7,10.4H46.2l24.7-55h11.3l24.7,55H95.6L90.8,317.9z M76.4,284.8
			l-10.2,23.4h20.4L76.4,284.8z"/>
		<path id="XMLID_575_" class="st0" d="M130.5,273.3v45.4h28.3v9.6h-38.6v-55C120.2,273.3,130.5,273.3,130.5,273.3z"/>
		<path id="XMLID_573_" class="st0" d="M174,328.3v-55h10.3v55H174z"/>
		<path id="XMLID_570_" class="st0" d="M250.2,300.3c0.2,13.9-8.2,28-27.5,28c-6.8,0-14.8,0-21.6,0v-55c6.8,0,14.8,0,21.6,0
			C241.6,273.3,250,286.7,250.2,300.3z M211.4,318.3h11.3c12.5,0,17.4-9.1,17.2-18.1c-0.2-8.6-5.3-17.1-17.2-17.1h-11.3V318.3z"/>
		<path id="XMLID_567_" class="st0" d="M319.7,301.1c-0.2,14.2-8.9,28.4-28.2,28.4c-19.3,0-28.3-13.9-28.3-28.4s9.3-29,28.3-29
			C310.5,272.2,319.9,286.7,319.7,301.1z M273.5,301.3c0.2,9,5.1,18.7,18.1,18.7s17.8-9.7,18-18.8c0.2-9.3-5-19.6-18-19.6
			S273.2,292,273.5,301.3z"/>
	</g>
	<g id="XMLID_547_">
		<path id="XMLID_553_" class="st1" d="M-58.3,339l-23.9-24c0,0-16.3-19.8-1.6-39.8c1.6-1.9,12.2-16,32.3-12.1
			c2.9,0.8,18.2,4,23.9,22.8c1,7,2.9,14.6-5,26.9c-2,2.3-4.9,5.5-4.9,5.5L-58.3,339z"/>
		<path id="XMLID_550_" class="st2" d="M-74.9,283.5c5.2,4.7,15,10.6,28.6-1.9l3.5-3.5c1.4-1.4,3.8-1.5,5.3-0.2s1.6,3.6,0.2,5
			l-5.2,5.3c-4.3,5.1-11.2,12.8-1.9,18.8l11.4,5.6c0.1,0.1,0.3,0.1,0.4,0.2c9.1-12.4,8-29.9-3.2-41.1c-12.4-12.4-32.5-12.4-44.9,0
			c-1.1,1.1-2.1,2.3-3.1,3.6C-82.1,276.8-76.4,282.1-74.9,283.5z M-70.8,271.1c1.8-4.9,7.3-7.4,12.2-5.7c4.9,1.8,7.5,7.2,5.7,12.2
			c-1.8,4.9-7.2,7.5-12.2,5.7C-70,281.5-72.5,276.1-70.8,271.1z"/>
		<path id="XMLID_549_" class="st3" d="M-59.8,319.1l-1.2,17.1c0,0,0,0,0,0.1c1.7,1.7,2.7,2.7,2.7,2.7s15.4-15.4,20.7-20.7
			C-43.6,314.8-58.9,305.8-59.8,319.1z"/>
		<path id="XMLID_548_" class="st4" d="M-68.5,327.3c-0.3-21.3-4.4-30.1-12.3-39.2l-6.6-6.3c-4.9,11.5-2.6,25.4,6.8,34.8
			c0,0,6.3,6.3,12.2,12.2L-68.5,327.3z"/>
	</g>
</g>
</svg>
