<?xml version="1.0" encoding="utf-8"?>
<!-- Generator: Adobe Illustrator 19.0.0, SVG Export Plug-In . SVG Version: 6.00 Build 0)  -->
<svg version="1.1" id="Layer_1" xmlns="http://www.w3.org/2000/svg" xmlns:xlink="http://www.w3.org/1999/xlink" x="0px" y="0px"
	 viewBox="0 0 48 48" style="enable-background:new 0 0 48 48;" xml:space="preserve">
<style type="text/css">
	.st0{fill:#FFFFFF;}
</style>
<path class="st0" d="M6.9,15.4h34.3c1.6,0,2.9-1.3,2.9-2.9s-1.3-2.9-2.9-2.9H6.9C5.3,9.7,4,11,4,12.6S5.3,15.4,6.9,15.4z M41.1,21.1
	H6.9C5.3,21.1,4,22.4,4,24s1.3,2.9,2.9,2.9h34.3c1.6,0,2.9-1.3,2.9-2.9S42.7,21.1,41.1,21.1z M41.1,32.6H6.9c-1.6,0-2.9,1.3-2.9,2.9
	c0,1.6,1.3,2.9,2.9,2.9h34.3c1.6,0,2.9-1.3,2.9-2.9C44,33.9,42.7,32.6,41.1,32.6z"/>
</svg>
