<?xml version="1.0" encoding="utf-8"?>
<!-- Generator: Adobe Illustrator 19.0.0, SVG Export Plug-In . SVG Version: 6.00 Build 0)  -->
<svg version="1.1" id="Layer_1" xmlns="http://www.w3.org/2000/svg" xmlns:xlink="http://www.w3.org/1999/xlink" x="0px" y="0px"
	 viewBox="0 0 304 48" style="enable-background:new 0 0 304 48;" xml:space="preserve">
<style type="text/css">
	.st0{fill:#FFFFFF;}
	.st1{fill:#FFAB00;}
	.st2{fill:#FF9100;}
	.st3{fill:#FF6D00;}
</style>
<path id="XMLID_56_" class="st0" d="M32.2,6.5c1.1,0.5,2.3,1.1,3.5,1.7c0.9,2.7,1.8,5.3,2.8,8L29,23.8l9.6,6.8
	c-0.9,1.3-2,2.9-3.5,4.3c-0.4,0.3-0.7,0.6-1.1,0.9c-3.1-0.9-6.3-1.8-9.4-2.8l-4,13.5l-6.7-6.7c0.4-2.6,0.8-8.3-1.7-14.7
	c-2.5-6.6-6.7-10.6-8.8-12.3c0.4-1,0.9-2.2,1.7-3.5c0.8-1.2,1.6-2.3,2.3-3c2,5.3,7.3,8.8,12.9,8.6C25.5,14.8,30.2,11.5,32.2,6.5z"/>
<circle id="XMLID_55_" class="st0" cx="19.6" cy="7.4" r="6.7"/>
<polygon id="XMLID_54_" class="st0" points="92.1,5.2 75.4,23.2 93.4,42.1 93.4,42.6 84.7,42.6 69,25.9 69,42.6 61.9,42.6 61.9,5 
	69,5 69,20.9 83.3,5 92.1,5 "/>
<path id="XMLID_51_" class="st0" d="M119.2,12.9l-7,16h13.9L119.2,12.9z M129,35.5h-19.6l-3.2,7.1h-7.6L115.4,5h7.7l16.8,37.5h-7.7
	L129,35.5z"/>
<polygon id="XMLID_50_" class="st0" points="156.1,5 156.1,36 175.4,36 175.4,42.6 149,42.6 149,5 "/>
<rect id="XMLID_49_" x="185.8" y="5" class="st0" width="7" height="37.5"/>
<path id="XMLID_46_" class="st0" d="M211.4,35.8h7.7c8.5,0,11.9-6.2,11.8-12.4c-0.2-5.8-3.6-11.7-11.8-11.7h-7.7V35.8z M237.9,23.5
	c0.2,9.5-5.6,19.1-18.8,19.1h-14.7V5h14.7C232,5,237.7,14.2,237.9,23.5"/>
<path id="XMLID_43_" class="st0" d="M252.5,24.2c0.2,6.1,3.5,12.8,12.4,12.8s12.2-6.6,12.3-12.8c0.1-6.3-3.5-13.4-12.3-13.4
	C256,10.7,252.4,17.9,252.5,24.2 M284.1,24c-0.1,9.7-6,19.4-19.3,19.4c-13.2,0-19.3-9.5-19.3-19.4s6.3-19.8,19.3-19.8
	C277.8,4.3,284.2,14.2,284.1,24"/>
<path id="XMLID_40_" class="st1" d="M14.1,5.4c1.1-3.1,4.5-4.6,7.6-3.6s4.6,4.5,3.6,7.6s-4.5,4.6-7.6,3.6C14.6,11.9,13,8.5,14.1,5.4
	 M11.5,13.2c3.2,2.9,9.4,6.6,18-1.2l2.2-2.2c0.9-0.9,2.4-1,3.3-0.1c1,0.8,1,2.3,0.1,3.1l-3.3,3.3c-2.7,3.2-7,8-1.2,11.8l7.1,3.5
	c0.1,0.1,0.2,0.1,0.3,0.2c5.7-7.8,5-18.8-2-25.8c-7.8-7.8-20.3-7.8-28.1,0C7.2,6.5,6.5,7.3,5.9,8C7,9,10.6,12.4,11.5,13.2"/>
<path id="XMLID_39_" class="st2" d="M20.9,35.5l-0.8,10.7c0,0,0,0,0,0.1c1,1,1.7,1.7,1.7,1.7s9.7-9.7,12.9-12.9
	C31.1,32.8,21.5,27.2,20.9,35.5"/>
<path id="XMLID_38_" class="st3" d="M15.4,40.6c-0.2-13.3-2.8-18.8-7.7-24.5l-4.2-3.9C0.5,19.4,2,28,7.8,33.9
	c0.1,0.1,3.9,3.9,7.7,7.7L15.4,40.6z"/>
<path id="XMLID_36_" class="st0" d="M287.2,6.1h-2.5V4.7c2.3,0,4.3,0,6.6,0v1.4h-2.5v6.6h-1.5V6.1z"/>
<path id="XMLID_34_" class="st0" d="M299.1,6.9l-2.6,3.5h-0.3l-2.5-3.5v5.8h-1.5v-8h1.7l2.5,3.4l2.5-3.4h1.7v8h-1.5V6.9z"/>
</svg>
